<?xml version="1.0" encoding="UTF-8"?> <svg xmlns="http://www.w3.org/2000/svg" width="336" height="48" viewBox="0 0 336 48" fill="none"> <path d="M59.6355 0H51.6266V40.6132H59.6355V0Z" fill="black"></path> <path d="M42.4266 2.27258H34.4177V42.8849H42.4266V2.27258Z" fill="black"></path> <path d="M25.2178 4.80969H17.2089V45.4297H25.2178V4.80969Z" fill="black"></path> <path d="M8.00891 7.375H0L3.05176e-05 48H8.00894L8.00891 7.375Z" fill="black"></path> <path d="M271.164 21.655L258.269 7.31732H250.73V40.5139H258.601V19.3339L270.374 31.8823H271.829L283.4 19.3339V40.5139H291.271V7.31732H283.732L271.164 21.655Z" fill="black"></path> <path d="M328.771 7.31732L309.261 28.8939V7.31732H301.39V40.5139H308.601L328.111 18.9373V40.5139H335.982V7.31732H328.771Z" fill="black"></path> <path d="M208.334 19.4644C208.334 24.7498 211.224 28.9133 215.66 30.6589L207.341 40.5139H216.976L224.543 31.5487H232.732V40.5139H240.604V7.31732H220.564C213.093 7.31732 208.334 12.4286 208.334 19.4644ZM232.737 14.6288V24.4451H222.024C218.45 24.4451 216.532 22.4529 216.532 19.5321C216.532 16.6114 218.517 14.6191 222.024 14.6191L232.737 14.6288Z" fill="black"></path> <path d="M171.757 13.9566C171.275 25.3736 168.866 32.7431 164.15 32.7431H162.97V40.7122L164.227 40.7799C173.683 41.307 178.91 33.009 179.768 14.8851H192.205V40.5139H200.062V7.31732H172.022L171.757 13.9566Z" fill="black"></path> <path d="M142.127 6.85352C131.481 6.85352 123.822 14.223 123.822 23.9136C123.822 33.9379 132.155 41.0463 142.127 41.0463C152.513 41.0463 160.581 33.5414 160.581 23.9136C160.581 14.2859 152.513 6.85352 142.127 6.85352ZM142.127 33.0772C136.11 33.0772 132.011 29.1603 132.011 23.9136C132.011 18.5364 136.115 14.7259 142.127 14.7259C148.139 14.7259 152.378 18.7105 152.378 23.9136C152.378 29.1168 148.081 33.0772 142.127 33.0772Z" fill="black"></path> <path d="M115.474 7.37994H87.6935L87.4285 14.0193C87.0335 23.5842 84.5383 32.68 79.8223 32.8105L77.6401 32.8782V48.0172L85.5788 48.0013V40.5185H113.157V48.0013H121.163V32.8105H115.474V7.37994ZM107.603 32.8105H90.8053C93.6475 28.4972 95.1697 22.2544 95.4346 14.9525H107.603V32.8105Z" fill="black"></path> </svg> 