<?xml version="1.0" encoding="UTF-8"?> <svg xmlns="http://www.w3.org/2000/svg" width="280" height="400" viewBox="0 0 280 400" fill="none"> <path d="M23.9999 255.714C24.1926 255.302 24.3853 254.885 24.5728 254.469L13.9478 254.771C16.3228 257.37 18.5624 259.807 20.8645 262.297C21.0936 261.849 21.2968 261.427 21.5051 261.021L22.2655 259.495C22.328 259.375 22.4218 259.292 22.5415 259.245C22.6665 259.198 22.7915 259.198 22.9165 259.245L23.354 259.422C23.703 259.552 23.9999 259.682 24.2863 259.802C29.703 262.099 35.1197 264.406 40.552 266.719L47.8593 269.833C55.3697 273.026 62.8697 276.214 70.3593 279.396C71.5884 279.922 72.8332 280.443 74.0676 280.984L75.052 281.406C74.8593 281.698 74.6613 281.99 74.479 282.286L73.6665 281.932C72.427 281.406 71.1874 280.88 69.9582 280.359C62.4478 277.177 54.9478 273.99 47.4582 270.792L40.1457 267.677C34.7343 265.37 29.3124 263.068 23.8801 260.76C23.5936 260.635 23.3124 260.521 22.979 260.391L22.4322 261.479C22.1353 262.083 21.8176 262.719 21.4634 263.427C21.3801 263.583 21.2499 263.672 21.078 263.698C20.9009 263.724 20.7499 263.672 20.6249 263.547C17.8905 260.589 15.2811 257.74 12.4322 254.641C12.2863 254.479 12.2551 254.292 12.3384 254.094C12.427 253.891 12.578 253.781 12.7968 253.776L25.3645 253.417C25.5572 253.417 25.703 253.495 25.8124 253.651C25.9165 253.807 25.927 253.974 25.8488 254.146C25.5415 254.833 25.2395 255.49 24.9374 256.146C24.7343 256.594 24.5311 257.047 24.3176 257.51L26.578 258.479C28.6718 259.385 30.7655 260.281 32.8645 261.172L36.9322 262.901C40.9165 264.609 44.9009 266.313 48.8853 268.01L53.6926 270.057C56.5676 271.281 59.4426 272.5 62.3228 273.724C66.9686 275.698 71.6301 277.661 76.2915 279.62C76.0832 279.901 75.8853 280.188 75.6822 280.479C71.0936 278.542 66.4999 276.62 61.9165 274.672C59.0415 273.448 56.1665 272.224 53.2915 271L48.479 268.958C44.4999 267.25 40.5155 265.547 36.5259 263.854L32.4582 262.12C30.3645 261.229 28.2707 260.328 26.1718 259.427L23.4322 258.25C23.3072 258.193 23.2186 258.099 23.1718 257.964C23.1145 257.833 23.1145 257.698 23.1718 257.568C23.479 256.922 23.7395 256.323 23.9999 255.714Z" fill="url(#paint0_linear_358_7424)"></path> <path d="M51.0626 325.255C51.9011 317.484 50.2605 310.328 46.1928 303.99C41.3803 296.5 40.0469 288.432 42.2397 280.016C42.5001 278.969 42.8386 277.875 43.2553 276.698L43.323 276.51C43.6459 275.63 44.0053 274.641 45.2344 274.089C45.2501 274.078 45.2657 274.068 45.2865 274.063C45.4688 274.005 45.6042 273.891 45.6928 273.724C45.7761 273.552 45.7969 273.38 45.7449 273.198C45.6407 272.807 45.4063 272.531 45.0365 272.37C43.4011 271.521 41.724 270.766 40.0053 270.104C39.5053 269.984 39.0313 270.052 38.5886 270.318C38.5574 270.578 38.5469 270.839 38.5678 271.104C38.5678 271.302 38.5834 271.5 38.5678 271.672C38.5678 271.797 38.573 271.922 38.5938 272.047C38.6667 272.391 38.6355 272.724 38.5053 273.047C35.7344 278.38 35.0157 284.5 36.3074 291.76C36.3907 292.24 36.4949 292.714 36.5834 293.125C37.599 297.438 39.7605 301.245 41.5261 304.078C44.0834 308.161 47.1719 313.662 48.3022 319.979C49.349 325.891 48.3178 330.286 45.0365 333.672C46.5261 333.266 47.7449 332.318 49.1094 331.26L49.4688 330.979C53.0886 328.182 56.9949 325.219 61.3907 321.891C61.3542 322.349 61.323 322.797 61.2917 323.25C57.1876 326.354 53.5209 329.151 50.099 331.792L49.7397 332.073C47.8751 333.526 46.1094 334.896 43.5053 334.911C43.2657 334.906 43.1094 334.797 43.0261 334.573C42.9376 334.344 42.9897 334.156 43.1772 334.005C47.0886 330.734 48.3959 326.344 47.2969 320.167C46.198 313.99 43.1719 308.641 40.6615 304.625C38.849 301.724 36.6407 297.818 35.5834 293.365C35.4897 292.938 35.3803 292.438 35.2969 291.938C33.9688 284.453 34.7188 278.12 37.5938 272.578C37.6042 272.443 37.599 272.307 37.5782 272.172C37.5469 271.995 37.5365 271.813 37.5469 271.63C37.5469 271.495 37.5469 271.318 37.5469 271.146C37.5209 270.521 37.4949 269.875 37.9272 269.542C38.5105 269.125 39.5938 268.859 40.3647 269.156C42.1199 269.833 43.8282 270.599 45.4949 271.464C46.1563 271.766 46.5782 272.266 46.7501 272.974C46.8647 273.391 46.8282 273.797 46.6407 274.182C46.448 274.573 46.1563 274.849 45.7605 275.016L45.7084 275.042C44.849 275.417 44.6094 276.068 44.3126 276.88L44.2397 277.068C43.8334 278.208 43.5105 279.26 43.2501 280.286C41.1355 288.422 42.4219 296.214 47.0782 303.453C51.2657 310 52.9688 317.375 52.1042 325.391C52.0105 326.13 51.8594 326.859 51.6615 327.583L53.073 326.521C55.9063 324.396 58.7397 322.271 61.5626 320.151C61.5157 320.609 61.474 321.068 61.4376 321.531L51.1303 329.266C50.9428 329.406 50.7449 329.411 50.5469 329.286C50.3438 329.156 50.2657 328.974 50.323 328.74C50.4272 328.26 50.5417 327.818 50.6459 327.417C50.8334 326.703 50.974 325.984 51.0626 325.255Z" fill="url(#paint1_linear_358_7424)"></path> <path d="M87.5001 235.896C86.4063 236.885 85.2865 237.786 84.3074 238.542C80.6719 241.391 76.3282 243.391 71.3959 244.51C70.3178 244.745 69.2553 245.036 68.2084 245.38L68.1615 245.401C65.948 246.135 63.8594 247.135 61.9011 248.406C59.9792 249.656 58.2501 251.135 56.7188 252.839C53.6824 256.214 51.8803 259.078 50.8751 262.135C50.7501 262.635 50.7501 263.135 50.8751 263.635C51.0574 264.49 50.8438 265.292 50.3022 265.786C49.9428 266.109 49.5157 266.271 49.0313 266.26C48.7865 266.255 48.5522 266.219 48.3178 266.146C46.4428 265.557 44.5313 264.839 42.6251 264.052C42.0365 263.812 41.3594 262.922 41.4167 262.234C41.448 261.677 41.8542 261.208 42.2032 260.792C42.2917 260.698 42.3803 260.599 42.4636 260.5C42.6251 260.318 42.7969 260.156 42.9897 260.016C43.1407 259.911 43.2657 259.786 43.3699 259.635C45.0001 254.375 48.2188 249.943 53.4897 245.714C57.4167 242.552 62.0834 240.427 68.1355 239.047C74.724 237.531 79.6876 235.479 83.724 232.599C84.349 232.151 84.8959 231.724 85.3855 231.302C85.5261 231.635 85.6719 231.958 85.8178 232.281C85.3699 232.656 84.8803 233.036 84.323 233.432C80.1615 236.406 75.0886 238.51 68.3438 240.052C62.448 241.401 57.9271 243.453 54.1094 246.516C49.0157 250.625 45.9063 254.901 44.3334 259.943C44.1824 260.302 43.9428 260.594 43.6199 260.812C43.4896 260.911 43.3699 261.021 43.2605 261.141C43.1771 261.25 43.0782 261.359 42.9844 261.469C42.7396 261.734 42.4584 262.083 42.4324 262.307C42.5157 262.651 42.7032 262.917 43.0053 263.104C44.8959 263.891 46.7761 264.594 48.6147 265.177C48.9688 265.318 49.2969 265.271 49.599 265.036C49.9011 264.693 49.9896 264.302 49.8594 263.859C49.698 263.182 49.7032 262.505 49.8803 261.833C50.9272 258.62 52.8074 255.641 55.9428 252.167C59.2084 248.542 63.1615 245.969 67.7917 244.443C67.8074 244.443 67.823 244.432 67.8386 244.422C68.8855 244.078 70.0053 243.771 71.1563 243.51C75.9428 242.432 80.1459 240.495 83.6615 237.75C84.6928 236.943 85.8907 235.984 87.0365 234.932L87.073 235.01C87.2188 235.302 87.3594 235.599 87.5001 235.896Z" fill="url(#paint2_linear_358_7424)"></path> <path d="M138.261 245.432C138.229 245.495 138.188 245.557 138.146 245.625C136.745 247.953 135.031 250.026 133 251.839C131.651 253.047 130.516 253.802 129.333 254.297C128.406 254.703 127.432 254.911 126.417 254.922C125.88 254.922 125.354 254.854 124.833 254.708C123.99 254.474 122.766 253.865 122.12 252.927C121.953 252.703 121.849 252.448 121.802 252.172C121.886 252.219 121.974 252.255 122.068 252.286C122.198 252.323 122.333 252.344 122.469 252.344C122.62 252.344 122.771 252.318 122.912 252.271C122.927 252.292 122.943 252.318 122.964 252.339C123.422 253 124.396 253.526 125.104 253.719C126.422 254.042 127.698 253.917 128.932 253.349C130.005 252.901 131.052 252.203 132.313 251.078C134.011 249.552 135.485 247.839 136.729 245.938C137.203 245.781 137.672 245.625 138.136 245.474L138.261 245.432Z" fill="url(#paint3_linear_358_7424)"></path> <path d="M130.708 247.057C130.531 247.125 130.354 247.198 130.188 247.276C128.276 248.057 126.5 249.078 124.865 250.328C124.99 250.125 125.104 249.922 125.219 249.719C125.526 249.125 125.901 248.578 126.344 248.073C126.854 247.76 127.375 247.469 127.917 247.193C128.656 247.057 129.406 247.01 130.162 247.052C130.349 247.057 130.526 247.057 130.708 247.057Z" fill="url(#paint4_linear_358_7424)"></path> <path d="M135.422 276.432C131.844 281.26 124.588 284.01 118.995 284.974C116.109 285.469 113.135 285.682 110.26 285.896C107.489 286.094 104.625 286.302 101.854 286.766C97.2238 287.531 90.9321 289.458 87.2238 294.281C84.5779 297.719 83.5467 302.219 82.6404 306.182C79.7759 318.578 76.9113 330.984 74.0467 343.406C73.9842 343.667 73.8175 343.797 73.5467 343.802C73.5102 343.807 73.4686 343.807 73.4321 343.802C73.2967 343.766 73.1873 343.693 73.1144 343.573C73.0415 343.453 73.0154 343.323 73.0467 343.182L81.63 305.938C82.5623 301.875 83.6196 297.26 86.4009 293.646C89.4946 289.615 94.7811 286.885 101.677 285.74C104.5 285.271 107.38 285.063 110.177 284.859C113.021 284.651 115.963 284.438 118.823 283.948C124.13 283.036 130.969 280.484 134.427 276.036L131.474 268.51C131.87 268.609 132.26 268.682 132.672 268.74L135.489 275.927C135.557 276.109 135.536 276.276 135.422 276.432Z" fill="url(#paint5_linear_358_7424)"></path> <path d="M164.661 220.635C164.635 220.563 164.62 220.49 164.594 220.422C164.635 220.49 164.656 220.557 164.661 220.635Z" fill="url(#paint6_linear_358_7424)"></path> <path d="M164.662 220.646C164.636 220.573 164.62 220.5 164.594 220.432C162.729 213.88 159.599 207.995 155.203 202.786C148.339 194.75 140.583 192.677 130.766 190.062L128.516 189.448C123.563 188.109 119.818 187.792 116.359 188.401C111.849 189.203 109.172 191.859 106.948 194.609C101.88 200.875 99.7189 209.578 101.448 216.786C102.375 220.625 103.969 224.318 105.511 227.885C107.052 231.453 108.62 235.083 109.531 238.859C111.146 245.589 114.781 251.432 118.292 257.094C118.833 257.969 119.375 258.839 119.917 259.714C122.359 263.724 126.708 267.359 131.458 268.5C131.854 268.599 132.245 268.672 132.656 268.729C133.266 268.823 133.875 268.87 134.49 268.87C135.641 268.875 136.766 268.708 137.865 268.37C145.344 266.057 152.318 262.693 158.781 258.266C163.979 254.729 165.328 247.813 166.177 241.604C166.297 240.714 166.396 239.823 166.474 238.938C166.589 237.505 166.646 236.073 166.646 234.641C166.636 229.88 165.974 225.219 164.662 220.646ZM165.146 241.453C164.323 247.437 163.052 254.104 158.188 257.406C151.823 261.781 144.953 265.109 137.573 267.401C132.766 268.885 125.266 266.51 120.792 259.198C120.255 258.312 119.714 257.438 119.167 256.562C115.698 250.974 112.115 245.198 110.526 238.63C109.594 234.771 107.995 231.068 106.448 227.49C104.938 223.953 103.37 220.312 102.464 216.552C100.823 209.745 102.948 201.198 107.755 195.266C110.636 191.719 113.167 190.026 116.542 189.422C117.641 189.224 118.745 189.13 119.859 189.13C122.287 189.13 125 189.562 128.24 190.443L130.495 191.047C140.146 193.62 147.766 195.656 154.417 203.443C161.62 211.865 165.604 223.167 165.615 234.693C165.615 236.958 165.464 239.208 165.156 241.453H165.146Z" fill="url(#paint7_linear_358_7424)"></path> <path d="M138.245 242.891C135.943 241.797 133.854 240.859 131.594 240.437C130.307 240.198 128.708 239.911 127.214 240.437C126.823 240.562 126.458 240.755 126.13 241.01C126.016 241.115 125.906 241.224 125.813 241.349C125.75 241.427 125.682 241.495 125.609 241.562C125.203 241.839 124.755 241.979 124.266 241.995L123.797 242.026C123.089 242.068 122.354 242.109 121.688 242.495C120.87 242.964 120.339 243.88 120.146 245.13C119.995 246.12 119.823 247.245 120.021 248.375C120.396 250.474 120.99 251.74 121.807 252.177C121.891 252.224 121.979 252.26 122.073 252.292C122.203 252.328 122.339 252.349 122.474 252.349C122.625 252.349 122.776 252.323 122.917 252.276C123.318 252.13 123.656 251.901 123.943 251.589C124.297 251.208 124.604 250.786 124.87 250.339C124.995 250.13 125.109 249.927 125.224 249.724C125.531 249.13 125.906 248.583 126.349 248.078C126.521 247.896 126.719 247.734 126.932 247.594C127.24 247.406 127.568 247.271 127.917 247.198C128.661 247.062 129.406 247.016 130.161 247.057C130.344 247.057 130.526 247.057 130.708 247.057C130.844 247.057 130.969 247.057 131.109 247.057C133.063 247.016 134.927 246.521 136.734 245.943C137.208 245.786 137.677 245.63 138.141 245.479L138.26 245.443C138.594 245.312 139.245 245.026 139.328 244.359C139.385 243.948 139.255 243.37 138.245 242.891ZM137.813 244.495C137.792 244.5 137.771 244.505 137.75 244.516L137.688 244.536C135.552 245.25 133.339 245.979 131.089 246.026C130.927 246.026 130.776 246.026 130.62 246.026C130.458 246.026 130.323 246.026 130.177 246.026C128.865 246.005 127.536 245.995 126.385 246.719C125.396 247.349 124.854 248.292 124.333 249.208C124.026 249.807 123.646 250.359 123.198 250.87C122.995 251.078 122.714 251.312 122.469 251.312C122.438 251.312 122.401 251.307 122.37 251.302C121.984 251.177 121.411 250.286 121.042 248.193C120.87 247.224 121.021 246.234 121.167 245.276C121.271 244.63 121.526 243.771 122.214 243.375C122.672 243.115 123.25 243.083 123.87 243.052C124.031 243.052 124.198 243.031 124.359 243.016C125.068 243 125.703 242.781 126.271 242.365C126.401 242.255 126.516 242.135 126.62 242C126.677 241.932 126.734 241.865 126.802 241.802C127.042 241.625 127.302 241.495 127.589 241.411C128.823 240.969 130.266 241.234 131.427 241.453C133.568 241.849 135.594 242.76 137.828 243.823C138.26 244.026 138.349 244.187 138.349 244.214C138.349 244.24 138.292 244.333 137.813 244.495Z" fill="url(#paint8_linear_358_7424)"></path> <path d="M242.453 335.661C242.453 336.729 242.453 337.792 242.453 338.849C242.521 349.865 241.573 360.792 239.62 371.63C239.563 371.911 239.396 372.052 239.115 372.052C239.083 372.057 239.052 372.057 239.021 372.052C238.88 372.026 238.771 371.958 238.693 371.839C238.61 371.724 238.578 371.599 238.604 371.458C240.547 360.677 241.479 349.812 241.406 338.854C241.406 337.792 241.406 336.724 241.406 335.661C241.453 327.542 241.495 319.854 236.281 313.333C236.016 312.99 235.724 312.646 235.386 312.286C235.125 312 234.849 311.708 234.526 311.401C232.172 309.12 229.198 307.286 225.406 305.792C222.99 304.859 220.521 304.099 218 303.51L217.917 303.495C217.13 303.312 216.365 303.125 215.594 302.969C214.63 302.755 213.656 302.547 212.693 302.339C211.906 302.172 211.141 302 210.365 301.812C206.495 300.953 202.396 299.927 198.578 298.188C187.823 293.297 179.141 282.521 174.761 268.609C171.505 258.193 168.589 248.656 166.474 238.927C166.589 237.495 166.646 236.062 166.646 234.625C168.776 245.755 172.037 256.453 175.761 268.292C180.057 281.917 188.531 292.479 199.026 297.25C202.75 298.943 206.792 299.958 210.604 300.802C211.386 300.979 212.146 301.146 212.922 301.312L215.828 301.943C216.615 302.115 217.391 302.302 218.167 302.484L218.255 302.505C220.823 303.099 223.339 303.875 225.802 304.823C229.729 306.37 232.813 308.276 235.261 310.651C235.594 310.974 235.891 311.281 236.162 311.583C236.521 311.974 236.828 312.339 237.104 312.698C242.542 319.5 242.495 327.719 242.453 335.661Z" fill="url(#paint9_linear_358_7424)"></path> <path d="M108.161 351.703C108.068 351.703 107.979 351.682 107.901 351.635C107.776 351.563 107.698 351.458 107.661 351.318C107.625 351.182 107.641 351.052 107.714 350.927C110.099 346.776 111.906 342.38 113.13 337.745C114.354 333.109 114.953 328.391 114.922 323.599C114.922 323.458 114.974 323.333 115.073 323.234C115.172 323.13 115.292 323.078 115.432 323.073C115.578 323.073 115.703 323.125 115.802 323.229C115.906 323.333 115.958 323.453 115.958 323.599C115.984 328.484 115.38 333.286 114.13 338.01C112.885 342.734 111.042 347.214 108.609 351.443C108.505 351.615 108.359 351.698 108.161 351.703Z" fill="url(#paint10_linear_358_7424)"></path> <path d="M215.026 373.219C214.828 373.214 214.677 373.13 214.578 372.953C208.667 362.375 208.094 351.651 207.49 340.292C207.427 339.172 207.365 338.042 207.302 336.901C207.297 336.76 207.339 336.641 207.432 336.531C207.526 336.427 207.646 336.37 207.787 336.359C207.927 336.349 208.052 336.391 208.162 336.484C208.266 336.583 208.323 336.703 208.328 336.844C208.396 337.984 208.458 339.12 208.516 340.25C209.115 351.484 209.682 362.094 215.474 372.469C215.542 372.594 215.557 372.724 215.516 372.859C215.479 372.995 215.401 373.099 215.276 373.167C215.198 373.208 215.115 373.224 215.026 373.219Z" fill="url(#paint11_linear_358_7424)"></path> <path d="M266.698 358.63C263.74 371.635 256.708 383.578 250.5 394.115C250.401 394.286 250.255 394.375 250.057 394.38C249.963 394.38 249.875 394.354 249.797 394.313C249.672 394.24 249.594 394.13 249.557 393.995C249.521 393.859 249.536 393.729 249.609 393.604C255.781 383.125 262.771 371.26 265.693 358.411C268.875 344.443 266.38 330.76 259.016 321.807C257.5 320.031 255.901 318.344 254.208 316.74C251.021 313.599 247.724 310.375 245.963 306.177C243.604 300.521 244.417 294.255 245.213 288.188C245.344 287.208 245.474 286.224 245.583 285.25C246.76 275.276 243.49 260.922 221.245 249.188C218.312 247.641 215.13 246.24 212.047 244.891C205.937 242.203 199.615 239.427 194.698 235.271C192.542 233.5 190.719 231.432 189.229 229.073C189.141 228.958 189.068 228.839 188.995 228.714L188.932 228.62C185.448 222.813 184.703 215.969 183.99 209.339C183.578 205.536 183.156 201.604 182.219 197.911C178.599 183.677 166.5 172.104 152.125 169.115C137.75 166.125 122.057 171.891 113.062 183.484C112.979 183.594 112.87 183.656 112.74 183.682C104.458 185.099 93.427 188.714 87.8853 197.87C86.6197 199.99 85.5885 202.224 84.7916 204.568C83.9999 206.911 83.4635 209.313 83.177 211.766C82.8906 214.224 82.8697 216.682 83.1041 219.146C83.3437 221.609 83.8385 224.016 84.5833 226.375C85.4895 229.156 86.776 231.906 88.0208 234.563C88.052 234.63 88.0781 234.698 88.1145 234.766C88.1458 234.828 88.1405 234.823 88.1562 234.854C90.328 239.484 92.526 244.281 92.7499 249.479C93.1666 259.083 87.0572 267.099 81.1353 274.849C79.901 276.474 78.6197 278.146 77.4426 279.781C77.276 280.016 77.1093 280.25 76.9426 280.49C76.9114 280.526 76.8853 280.568 76.8593 280.609C76.4687 281.177 76.0728 281.745 75.6978 282.323C75.6874 282.344 75.6718 282.365 75.6562 282.38C67.3124 295.115 62.5572 310.755 62.177 326.781C61.7812 343.911 66.4218 360.828 75.2499 374.427C75.3645 374.542 75.4114 374.682 75.3958 374.849C75.3749 375.01 75.2968 375.141 75.1614 375.229C75.0208 375.318 74.8749 375.339 74.7187 375.292C74.5572 375.24 74.4478 375.141 74.3905 374.984C65.4478 361.219 60.7447 344.089 61.1458 326.755C61.1718 325.578 61.2239 324.401 61.2968 323.224C61.328 322.771 61.3593 322.323 61.3958 321.865C61.3958 321.75 61.4166 321.63 61.427 321.516C61.4635 321.052 61.5051 320.589 61.552 320.13C62.8958 306.458 67.3801 293.318 74.5051 282.286C74.6822 281.99 74.8801 281.698 75.0728 281.406C75.2655 281.115 75.4895 280.786 75.6978 280.479C75.9062 280.172 76.0937 279.901 76.3072 279.62C76.401 279.474 76.5051 279.328 76.6041 279.188C77.7916 277.531 79.0728 275.849 80.3176 274.224C86.1249 266.63 92.1249 258.755 91.7291 249.526C91.5155 244.745 89.6145 240.422 87.5051 235.901C87.3645 235.609 87.2239 235.313 87.0885 235.005L87.052 234.927C86.6406 234.057 86.2291 233.177 85.828 232.286C85.6822 231.964 85.5364 231.635 85.3958 231.307C84.7239 229.802 84.1249 228.266 83.6093 226.698C82.8385 224.271 82.3333 221.792 82.0885 219.255C81.8437 216.719 81.8697 214.188 82.1614 211.656C82.4531 209.13 83.0103 206.656 83.828 204.245C84.6458 201.833 85.7083 199.531 87.0155 197.349C92.7135 187.932 103.911 184.182 112.38 182.703C121.635 170.917 137.677 165.047 152.359 168.104C167.115 171.177 179.521 183.052 183.234 197.651C184.187 201.417 184.62 205.385 185.036 209.229C185.766 216.042 186.463 222.484 189.828 228.089L189.891 228.188C189.958 228.292 190.021 228.396 190.094 228.495C191.536 230.776 193.297 232.776 195.38 234.484C200.182 238.547 206.437 241.297 212.484 243.953C215.573 245.313 218.771 246.714 221.74 248.281C244.505 260.286 247.833 275.083 246.625 285.375C246.51 286.354 246.38 287.339 246.25 288.328C245.463 294.255 244.677 300.375 246.932 305.786C248.609 309.792 251.687 312.813 254.943 316C256.656 317.625 258.281 319.333 259.812 321.13C267.38 330.339 269.958 344.354 266.698 358.63Z" fill="url(#paint12_linear_358_7424)"></path> <path d="M140.864 362.396C133.693 362.396 126.505 359.609 121.531 354.312C121.401 354.219 121.328 354.089 121.318 353.922C121.307 353.76 121.364 353.62 121.484 353.51C121.604 353.396 121.745 353.354 121.906 353.37C122.068 353.391 122.193 353.469 122.281 353.609C126.13 357.703 131.547 360.37 137.547 361.12C143.542 361.87 149.453 360.62 154.187 357.594C154.458 357.49 154.667 357.557 154.823 357.802C154.979 358.042 154.948 358.266 154.739 358.464C152.661 359.766 150.443 360.75 148.083 361.422C145.724 362.089 143.318 362.417 140.864 362.396Z" fill="url(#paint13_linear_358_7424)"></path> <path d="M181.089 364.281C176.172 364.307 171.542 363.182 167.193 360.891C166.964 360.714 166.917 360.495 167.057 360.234C167.193 359.979 167.401 359.896 167.677 359.984C177.354 365.172 190.167 364.104 198.849 357.38C199.109 357.245 199.328 357.297 199.505 357.526C199.682 357.755 199.672 357.979 199.479 358.193C194.287 362.208 187.677 364.281 181.089 364.281Z" fill="url(#paint14_linear_358_7424)"></path> <path d="M238.865 40.9583C212.458 14.5417 177.339 0 139.995 0C102.651 0 67.5313 14.5417 41.1251 40.9583C14.7188 67.375 0.166748 102.479 0.166748 139.823V399.042C0.166748 399.307 0.260497 399.531 0.447998 399.719C0.635497 399.906 0.859456 400 1.11987 400H278.865C279.13 400 279.354 399.906 279.542 399.719C279.729 399.531 279.823 399.307 279.823 399.042V139.823C279.818 102.479 265.271 67.3646 238.865 40.9583ZM277.891 398.089H2.07821V139.823C2.07821 102.99 16.4272 68.3646 42.4792 42.3125C68.5261 16.2552 103.156 1.91146 139.995 1.91146C176.833 1.91146 211.458 16.2604 237.51 42.3125C263.563 68.3646 277.901 102.99 277.901 139.823L277.891 398.089Z" fill="url(#paint15_linear_358_7424)"></path> <path d="M47.3125 95.2188C50.5677 96.2344 51.9844 99.1198 52.6562 102.661C53.3646 99.0573 54.7135 96.9948 57.9688 95.625C56.6302 95.1979 54.5 92.9323 54.0781 92.2448C53.0625 90.5885 52.9635 88.9583 52.7188 87.1094C51.901 90.526 50.901 93.651 47.3125 95.2188Z" fill="url(#paint16_linear_358_7424)"></path> <path d="M187.188 167.615C190.438 168.63 191.854 171.516 192.526 175.057C193.234 171.453 194.583 169.391 197.844 168.021C196.5 167.594 194.37 165.328 193.948 164.641C192.932 162.984 192.833 161.354 192.594 159.505C191.771 162.922 190.771 166.047 187.188 167.615Z" fill="url(#paint17_linear_358_7424)"></path> <path d="M260.391 243.219C263.641 244.234 265.063 247.115 265.734 250.656C266.438 247.057 267.792 244.995 271.047 243.625C269.708 243.198 267.578 240.932 267.156 240.245C266.135 238.583 266.036 236.958 265.797 235.109C264.984 238.521 263.974 241.646 260.391 243.219Z" fill="url(#paint18_linear_358_7424)"></path> <path d="M260.219 306.547C263.469 307.563 264.885 310.443 265.562 313.984C266.266 310.385 267.615 308.323 270.875 306.948C269.536 306.526 267.406 304.26 266.984 303.568C265.969 301.911 265.87 300.281 265.625 298.432C264.802 301.849 263.807 304.974 260.219 306.547Z" fill="url(#paint19_linear_358_7424)"></path> <path d="M229.083 130.359C232.328 131.37 233.75 134.255 234.422 137.797C235.125 134.193 236.474 132.13 239.735 130.76C238.396 130.339 236.266 128.068 235.844 127.38C234.823 125.719 234.724 124.094 234.485 122.245C233.662 125.661 232.667 128.786 229.083 130.359Z" fill="url(#paint20_linear_358_7424)"></path> <path d="M36.1875 193.74C39.4375 194.75 40.8542 197.63 41.526 201.177C42.2344 197.573 43.5833 195.51 46.8438 194.141C45.5 193.719 43.3698 191.448 42.9531 190.76C41.9323 189.099 41.8333 187.474 41.5938 185.625C40.7656 189.042 39.7708 192.167 36.1875 193.74Z" fill="url(#paint21_linear_358_7424)"></path> <path d="M61.9062 118.396C64.0677 119.068 65.0104 120.99 65.4635 123.344C65.9323 120.948 66.8281 119.573 69 118.661C68.1042 118.38 66.6875 116.875 66.4062 116.411C65.7292 115.307 65.6615 114.224 65.5052 113.005C64.9583 115.25 64.2917 117.349 61.9062 118.396Z" fill="url(#paint22_linear_358_7424)"></path> <path d="M32.5312 242.198C34.6979 242.875 35.6406 244.792 36.0885 247.151C36.5573 244.755 37.4583 243.38 39.625 242.469C38.7344 242.182 37.3177 240.677 37.0365 240.219C36.3594 239.115 36.2917 238.031 36.1302 236.797C35.5833 239.073 34.9219 241.151 32.5312 242.198Z" fill="url(#paint23_linear_358_7424)"></path> <path d="M102.234 53.4063C104.401 54.0834 105.344 56 105.792 58.3594C106.26 55.9584 107.161 54.5886 109.328 53.6719C108.437 53.3907 107.021 51.8855 106.74 51.4271C106.063 50.3177 105.995 49.2344 105.833 48.0052C105.286 50.2917 104.625 52.3594 102.234 53.4063Z" fill="url(#paint24_linear_358_7424)"></path> <path d="M102.104 383.271C104.265 383.948 105.213 385.865 105.661 388.224C106.13 385.828 107.026 384.453 109.198 383.542C108.307 383.26 106.89 381.75 106.604 381.292C105.932 380.188 105.864 379.104 105.703 377.885C105.156 380.146 104.489 382.229 102.104 383.271Z" fill="url(#paint25_linear_358_7424)"></path> <path d="M188.693 98.177C190.86 98.8489 191.802 100.771 192.25 103.13C192.719 100.729 193.62 99.3593 195.787 98.4479C194.896 98.1614 193.474 96.6562 193.198 96.1979C192.516 95.0885 192.453 94.0052 192.292 92.776C191.745 95.052 191.078 97.1302 188.693 98.177Z" fill="url(#paint26_linear_358_7424)"></path> <path d="M179.646 30.9583C181.807 31.6354 182.755 33.552 183.203 35.9114C183.672 33.5156 184.568 32.1406 186.74 31.2291C185.849 30.9427 184.427 29.4375 184.151 28.9791C183.469 27.875 183.406 26.7916 183.245 25.5573C182.693 27.8333 182.031 29.9114 179.646 30.9583Z" fill="url(#paint27_linear_358_7424)"></path> <path d="M98.9793 116.281C98.9793 116.625 98.8595 116.917 98.6147 117.161C98.37 117.401 98.0783 117.526 97.7345 117.526C97.3908 117.526 97.0991 117.401 96.8543 117.161C96.6095 116.917 96.4897 116.625 96.4897 116.281C96.4897 115.938 96.6095 115.646 96.8543 115.401C97.0991 115.156 97.3908 115.036 97.7345 115.036C98.0783 115.036 98.37 115.156 98.6147 115.401C98.8595 115.646 98.9793 115.938 98.9793 116.281Z" fill="url(#paint28_linear_358_7424)"></path> <path d="M16.3646 111.63C16.3646 111.974 16.2448 112.266 16 112.51C15.7552 112.755 15.4635 112.875 15.1198 112.875C14.776 112.875 14.4844 112.755 14.2396 112.51C14 112.266 13.875 111.974 13.875 111.63C13.875 111.286 14 110.995 14.2396 110.75C14.4844 110.51 14.776 110.385 15.1198 110.385C15.4635 110.385 15.7552 110.51 16 110.75C16.2448 110.995 16.3646 111.286 16.3646 111.63Z" fill="url(#paint29_linear_358_7424)"></path> <path d="M110.583 109.755C110.583 110.099 110.458 110.391 110.219 110.635C109.974 110.875 109.682 110.995 109.339 110.995C108.995 110.995 108.703 110.875 108.458 110.635C108.214 110.391 108.094 110.099 108.094 109.755C108.094 109.411 108.214 109.115 108.458 108.875C108.703 108.63 108.995 108.51 109.339 108.51C109.682 108.51 109.974 108.63 110.219 108.875C110.458 109.115 110.583 109.411 110.583 109.755Z" fill="url(#paint30_linear_358_7424)"></path> <path d="M15.875 148.214C15.875 148.557 15.7552 148.849 15.5104 149.094C15.2708 149.333 14.974 149.458 14.6354 149.458C14.2917 149.458 13.9948 149.333 13.7552 149.094C13.5104 148.849 13.3906 148.557 13.3906 148.214C13.3906 147.87 13.5104 147.578 13.7552 147.333C13.9948 147.089 14.2917 146.969 14.6354 146.969C14.974 146.969 15.2708 147.089 15.5104 147.333C15.7552 147.578 15.875 147.87 15.875 148.214Z" fill="url(#paint31_linear_358_7424)"></path> <path d="M14.8855 254.807C14.8855 255.151 14.7657 255.448 14.5209 255.687C14.2813 255.932 13.9845 256.052 13.6407 256.052C13.297 256.052 13.0053 255.932 12.7657 255.687C12.5209 255.448 12.4011 255.151 12.4011 254.807C12.4011 254.469 12.5209 254.172 12.7657 253.932C13.0053 253.687 13.297 253.568 13.6407 253.568C13.9845 253.568 14.2813 253.687 14.5209 253.932C14.7657 254.172 14.8855 254.469 14.8855 254.807Z" fill="url(#paint32_linear_358_7424)"></path> <path d="M24.7501 187.797C24.7501 188.141 24.6251 188.437 24.3855 188.677C24.1407 188.922 23.849 189.042 23.5053 189.042C23.1615 189.042 22.8699 188.922 22.6251 188.677C22.3803 188.437 22.2605 188.141 22.2605 187.797C22.2605 187.453 22.3803 187.161 22.6251 186.922C22.8699 186.677 23.1615 186.557 23.5053 186.557C23.849 186.557 24.1407 186.677 24.3855 186.922C24.6251 187.161 24.7501 187.453 24.7501 187.797Z" fill="url(#paint33_linear_358_7424)"></path> <path d="M21.5416 301.38C21.5416 301.724 21.4166 302.021 21.177 302.26C20.9322 302.505 20.6405 302.625 20.2968 302.625C19.953 302.625 19.6614 302.505 19.4166 302.26C19.1718 302.021 19.052 301.724 19.052 301.38C19.052 301.036 19.1718 300.745 19.4166 300.5C19.6614 300.26 19.953 300.135 20.2968 300.135C20.6405 300.135 20.9322 300.26 21.177 300.5C21.4166 300.745 21.5416 301.036 21.5416 301.38Z" fill="url(#paint34_linear_358_7424)"></path> <path d="M13.5208 313.214C13.5208 313.557 13.3958 313.854 13.1562 314.094C12.9115 314.339 12.6198 314.458 12.276 314.458C11.9323 314.458 11.6406 314.339 11.3958 314.094C11.151 313.854 11.0312 313.557 11.0312 313.214C11.0312 312.87 11.151 312.578 11.3958 312.339C11.6406 312.094 11.9323 311.974 12.276 311.974C12.6198 311.974 12.9115 312.094 13.1562 312.339C13.3958 312.578 13.5208 312.87 13.5208 313.214Z" fill="url(#paint35_linear_358_7424)"></path> <path d="M34.7083 361.365C34.7083 361.703 34.5885 362 34.3438 362.24C34.099 362.484 33.8073 362.604 33.4635 362.604C33.1198 362.604 32.8281 362.484 32.5833 362.24C32.3385 362 32.2188 361.703 32.2188 361.365C32.2188 361.021 32.3385 360.724 32.5833 360.484C32.8281 360.24 33.1198 360.12 33.4635 360.12C33.8073 360.12 34.099 360.24 34.3438 360.484C34.5885 360.724 34.7083 361.021 34.7083 361.365Z" fill="url(#paint36_linear_358_7424)"></path> <path d="M217.193 128.292C217.193 128.635 217.073 128.927 216.828 129.172C216.589 129.411 216.292 129.536 215.948 129.536C215.61 129.536 215.313 129.411 215.073 129.172C214.828 128.927 214.708 128.635 214.708 128.292C214.708 127.948 214.828 127.651 215.073 127.411C215.313 127.167 215.61 127.047 215.948 127.047C216.292 127.047 216.589 127.167 216.828 127.411C217.073 127.651 217.193 127.948 217.193 128.292Z" fill="url(#paint37_linear_358_7424)"></path> <path d="M28.7708 374.667C28.7708 375.01 28.6458 375.307 28.4062 375.547C28.1615 375.792 27.8698 375.911 27.526 375.911C27.1823 375.911 26.8906 375.792 26.6458 375.547C26.401 375.307 26.2812 375.01 26.2812 374.667C26.2812 374.323 26.401 374.031 26.6458 373.786C26.8906 373.547 27.1823 373.422 27.526 373.422C27.8698 373.422 28.1615 373.547 28.4062 373.786C28.6458 374.031 28.7708 374.323 28.7708 374.667Z" fill="url(#paint38_linear_358_7424)"></path> <path d="M63.4998 377.484C63.4998 377.828 63.38 378.12 63.1353 378.365C62.8905 378.609 62.5988 378.729 62.255 378.729C61.9113 378.729 61.6196 378.609 61.3748 378.365C61.13 378.12 61.0103 377.828 61.0103 377.484C61.0103 377.141 61.13 376.849 61.3748 376.604C61.6196 376.359 61.9113 376.24 62.255 376.24C62.5988 376.24 62.8905 376.359 63.1353 376.604C63.38 376.849 63.4998 377.141 63.4998 377.484Z" fill="url(#paint39_linear_358_7424)"></path> <path d="M262.479 96.9479C262.479 97.2917 262.36 97.5833 262.115 97.8281C261.875 98.0677 261.578 98.1927 261.235 98.1927C260.891 98.1927 260.599 98.0677 260.354 97.8281C260.115 97.5833 259.99 97.2917 259.99 96.9479C259.99 96.6042 260.115 96.3125 260.354 96.0677C260.599 95.8229 260.891 95.7031 261.235 95.7031C261.578 95.7031 261.875 95.8229 262.115 96.0677C262.36 96.3125 262.479 96.6042 262.479 96.9479Z" fill="url(#paint40_linear_358_7424)"></path> <path d="M193.203 392.339C193.203 392.682 193.078 392.974 192.838 393.219C192.594 393.464 192.302 393.583 191.958 393.583C191.614 393.583 191.323 393.464 191.078 393.219C190.833 392.974 190.713 392.682 190.713 392.339C190.713 391.995 190.833 391.703 191.078 391.458C191.323 391.214 191.614 391.094 191.958 391.094C192.302 391.094 192.594 391.214 192.838 391.458C193.078 391.703 193.203 391.995 193.203 392.339Z" fill="url(#paint41_linear_358_7424)"></path> <path d="M219.781 395.964C219.781 396.307 219.656 396.599 219.417 396.844C219.172 397.089 218.88 397.208 218.536 397.208C218.193 397.208 217.901 397.089 217.656 396.844C217.411 396.599 217.292 396.307 217.292 395.964C217.292 395.62 217.411 395.328 217.656 395.083C217.901 394.839 218.193 394.719 218.536 394.719C218.88 394.719 219.172 394.839 219.417 395.083C219.656 395.328 219.781 395.62 219.781 395.964Z" fill="url(#paint42_linear_358_7424)"></path> <path d="M208.641 383.12C208.641 383.464 208.521 383.755 208.276 384C208.036 384.245 207.74 384.365 207.396 384.365C207.057 384.365 206.76 384.245 206.521 384C206.276 383.755 206.156 383.464 206.156 383.12C206.156 382.776 206.276 382.484 206.521 382.24C206.76 382 207.057 381.875 207.396 381.875C207.74 381.875 208.036 382 208.276 382.24C208.521 382.484 208.641 382.776 208.641 383.12Z" fill="url(#paint43_linear_358_7424)"></path> <path d="M273.589 257.344C273.589 257.687 273.464 257.979 273.224 258.224C272.979 258.464 272.688 258.589 272.344 258.589C272 258.589 271.703 258.464 271.464 258.224C271.219 257.979 271.099 257.687 271.099 257.344C271.099 257 271.219 256.708 271.464 256.464C271.703 256.219 272 256.099 272.344 256.099C272.688 256.099 272.979 256.219 273.224 256.464C273.464 256.708 273.589 257 273.589 257.344Z" fill="url(#paint44_linear_358_7424)"></path> <path d="M12.6511 390.859C12.6511 391.203 12.5313 391.5 12.2865 391.74C12.047 391.984 11.7501 392.104 11.4063 392.104C11.0626 392.104 10.7709 391.984 10.5313 391.74C10.2865 391.5 10.1667 391.203 10.1667 390.859C10.1667 390.516 10.2865 390.224 10.5313 389.979C10.7709 389.74 11.0626 389.615 11.4063 389.615C11.7501 389.615 12.047 389.74 12.2865 389.979C12.5313 390.224 12.6511 390.516 12.6511 390.859Z" fill="url(#paint45_linear_358_7424)"></path> <path d="M249.333 244.708C249.333 245.052 249.214 245.349 248.969 245.589C248.729 245.833 248.432 245.953 248.089 245.953C247.745 245.953 247.453 245.833 247.208 245.589C246.969 245.349 246.844 245.052 246.844 244.708C246.844 244.365 246.969 244.073 247.208 243.828C247.453 243.589 247.745 243.464 248.089 243.464C248.432 243.464 248.729 243.589 248.969 243.828C249.214 244.073 249.333 244.365 249.333 244.708Z" fill="url(#paint46_linear_358_7424)"></path> <path d="M275.339 220.042C275.339 220.385 275.214 220.682 274.974 220.922C274.729 221.167 274.438 221.286 274.094 221.286C273.75 221.286 273.453 221.167 273.214 220.922C272.969 220.682 272.849 220.385 272.849 220.042C272.849 219.698 272.969 219.406 273.214 219.161C273.453 218.922 273.75 218.797 274.094 218.797C274.438 218.797 274.729 218.922 274.974 219.161C275.214 219.406 275.339 219.698 275.339 220.042Z" fill="url(#paint47_linear_358_7424)"></path> <path d="M272.073 389.911C272.073 390.255 271.953 390.552 271.708 390.792C271.469 391.036 271.177 391.156 270.833 391.156C270.489 391.156 270.193 391.036 269.953 390.792C269.708 390.552 269.588 390.255 269.588 389.911C269.588 389.568 269.708 389.276 269.953 389.031C270.193 388.792 270.489 388.667 270.833 388.667C271.177 388.667 271.469 388.792 271.708 389.031C271.953 389.276 272.073 389.568 272.073 389.911Z" fill="url(#paint48_linear_358_7424)"></path> <path d="M12.547 225.781C12.547 226.125 12.422 226.417 12.1824 226.661C11.9376 226.906 11.6459 227.026 11.3022 227.026C10.9584 227.026 10.6667 226.906 10.422 226.661C10.1772 226.417 10.0574 226.125 10.0574 225.781C10.0574 225.437 10.1772 225.146 10.422 224.901C10.6667 224.661 10.9584 224.536 11.3022 224.536C11.6459 224.536 11.9376 224.661 12.1824 224.901C12.422 225.146 12.547 225.437 12.547 225.781Z" fill="url(#paint49_linear_358_7424)"></path> <path d="M62.9115 201.802C62.9115 202.141 62.7865 202.437 62.5469 202.677C62.3021 202.922 62.0104 203.042 61.6667 203.042C61.3229 203.042 61.0312 202.922 60.7865 202.677C60.5417 202.437 60.4219 202.141 60.4219 201.802C60.4219 201.458 60.5417 201.161 60.7865 200.922C61.0312 200.677 61.3229 200.557 61.6667 200.557C62.0104 200.557 62.3021 200.677 62.5469 200.922C62.7865 201.161 62.9115 201.458 62.9115 201.802Z" fill="url(#paint50_linear_358_7424)"></path> <path d="M90.3436 389.677C90.3436 390.021 90.2238 390.313 89.979 390.557C89.7394 390.802 89.4425 390.922 89.0988 390.922C88.755 390.922 88.4634 390.802 88.2186 390.557C87.979 390.313 87.854 390.021 87.854 389.677C87.854 389.333 87.979 389.042 88.2186 388.797C88.4634 388.552 88.755 388.432 89.0988 388.432C89.4425 388.432 89.7394 388.552 89.979 388.797C90.2238 389.042 90.3436 389.333 90.3436 389.677Z" fill="url(#paint51_linear_358_7424)"></path> <path d="M276.344 319.578C276.344 319.922 276.224 320.214 275.979 320.458C275.739 320.703 275.443 320.823 275.099 320.823C274.755 320.823 274.463 320.703 274.219 320.458C273.979 320.214 273.854 319.922 273.854 319.578C273.854 319.234 273.979 318.943 274.219 318.698C274.463 318.453 274.755 318.333 275.099 318.333C275.443 318.333 275.739 318.453 275.979 318.698C276.224 318.943 276.344 319.234 276.344 319.578Z" fill="url(#paint52_linear_358_7424)"></path> <path d="M48.0103 367.625C48.0103 367.969 47.8905 368.266 47.6458 368.505C47.4062 368.75 47.1093 368.87 46.7655 368.87C46.4218 368.87 46.1301 368.75 45.8853 368.505C45.6458 368.266 45.5208 367.969 45.5208 367.625C45.5208 367.286 45.6458 366.99 45.8853 366.75C46.1301 366.505 46.4218 366.385 46.7655 366.385C47.1093 366.385 47.4062 366.505 47.6458 366.75C47.8905 366.99 48.0103 367.286 48.0103 367.625Z" fill="url(#paint53_linear_358_7424)"></path> <path d="M11.6353 348.26C11.6353 348.604 11.5155 348.901 11.2708 349.141C11.0312 349.385 10.7343 349.505 10.3905 349.505C10.0468 349.505 9.75513 349.385 9.51033 349.141C9.27075 348.901 9.14575 348.604 9.14575 348.26C9.14575 347.917 9.27075 347.625 9.51033 347.385C9.75513 347.141 10.0468 347.021 10.3905 347.021C10.7343 347.021 11.0312 347.141 11.2708 347.385C11.5155 347.625 11.6353 347.917 11.6353 348.26Z" fill="url(#paint54_linear_358_7424)"></path> <path d="M59.745 358.714C59.745 359.057 59.6252 359.349 59.3804 359.589C59.1408 359.833 58.8439 359.953 58.5002 359.953C58.1564 359.953 57.8647 359.833 57.62 359.589C57.3804 359.349 57.2554 359.057 57.2554 358.714C57.2554 358.37 57.3804 358.073 57.62 357.833C57.8647 357.589 58.1564 357.469 58.5002 357.469C58.8439 357.469 59.1408 357.589 59.3804 357.833C59.6252 358.073 59.745 358.37 59.745 358.714Z" fill="url(#paint55_linear_358_7424)"></path> <path d="M68.8075 220.823C68.8075 221.167 68.6825 221.458 68.4429 221.703C68.1981 221.948 67.9064 222.068 67.5627 222.068C67.2189 222.068 66.9272 221.948 66.6825 221.703C66.4377 221.458 66.3179 221.167 66.3179 220.823C66.3179 220.479 66.4377 220.187 66.6825 219.943C66.9272 219.703 67.2189 219.578 67.5627 219.578C67.9064 219.578 68.1981 219.703 68.4429 219.943C68.6825 220.187 68.8075 220.479 68.8075 220.823Z" fill="url(#paint56_linear_358_7424)"></path> <path d="M41.4322 163.219C41.4322 163.563 41.3124 163.854 41.0676 164.094C40.8228 164.339 40.5312 164.458 40.1874 164.458C39.8437 164.458 39.552 164.339 39.3072 164.094C39.0624 163.854 38.9426 163.563 38.9426 163.219C38.9426 162.875 39.0624 162.578 39.3072 162.339C39.552 162.094 39.8437 161.974 40.1874 161.974C40.5312 161.974 40.8228 162.094 41.0676 162.339C41.3124 162.578 41.4322 162.875 41.4322 163.219Z" fill="url(#paint57_linear_358_7424)"></path> <path d="M37.0626 118.792C37.0626 119.135 36.9428 119.427 36.698 119.672C36.4532 119.911 36.1615 120.036 35.8178 120.036C35.474 120.036 35.1824 119.911 34.9376 119.672C34.698 119.427 34.573 119.135 34.573 118.792C34.573 118.448 34.698 118.151 34.9376 117.911C35.1824 117.667 35.474 117.547 35.8178 117.547C36.1615 117.547 36.4532 117.667 36.698 117.911C36.9428 118.151 37.0626 118.448 37.0626 118.792Z" fill="url(#paint58_linear_358_7424)"></path> <path d="M230.052 100.026C230.052 100.37 229.932 100.661 229.688 100.906C229.448 101.146 229.151 101.271 228.807 101.271C228.464 101.271 228.172 101.146 227.927 100.906C227.687 100.661 227.562 100.37 227.562 100.026C227.562 99.6823 227.687 99.3906 227.927 99.1458C228.172 98.901 228.464 98.7812 228.807 98.7812C229.151 98.7812 229.448 98.901 229.688 99.1458C229.932 99.3906 230.052 99.6823 230.052 100.026Z" fill="url(#paint59_linear_358_7424)"></path> <path d="M262.765 189.016C262.765 189.359 262.646 189.656 262.401 189.896C262.156 190.141 261.864 190.26 261.521 190.26C261.177 190.26 260.885 190.141 260.64 189.896C260.401 189.656 260.276 189.359 260.276 189.016C260.276 188.672 260.401 188.38 260.64 188.135C260.885 187.896 261.177 187.771 261.521 187.771C261.864 187.771 262.156 187.896 262.401 188.135C262.646 188.38 262.765 188.672 262.765 189.016Z" fill="url(#paint60_linear_358_7424)"></path> <path d="M239.511 173.073C239.511 173.417 239.386 173.708 239.146 173.948C238.901 174.193 238.61 174.312 238.266 174.312C237.922 174.312 237.63 174.193 237.386 173.948C237.141 173.708 237.021 173.417 237.021 173.073C237.021 172.729 237.141 172.432 237.386 172.193C237.63 171.948 237.922 171.828 238.266 171.828C238.61 171.828 238.901 171.948 239.146 172.193C239.386 172.432 239.511 172.729 239.511 173.073Z" fill="url(#paint61_linear_358_7424)"></path> <path d="M173.302 129.984C173.302 130.328 173.182 130.62 172.938 130.865C172.693 131.104 172.401 131.224 172.057 131.224C171.714 131.224 171.422 131.104 171.177 130.865C170.937 130.62 170.812 130.328 170.812 129.984C170.812 129.641 170.937 129.344 171.177 129.104C171.422 128.859 171.714 128.74 172.057 128.74C172.401 128.74 172.693 128.859 172.938 129.104C173.182 129.344 173.302 129.641 173.302 129.984Z" fill="url(#paint62_linear_358_7424)"></path> <path d="M255.245 152.818C255.245 153.161 255.125 153.453 254.88 153.698C254.641 153.943 254.344 154.062 254 154.062C253.656 154.062 253.365 153.943 253.12 153.698C252.88 153.453 252.755 153.161 252.755 152.818C252.755 152.474 252.88 152.182 253.12 151.937C253.365 151.693 253.656 151.573 254 151.573C254.344 151.573 254.641 151.693 254.88 151.937C255.125 152.182 255.245 152.474 255.245 152.818Z" fill="url(#paint63_linear_358_7424)"></path> <path d="M218.917 75.4062C218.917 75.75 218.792 76.0468 218.552 76.2864C218.307 76.5312 218.016 76.651 217.672 76.651C217.328 76.651 217.037 76.5312 216.792 76.2864C216.547 76.0468 216.427 75.75 216.427 75.4062C216.427 75.0625 216.547 74.7708 216.792 74.526C217.037 74.2864 217.328 74.1666 217.672 74.1666C218.016 74.1666 218.307 74.2864 218.552 74.526C218.792 74.7708 218.917 75.0625 218.917 75.4062Z" fill="url(#paint64_linear_358_7424)"></path> <path d="M149.094 131.516C149.094 131.859 148.974 132.151 148.729 132.396C148.484 132.635 148.193 132.76 147.849 132.76C147.505 132.76 147.213 132.635 146.969 132.396C146.729 132.151 146.604 131.859 146.604 131.516C146.604 131.172 146.729 130.88 146.969 130.635C147.213 130.391 147.505 130.271 147.849 130.271C148.193 130.271 148.484 130.391 148.729 130.635C148.974 130.88 149.094 131.172 149.094 131.516Z" fill="url(#paint65_linear_358_7424)"></path> <path d="M145.052 168.682C145.052 169.026 144.927 169.318 144.688 169.562C144.443 169.802 144.151 169.927 143.807 169.927C143.464 169.927 143.167 169.802 142.927 169.562C142.682 169.318 142.562 169.026 142.562 168.682C142.562 168.339 142.682 168.042 142.927 167.802C143.167 167.557 143.464 167.438 143.807 167.438C144.151 167.438 144.443 167.557 144.688 167.802C144.927 168.042 145.052 168.339 145.052 168.682Z" fill="url(#paint66_linear_358_7424)"></path> <path d="M247.745 80.8542C247.745 81.1979 247.625 81.4896 247.38 81.7344C247.14 81.9792 246.844 82.099 246.5 82.099C246.161 82.099 245.864 81.9792 245.625 81.7344C245.38 81.4896 245.26 81.1979 245.26 80.8542C245.26 80.5104 245.38 80.2188 245.625 79.974C245.864 79.7292 246.161 79.6094 246.5 79.6094C246.844 79.6094 247.14 79.7292 247.38 79.974C247.625 80.2188 247.745 80.5104 247.745 80.8542Z" fill="url(#paint67_linear_358_7424)"></path> <path d="M264.261 134.901C264.261 135.245 264.136 135.536 263.896 135.781C263.651 136.026 263.36 136.146 263.016 136.146C262.672 136.146 262.38 136.026 262.136 135.781C261.891 135.536 261.771 135.245 261.771 134.901C261.771 134.557 261.891 134.266 262.136 134.021C262.38 133.781 262.672 133.656 263.016 133.656C263.36 133.656 263.651 133.781 263.896 134.021C264.136 134.266 264.261 134.557 264.261 134.901Z" fill="url(#paint68_linear_358_7424)"></path> <path d="M170.136 114.302C170.136 114.646 170.016 114.937 169.771 115.182C169.526 115.422 169.235 115.547 168.891 115.547C168.547 115.547 168.255 115.422 168.011 115.182C167.771 114.937 167.646 114.646 167.646 114.302C167.646 113.958 167.771 113.661 168.011 113.422C168.255 113.177 168.547 113.057 168.891 113.057C169.235 113.057 169.526 113.177 169.771 113.422C170.016 113.661 170.136 113.958 170.136 114.302Z" fill="url(#paint69_linear_358_7424)"></path> <path d="M261.386 288.193C261.386 288.536 261.266 288.828 261.021 289.073C260.776 289.318 260.485 289.438 260.141 289.438C259.797 289.438 259.505 289.318 259.261 289.073C259.021 288.828 258.896 288.536 258.896 288.193C258.896 287.849 259.021 287.557 259.261 287.313C259.505 287.073 259.797 286.948 260.141 286.948C260.485 286.948 260.776 287.073 261.021 287.313C261.266 287.557 261.386 287.849 261.386 288.193Z" fill="url(#paint70_linear_358_7424)"></path> <path d="M205.542 229.026C205.542 229.37 205.422 229.667 205.177 229.906C204.932 230.151 204.641 230.271 204.297 230.271C203.953 230.271 203.662 230.151 203.417 229.906C203.172 229.667 203.052 229.37 203.052 229.026C203.052 228.682 203.172 228.391 203.417 228.146C203.662 227.906 203.953 227.781 204.297 227.781C204.641 227.781 204.932 227.906 205.177 228.146C205.422 228.391 205.542 228.682 205.542 229.026Z" fill="url(#paint71_linear_358_7424)"></path> <path d="M233.521 224.031C233.521 224.375 233.396 224.667 233.156 224.911C232.911 225.151 232.62 225.276 232.276 225.276C231.932 225.276 231.635 225.151 231.396 224.911C231.151 224.667 231.031 224.375 231.031 224.031C231.031 223.687 231.151 223.391 231.396 223.151C231.635 222.906 231.932 222.786 232.276 222.786C232.62 222.786 232.911 222.906 233.156 223.151C233.396 223.391 233.521 223.687 233.521 224.031Z" fill="url(#paint72_linear_358_7424)"></path> <path d="M230.703 195.755C230.703 196.099 230.583 196.391 230.338 196.635C230.094 196.875 229.802 197 229.458 197C229.114 197 228.823 196.875 228.578 196.635C228.333 196.391 228.213 196.099 228.213 195.755C228.213 195.411 228.333 195.12 228.578 194.875C228.823 194.63 229.114 194.51 229.458 194.51C229.802 194.51 230.094 194.63 230.338 194.875C230.583 195.12 230.703 195.411 230.703 195.755Z" fill="url(#paint73_linear_358_7424)"></path> <path d="M247.156 199.609C247.156 199.953 247.036 200.245 246.792 200.484C246.552 200.729 246.255 200.849 245.911 200.849C245.568 200.849 245.276 200.729 245.031 200.484C244.791 200.245 244.667 199.953 244.667 199.609C244.667 199.266 244.791 198.969 245.031 198.729C245.276 198.484 245.568 198.365 245.911 198.365C246.255 198.365 246.552 198.484 246.792 198.729C247.036 198.969 247.156 199.266 247.156 199.609Z" fill="url(#paint74_linear_358_7424)"></path> <path d="M114.682 139.719C114.682 140.062 114.562 140.359 114.318 140.599C114.078 140.844 113.781 140.964 113.437 140.964C113.094 140.964 112.802 140.844 112.562 140.599C112.318 140.359 112.198 140.062 112.198 139.719C112.198 139.375 112.318 139.083 112.562 138.844C112.802 138.599 113.094 138.479 113.437 138.479C113.781 138.479 114.078 138.599 114.318 138.844C114.562 139.083 114.682 139.375 114.682 139.719Z" fill="url(#paint75_linear_358_7424)"></path> <path d="M87.1458 168.969C87.1458 169.313 87.026 169.604 86.7812 169.849C86.5417 170.094 86.2448 170.214 85.901 170.214C85.5573 170.214 85.2656 170.094 85.0208 169.849C84.7813 169.604 84.6562 169.313 84.6562 168.969C84.6562 168.625 84.7813 168.333 85.0208 168.089C85.2656 167.844 85.5573 167.724 85.901 167.724C86.2448 167.724 86.5417 167.844 86.7812 168.089C87.026 168.333 87.1458 168.625 87.1458 168.969Z" fill="url(#paint76_linear_358_7424)"></path> <path d="M203.386 183.615C203.386 183.958 203.261 184.25 203.021 184.495C202.776 184.734 202.485 184.859 202.141 184.859C201.797 184.859 201.5 184.734 201.261 184.495C201.016 184.25 200.896 183.958 200.896 183.615C200.896 183.271 201.016 182.974 201.261 182.734C201.5 182.49 201.797 182.37 202.141 182.37C202.485 182.37 202.776 182.49 203.021 182.734C203.261 182.974 203.386 183.271 203.386 183.615Z" fill="url(#paint77_linear_358_7424)"></path> <path d="M217.193 182.245C217.193 182.589 217.073 182.885 216.828 183.125C216.589 183.37 216.292 183.49 215.948 183.49C215.61 183.49 215.313 183.37 215.073 183.125C214.828 182.885 214.708 182.589 214.708 182.245C214.708 181.901 214.828 181.609 215.073 181.365C215.313 181.125 215.61 181 215.948 181C216.292 181 216.589 181.125 216.828 181.365C217.073 181.609 217.193 181.901 217.193 182.245Z" fill="url(#paint78_linear_358_7424)"></path> <path d="M188.594 141.984C188.594 142.328 188.474 142.625 188.229 142.865C187.984 143.109 187.693 143.229 187.349 143.229C187.005 143.229 186.713 143.109 186.469 142.865C186.229 142.625 186.104 142.328 186.104 141.984C186.104 141.641 186.229 141.349 186.469 141.109C186.713 140.865 187.005 140.745 187.349 140.745C187.693 140.745 187.984 140.865 188.229 141.109C188.474 141.349 188.594 141.641 188.594 141.984Z" fill="url(#paint79_linear_358_7424)"></path> <path d="M210.63 169.12C210.63 169.464 210.505 169.755 210.266 170C210.021 170.245 209.729 170.365 209.385 170.365C209.042 170.365 208.745 170.245 208.505 170C208.26 169.755 208.141 169.464 208.141 169.12C208.141 168.776 208.26 168.484 208.505 168.24C208.745 168 209.042 167.875 209.385 167.875C209.729 167.875 210.021 168 210.266 168.24C210.505 168.484 210.63 168.776 210.63 169.12Z" fill="url(#paint80_linear_358_7424)"></path> <path d="M157.932 156.604C157.932 156.948 157.813 157.24 157.568 157.484C157.323 157.729 157.031 157.849 156.688 157.849C156.344 157.849 156.052 157.729 155.807 157.484C155.563 157.24 155.443 156.948 155.443 156.604C155.443 156.26 155.563 155.969 155.807 155.724C156.052 155.484 156.344 155.359 156.688 155.359C157.031 155.359 157.323 155.484 157.568 155.724C157.813 155.969 157.932 156.26 157.932 156.604Z" fill="url(#paint81_linear_358_7424)"></path> <path d="M181.953 61.3645C181.953 61.7083 181.833 62 181.588 62.2448C181.349 62.4843 181.052 62.6093 180.708 62.6093C180.364 62.6093 180.073 62.4843 179.828 62.2448C179.588 62 179.463 61.7083 179.463 61.3645C179.463 61.0208 179.588 60.7239 179.828 60.4843C180.073 60.2395 180.364 60.1198 180.708 60.1198C181.052 60.1198 181.349 60.2395 181.588 60.4843C181.833 60.7239 181.953 61.0208 181.953 61.3645Z" fill="url(#paint82_linear_358_7424)"></path> <path d="M224.828 55.9532C224.828 56.2969 224.708 56.5938 224.464 56.8334C224.224 57.0782 223.927 57.198 223.583 57.198C223.245 57.198 222.948 57.0782 222.708 56.8334C222.464 56.5938 222.344 56.2969 222.344 55.9532C222.344 55.6094 222.464 55.3177 222.708 55.073C222.948 54.8334 223.245 54.7084 223.583 54.7084C223.927 54.7084 224.224 54.8334 224.464 55.073C224.708 55.3177 224.828 55.6094 224.828 55.9532Z" fill="url(#paint83_linear_358_7424)"></path> <path d="M97.8905 91.6198C97.8905 91.9635 97.7655 92.2552 97.5259 92.5C97.2811 92.7396 96.9894 92.8646 96.6457 92.8646C96.3019 92.8646 96.005 92.7396 95.7655 92.5C95.5207 92.2552 95.4009 91.9635 95.4009 91.6198C95.4009 91.276 95.5207 90.9844 95.7655 90.7396C96.005 90.4948 96.3019 90.375 96.6457 90.375C96.9894 90.375 97.2811 90.4948 97.5259 90.7396C97.7655 90.9844 97.8905 91.276 97.8905 91.6198Z" fill="url(#paint84_linear_358_7424)"></path> <path d="M84.6092 32.2969C84.6092 32.6407 84.4894 32.9323 84.2446 33.1771C83.9998 33.4167 83.7082 33.5417 83.3644 33.5417C83.0207 33.5417 82.729 33.4167 82.4842 33.1771C82.2394 32.9323 82.1196 32.6407 82.1196 32.2969C82.1196 31.9532 82.2394 31.6615 82.4842 31.4167C82.729 31.1719 83.0207 31.0521 83.3644 31.0521C83.7082 31.0521 83.9998 31.1719 84.2446 31.4167C84.4894 31.6615 84.6092 31.9532 84.6092 32.2969Z" fill="url(#paint85_linear_358_7424)"></path> <path d="M42.4688 57.4323C42.4688 57.776 42.349 58.0677 42.1094 58.3125C41.8646 58.5521 41.5729 58.6771 41.2292 58.6771C40.8854 58.6771 40.5885 58.5521 40.349 58.3125C40.1042 58.0677 39.9844 57.776 39.9844 57.4323C39.9844 57.0885 40.1042 56.7969 40.349 56.5521C40.5885 56.3073 40.8854 56.1875 41.2292 56.1875C41.5729 56.1875 41.8646 56.3073 42.1094 56.5521C42.349 56.7969 42.4688 57.0885 42.4688 57.4323Z" fill="url(#paint86_linear_358_7424)"></path> <path d="M68.0469 159.906C68.0469 160.25 67.9271 160.547 67.6823 160.786C67.4427 161.031 67.151 161.151 66.8073 161.151C66.4635 161.151 66.1667 161.031 65.9271 160.786C65.6823 160.547 65.5625 160.25 65.5625 159.906C65.5625 159.562 65.6823 159.271 65.9271 159.026C66.1667 158.786 66.4635 158.667 66.8073 158.667C67.151 158.667 67.4427 158.786 67.6823 159.026C67.9271 159.271 68.0469 159.562 68.0469 159.906Z" fill="url(#paint87_linear_358_7424)"></path> <path d="M86.4897 154.323C86.4897 154.667 86.37 154.958 86.1304 155.203C85.8856 155.448 85.5939 155.568 85.2502 155.568C84.9064 155.568 84.6095 155.448 84.37 155.203C84.1252 154.958 84.0054 154.667 84.0054 154.323C84.0054 153.979 84.1252 153.687 84.37 153.443C84.6095 153.203 84.9064 153.078 85.2502 153.078C85.5939 153.078 85.8856 153.203 86.1304 153.443C86.37 153.687 86.4897 153.979 86.4897 154.323Z" fill="url(#paint88_linear_358_7424)"></path> <path d="M84.2031 180.74C84.2031 181.083 84.0833 181.375 83.8385 181.62C83.599 181.865 83.3073 181.984 82.9635 181.984C82.6198 181.984 82.3229 181.865 82.0833 181.62C81.8385 181.375 81.7188 181.083 81.7188 180.74C81.7188 180.396 81.8385 180.104 82.0833 179.859C82.3229 179.62 82.6198 179.495 82.9635 179.495C83.3073 179.495 83.599 179.62 83.8385 179.859C84.0833 180.104 84.2031 180.396 84.2031 180.74Z" fill="url(#paint89_linear_358_7424)"></path> <path d="M101.271 165.505C101.271 165.849 101.151 166.141 100.906 166.385C100.661 166.63 100.37 166.75 100.026 166.75C99.6823 166.75 99.3906 166.63 99.1458 166.385C98.901 166.141 98.7812 165.849 98.7812 165.505C98.7812 165.161 98.901 164.87 99.1458 164.625C99.3906 164.385 99.6823 164.26 100.026 164.26C100.37 164.26 100.661 164.385 100.906 164.625C101.151 164.87 101.271 165.161 101.271 165.505Z" fill="url(#paint90_linear_358_7424)"></path> <path d="M79.2762 63.3073C79.2762 63.651 79.1564 63.9427 78.9116 64.1875C78.6668 64.4271 78.3752 64.5521 78.0314 64.5521C77.6877 64.5521 77.396 64.4271 77.1512 64.1875C76.9064 63.9427 76.7866 63.651 76.7866 63.3073C76.7866 62.9635 76.9064 62.6719 77.1512 62.4271C77.396 62.1823 77.6877 62.0625 78.0314 62.0625C78.3752 62.0625 78.6668 62.1823 78.9116 62.4271C79.1564 62.6719 79.2762 62.9635 79.2762 63.3073Z" fill="url(#paint91_linear_358_7424)"></path> <path d="M143.011 10.8594C143.011 11.2032 142.891 11.4948 142.646 11.7396C142.401 11.9844 142.11 12.1042 141.766 12.1042C141.422 12.1042 141.13 11.9844 140.886 11.7396C140.641 11.4948 140.521 11.2032 140.521 10.8594C140.521 10.5157 140.641 10.224 140.886 9.97921C141.13 9.73962 141.422 9.61462 141.766 9.61462C142.11 9.61462 142.401 9.73962 142.646 9.97921C142.891 10.224 143.011 10.5157 143.011 10.8594Z" fill="url(#paint92_linear_358_7424)"></path> <path d="M125.083 41.2708C125.083 41.6146 124.964 41.9115 124.719 42.151C124.479 42.3958 124.182 42.5156 123.844 42.5156C123.5 42.5156 123.203 42.3958 122.964 42.151C122.719 41.9115 122.599 41.6146 122.599 41.2708C122.599 40.9271 122.719 40.6354 122.964 40.3958C123.203 40.151 123.5 40.0312 123.844 40.0312C124.182 40.0312 124.479 40.151 124.719 40.3958C124.964 40.6354 125.083 40.9271 125.083 41.2708Z" fill="url(#paint93_linear_358_7424)"></path> <path d="M135.667 26.7083C135.667 27.052 135.542 27.3437 135.302 27.5885C135.057 27.8333 134.766 27.9531 134.422 27.9531C134.078 27.9531 133.787 27.8333 133.542 27.5885C133.297 27.3437 133.177 27.052 133.177 26.7083C133.177 26.3645 133.297 26.0729 133.542 25.8281C133.787 25.5885 134.078 25.4635 134.422 25.4635C134.766 25.4635 135.057 25.5885 135.302 25.8281C135.542 26.0729 135.667 26.3645 135.667 26.7083Z" fill="url(#paint94_linear_358_7424)"></path> <path d="M153.036 42.9479C153.036 43.2917 152.917 43.5833 152.672 43.8281C152.427 44.0677 152.135 44.1927 151.792 44.1927C151.448 44.1927 151.156 44.0677 150.911 43.8281C150.672 43.5833 150.547 43.2917 150.547 42.9479C150.547 42.6042 150.672 42.3125 150.911 42.0677C151.156 41.8229 151.448 41.7031 151.792 41.7031C152.135 41.7031 152.427 41.8229 152.672 42.0677C152.917 42.3125 153.036 42.6042 153.036 42.9479Z" fill="url(#paint95_linear_358_7424)"></path> <path d="M159.198 68.0572V68.0416C159.193 67.9687 159.177 67.901 159.151 67.8333C159.151 67.8177 159.135 67.802 159.13 67.7864C159.115 67.75 159.094 67.7187 159.073 67.6822C159.047 67.6458 159.021 67.6093 158.99 67.5781C158.958 67.5364 158.922 67.5052 158.885 67.4739C158.854 67.4531 158.823 67.4375 158.792 67.4218C158.724 67.3802 158.651 67.3489 158.573 67.3333C158.531 67.3229 158.495 67.3125 158.453 67.3072L139.708 65.927C139.49 65.9218 139.302 65.9895 139.141 66.1354C138.974 66.2812 138.885 66.4635 138.87 66.677C138.854 66.8958 138.917 67.0885 139.057 67.2552C139.198 67.4218 139.375 67.5208 139.594 67.5416L156.568 68.7916L136.505 88.8593L126.922 79.3645C126.76 79.2083 126.573 79.1302 126.349 79.1302C126.125 79.1302 125.932 79.2135 125.776 79.3697C125.62 79.5312 125.542 79.7187 125.542 79.9427C125.542 80.1666 125.625 80.3593 125.781 80.5156L135.354 90.0104L119.62 105.745C119.37 106 119.312 106.292 119.448 106.625C119.588 106.958 119.833 107.125 120.193 107.125C120.422 107.13 120.609 107.047 120.766 106.885L136.505 91.151L146.021 100.583C146.182 100.74 146.37 100.818 146.594 100.818C146.818 100.818 147.01 100.74 147.167 100.578C147.323 100.422 147.401 100.229 147.401 100.005C147.401 99.7812 147.323 99.5885 147.161 99.4322L137.651 90.0052L157.713 69.9375L158.979 86.8645C158.995 87.0781 159.083 87.2552 159.234 87.3958C159.391 87.5416 159.573 87.6145 159.786 87.6145H159.849C160.073 87.5989 160.255 87.5052 160.401 87.3333C160.547 87.1666 160.615 86.9687 160.594 86.7447L159.198 68.0572Z" fill="url(#paint96_linear_358_7424)"></path> <defs> <linearGradient id="paint0_linear_358_7424" x1="139.995" y1="0" x2="139.995" y2="400" gradientUnits="userSpaceOnUse"> <stop offset="0.505208" stop-color="#AB46DB"></stop> <stop offset="1" stop-color="white"></stop> </linearGradient> <linearGradient id="paint1_linear_358_7424" x1="139.995" y1="0" x2="139.995" y2="400" gradientUnits="userSpaceOnUse"> <stop offset="0.505208" stop-color="#AB46DB"></stop> <stop offset="1" stop-color="white"></stop> </linearGradient> <linearGradient id="paint2_linear_358_7424" x1="139.995" y1="0" x2="139.995" y2="400" gradientUnits="userSpaceOnUse"> <stop offset="0.505208" stop-color="#AB46DB"></stop> <stop offset="1" stop-color="white"></stop> </linearGradient> <linearGradient id="paint3_linear_358_7424" x1="139.995" y1="0" x2="139.995" y2="400" gradientUnits="userSpaceOnUse"> <stop offset="0.505208" stop-color="#AB46DB"></stop> <stop offset="1" stop-color="white"></stop> </linearGradient> <linearGradient id="paint4_linear_358_7424" x1="139.995" y1="0" x2="139.995" y2="400" gradientUnits="userSpaceOnUse"> <stop offset="0.505208" stop-color="#AB46DB"></stop> <stop offset="1" stop-color="white"></stop> </linearGradient> <linearGradient id="paint5_linear_358_7424" x1="139.995" y1="0" x2="139.995" y2="400" gradientUnits="userSpaceOnUse"> <stop offset="0.505208" stop-color="#AB46DB"></stop> <stop offset="1" stop-color="white"></stop> </linearGradient> <linearGradient id="paint6_linear_358_7424" x1="139.995" y1="0" x2="139.995" y2="400" gradientUnits="userSpaceOnUse"> <stop offset="0.505208" stop-color="#AB46DB"></stop> <stop offset="1" stop-color="white"></stop> </linearGradient> <linearGradient id="paint7_linear_358_7424" x1="139.995" y1="0" x2="139.995" y2="400" gradientUnits="userSpaceOnUse"> <stop offset="0.505208" stop-color="#AB46DB"></stop> <stop offset="1" stop-color="white"></stop> </linearGradient> <linearGradient id="paint8_linear_358_7424" x1="139.995" y1="0" x2="139.995" y2="400" gradientUnits="userSpaceOnUse"> <stop offset="0.505208" stop-color="#AB46DB"></stop> <stop offset="1" stop-color="white"></stop> </linearGradient> <linearGradient id="paint9_linear_358_7424" x1="139.995" y1="0" x2="139.995" y2="400" gradientUnits="userSpaceOnUse"> <stop offset="0.505208" stop-color="#AB46DB"></stop> <stop offset="1" stop-color="white"></stop> </linearGradient> <linearGradient id="paint10_linear_358_7424" x1="139.995" y1="0" x2="139.995" y2="400" gradientUnits="userSpaceOnUse"> <stop offset="0.505208" stop-color="#AB46DB"></stop> <stop offset="1" stop-color="white"></stop> </linearGradient> <linearGradient id="paint11_linear_358_7424" x1="139.995" y1="0" x2="139.995" y2="400" gradientUnits="userSpaceOnUse"> <stop offset="0.505208" stop-color="#AB46DB"></stop> <stop offset="1" stop-color="white"></stop> </linearGradient> <linearGradient id="paint12_linear_358_7424" x1="139.995" y1="0" x2="139.995" y2="400" gradientUnits="userSpaceOnUse"> <stop offset="0.505208" stop-color="#AB46DB"></stop> <stop offset="1" stop-color="white"></stop> </linearGradient> <linearGradient id="paint13_linear_358_7424" x1="139.995" y1="0" x2="139.995" y2="400" gradientUnits="userSpaceOnUse"> <stop offset="0.505208" stop-color="#AB46DB"></stop> <stop offset="1" stop-color="white"></stop> </linearGradient> <linearGradient id="paint14_linear_358_7424" x1="139.995" y1="0" x2="139.995" y2="400" gradientUnits="userSpaceOnUse"> <stop offset="0.505208" stop-color="#AB46DB"></stop> <stop offset="1" stop-color="white"></stop> </linearGradient> <linearGradient id="paint15_linear_358_7424" x1="139.995" y1="0" x2="139.995" y2="400" gradientUnits="userSpaceOnUse"> <stop offset="0.505208" stop-color="#AB46DB"></stop> <stop offset="1" stop-color="white"></stop> </linearGradient> <linearGradient id="paint16_linear_358_7424" x1="139.995" y1="0" x2="139.995" y2="400" gradientUnits="userSpaceOnUse"> <stop offset="0.505208" stop-color="#AB46DB"></stop> <stop offset="1" stop-color="white"></stop> </linearGradient> <linearGradient id="paint17_linear_358_7424" x1="139.995" y1="0" x2="139.995" y2="400" gradientUnits="userSpaceOnUse"> <stop offset="0.505208" stop-color="#AB46DB"></stop> <stop offset="1" stop-color="white"></stop> </linearGradient> <linearGradient id="paint18_linear_358_7424" x1="139.995" y1="0" x2="139.995" y2="400" gradientUnits="userSpaceOnUse"> <stop offset="0.505208" stop-color="#AB46DB"></stop> <stop offset="1" stop-color="white"></stop> </linearGradient> <linearGradient id="paint19_linear_358_7424" x1="139.995" y1="0" x2="139.995" y2="400" gradientUnits="userSpaceOnUse"> <stop offset="0.505208" stop-color="#AB46DB"></stop> <stop offset="1" stop-color="white"></stop> </linearGradient> <linearGradient id="paint20_linear_358_7424" x1="139.995" y1="0" x2="139.995" y2="400" gradientUnits="userSpaceOnUse"> <stop offset="0.505208" stop-color="#AB46DB"></stop> <stop offset="1" stop-color="white"></stop> </linearGradient> <linearGradient id="paint21_linear_358_7424" x1="139.995" y1="0" x2="139.995" y2="400" gradientUnits="userSpaceOnUse"> <stop offset="0.505208" stop-color="#AB46DB"></stop> <stop offset="1" stop-color="white"></stop> </linearGradient> <linearGradient id="paint22_linear_358_7424" x1="139.995" y1="0" x2="139.995" y2="400" gradientUnits="userSpaceOnUse"> <stop offset="0.505208" stop-color="#AB46DB"></stop> <stop offset="1" stop-color="white"></stop> </linearGradient> <linearGradient id="paint23_linear_358_7424" x1="139.995" y1="0" x2="139.995" y2="400" gradientUnits="userSpaceOnUse"> <stop offset="0.505208" stop-color="#AB46DB"></stop> <stop offset="1" stop-color="white"></stop> </linearGradient> <linearGradient id="paint24_linear_358_7424" x1="139.995" y1="0" x2="139.995" y2="400" gradientUnits="userSpaceOnUse"> <stop offset="0.505208" stop-color="#AB46DB"></stop> <stop offset="1" stop-color="white"></stop> </linearGradient> <linearGradient id="paint25_linear_358_7424" x1="139.995" y1="0" x2="139.995" y2="400" gradientUnits="userSpaceOnUse"> <stop offset="0.505208" stop-color="#AB46DB"></stop> <stop offset="1" stop-color="white"></stop> </linearGradient> <linearGradient id="paint26_linear_358_7424" x1="139.995" y1="0" x2="139.995" y2="400" gradientUnits="userSpaceOnUse"> <stop offset="0.505208" stop-color="#AB46DB"></stop> <stop offset="1" stop-color="white"></stop> </linearGradient> <linearGradient id="paint27_linear_358_7424" x1="139.995" y1="0" x2="139.995" y2="400" gradientUnits="userSpaceOnUse"> <stop offset="0.505208" stop-color="#AB46DB"></stop> <stop offset="1" stop-color="white"></stop> </linearGradient> <linearGradient id="paint28_linear_358_7424" x1="139.995" y1="0" x2="139.995" y2="400" gradientUnits="userSpaceOnUse"> <stop offset="0.505208" stop-color="#AB46DB"></stop> <stop offset="1" stop-color="white"></stop> </linearGradient> <linearGradient id="paint29_linear_358_7424" x1="139.995" y1="0" x2="139.995" y2="400" gradientUnits="userSpaceOnUse"> <stop offset="0.505208" stop-color="#AB46DB"></stop> <stop offset="1" stop-color="white"></stop> </linearGradient> <linearGradient id="paint30_linear_358_7424" x1="139.995" y1="0" x2="139.995" y2="400" gradientUnits="userSpaceOnUse"> <stop offset="0.505208" stop-color="#AB46DB"></stop> <stop offset="1" stop-color="white"></stop> </linearGradient> <linearGradient id="paint31_linear_358_7424" x1="139.995" y1="0" x2="139.995" y2="400" gradientUnits="userSpaceOnUse"> <stop offset="0.505208" stop-color="#AB46DB"></stop> <stop offset="1" stop-color="white"></stop> </linearGradient> <linearGradient id="paint32_linear_358_7424" x1="139.995" y1="0" x2="139.995" y2="400" gradientUnits="userSpaceOnUse"> <stop offset="0.505208" stop-color="#AB46DB"></stop> <stop offset="1" stop-color="white"></stop> </linearGradient> <linearGradient id="paint33_linear_358_7424" x1="139.995" y1="0" x2="139.995" y2="400" gradientUnits="userSpaceOnUse"> <stop offset="0.505208" stop-color="#AB46DB"></stop> <stop offset="1" stop-color="white"></stop> </linearGradient> <linearGradient id="paint34_linear_358_7424" x1="139.995" y1="0" x2="139.995" y2="400" gradientUnits="userSpaceOnUse"> <stop offset="0.505208" stop-color="#AB46DB"></stop> <stop offset="1" stop-color="white"></stop> </linearGradient> <linearGradient id="paint35_linear_358_7424" x1="139.995" y1="0" x2="139.995" y2="400" gradientUnits="userSpaceOnUse"> <stop offset="0.505208" stop-color="#AB46DB"></stop> <stop offset="1" stop-color="white"></stop> </linearGradient> <linearGradient id="paint36_linear_358_7424" x1="139.995" y1="0" x2="139.995" y2="400" gradientUnits="userSpaceOnUse"> <stop offset="0.505208" stop-color="#AB46DB"></stop> <stop offset="1" stop-color="white"></stop> </linearGradient> <linearGradient id="paint37_linear_358_7424" x1="139.995" y1="0" x2="139.995" y2="400" gradientUnits="userSpaceOnUse"> <stop offset="0.505208" stop-color="#AB46DB"></stop> <stop offset="1" stop-color="white"></stop> </linearGradient> <linearGradient id="paint38_linear_358_7424" x1="139.995" y1="0" x2="139.995" y2="400" gradientUnits="userSpaceOnUse"> <stop offset="0.505208" stop-color="#AB46DB"></stop> <stop offset="1" stop-color="white"></stop> </linearGradient> <linearGradient id="paint39_linear_358_7424" x1="139.995" y1="0" x2="139.995" y2="400" gradientUnits="userSpaceOnUse"> <stop offset="0.505208" stop-color="#AB46DB"></stop> <stop offset="1" stop-color="white"></stop> </linearGradient> <linearGradient id="paint40_linear_358_7424" x1="139.995" y1="0" x2="139.995" y2="400" gradientUnits="userSpaceOnUse"> <stop offset="0.505208" stop-color="#AB46DB"></stop> <stop offset="1" stop-color="white"></stop> </linearGradient> <linearGradient id="paint41_linear_358_7424" x1="139.995" y1="0" x2="139.995" y2="400" gradientUnits="userSpaceOnUse"> <stop offset="0.505208" stop-color="#AB46DB"></stop> <stop offset="1" stop-color="white"></stop> </linearGradient> <linearGradient id="paint42_linear_358_7424" x1="139.995" y1="0" x2="139.995" y2="400" gradientUnits="userSpaceOnUse"> <stop offset="0.505208" stop-color="#AB46DB"></stop> <stop offset="1" stop-color="white"></stop> </linearGradient> <linearGradient id="paint43_linear_358_7424" x1="139.995" y1="0" x2="139.995" y2="400" gradientUnits="userSpaceOnUse"> <stop offset="0.505208" stop-color="#AB46DB"></stop> <stop offset="1" stop-color="white"></stop> </linearGradient> <linearGradient id="paint44_linear_358_7424" x1="139.995" y1="0" x2="139.995" y2="400" gradientUnits="userSpaceOnUse"> <stop offset="0.505208" stop-color="#AB46DB"></stop> <stop offset="1" stop-color="white"></stop> </linearGradient> <linearGradient id="paint45_linear_358_7424" x1="139.995" y1="0" x2="139.995" y2="400" gradientUnits="userSpaceOnUse"> <stop offset="0.505208" stop-color="#AB46DB"></stop> <stop offset="1" stop-color="white"></stop> </linearGradient> <linearGradient id="paint46_linear_358_7424" x1="139.995" y1="0" x2="139.995" y2="400" gradientUnits="userSpaceOnUse"> <stop offset="0.505208" stop-color="#AB46DB"></stop> <stop offset="1" stop-color="white"></stop> </linearGradient> <linearGradient id="paint47_linear_358_7424" x1="139.995" y1="0" x2="139.995" y2="400" gradientUnits="userSpaceOnUse"> <stop offset="0.505208" stop-color="#AB46DB"></stop> <stop offset="1" stop-color="white"></stop> </linearGradient> <linearGradient id="paint48_linear_358_7424" x1="139.995" y1="0" x2="139.995" y2="400" gradientUnits="userSpaceOnUse"> <stop offset="0.505208" stop-color="#AB46DB"></stop> <stop offset="1" stop-color="white"></stop> </linearGradient> <linearGradient id="paint49_linear_358_7424" x1="139.995" y1="0" x2="139.995" y2="400" gradientUnits="userSpaceOnUse"> <stop offset="0.505208" stop-color="#AB46DB"></stop> <stop offset="1" stop-color="white"></stop> </linearGradient> <linearGradient id="paint50_linear_358_7424" x1="139.995" y1="0" x2="139.995" y2="400" gradientUnits="userSpaceOnUse"> <stop offset="0.505208" stop-color="#AB46DB"></stop> <stop offset="1" stop-color="white"></stop> </linearGradient> <linearGradient id="paint51_linear_358_7424" x1="139.995" y1="0" x2="139.995" y2="400" gradientUnits="userSpaceOnUse"> <stop offset="0.505208" stop-color="#AB46DB"></stop> <stop offset="1" stop-color="white"></stop> </linearGradient> <linearGradient id="paint52_linear_358_7424" x1="139.995" y1="0" x2="139.995" y2="400" gradientUnits="userSpaceOnUse"> <stop offset="0.505208" stop-color="#AB46DB"></stop> <stop offset="1" stop-color="white"></stop> </linearGradient> <linearGradient id="paint53_linear_358_7424" x1="139.995" y1="0" x2="139.995" y2="400" gradientUnits="userSpaceOnUse"> <stop offset="0.505208" stop-color="#AB46DB"></stop> <stop offset="1" stop-color="white"></stop> </linearGradient> <linearGradient id="paint54_linear_358_7424" x1="139.995" y1="0" x2="139.995" y2="400" gradientUnits="userSpaceOnUse"> <stop offset="0.505208" stop-color="#AB46DB"></stop> <stop offset="1" stop-color="white"></stop> </linearGradient> <linearGradient id="paint55_linear_358_7424" x1="139.995" y1="0" x2="139.995" y2="400" gradientUnits="userSpaceOnUse"> <stop offset="0.505208" stop-color="#AB46DB"></stop> <stop offset="1" stop-color="white"></stop> </linearGradient> <linearGradient id="paint56_linear_358_7424" x1="139.995" y1="0" x2="139.995" y2="400" gradientUnits="userSpaceOnUse"> <stop offset="0.505208" stop-color="#AB46DB"></stop> <stop offset="1" stop-color="white"></stop> </linearGradient> <linearGradient id="paint57_linear_358_7424" x1="139.995" y1="0" x2="139.995" y2="400" gradientUnits="userSpaceOnUse"> <stop offset="0.505208" stop-color="#AB46DB"></stop> <stop offset="1" stop-color="white"></stop> </linearGradient> <linearGradient id="paint58_linear_358_7424" x1="139.995" y1="0" x2="139.995" y2="400" gradientUnits="userSpaceOnUse"> <stop offset="0.505208" stop-color="#AB46DB"></stop> <stop offset="1" stop-color="white"></stop> </linearGradient> <linearGradient id="paint59_linear_358_7424" x1="139.995" y1="0" x2="139.995" y2="400" gradientUnits="userSpaceOnUse"> <stop offset="0.505208" stop-color="#AB46DB"></stop> <stop offset="1" stop-color="white"></stop> </linearGradient> <linearGradient id="paint60_linear_358_7424" x1="139.995" y1="0" x2="139.995" y2="400" gradientUnits="userSpaceOnUse"> <stop offset="0.505208" stop-color="#AB46DB"></stop> <stop offset="1" stop-color="white"></stop> </linearGradient> <linearGradient id="paint61_linear_358_7424" x1="139.995" y1="0" x2="139.995" y2="400" gradientUnits="userSpaceOnUse"> <stop offset="0.505208" stop-color="#AB46DB"></stop> <stop offset="1" stop-color="white"></stop> </linearGradient> <linearGradient id="paint62_linear_358_7424" x1="139.995" y1="0" x2="139.995" y2="400" gradientUnits="userSpaceOnUse"> <stop offset="0.505208" stop-color="#AB46DB"></stop> <stop offset="1" stop-color="white"></stop> </linearGradient> <linearGradient id="paint63_linear_358_7424" x1="139.995" y1="0" x2="139.995" y2="400" gradientUnits="userSpaceOnUse"> <stop offset="0.505208" stop-color="#AB46DB"></stop> <stop offset="1" stop-color="white"></stop> </linearGradient> <linearGradient id="paint64_linear_358_7424" x1="139.995" y1="0" x2="139.995" y2="400" gradientUnits="userSpaceOnUse"> <stop offset="0.505208" stop-color="#AB46DB"></stop> <stop offset="1" stop-color="white"></stop> </linearGradient> <linearGradient id="paint65_linear_358_7424" x1="139.995" y1="0" x2="139.995" y2="400" gradientUnits="userSpaceOnUse"> <stop offset="0.505208" stop-color="#AB46DB"></stop> <stop offset="1" stop-color="white"></stop> </linearGradient> <linearGradient id="paint66_linear_358_7424" x1="139.995" y1="0" x2="139.995" y2="400" gradientUnits="userSpaceOnUse"> <stop offset="0.505208" stop-color="#AB46DB"></stop> <stop offset="1" stop-color="white"></stop> </linearGradient> <linearGradient id="paint67_linear_358_7424" x1="139.995" y1="0" x2="139.995" y2="400" gradientUnits="userSpaceOnUse"> <stop offset="0.505208" stop-color="#AB46DB"></stop> <stop offset="1" stop-color="white"></stop> </linearGradient> <linearGradient id="paint68_linear_358_7424" x1="139.995" y1="0" x2="139.995" y2="400" gradientUnits="userSpaceOnUse"> <stop offset="0.505208" stop-color="#AB46DB"></stop> <stop offset="1" stop-color="white"></stop> </linearGradient> <linearGradient id="paint69_linear_358_7424" x1="139.995" y1="0" x2="139.995" y2="400" gradientUnits="userSpaceOnUse"> <stop offset="0.505208" stop-color="#AB46DB"></stop> <stop offset="1" stop-color="white"></stop> </linearGradient> <linearGradient id="paint70_linear_358_7424" x1="139.995" y1="0" x2="139.995" y2="400" gradientUnits="userSpaceOnUse"> <stop offset="0.505208" stop-color="#AB46DB"></stop> <stop offset="1" stop-color="white"></stop> </linearGradient> <linearGradient id="paint71_linear_358_7424" x1="139.995" y1="0" x2="139.995" y2="400" gradientUnits="userSpaceOnUse"> <stop offset="0.505208" stop-color="#AB46DB"></stop> <stop offset="1" stop-color="white"></stop> </linearGradient> <linearGradient id="paint72_linear_358_7424" x1="139.995" y1="0" x2="139.995" y2="400" gradientUnits="userSpaceOnUse"> <stop offset="0.505208" stop-color="#AB46DB"></stop> <stop offset="1" stop-color="white"></stop> </linearGradient> <linearGradient id="paint73_linear_358_7424" x1="139.995" y1="0" x2="139.995" y2="400" gradientUnits="userSpaceOnUse"> <stop offset="0.505208" stop-color="#AB46DB"></stop> <stop offset="1" stop-color="white"></stop> </linearGradient> <linearGradient id="paint74_linear_358_7424" x1="139.995" y1="0" x2="139.995" y2="400" gradientUnits="userSpaceOnUse"> <stop offset="0.505208" stop-color="#AB46DB"></stop> <stop offset="1" stop-color="white"></stop> </linearGradient> <linearGradient id="paint75_linear_358_7424" x1="139.995" y1="0" x2="139.995" y2="400" gradientUnits="userSpaceOnUse"> <stop offset="0.505208" stop-color="#AB46DB"></stop> <stop offset="1" stop-color="white"></stop> </linearGradient> <linearGradient id="paint76_linear_358_7424" x1="139.995" y1="0" x2="139.995" y2="400" gradientUnits="userSpaceOnUse"> <stop offset="0.505208" stop-color="#AB46DB"></stop> <stop offset="1" stop-color="white"></stop> </linearGradient> <linearGradient id="paint77_linear_358_7424" x1="139.995" y1="0" x2="139.995" y2="400" gradientUnits="userSpaceOnUse"> <stop offset="0.505208" stop-color="#AB46DB"></stop> <stop offset="1" stop-color="white"></stop> </linearGradient> <linearGradient id="paint78_linear_358_7424" x1="139.995" y1="0" x2="139.995" y2="400" gradientUnits="userSpaceOnUse"> <stop offset="0.505208" stop-color="#AB46DB"></stop> <stop offset="1" stop-color="white"></stop> </linearGradient> <linearGradient id="paint79_linear_358_7424" x1="139.995" y1="0" x2="139.995" y2="400" gradientUnits="userSpaceOnUse"> <stop offset="0.505208" stop-color="#AB46DB"></stop> <stop offset="1" stop-color="white"></stop> </linearGradient> <linearGradient id="paint80_linear_358_7424" x1="139.995" y1="0" x2="139.995" y2="400" gradientUnits="userSpaceOnUse"> <stop offset="0.505208" stop-color="#AB46DB"></stop> <stop offset="1" stop-color="white"></stop> </linearGradient> <linearGradient id="paint81_linear_358_7424" x1="139.995" y1="0" x2="139.995" y2="400" gradientUnits="userSpaceOnUse"> <stop offset="0.505208" stop-color="#AB46DB"></stop> <stop offset="1" stop-color="white"></stop> </linearGradient> <linearGradient id="paint82_linear_358_7424" x1="139.995" y1="0" x2="139.995" y2="400" gradientUnits="userSpaceOnUse"> <stop offset="0.505208" stop-color="#AB46DB"></stop> <stop offset="1" stop-color="white"></stop> </linearGradient> <linearGradient id="paint83_linear_358_7424" x1="139.995" y1="0" x2="139.995" y2="400" gradientUnits="userSpaceOnUse"> <stop offset="0.505208" stop-color="#AB46DB"></stop> <stop offset="1" stop-color="white"></stop> </linearGradient> <linearGradient id="paint84_linear_358_7424" x1="139.995" y1="0" x2="139.995" y2="400" gradientUnits="userSpaceOnUse"> <stop offset="0.505208" stop-color="#AB46DB"></stop> <stop offset="1" stop-color="white"></stop> </linearGradient> <linearGradient id="paint85_linear_358_7424" x1="139.995" y1="0" x2="139.995" y2="400" gradientUnits="userSpaceOnUse"> <stop offset="0.505208" stop-color="#AB46DB"></stop> <stop offset="1" stop-color="white"></stop> </linearGradient> <linearGradient id="paint86_linear_358_7424" x1="139.995" y1="0" x2="139.995" y2="400" gradientUnits="userSpaceOnUse"> <stop offset="0.505208" stop-color="#AB46DB"></stop> <stop offset="1" stop-color="white"></stop> </linearGradient> <linearGradient id="paint87_linear_358_7424" x1="139.995" y1="0" x2="139.995" y2="400" gradientUnits="userSpaceOnUse"> <stop offset="0.505208" stop-color="#AB46DB"></stop> <stop offset="1" stop-color="white"></stop> </linearGradient> <linearGradient id="paint88_linear_358_7424" x1="139.995" y1="0" x2="139.995" y2="400" gradientUnits="userSpaceOnUse"> <stop offset="0.505208" stop-color="#AB46DB"></stop> <stop offset="1" stop-color="white"></stop> </linearGradient> <linearGradient id="paint89_linear_358_7424" x1="139.995" y1="0" x2="139.995" y2="400" gradientUnits="userSpaceOnUse"> <stop offset="0.505208" stop-color="#AB46DB"></stop> <stop offset="1" stop-color="white"></stop> </linearGradient> <linearGradient id="paint90_linear_358_7424" x1="139.995" y1="0" x2="139.995" y2="400" gradientUnits="userSpaceOnUse"> <stop offset="0.505208" stop-color="#AB46DB"></stop> <stop offset="1" stop-color="white"></stop> </linearGradient> <linearGradient id="paint91_linear_358_7424" x1="139.995" y1="0" x2="139.995" y2="400" gradientUnits="userSpaceOnUse"> <stop offset="0.505208" stop-color="#AB46DB"></stop> <stop offset="1" stop-color="white"></stop> </linearGradient> <linearGradient id="paint92_linear_358_7424" x1="139.995" y1="0" x2="139.995" y2="400" gradientUnits="userSpaceOnUse"> <stop offset="0.505208" stop-color="#AB46DB"></stop> <stop offset="1" stop-color="white"></stop> </linearGradient> <linearGradient id="paint93_linear_358_7424" x1="139.995" y1="0" x2="139.995" y2="400" gradientUnits="userSpaceOnUse"> <stop offset="0.505208" stop-color="#AB46DB"></stop> <stop offset="1" stop-color="white"></stop> </linearGradient> <linearGradient id="paint94_linear_358_7424" x1="139.995" y1="0" x2="139.995" y2="400" gradientUnits="userSpaceOnUse"> <stop offset="0.505208" stop-color="#AB46DB"></stop> <stop offset="1" stop-color="white"></stop> </linearGradient> <linearGradient id="paint95_linear_358_7424" x1="139.995" y1="0" x2="139.995" y2="400" gradientUnits="userSpaceOnUse"> <stop offset="0.505208" stop-color="#AB46DB"></stop> <stop offset="1" stop-color="white"></stop> </linearGradient> <linearGradient id="paint96_linear_358_7424" x1="139.995" y1="0" x2="139.995" y2="400" gradientUnits="userSpaceOnUse"> <stop offset="0.505208" stop-color="#AB46DB"></stop> <stop offset="1" stop-color="white"></stop> </linearGradient> </defs> </svg> 