<?xml version="1.0" encoding="UTF-8"?> <svg xmlns="http://www.w3.org/2000/svg" width="280" height="401" viewBox="0 0 280 401" fill="none"> <path d="M222.172 381.016C220.995 369.568 216.672 359.583 210.01 352.906C204.64 347.531 197.719 344.083 191.015 340.745C190.125 340.302 189.234 339.859 188.354 339.417C186.672 338.562 184.88 337.682 183.01 336.771C172.01 331.375 158.333 324.661 151.224 315.953C143.276 306.219 142.812 292.719 143.828 283.104C144.427 277.458 145.583 271.76 146.708 266.266C147.885 260.469 149.104 254.479 149.677 248.479C150.63 238.594 149.958 224.724 141.359 214.771C140.411 213.677 139.38 212.646 138.385 211.651C137.167 210.474 136.01 209.229 134.917 207.927C133.151 205.714 131.823 203.26 130.948 200.568C130.073 197.87 129.698 195.109 129.823 192.276C129.823 192.016 129.849 191.75 129.87 191.505C129.781 191.333 129.64 191.224 129.458 191.172C129.161 191.083 128.854 191 128.547 190.927C123.833 189.792 118.677 190.406 114.484 190.927C102.651 192.396 96.4113 201.667 90.3644 210.63L89.4998 211.906C86.9478 215.672 84.2394 220.203 83.5259 225.266C83.3384 226.573 83.1821 227.906 83.0311 229.193C82.5675 233.062 82.0988 237.052 80.828 240.823C80.578 241.583 80.3071 242.328 80.0415 243.078C79.3228 244.99 78.7238 246.937 78.2446 248.917C77.4165 252.729 77.4894 256.74 77.5571 260.281L77.8592 276.396C77.9842 283.094 79.3228 287.75 81.9425 290.641C84.6196 293.604 88.8228 294.276 92.755 294.276C94.6561 294.276 96.4998 294.125 98.0728 293.984C98.9634 293.906 99.854 293.813 100.734 293.693C101.208 293.635 101.682 293.563 102.161 293.49C107.234 292.703 112.177 291.339 117.193 289.875C121.385 288.641 125.469 287.391 129.328 285.615C129.75 285.422 130.177 285.224 130.609 285.031C133.755 283.615 137.01 282.151 139.411 279.714C141.359 277.682 142.88 275.37 143.969 272.776C143.338 276.141 142.781 279.557 142.427 282.958C141.38 292.833 141.87 306.734 150.125 316.844C157.432 325.797 171.276 332.589 182.396 338.042C184.25 338.953 186.042 339.833 187.719 340.682C188.604 341.125 189.495 341.562 190.385 342.01C196.984 345.297 203.802 348.698 209.005 353.906C215.437 360.354 219.62 370.031 220.771 381.167C221.349 386.771 221.193 392.458 220.677 398.089C220.62 398.724 220.557 399.365 220.489 400H221.911C221.974 399.359 222.042 398.724 222.088 398.089C222.604 392.427 222.76 386.687 222.172 381.016ZM138.422 278.698C136.198 280.943 133.068 282.349 130.036 283.724C129.599 283.911 129.172 284.109 128.745 284.307C124.979 286.042 120.948 287.281 116.802 288.5C110.531 290.333 104.37 292.016 97.9634 292.552C93.3957 292.948 86.4998 293.542 82.9998 289.672C80.6196 287.052 79.4061 282.687 79.2811 276.354L78.9842 260.229C78.9217 256.766 78.8384 252.839 79.6405 249.198C80.104 247.276 80.6873 245.385 81.3853 243.531C81.6509 242.771 81.9113 242.016 82.1717 241.245C83.4842 237.349 83.9634 233.281 84.4373 229.344C84.5884 228.063 84.7446 226.724 84.9269 225.443C85.604 220.682 88.203 216.323 90.6717 212.693L91.5259 211.417C97.3957 202.714 103.448 193.719 114.64 192.323C118.776 191.828 123.88 191.208 128.385 192.349C128.276 195.333 128.682 198.24 129.614 201.068C130.547 203.901 131.943 206.484 133.807 208.812C134.927 210.156 136.114 211.438 137.375 212.651C138.349 213.63 139.364 214.641 140.276 215.693C144.312 220.359 146.526 225.953 147.625 231.568V231.641C148.083 239.812 147.812 247.255 146.792 254.375L146.651 255.339C145.542 263.161 144.146 272.891 138.422 278.698Z" fill="url(#paint0_linear_359_7429)"></path> <path d="M178.26 189.828C177.396 189.828 176.562 189.797 175.745 189.745C170.401 185.964 164.838 183.302 159.182 181.833C149.151 179.214 138.937 180.521 131.156 185.417C130.963 185.536 130.755 185.557 130.541 185.484C130.328 185.411 130.182 185.266 130.109 185.052C128.062 179.135 120.906 176.562 115.109 176.688C111.026 176.766 106.833 178.062 102.276 180.661C100.797 181.5 99.3696 182.417 97.9894 183.406C86.4425 191.589 78.7342 202.818 76.8436 214.208C76.755 214.729 76.6925 215.255 76.6196 215.781V215.818C76.6196 215.859 76.6196 215.906 76.604 215.958C76.1248 219.875 76.2081 223.953 76.2759 227.885C76.38 233.427 76.479 239.146 75.0571 244.646C73.9946 248.771 72.0988 252.646 70.2707 256.385C68.4061 260.193 66.4842 264.12 65.4842 268.245C64.3488 272.927 64.3748 277.599 65.5519 282.271C66.4373 285.76 67.9946 289.146 69.505 292.417C71.4894 296.719 73.5363 301.172 74.1352 305.974C75.1977 314.5 71.8123 322.318 68.5363 329.88C67.0727 333.25 65.5623 336.74 64.5154 340.182C62.9217 345.401 62.2759 350.734 62.5727 356.188C62.7915 359.526 64.2238 362.453 65.7446 365.557C67.0675 368.271 68.4321 371.057 68.9321 374.167C69.7863 379.505 67.8332 384.781 66.2967 388.286C65.6717 389.714 64.9894 391.141 64.3227 392.516C63.4425 394.333 62.5467 396.182 61.7811 398.094C61.5206 398.724 61.2863 399.365 61.0623 400.01H59.5779C59.7811 399.365 60.0102 398.724 60.2602 398.094C61.0832 395.969 62.0779 393.906 63.0467 391.896C63.7082 390.531 64.3904 389.125 65.005 387.708C67.3384 382.391 68.1457 378.156 67.5363 374.375C67.0727 371.495 65.7498 368.786 64.4738 366.172C62.9634 363.078 61.3956 359.885 61.1561 356.26C60.8488 350.646 61.5206 345.141 63.1613 339.76C64.2394 336.234 65.7602 332.714 67.2446 329.302C70.4373 321.911 73.7446 314.276 72.729 306.135C72.1561 301.542 70.1561 297.193 68.2186 292.99C66.6873 289.667 65.0988 286.214 64.1821 282.599C62.9477 277.708 62.9217 272.807 64.104 267.901C65.1509 263.62 67.1092 259.62 68.9998 255.755C70.8019 252.083 72.6665 248.266 73.6925 244.281C75.0571 238.99 74.9582 233.354 74.8592 227.901C74.7967 224.156 74.7238 220.307 75.1196 216.516C75.1456 216.255 75.1769 215.99 75.2082 215.729L75.2238 215.609C75.2394 215.443 75.2654 215.276 75.2863 215.109C75.3384 214.729 75.3957 214.344 75.4582 213.969C77.4425 202.036 85.1509 190.776 97.1821 182.25C98.505 181.307 99.7446 180.495 100.937 179.802C101.151 179.672 101.37 179.542 101.578 179.432C101.786 179.328 101.974 179.208 102.172 179.099C106.703 176.599 110.932 175.344 115.083 175.266H115.479C121.427 175.266 128.578 177.906 131.125 183.776C139.135 179.063 149.427 177.839 159.526 180.464C165.969 182.141 172.255 185.286 178.26 189.828Z" fill="url(#paint1_linear_359_7429)"></path> <path d="M228.963 398.089C228.797 398.729 228.635 399.37 228.463 400H227C227.172 399.375 227.344 398.729 227.51 398.089C230.755 385.448 232.484 369.937 225.552 360.234C222.291 355.661 217.734 352.083 213.333 348.63C212.125 347.677 210.875 346.703 209.666 345.719C191.666 330.948 186.927 316.594 186.14 307.141C185.224 296.318 188.797 285.812 192.26 275.667C194.182 270.026 196.166 264.198 197.359 258.375C199.078 249.995 199.401 240.5 198.396 228.495C198.359 228.057 198.323 227.62 198.281 227.182C198.739 226.979 199.193 226.766 199.635 226.536C199.703 227.151 199.76 227.776 199.807 228.385C200.823 240.526 200.489 250.146 198.755 258.667C197.541 264.583 195.536 270.453 193.604 276.13C190.198 286.141 186.661 296.495 187.562 307.042C188.333 316.208 192.953 330.182 210.578 344.63C211.771 345.615 213.015 346.589 214.213 347.531C218.693 351.052 223.328 354.687 226.713 359.422C233.864 369.443 232.219 385.214 228.963 398.089Z" fill="url(#paint2_linear_359_7429)"></path> <path d="M88.7238 276.776H88.2863C87.5415 276.792 86.8019 276.714 86.0779 276.542C84.8956 276.26 83.8227 275.745 82.8592 275.005C82.3227 274.542 81.8592 274.01 81.4738 273.411C80.729 272.271 80.2811 269.417 81.7811 268.318L81.8331 268.276C81.9842 268.167 82.1508 268.125 82.3331 268.146C82.5154 268.172 82.6717 268.25 82.7915 268.396C82.9113 268.536 82.9633 268.698 82.9529 268.885C82.9477 269.073 82.8748 269.229 82.7394 269.359C82.6977 269.396 82.6561 269.432 82.6092 269.464C81.9686 269.948 82.1613 271.88 82.6508 272.625C82.9529 273.099 83.3123 273.516 83.729 273.891C84.5415 274.51 85.4425 274.938 86.4373 275.172C87.0467 275.313 87.6665 275.375 88.2967 275.359C90.4842 275.432 92.6404 275.182 94.755 274.62C96.3279 274.214 97.7915 273.568 99.1508 272.672L99.005 272.625C98.8227 272.557 98.6352 272.505 98.4477 272.479L98.3644 272.458L98.0988 272.391C95.0363 272.031 91.0311 271.448 87.1613 270.141L86.7706 269.995C86.4061 269.865 85.9842 269.714 85.5415 269.568C85.3592 269.51 85.2186 269.391 85.13 269.219C85.0415 269.042 85.0311 268.865 85.0883 268.677C85.1508 268.49 85.2654 268.354 85.4425 268.266C85.6144 268.177 85.7967 268.161 85.979 268.224C86.4373 268.375 86.8748 268.531 87.2498 268.667L87.6248 268.802C91.3644 270.068 95.2758 270.635 98.2706 270.984C98.4113 271.005 98.5519 271.036 98.6873 271.083C98.9581 271.125 99.2186 271.193 99.4738 271.281C99.6561 271.354 99.8436 271.401 100.036 271.427C100.271 271.453 100.489 271.531 100.687 271.661C100.989 271.698 101.198 271.854 101.302 272.141C101.411 272.417 101.364 272.667 101.161 272.885C101.12 272.927 101.078 272.969 101.031 273.01C99.5311 274.318 97.6769 275.266 95.1665 275.99C93.0571 276.552 90.9113 276.818 88.7238 276.776Z" fill="url(#paint3_linear_359_7429)"></path> <path d="M214.906 158.839C214.651 158.672 214.396 158.672 214.14 158.839C213.88 159 213.776 159.234 213.823 159.536C215.276 169.328 209.818 179.74 200.541 184.859C200.239 185.026 199.943 185.187 199.64 185.339C194.099 188.167 187.385 189.635 179.114 189.823C178.823 189.823 178.536 189.823 178.26 189.823C177.396 189.823 176.562 189.792 175.745 189.74C174.807 189.687 173.911 189.615 173.005 189.542C168.614 189.177 164.469 188.828 159.474 191.13C155.265 193.073 150.26 198.583 150.047 207.714C149.828 216.141 153.448 222.615 161.432 228.083C165.531 230.896 170.187 231.75 174.906 231.75C178.719 231.75 182.573 231.193 186.208 230.672L187.213 230.521C191.068 229.948 194.76 228.833 198.286 227.177C198.745 226.974 199.198 226.755 199.64 226.526C202.661 225.005 205.495 223.193 208.14 221.089C214.677 215.911 219.703 209.547 223.229 201.995C229.62 188.042 229.755 168.599 214.906 158.839ZM221.932 201.401C217.104 211.901 208.453 220.63 198.672 225.437C198.672 225.437 198.661 225.437 198.646 225.448L198.531 225.5C194.88 227.307 191.036 228.516 187.005 229.115L186.005 229.26C178.12 230.396 169.193 231.682 162.224 226.901C154.677 221.724 151.255 215.641 151.448 207.74C151.646 199.833 155.927 194.318 160.068 192.406C162.651 191.198 165.364 190.625 168.208 190.677C169.734 190.677 171.271 190.802 172.89 190.937C174.51 191.073 176.14 191.198 177.911 191.219C177.974 191.224 178.041 191.224 178.104 191.219C178.443 191.219 178.797 191.219 179.156 191.219C187.646 191.026 194.562 189.51 200.297 186.578C200.609 186.417 200.927 186.25 201.234 186.078C210.521 180.958 216.177 170.776 215.406 160.885C222.932 166.479 225.932 174.932 225.932 183.594C225.922 189.755 224.411 196.005 221.932 201.401Z" fill="url(#paint4_linear_359_7429)"></path> <path d="M85.5415 269.557C85.4894 269.536 85.4373 269.51 85.3956 269.495C85.3488 269.474 85.3956 269.495 85.38 269.495C85.3383 269.464 85.2967 269.427 85.2602 269.391C85.2342 269.365 85.2186 269.339 85.1925 269.318C85.1665 269.286 85.1508 269.255 85.13 269.224C85.1092 269.177 85.0883 269.125 85.0727 269.073C85.0623 269.021 85.0571 268.969 85.0571 268.917C85.0519 268.88 85.0519 268.844 85.0571 268.807C85.0571 268.766 85.0727 268.734 85.0883 268.698C85.0988 268.656 85.0883 268.698 85.0883 268.672C85.0883 268.646 85.0883 268.672 85.0883 268.646C85.0935 268.63 85.104 268.615 85.1144 268.604L85.13 268.557C85.13 268.547 85.1508 268.526 85.1561 268.516C85.1821 268.479 85.2081 268.443 85.2394 268.411C84.9373 268.531 84.6248 268.599 84.2967 268.609C83.7394 268.677 83.2133 268.594 82.7081 268.349C82.7238 268.354 82.7342 268.359 82.7394 268.37C82.7758 268.406 82.8019 268.443 82.8279 268.484C82.8592 268.521 82.88 268.563 82.8904 268.604C82.9529 268.734 82.9633 268.865 82.9321 269C82.9269 269.047 82.9113 269.089 82.8904 269.13C82.88 269.172 82.8592 269.214 82.8279 269.25C82.8123 269.297 82.7811 269.333 82.7394 269.365C82.6977 269.401 82.6561 269.438 82.6092 269.464C82.5623 269.495 82.5258 269.536 82.4946 269.578L82.4738 269.604C82.4425 269.646 82.4217 269.688 82.3956 269.734C83.0519 269.979 83.729 270.068 84.4269 269.995C84.9269 269.979 85.4061 269.865 85.8592 269.656C85.7498 269.625 85.6508 269.594 85.5415 269.557ZM85.5415 269.557C85.4894 269.536 85.4373 269.51 85.3956 269.495C85.3488 269.474 85.3956 269.495 85.38 269.495C85.3383 269.464 85.2967 269.427 85.2602 269.391C85.2342 269.365 85.2186 269.339 85.1925 269.318C85.1665 269.286 85.1508 269.255 85.13 269.224C85.1092 269.177 85.0883 269.125 85.0727 269.073C85.0623 269.021 85.0571 268.969 85.0571 268.917C85.0519 268.88 85.0519 268.844 85.0571 268.807C85.0623 268.771 85.0675 268.734 85.0779 268.698C85.0779 268.698 85.0779 268.677 85.0936 268.672C85.104 268.661 85.0936 268.651 85.0936 268.646L85.1092 268.604C85.1092 268.604 85.1092 268.578 85.1352 268.573C85.1613 268.568 85.1561 268.536 85.1613 268.526C85.1717 268.516 85.1977 268.474 85.2133 268.448H85.229C84.9217 268.573 84.6092 268.635 84.2863 268.646C83.729 268.714 83.1977 268.63 82.6977 268.385C82.7081 268.391 82.7185 268.396 82.729 268.406C82.7602 268.443 82.7915 268.479 82.8175 268.521C82.8436 268.557 82.8644 268.599 82.88 268.641C82.9373 268.771 82.9529 268.901 82.9165 269.036C82.9113 269.083 82.9008 269.125 82.88 269.167C82.8644 269.208 82.8436 269.25 82.8175 269.286C82.7967 269.333 82.7654 269.37 82.729 269.401C82.6873 269.438 82.6404 269.474 82.5936 269.5C82.5519 269.536 82.5102 269.573 82.479 269.615L82.4581 269.641C82.4321 269.682 82.4061 269.724 82.3852 269.771C83.0415 270.016 83.7133 270.104 84.4113 270.031C84.9113 270.016 85.3904 269.901 85.8488 269.698C85.7498 269.625 85.6508 269.594 85.5415 269.557ZM85.5415 269.557C85.4894 269.536 85.4425 269.516 85.3956 269.495C85.3956 269.495 85.3956 269.495 85.38 269.495C85.3331 269.469 85.2967 269.432 85.2602 269.391C85.2342 269.37 85.2081 269.344 85.1925 269.318C85.1717 269.286 85.1508 269.255 85.1352 269.224C85.1144 269.177 85.0936 269.125 85.0779 269.073C85.0675 269.021 85.0623 268.969 85.0623 268.917C85.0571 268.88 85.0571 268.844 85.0623 268.807C85.0675 268.771 85.0727 268.734 85.0831 268.698C85.0831 268.698 85.0831 268.677 85.0988 268.672C85.1092 268.661 85.0988 268.651 85.0988 268.646L85.1144 268.604C85.13 268.573 85.1456 268.547 85.1665 268.526C85.1821 268.5 85.2029 268.474 85.2186 268.448H85.2342C84.9269 268.573 84.6144 268.635 84.2915 268.646C83.7342 268.714 83.2029 268.63 82.7029 268.385C82.7133 268.391 82.7238 268.396 82.7342 268.406C82.7654 268.443 82.7967 268.479 82.8227 268.521C82.8488 268.557 82.8696 268.599 82.8852 268.641C82.9425 268.771 82.9581 268.901 82.9217 269.036C82.9165 269.083 82.9061 269.125 82.8852 269.167C82.8696 269.208 82.8488 269.25 82.8227 269.286C82.8019 269.333 82.7706 269.37 82.7342 269.401C82.6925 269.438 82.6456 269.474 82.5988 269.5C82.5571 269.536 82.5154 269.573 82.4842 269.615L82.4633 269.641C82.4373 269.682 82.4113 269.724 82.3904 269.771C83.0467 270.016 83.7185 270.104 84.4165 270.031C84.9165 270.016 85.3956 269.901 85.854 269.698C85.7498 269.625 85.6508 269.594 85.5415 269.557ZM101.958 271.755L94.4529 263.375C93.88 262.74 93.229 262.01 92.38 261.521C91.3592 260.922 90.2029 260.807 89.2811 261.208C89.1456 261.266 89.0206 261.323 88.9269 261.375C88.4425 261.604 88.3331 261.656 87.9217 261.516C87.7811 261.469 87.6561 261.411 87.505 261.359C87.1144 261.208 86.7133 261.083 86.3071 260.99C85.5623 260.849 84.8383 260.906 84.1248 261.156C83.5102 261.37 82.9633 261.698 82.4946 262.146C81.2446 263.344 80.656 265.214 80.8071 267.557C80.8331 268.036 80.9842 268.474 81.2602 268.87C81.3644 269.026 81.4894 269.161 81.63 269.281C81.854 269.474 82.104 269.625 82.38 269.729C83.0363 269.974 83.7133 270.063 84.4113 269.99C84.9113 269.974 85.3904 269.859 85.8436 269.651C86.0571 269.552 86.2446 269.417 86.4061 269.245C86.5779 269.052 86.7238 268.833 86.8383 268.599C86.854 268.573 86.8644 268.547 86.8852 268.526C86.9061 268.474 86.9269 268.427 86.9581 268.385C87.5415 267.443 88.979 267.271 90.0311 267.599C91.0883 267.932 91.9529 268.568 92.9008 269.26C93.1196 269.417 93.3331 269.573 93.5519 269.729C93.9217 269.99 94.2915 270.255 94.6821 270.474C96.005 271.307 97.3956 272.005 98.854 272.568L98.8852 272.583C98.9581 272.615 99.0415 272.646 99.1248 272.672C99.255 272.719 99.3852 272.771 99.5206 272.818C99.9373 272.974 100.37 273.063 100.812 273.078C100.844 273.083 100.87 273.083 100.901 273.078H100.911C101.208 273.078 101.484 273.005 101.745 272.865C101.948 272.76 102.073 272.594 102.109 272.37C102.161 272.141 102.109 271.938 101.958 271.755ZM99.5988 271.323C99.5467 271.323 99.505 271.292 99.4529 271.271C97.6456 270.589 95.9477 269.693 94.3696 268.573L93.7394 268.115C92.7446 267.385 91.7029 266.63 90.4633 266.25C89.9946 266.109 89.5102 266.036 89.0206 266.036C87.7498 266.036 86.4581 266.521 85.7654 267.651C85.7081 267.745 85.656 267.839 85.604 267.938C85.5415 268.063 85.4686 268.177 85.38 268.281C85.38 268.281 85.3696 268.281 85.3592 268.281C85.3331 268.313 85.3071 268.333 85.2706 268.354H85.2602C84.9581 268.474 84.6404 268.542 84.3175 268.547C83.7602 268.62 83.229 268.531 82.729 268.286C82.3956 268.094 82.2342 267.807 82.2446 267.427C82.156 266.089 82.3019 264.255 83.4894 263.12C83.8123 262.818 84.1821 262.594 84.5988 262.448C85.0727 262.286 85.5571 262.25 86.0467 262.339C86.38 262.411 86.7081 262.516 87.0258 262.641C87.1769 262.698 87.3279 262.755 87.4842 262.807C88.4321 263.135 88.9738 262.875 89.5467 262.609C89.6456 262.568 89.7498 262.516 89.8696 262.464C90.3696 262.24 91.0571 262.328 91.7029 262.698C92.3488 263.068 92.9008 263.688 93.4321 264.271L99.7186 271.297L99.7394 271.313C99.6925 271.323 99.6508 271.323 99.604 271.323H99.5988ZM85.5363 269.557C85.4842 269.536 85.4321 269.51 85.3904 269.495C85.3436 269.474 85.3904 269.495 85.3748 269.495C85.3331 269.464 85.2915 269.427 85.255 269.391C85.229 269.365 85.2133 269.339 85.1873 269.318C85.1665 269.286 85.1456 269.255 85.13 269.224C85.1092 269.177 85.0883 269.125 85.0727 269.073C85.0623 269.021 85.0571 268.969 85.0571 268.917C85.0519 268.88 85.0519 268.844 85.0571 268.807C85.0623 268.771 85.0675 268.734 85.0779 268.698C85.0779 268.698 85.0779 268.677 85.0936 268.672C85.104 268.661 85.0936 268.651 85.0936 268.646L85.1092 268.604C85.1248 268.573 85.1404 268.547 85.1613 268.526C85.1821 268.5 85.1977 268.474 85.2133 268.448H85.229C84.9217 268.573 84.6092 268.635 84.2863 268.646C83.729 268.714 83.1977 268.63 82.6977 268.385C82.7081 268.391 82.7185 268.396 82.729 268.406C82.7602 268.443 82.7915 268.479 82.8175 268.521C82.8436 268.557 82.8644 268.599 82.88 268.641C82.9373 268.771 82.9529 268.901 82.9165 269.036C82.9113 269.083 82.9008 269.125 82.88 269.167C82.8644 269.208 82.8436 269.25 82.8175 269.286C82.7967 269.333 82.7654 269.37 82.729 269.401C82.6873 269.438 82.6404 269.474 82.5936 269.5C82.5519 269.536 82.5102 269.573 82.479 269.615L82.4581 269.641C82.4321 269.682 82.4061 269.724 82.3852 269.771C83.0415 270.016 83.7133 270.104 84.4113 270.031C84.9113 270.016 85.3904 269.901 85.8488 269.698C85.7498 269.625 85.6508 269.594 85.5415 269.557H85.5363ZM85.5363 269.557C85.4842 269.536 85.4321 269.51 85.3904 269.495C85.3436 269.474 85.3904 269.495 85.3748 269.495C85.3331 269.464 85.2915 269.427 85.255 269.391C85.229 269.365 85.2133 269.339 85.1873 269.318C85.1613 269.286 85.1456 269.255 85.1248 269.224C85.104 269.177 85.0831 269.125 85.0675 269.073C85.0571 269.021 85.0519 268.969 85.0519 268.917C85.0467 268.88 85.0467 268.844 85.0519 268.807C85.0519 268.766 85.0675 268.734 85.0831 268.698C85.0936 268.656 85.0831 268.698 85.0831 268.672C85.0831 268.646 85.0831 268.672 85.0831 268.646C85.0883 268.63 85.0988 268.615 85.1092 268.604L85.1248 268.557C85.1248 268.547 85.1456 268.526 85.1508 268.516C85.1769 268.479 85.2029 268.443 85.2342 268.411C84.9321 268.531 84.6196 268.599 84.2915 268.609C83.7342 268.677 83.2081 268.594 82.7029 268.349C82.7186 268.354 82.729 268.359 82.7342 268.37C82.7706 268.406 82.7967 268.443 82.8227 268.484C82.854 268.521 82.8748 268.563 82.8852 268.604C82.9477 268.734 82.9581 268.865 82.9269 269C82.9217 269.047 82.9061 269.089 82.8852 269.13C82.8748 269.172 82.854 269.214 82.8227 269.25C82.8071 269.297 82.7758 269.333 82.7342 269.365C82.6925 269.401 82.6508 269.438 82.604 269.464C82.5571 269.495 82.5206 269.536 82.4894 269.578L82.4686 269.604C82.4373 269.646 82.4165 269.688 82.3904 269.734C83.0467 269.979 83.7238 270.068 84.4217 269.995C84.9217 269.979 85.4008 269.865 85.854 269.656C85.7498 269.625 85.6508 269.594 85.5415 269.557H85.5363Z" fill="url(#paint5_linear_359_7429)"></path> <path d="M102.177 179.104C101.979 179.208 101.781 179.318 101.583 179.432L100.943 179.802C100.828 179.641 100.708 179.479 100.578 179.333C99.6457 178.281 98.3019 177.552 97.1144 176.953C93.9842 175.38 90.6665 174.031 87.453 172.734C83.8748 171.281 80.1717 169.781 76.6873 167.948C68.6978 163.76 63.2655 158.286 60.9738 152.109C60.4634 150.667 60.0259 149.203 59.6613 147.719C58.8905 144.771 58.1613 141.958 56.3957 139.865C49.9269 156.943 48.1353 171.63 50.8957 184.755C53.3905 196.542 61.4738 210.547 72.1144 214.495C73.1301 214.875 74.1821 215.089 75.2707 215.125C75.2498 215.292 75.2238 215.453 75.2082 215.62L75.1926 215.745C75.1613 216.005 75.1301 216.266 75.104 216.526C73.9061 216.479 72.7394 216.24 71.6144 215.812C66.2394 213.818 61.1926 209.391 57.0207 203.016C53.4373 197.479 50.9321 191.484 49.5103 185.042C46.6196 171.375 48.5676 156.083 55.4738 138.297C55.5623 138.062 55.7342 137.917 55.979 137.859C56.2186 137.812 56.4321 137.87 56.6144 138.042C59.2342 140.495 60.1353 143.99 61.0207 147.37C61.3905 148.792 61.7707 150.25 62.2759 151.615C65.0207 159.01 71.9686 163.901 77.3228 166.698C80.7499 168.495 84.4113 169.99 87.9582 171.417C91.1978 172.724 94.5415 174.083 97.729 175.682C99.0415 176.344 100.521 177.146 101.614 178.385C101.823 178.615 102.01 178.849 102.177 179.104Z" fill="url(#paint6_linear_359_7429)"></path> <path d="M117.25 335.588C117.057 337.484 116.39 339.302 115.771 340.859C111.916 350.635 106.552 359.495 99.682 367.443C98.9841 368.25 98.2757 369.047 97.5622 369.833C95.781 371.833 93.9424 373.891 92.3851 376.094C90.1299 379.307 88.4632 382.797 87.3851 386.568C86.3018 390.338 85.8643 394.182 86.0726 398.099C86.1039 398.734 86.156 399.37 86.2185 400.01H84.807C84.7341 399.37 84.682 398.734 84.6507 398.099C84.4476 394.036 84.9112 390.052 86.0362 386.146C87.1612 382.24 88.8903 378.62 91.2237 375.292C92.833 373.021 94.7028 370.932 96.5101 368.901C97.2184 368.12 97.9216 367.333 98.6039 366.531C105.375 358.703 110.656 349.974 114.458 340.354C115.062 338.812 115.666 337.172 115.838 335.463C116.031 333.5 115.63 331.463 115.192 329.557C112.458 317.349 107.229 304.75 100.838 293.995C100.781 293.896 100.75 293.792 100.75 293.682C101.224 293.625 101.698 293.552 102.177 293.474C108.583 304.318 113.823 316.974 116.583 329.245C117.021 331.255 117.448 333.417 117.25 335.588Z" fill="url(#paint7_linear_359_7429)"></path> <path d="M238.864 40.9583C212.458 14.5417 177.338 0 139.995 0C102.651 0 67.5311 14.5417 41.1248 40.9583C14.7186 67.375 0.166504 102.479 0.166504 139.823V399.042C0.166504 399.307 0.260253 399.531 0.447754 399.719C0.635253 399.906 0.859212 400 1.11963 400H278.864C279.13 400 279.354 399.906 279.542 399.719C279.729 399.531 279.823 399.307 279.823 399.042V139.823C279.818 102.479 265.271 67.3646 238.864 40.9583ZM277.89 398.089H2.07796V139.823C2.07796 102.99 16.4269 68.3646 42.479 42.3125C68.5259 16.2552 103.156 1.91146 139.995 1.91146C176.833 1.91146 211.458 16.2604 237.51 42.3125C263.562 68.3646 277.901 102.99 277.901 139.823L277.89 398.089Z" fill="url(#paint8_linear_359_7429)"></path> <path d="M44.6613 95.2188C47.9113 96.2344 49.3279 99.1198 49.9998 102.661C50.7081 99.0573 52.0571 96.9948 55.3175 95.625C53.9738 95.1979 51.8435 92.9323 51.4217 92.2448C50.406 90.5885 50.3071 88.9583 50.0623 87.1094C49.2446 90.526 48.2446 93.651 44.6613 95.2188Z" fill="url(#paint9_linear_359_7429)"></path> <path d="M37.0988 335.276C40.3488 336.286 41.7654 339.172 42.4425 342.714C43.1456 339.109 44.4946 337.047 47.755 335.677C46.4113 335.25 44.2863 332.99 43.8644 332.297C42.8435 330.641 42.7446 329.01 42.505 327.161C41.6769 330.583 40.6769 333.703 37.0988 335.276Z" fill="url(#paint10_linear_359_7429)"></path> <path d="M256.156 258.974C259.401 259.984 260.823 262.87 261.495 266.411C262.198 262.807 263.547 260.745 266.812 259.375C265.469 258.953 263.338 256.688 262.916 255.995C261.901 254.333 261.797 252.708 261.557 250.859C260.734 254.276 259.745 257.401 256.156 258.974Z" fill="url(#paint11_linear_359_7429)"></path> <path d="M226.422 130.359C229.672 131.37 231.088 134.255 231.765 137.797C232.469 134.193 233.818 132.13 237.078 130.76C235.739 130.339 233.609 128.068 233.187 127.38C232.172 125.719 232.068 124.094 231.828 122.245C231.005 125.661 230.01 128.786 226.422 130.359Z" fill="url(#paint12_linear_359_7429)"></path> <path d="M19.0988 206.693C22.354 207.714 23.7706 210.594 24.4425 214.135C25.1508 210.531 26.4998 208.469 29.755 207.094C28.4165 206.672 26.2863 204.406 25.8644 203.719C24.8488 202.057 24.7498 200.427 24.505 198.578C23.6873 202 22.6925 205.12 19.0988 206.693Z" fill="url(#paint13_linear_359_7429)"></path> <path d="M59.2498 118.396C61.4113 119.068 62.354 120.99 62.8019 123.344C63.2759 120.948 64.1717 119.573 66.3436 118.661C65.4477 118.38 64.0311 116.875 63.7498 116.411C63.0727 115.307 63.005 114.224 62.8436 113.005C62.2967 115.25 61.6352 117.349 59.2498 118.396Z" fill="url(#paint14_linear_359_7429)"></path> <path d="M210.151 317.932C212.307 318.604 213.255 320.526 213.703 322.885C214.177 320.49 215.073 319.115 217.239 318.203C216.349 317.917 214.932 316.411 214.651 315.953C213.974 314.844 213.906 313.766 213.745 312.547C213.198 314.807 212.536 316.885 210.151 317.932Z" fill="url(#paint15_linear_359_7429)"></path> <path d="M186.036 98.1771C188.203 98.8489 189.146 100.771 189.594 103.13C190.062 100.729 190.963 99.3594 193.13 98.4479C192.239 98.1614 190.823 96.6562 190.541 96.1979C189.859 95.0885 189.797 94.0052 189.635 92.776C189.088 95.0521 188.422 97.1302 186.036 98.1771Z" fill="url(#paint16_linear_359_7429)"></path> <path d="M176.989 30.9583C179.151 31.6354 180.099 33.5521 180.547 35.9114C181.015 33.5156 181.911 32.1406 184.083 31.2292C183.193 30.9427 181.771 29.4375 181.489 28.9792C180.812 27.875 180.745 26.7917 180.588 25.5573C180.041 27.8333 179.375 29.9114 176.989 30.9583Z" fill="url(#paint17_linear_359_7429)"></path> <path d="M82.3227 102.198C82.3227 102.542 82.2029 102.833 81.9581 103.078C81.7133 103.323 81.4217 103.443 81.0779 103.443C80.7342 103.443 80.4425 103.323 80.1977 103.078C79.9529 102.833 79.8331 102.542 79.8331 102.198C79.8331 101.854 79.9529 101.563 80.1977 101.318C80.4425 101.078 80.7342 100.953 81.0779 100.953C81.4217 100.953 81.7133 101.078 81.9581 101.318C82.2029 101.563 82.3227 101.854 82.3227 102.198Z" fill="url(#paint18_linear_359_7429)"></path> <path d="M103.885 126.271C103.885 126.615 103.76 126.906 103.521 127.151C103.276 127.396 102.984 127.516 102.64 127.516C102.297 127.516 102.005 127.396 101.76 127.151C101.515 126.906 101.396 126.615 101.396 126.271C101.396 125.927 101.515 125.635 101.76 125.391C102.005 125.146 102.297 125.026 102.64 125.026C102.984 125.026 103.276 125.146 103.521 125.391C103.76 125.635 103.885 125.927 103.885 126.271Z" fill="url(#paint19_linear_359_7429)"></path> <path d="M100.015 142.724C100.015 143.068 99.8905 143.365 99.6509 143.604C99.4061 143.849 99.1144 143.969 98.7707 143.969C98.4269 143.969 98.13 143.849 97.8905 143.604C97.6457 143.365 97.5259 143.068 97.5259 142.724C97.5259 142.38 97.6457 142.089 97.8905 141.844C98.13 141.604 98.4269 141.479 98.7707 141.479C99.1144 141.479 99.4061 141.604 99.6509 141.844C99.8905 142.089 100.015 142.38 100.015 142.724Z" fill="url(#paint20_linear_359_7429)"></path> <path d="M13.7081 111.63C13.7081 111.974 13.5884 112.266 13.3436 112.51C13.0988 112.755 12.8071 112.875 12.4634 112.875C12.1196 112.875 11.8279 112.755 11.5831 112.51C11.3436 112.266 11.2186 111.974 11.2186 111.63C11.2186 111.286 11.3436 110.995 11.5831 110.75C11.8279 110.51 12.1196 110.385 12.4634 110.385C12.8071 110.385 13.0988 110.51 13.3436 110.75C13.5884 110.995 13.7081 111.286 13.7081 111.63Z" fill="url(#paint21_linear_359_7429)"></path> <path d="M95.9946 84.5313C95.9946 84.875 95.8696 85.1667 95.63 85.4115C95.3852 85.6563 95.0935 85.7761 94.7498 85.7761C94.406 85.7761 94.1092 85.6563 93.8696 85.4115C93.6248 85.1667 93.505 84.875 93.505 84.5313C93.505 84.1875 93.6248 83.8958 93.8696 83.6511C94.1092 83.4063 94.406 83.2865 94.7498 83.2865C95.0935 83.2865 95.3852 83.4063 95.63 83.6511C95.8696 83.8958 95.9946 84.1875 95.9946 84.5313Z" fill="url(#paint22_linear_359_7429)"></path> <path d="M54.5571 203.25C54.5571 203.594 54.4373 203.885 54.1925 204.13C53.9477 204.37 53.656 204.49 53.3123 204.49C52.9685 204.49 52.6769 204.37 52.4321 204.13C52.1873 203.885 52.0675 203.594 52.0675 203.25C52.0675 202.906 52.1873 202.609 52.4321 202.37C52.6769 202.125 52.9685 202.005 53.3123 202.005C53.656 202.005 53.9477 202.125 54.1925 202.37C54.4373 202.609 54.5571 202.906 54.5571 203.25Z" fill="url(#paint23_linear_359_7429)"></path> <path d="M12.229 254.807C12.229 255.151 12.1092 255.448 11.8644 255.687C11.6196 255.932 11.3279 256.052 10.9842 256.052C10.6404 256.052 10.3488 255.932 10.104 255.687C9.85917 255.448 9.73938 255.151 9.73938 254.807C9.73938 254.469 9.85917 254.172 10.104 253.932C10.3488 253.687 10.6404 253.568 10.9842 253.568C11.3279 253.568 11.6196 253.687 11.8644 253.932C12.1092 254.172 12.229 254.469 12.229 254.807Z" fill="url(#paint24_linear_359_7429)"></path> <path d="M59.1508 216.141C59.1508 216.484 59.031 216.781 58.7863 217.021C58.5415 217.266 58.2498 217.385 57.906 217.385C57.5623 217.385 57.2706 217.266 57.0258 217.021C56.7863 216.781 56.6613 216.484 56.6613 216.141C56.6613 215.797 56.7863 215.505 57.0258 215.266C57.2706 215.021 57.5623 214.901 57.906 214.901C58.2498 214.901 58.5415 215.021 58.7863 215.266C59.031 215.505 59.1508 215.797 59.1508 216.141Z" fill="url(#paint25_linear_359_7429)"></path> <path d="M18.88 301.38C18.88 301.724 18.7602 302.021 18.5154 302.26C18.2759 302.505 17.979 302.625 17.6352 302.625C17.2915 302.625 16.9998 302.505 16.755 302.26C16.5154 302.021 16.3904 301.724 16.3904 301.38C16.3904 301.036 16.5154 300.745 16.755 300.5C16.9998 300.26 17.2915 300.135 17.6352 300.135C17.979 300.135 18.2759 300.26 18.5154 300.5C18.7602 300.745 18.88 301.036 18.88 301.38Z" fill="url(#paint26_linear_359_7429)"></path> <path d="M43.2654 357.599C43.2654 357.943 43.1457 358.234 42.9009 358.479C42.6613 358.719 42.3644 358.844 42.0206 358.844C41.6821 358.844 41.3852 358.719 41.1456 358.479C40.9009 358.234 40.7811 357.943 40.7811 357.599C40.7811 357.255 40.9009 356.964 41.1456 356.719C41.3852 356.474 41.6821 356.354 42.0206 356.354C42.3644 356.354 42.6613 356.474 42.9009 356.719C43.1457 356.964 43.2654 357.255 43.2654 357.599Z" fill="url(#paint27_linear_359_7429)"></path> <path d="M33.6665 281.422C33.6665 281.766 33.5467 282.057 33.3019 282.302C33.0623 282.547 32.7654 282.667 32.4217 282.667C32.0779 282.667 31.7863 282.547 31.5415 282.302C31.3019 282.057 31.1769 281.766 31.1769 281.422C31.1769 281.078 31.3019 280.786 31.5415 280.542C31.7863 280.302 32.0779 280.177 32.4217 280.177C32.7654 280.177 33.0623 280.302 33.3019 280.542C33.5467 280.786 33.6665 281.078 33.6665 281.422Z" fill="url(#paint28_linear_359_7429)"></path> <path d="M21.3019 369.823C21.3019 370.167 21.1821 370.464 20.9373 370.703C20.6977 370.948 20.406 371.068 20.0623 371.068C19.7185 371.068 19.4217 370.948 19.1821 370.703C18.9373 370.464 18.8175 370.167 18.8175 369.823C18.8175 369.479 18.9373 369.187 19.1821 368.948C19.4217 368.703 19.7185 368.583 20.0623 368.583C20.406 368.583 20.6977 368.703 20.9373 368.948C21.1821 369.187 21.3019 369.479 21.3019 369.823Z" fill="url(#paint29_linear_359_7429)"></path> <path d="M27.7133 354.854C27.7133 355.198 27.5883 355.49 27.3488 355.734C27.104 355.974 26.8123 356.099 26.4685 356.099C26.1248 356.099 25.8279 355.974 25.5883 355.734C25.3435 355.49 25.2238 355.198 25.2238 354.854C25.2238 354.51 25.3435 354.219 25.5883 353.974C25.8279 353.729 26.1248 353.609 26.4685 353.609C26.8123 353.609 27.104 353.729 27.3488 353.974C27.5883 354.219 27.7133 354.51 27.7133 354.854Z" fill="url(#paint30_linear_359_7429)"></path> <path d="M38.7706 163.219C38.7706 163.563 38.6508 163.854 38.406 164.094C38.1665 164.339 37.8696 164.458 37.5258 164.458C37.1873 164.458 36.8904 164.339 36.6508 164.094C36.406 163.854 36.2863 163.563 36.2863 163.219C36.2863 162.875 36.406 162.578 36.6508 162.339C36.8904 162.094 37.1873 161.974 37.5258 161.974C37.8696 161.974 38.1665 162.094 38.406 162.339C38.6508 162.578 38.7706 162.875 38.7706 163.219Z" fill="url(#paint31_linear_359_7429)"></path> <path d="M34.4061 118.786C34.4061 119.13 34.2863 119.422 34.0415 119.667C33.7967 119.911 33.505 120.031 33.1613 120.031C32.8175 120.031 32.5259 119.911 32.2811 119.667C32.0415 119.422 31.9165 119.13 31.9165 118.786C31.9165 118.443 32.0415 118.151 32.2811 117.906C32.5259 117.667 32.8175 117.542 33.1613 117.542C33.505 117.542 33.7967 117.667 34.0415 117.906C34.2863 118.151 34.4061 118.443 34.4061 118.786Z" fill="url(#paint32_linear_359_7429)"></path> <path d="M200.568 160.422C200.568 160.766 200.448 161.062 200.203 161.302C199.963 161.547 199.666 161.667 199.323 161.667C198.984 161.667 198.687 161.547 198.448 161.302C198.203 161.062 198.083 160.766 198.083 160.422C198.083 160.083 198.203 159.786 198.448 159.547C198.687 159.302 198.984 159.182 199.323 159.182C199.666 159.182 199.963 159.302 200.203 159.547C200.448 159.786 200.568 160.083 200.568 160.422Z" fill="url(#paint33_linear_359_7429)"></path> <path d="M207.182 146.734C207.182 147.078 207.062 147.375 206.818 147.615C206.578 147.859 206.281 147.979 205.937 147.979C205.594 147.979 205.302 147.859 205.057 147.615C204.817 147.375 204.693 147.078 204.693 146.734C204.693 146.391 204.817 146.099 205.057 145.854C205.302 145.615 205.594 145.49 205.937 145.49C206.281 145.49 206.578 145.615 206.818 145.854C207.062 146.099 207.182 146.391 207.182 146.734Z" fill="url(#paint34_linear_359_7429)"></path> <path d="M260.109 189.016C260.109 189.359 259.984 189.656 259.745 189.896C259.5 190.141 259.208 190.26 258.864 190.26C258.521 190.26 258.224 190.141 257.984 189.896C257.739 189.656 257.62 189.359 257.62 189.016C257.62 188.672 257.739 188.38 257.984 188.135C258.224 187.896 258.521 187.771 258.864 187.771C259.208 187.771 259.5 187.896 259.745 188.135C259.984 188.38 260.109 188.672 260.109 189.016Z" fill="url(#paint35_linear_359_7429)"></path> <path d="M236.854 173.073C236.854 173.417 236.729 173.708 236.489 173.948C236.245 174.193 235.953 174.312 235.609 174.312C235.265 174.312 234.974 174.193 234.729 173.948C234.484 173.708 234.364 173.417 234.364 173.073C234.364 172.729 234.484 172.432 234.729 172.193C234.974 171.948 235.265 171.828 235.609 171.828C235.953 171.828 236.245 171.948 236.489 172.193C236.729 172.432 236.854 172.729 236.854 173.073Z" fill="url(#paint36_linear_359_7429)"></path> <path d="M166.385 154.344C166.385 154.688 166.265 154.979 166.021 155.224C165.781 155.464 165.484 155.589 165.14 155.589C164.802 155.589 164.505 155.464 164.265 155.224C164.021 154.979 163.901 154.688 163.901 154.344C163.901 154 164.021 153.703 164.265 153.464C164.505 153.219 164.802 153.099 165.14 153.099C165.484 153.099 165.781 153.219 166.021 153.464C166.265 153.703 166.385 154 166.385 154.344Z" fill="url(#paint37_linear_359_7429)"></path> <path d="M238.437 211.156C238.437 211.5 238.318 211.797 238.073 212.036C237.828 212.281 237.536 212.401 237.193 212.401C236.849 212.401 236.557 212.281 236.312 212.036C236.073 211.797 235.948 211.5 235.948 211.156C235.948 210.812 236.073 210.521 236.312 210.276C236.557 210.036 236.849 209.917 237.193 209.917C237.536 209.917 237.828 210.036 238.073 210.276C238.318 210.521 238.437 210.812 238.437 211.156Z" fill="url(#paint38_linear_359_7429)"></path> <path d="M225.396 262.417C225.396 262.76 225.276 263.052 225.031 263.297C224.786 263.536 224.495 263.661 224.151 263.661C223.807 263.661 223.515 263.536 223.271 263.297C223.031 263.052 222.906 262.76 222.906 262.417C222.906 262.073 223.031 261.781 223.271 261.536C223.515 261.292 223.807 261.172 224.151 261.172C224.495 261.172 224.786 261.292 225.031 261.536C225.276 261.781 225.396 262.073 225.396 262.417Z" fill="url(#paint39_linear_359_7429)"></path> <path d="M216.26 75.4062C216.26 75.75 216.14 76.0469 215.896 76.2864C215.651 76.5312 215.359 76.651 215.015 76.651C214.672 76.651 214.38 76.5312 214.135 76.2864C213.89 76.0469 213.771 75.75 213.771 75.4062C213.771 75.0625 213.89 74.7708 214.135 74.526C214.38 74.2864 214.672 74.1667 215.015 74.1667C215.359 74.1667 215.651 74.2864 215.896 74.526C216.14 74.7708 216.26 75.0625 216.26 75.4062Z" fill="url(#paint40_linear_359_7429)"></path> <path d="M136.422 130.109C136.422 130.453 136.302 130.75 136.057 130.99C135.812 131.234 135.521 131.354 135.177 131.354C134.833 131.354 134.541 131.234 134.297 130.99C134.057 130.75 133.932 130.453 133.932 130.109C133.932 129.766 134.057 129.474 134.297 129.229C134.541 128.99 134.833 128.865 135.177 128.865C135.521 128.865 135.812 128.99 136.057 129.229C136.302 129.474 136.422 129.766 136.422 130.109Z" fill="url(#paint41_linear_359_7429)"></path> <path d="M165.281 138.438C165.281 138.781 165.161 139.073 164.917 139.318C164.677 139.563 164.38 139.682 164.036 139.682C163.693 139.682 163.401 139.563 163.156 139.318C162.916 139.073 162.792 138.781 162.792 138.438C162.792 138.094 162.916 137.802 163.156 137.557C163.401 137.313 163.693 137.193 164.036 137.193C164.38 137.193 164.677 137.313 164.917 137.557C165.161 137.802 165.281 138.094 165.281 138.438Z" fill="url(#paint42_linear_359_7429)"></path> <path d="M245.088 80.8542C245.088 81.1979 244.969 81.4896 244.724 81.7344C244.479 81.9792 244.187 82.099 243.844 82.099C243.5 82.099 243.208 81.9792 242.963 81.7344C242.719 81.4896 242.599 81.1979 242.599 80.8542C242.599 80.5104 242.719 80.2188 242.963 79.974C243.208 79.7292 243.5 79.6094 243.844 79.6094C244.187 79.6094 244.479 79.7292 244.724 79.974C244.969 80.2188 245.088 80.5104 245.088 80.8542Z" fill="url(#paint43_linear_359_7429)"></path> <path d="M261.604 134.901C261.604 135.245 261.479 135.536 261.239 135.781C260.995 136.026 260.703 136.146 260.359 136.146C260.015 136.146 259.724 136.026 259.479 135.781C259.234 135.536 259.114 135.245 259.114 134.901C259.114 134.557 259.234 134.266 259.479 134.021C259.724 133.781 260.015 133.656 260.359 133.656C260.703 133.656 260.995 133.781 261.239 134.021C261.479 134.266 261.604 134.557 261.604 134.901Z" fill="url(#paint44_linear_359_7429)"></path> <path d="M153.187 143.922C153.187 144.266 153.068 144.557 152.823 144.802C152.583 145.047 152.286 145.167 151.943 145.167C151.599 145.167 151.307 145.047 151.062 144.802C150.823 144.557 150.698 144.266 150.698 143.922C150.698 143.578 150.823 143.286 151.062 143.042C151.307 142.802 151.599 142.677 151.943 142.677C152.286 142.677 152.583 142.802 152.823 143.042C153.068 143.286 153.187 143.578 153.187 143.922Z" fill="url(#paint45_linear_359_7429)"></path> <path d="M258.729 288.193C258.729 288.536 258.609 288.828 258.364 289.073C258.12 289.318 257.828 289.438 257.484 289.438C257.14 289.438 256.849 289.318 256.604 289.073C256.364 288.828 256.239 288.536 256.239 288.193C256.239 287.849 256.364 287.557 256.604 287.313C256.849 287.073 257.14 286.948 257.484 286.948C257.828 286.948 258.12 287.073 258.364 287.313C258.609 287.557 258.729 287.849 258.729 288.193Z" fill="url(#paint46_linear_359_7429)"></path> <path d="M222.651 303.599C222.651 303.943 222.531 304.24 222.286 304.479C222.041 304.724 221.75 304.844 221.406 304.844C221.062 304.844 220.771 304.724 220.526 304.479C220.286 304.24 220.161 303.943 220.161 303.599C220.161 303.255 220.286 302.964 220.526 302.719C220.771 302.479 221.062 302.354 221.406 302.354C221.75 302.354 222.041 302.479 222.286 302.719C222.531 302.964 222.651 303.255 222.651 303.599Z" fill="url(#paint47_linear_359_7429)"></path> <path d="M254.682 356.682C254.682 357.026 254.562 357.323 254.318 357.562C254.073 357.807 253.781 357.927 253.437 357.927C253.094 357.927 252.802 357.807 252.557 357.562C252.317 357.323 252.193 357.026 252.193 356.682C252.193 356.339 252.317 356.047 252.557 355.802C252.802 355.563 253.094 355.438 253.437 355.438C253.781 355.438 254.073 355.563 254.318 355.802C254.562 356.047 254.682 356.339 254.682 356.682Z" fill="url(#paint48_linear_359_7429)"></path> <path d="M244.177 233.568C244.177 233.911 244.057 234.203 243.812 234.448C243.568 234.688 243.276 234.813 242.932 234.813C242.588 234.813 242.297 234.688 242.052 234.448C241.807 234.203 241.687 233.911 241.687 233.568C241.687 233.224 241.807 232.932 242.052 232.688C242.297 232.443 242.588 232.323 242.932 232.323C243.276 232.323 243.568 232.443 243.812 232.688C244.057 232.932 244.177 233.224 244.177 233.568Z" fill="url(#paint49_linear_359_7429)"></path> <path d="M204.349 251.766C204.349 252.109 204.224 252.401 203.984 252.641C203.739 252.885 203.448 253.005 203.104 253.005C202.76 253.005 202.463 252.885 202.224 252.641C201.979 252.401 201.859 252.109 201.859 251.766C201.859 251.422 201.979 251.125 202.224 250.885C202.463 250.641 202.76 250.521 203.104 250.521C203.448 250.521 203.739 250.641 203.984 250.885C204.224 251.125 204.349 251.422 204.349 251.766Z" fill="url(#paint50_linear_359_7429)"></path> <path d="M208.922 267.906C208.922 268.25 208.802 268.542 208.557 268.786C208.318 269.031 208.021 269.151 207.677 269.151C207.333 269.151 207.041 269.031 206.797 268.786C206.557 268.542 206.432 268.25 206.432 267.906C206.432 267.562 206.557 267.271 206.797 267.026C207.041 266.781 207.333 266.661 207.677 266.661C208.021 266.661 208.318 266.781 208.557 267.026C208.802 267.271 208.922 267.562 208.922 267.906Z" fill="url(#paint51_linear_359_7429)"></path> <path d="M270.239 323.734C270.239 324.078 270.12 324.37 269.875 324.615C269.635 324.859 269.338 324.979 269 324.979C268.656 324.979 268.359 324.859 268.12 324.615C267.875 324.37 267.755 324.078 267.755 323.734C267.755 323.391 267.875 323.099 268.12 322.854C268.359 322.615 268.656 322.49 269 322.49C269.338 322.49 269.635 322.615 269.875 322.854C270.12 323.099 270.239 323.391 270.239 323.734Z" fill="url(#paint52_linear_359_7429)"></path> <path d="M264.75 341.125C264.75 341.469 264.63 341.76 264.385 342.005C264.146 342.25 263.849 342.37 263.505 342.37C263.161 342.37 262.87 342.25 262.625 342.005C262.385 341.76 262.265 341.469 262.265 341.125C262.265 340.781 262.385 340.49 262.625 340.245C262.87 340 263.161 339.88 263.505 339.88C263.849 339.88 264.146 340 264.385 340.245C264.63 340.49 264.75 340.781 264.75 341.125Z" fill="url(#paint53_linear_359_7429)"></path> <path d="M266.578 360.344C266.578 360.687 266.458 360.979 266.213 361.224C265.974 361.464 265.677 361.589 265.333 361.589C264.989 361.589 264.698 361.464 264.458 361.224C264.213 360.979 264.094 360.687 264.094 360.344C264.094 360 264.213 359.708 264.458 359.464C264.698 359.219 264.989 359.099 265.333 359.099C265.677 359.099 265.974 359.219 266.213 359.464C266.458 359.708 266.578 360 266.578 360.344Z" fill="url(#paint54_linear_359_7429)"></path> <path d="M257.109 389.125C257.109 389.469 256.984 389.766 256.745 390.005C256.5 390.25 256.208 390.37 255.864 390.37C255.521 390.37 255.229 390.25 254.984 390.005C254.739 389.766 254.62 389.469 254.62 389.125C254.62 388.781 254.739 388.49 254.984 388.245C255.229 388.005 255.521 387.885 255.864 387.885C256.208 387.885 256.5 388.005 256.745 388.245C256.984 388.49 257.109 388.781 257.109 389.125Z" fill="url(#paint55_linear_359_7429)"></path> <path d="M238.208 343.87C238.208 344.214 238.088 344.505 237.844 344.75C237.604 344.995 237.307 345.115 236.963 345.115C236.62 345.115 236.328 344.995 236.083 344.75C235.844 344.505 235.719 344.214 235.719 343.87C235.719 343.526 235.844 343.234 236.083 342.99C236.328 342.745 236.62 342.625 236.963 342.625C237.307 342.625 237.604 342.745 237.844 342.99C238.088 343.234 238.208 343.526 238.208 343.87Z" fill="url(#paint56_linear_359_7429)"></path> <path d="M233.635 320.073C233.635 320.417 233.51 320.708 233.271 320.953C233.026 321.198 232.734 321.318 232.39 321.318C232.047 321.318 231.755 321.198 231.51 320.953C231.265 320.708 231.146 320.417 231.146 320.073C231.146 319.729 231.265 319.438 231.51 319.193C231.755 318.953 232.047 318.828 232.39 318.828C232.734 318.828 233.026 318.953 233.271 319.193C233.51 319.438 233.635 319.729 233.635 320.073Z" fill="url(#paint57_linear_359_7429)"></path> <path d="M256.411 222.281C256.411 222.625 256.291 222.922 256.047 223.161C255.802 223.406 255.51 223.526 255.166 223.526C254.823 223.526 254.531 223.406 254.286 223.161C254.047 222.922 253.922 222.625 253.922 222.281C253.922 221.937 254.047 221.646 254.286 221.401C254.531 221.161 254.823 221.036 255.166 221.036C255.51 221.036 255.802 221.161 256.047 221.401C256.291 221.646 256.411 221.937 256.411 222.281Z" fill="url(#paint58_linear_359_7429)"></path> <path d="M112.026 139.719C112.026 140.062 111.906 140.359 111.661 140.599C111.416 140.844 111.125 140.964 110.781 140.964C110.437 140.964 110.146 140.844 109.901 140.599C109.656 140.359 109.536 140.062 109.536 139.719C109.536 139.375 109.656 139.083 109.901 138.844C110.146 138.599 110.437 138.479 110.781 138.479C111.125 138.479 111.416 138.599 111.661 138.844C111.906 139.083 112.026 139.375 112.026 139.719Z" fill="url(#paint59_linear_359_7429)"></path> <path d="M145.37 160.703C145.37 161.047 145.25 161.339 145.005 161.583C144.76 161.823 144.469 161.948 144.125 161.948C143.781 161.948 143.489 161.823 143.245 161.583C143.005 161.339 142.88 161.047 142.88 160.703C142.88 160.359 143.005 160.068 143.245 159.823C143.489 159.578 143.781 159.458 144.125 159.458C144.469 159.458 144.76 159.578 145.005 159.823C145.25 160.068 145.37 160.359 145.37 160.703Z" fill="url(#paint60_linear_359_7429)"></path> <path d="M199.536 134.625C199.536 134.969 199.416 135.266 199.172 135.505C198.932 135.75 198.635 135.87 198.291 135.87C197.948 135.87 197.656 135.75 197.411 135.505C197.172 135.266 197.047 134.969 197.047 134.625C197.047 134.281 197.172 133.99 197.411 133.745C197.656 133.505 197.948 133.38 198.291 133.38C198.635 133.38 198.932 133.505 199.172 133.745C199.416 133.99 199.536 134.281 199.536 134.625Z" fill="url(#paint61_linear_359_7429)"></path> <path d="M179.297 61.3646C179.297 61.7083 179.177 62 178.932 62.2448C178.693 62.4844 178.396 62.6094 178.052 62.6094C177.708 62.6094 177.416 62.4844 177.172 62.2448C176.932 62 176.807 61.7083 176.807 61.3646C176.807 61.0208 176.932 60.7239 177.172 60.4844C177.416 60.2396 177.708 60.1198 178.052 60.1198C178.396 60.1198 178.693 60.2396 178.932 60.4844C179.177 60.7239 179.297 61.0208 179.297 61.3646Z" fill="url(#paint62_linear_359_7429)"></path> <path d="M222.172 55.9531C222.172 56.2969 222.052 56.5938 221.807 56.8333C221.568 57.0781 221.271 57.1979 220.932 57.1979C220.588 57.1979 220.291 57.0781 220.052 56.8333C219.807 56.5938 219.687 56.2969 219.687 55.9531C219.687 55.6094 219.807 55.3177 220.052 55.0729C220.291 54.8333 220.588 54.7083 220.932 54.7083C221.271 54.7083 221.568 54.8333 221.807 55.0729C222.052 55.3177 222.172 55.6094 222.172 55.9531Z" fill="url(#paint63_linear_359_7429)"></path> <path d="M80.4165 71.9375C80.4165 72.276 80.2915 72.5729 80.0519 72.8125C79.8071 73.0573 79.5154 73.1771 79.1717 73.1771C78.8279 73.1771 78.5363 73.0573 78.2915 72.8125C78.0467 72.5729 77.9269 72.276 77.9269 71.9375C77.9269 71.5938 78.0467 71.2969 78.2915 71.0573C78.5363 70.8125 78.8279 70.6927 79.1717 70.6927C79.5154 70.6927 79.8071 70.8125 80.0519 71.0573C80.2915 71.2969 80.4165 71.5938 80.4165 71.9375Z" fill="url(#paint64_linear_359_7429)"></path> <path d="M81.953 32.2969C81.953 32.6406 81.8332 32.9323 81.5884 33.1771C81.3436 33.4167 81.0519 33.5417 80.7082 33.5417C80.3644 33.5417 80.0728 33.4167 79.828 33.1771C79.5832 32.9323 79.4634 32.6406 79.4634 32.2969C79.4634 31.9531 79.5832 31.6615 79.828 31.4167C80.0728 31.1719 80.3644 31.0521 80.7082 31.0521C81.0519 31.0521 81.3436 31.1719 81.5884 31.4167C81.8332 31.6615 81.953 31.9531 81.953 32.2969Z" fill="url(#paint65_linear_359_7429)"></path> <path d="M39.8175 57.4323C39.8175 57.776 39.6925 58.0677 39.4529 58.3125C39.2081 58.5521 38.9165 58.6771 38.5727 58.6771C38.229 58.6771 37.9321 58.5521 37.6925 58.3125C37.4477 58.0677 37.3279 57.776 37.3279 57.4323C37.3279 57.0885 37.4477 56.7969 37.6925 56.5521C37.9321 56.3073 38.229 56.1875 38.5727 56.1875C38.9165 56.1875 39.2081 56.3073 39.4529 56.5521C39.6925 56.7969 39.8175 57.0885 39.8175 57.4323Z" fill="url(#paint66_linear_359_7429)"></path> <path d="M47.6144 230.849C47.6144 231.193 47.4894 231.484 47.2498 231.729C47.005 231.969 46.7134 232.094 46.3696 232.094C46.0259 232.094 45.7342 231.969 45.4894 231.729C45.2446 231.484 45.1248 231.193 45.1248 230.849C45.1248 230.505 45.2446 230.214 45.4894 229.969C45.7342 229.724 46.0259 229.604 46.3696 229.604C46.7134 229.604 47.005 229.724 47.2498 229.969C47.4894 230.214 47.6144 230.505 47.6144 230.849Z" fill="url(#paint67_linear_359_7429)"></path> <path d="M96.1873 51.1198C96.1873 51.4635 96.0623 51.7604 95.8228 52C95.578 52.2448 95.2863 52.3646 94.9425 52.3646C94.5988 52.3646 94.3071 52.2448 94.0623 52C93.8175 51.7604 93.6978 51.4635 93.6978 51.1198C93.6978 50.776 93.8175 50.4844 94.0623 50.2396C94.3071 50 94.5988 49.875 94.9425 49.875C95.2863 49.875 95.578 50 95.8228 50.2396C96.0623 50.4844 96.1873 50.776 96.1873 51.1198Z" fill="url(#paint68_linear_359_7429)"></path> <path d="M140.349 10.8594C140.349 11.2031 140.229 11.4948 139.984 11.7396C139.745 11.9844 139.448 12.1042 139.109 12.1042C138.765 12.1042 138.469 11.9844 138.229 11.7396C137.984 11.4948 137.864 11.2031 137.864 10.8594C137.864 10.5156 137.984 10.224 138.229 9.97918C138.469 9.73959 138.765 9.61459 139.109 9.61459C139.448 9.61459 139.745 9.73959 139.984 9.97918C140.229 10.224 140.349 10.5156 140.349 10.8594Z" fill="url(#paint69_linear_359_7429)"></path> <path d="M102.505 68.724C102.505 69.0677 102.38 69.3646 102.14 69.6042C101.896 69.849 101.604 69.9688 101.26 69.9688C100.916 69.9688 100.625 69.849 100.38 69.6042C100.135 69.3646 100.015 69.0677 100.015 68.724C100.015 68.3802 100.135 68.0885 100.38 67.849C100.625 67.6042 100.916 67.4844 101.26 67.4844C101.604 67.4844 101.896 67.6042 102.14 67.849C102.38 68.0885 102.505 68.3802 102.505 68.724Z" fill="url(#paint70_linear_359_7429)"></path> <path d="M125.568 24.1667C125.568 24.5104 125.448 24.8021 125.203 25.0469C124.958 25.2865 124.666 25.4115 124.323 25.4115C123.979 25.4115 123.687 25.2865 123.443 25.0469C123.198 24.8021 123.078 24.5104 123.078 24.1667C123.078 23.8229 123.198 23.5313 123.443 23.2865C123.687 23.0417 123.979 22.9219 124.323 22.9219C124.666 22.9219 124.958 23.0417 125.203 23.2865C125.448 23.5313 125.568 23.8229 125.568 24.1667Z" fill="url(#paint71_linear_359_7429)"></path> <path d="M150.38 42.9479C150.38 43.2917 150.26 43.5833 150.015 43.8281C149.771 44.0677 149.479 44.1927 149.135 44.1927C148.791 44.1927 148.5 44.0677 148.255 43.8281C148.015 43.5833 147.89 43.2917 147.89 42.9479C147.89 42.6042 148.015 42.3125 148.255 42.0677C148.5 41.8229 148.791 41.7031 149.135 41.7031C149.479 41.7031 149.771 41.8229 150.015 42.0677C150.26 42.3125 150.38 42.6042 150.38 42.9479Z" fill="url(#paint72_linear_359_7429)"></path> <path d="M159.349 68.6823C156.802 68.5052 154.182 70.0885 152.333 72.8958C151.625 74.0156 151 75.1823 150.443 76.3854C149.922 77.526 149.328 78.6198 148.667 79.6823C147.359 81.6927 145.599 82.9479 143.896 83.1562C141.338 82.5104 138.781 82.5208 136.229 83.1771C134.469 83.0104 132.677 81.7448 131.312 79.6823C130.651 78.6198 130.062 77.526 129.542 76.3854C128.989 75.1823 128.359 74.0156 127.651 72.8958C125.797 70.0885 123.172 68.5052 120.635 68.6823C120.401 68.6875 120.208 68.776 120.052 68.9479C119.896 69.1198 119.823 69.3229 119.838 69.5521C119.854 69.7865 119.953 69.974 120.13 70.125C120.307 70.2708 120.51 70.3333 120.745 70.3073C122.703 70.1875 124.76 71.4896 126.286 73.7969C126.958 74.8594 127.552 75.9635 128.068 77.1042C128.625 78.3021 129.255 79.4635 129.953 80.5833C130.885 82.0729 132.125 83.2344 133.661 84.0833C133.12 84.3229 132.594 84.5989 132.083 84.901C131.573 85.2031 131.083 85.5365 130.609 85.8958C130.135 86.2552 129.687 86.6406 129.255 87.0469C128.828 87.4583 128.422 87.8906 128.042 88.349C127.661 88.8073 127.312 89.2812 126.984 89.776C126.661 90.276 126.364 90.7864 126.094 91.3177C125.828 91.8489 125.588 92.3906 125.385 92.9479C125.177 93.5052 125.005 94.0729 124.864 94.651C124.724 95.2239 124.614 95.8073 124.536 96.3958C124.463 96.9844 124.422 97.5781 124.411 98.1719C124.406 98.7656 124.432 99.3594 124.489 99.9479C124.547 100.542 124.64 101.125 124.765 101.703C124.89 102.286 125.052 102.859 125.239 103.422C125.432 103.979 125.656 104.531 125.906 105.068C126.161 105.604 126.443 106.125 126.755 106.63C127.068 107.135 127.406 107.625 127.776 108.089C128.14 108.557 128.536 109 128.953 109.422C129.37 109.844 129.812 110.24 130.271 110.615C130.734 110.984 131.219 111.328 131.719 111.646C132.224 111.964 132.739 112.25 133.276 112.51C133.812 112.766 134.359 112.995 134.917 113.193C135.479 113.385 136.047 113.552 136.63 113.682C137.208 113.812 137.791 113.911 138.38 113.974C138.974 114.042 139.562 114.073 140.156 114.068C140.75 114.068 141.344 114.031 141.932 113.964C142.521 113.891 143.104 113.792 143.682 113.656C144.26 113.521 144.833 113.349 145.39 113.151C145.948 112.948 146.495 112.719 147.026 112.458C147.562 112.193 148.078 111.901 148.578 111.578C149.073 111.26 149.557 110.911 150.015 110.536C150.474 110.161 150.911 109.76 151.328 109.333C151.739 108.911 152.13 108.464 152.495 107.995C152.859 107.526 153.193 107.036 153.5 106.526C153.812 106.021 154.088 105.495 154.338 104.958C154.588 104.417 154.802 103.865 154.989 103.302C155.177 102.74 155.328 102.167 155.453 101.583C155.573 101.005 155.661 100.417 155.713 99.8281C155.771 99.2344 155.792 98.6406 155.776 98.0469C155.765 97.4531 155.719 96.8646 155.64 96.276C155.557 95.6875 155.448 95.1042 155.302 94.5312C155.156 93.9531 154.974 93.3906 154.765 92.8333C154.557 92.276 154.312 91.7344 154.042 91.2083C153.771 90.6823 153.469 90.1719 153.14 89.6771C152.812 89.1823 152.453 88.7083 152.073 88.2552C151.687 87.8021 151.281 87.3698 150.849 86.9635C150.416 86.5573 149.958 86.1771 149.484 85.8229C149.01 85.4635 148.515 85.1406 148 84.8385C147.489 84.5417 146.958 84.2708 146.417 84.0312C147.911 83.1927 149.114 82.0469 150.031 80.5937C150.734 79.474 151.359 78.3177 151.911 77.1146C152.432 75.974 153.026 74.8698 153.693 73.8073C155.219 71.5 157.286 70.1979 159.239 70.3177C159.463 70.3333 159.656 70.2656 159.828 70.1146C159.995 69.9687 160.088 69.7812 160.104 69.5573C160.125 69.3333 160.057 69.1354 159.906 68.9635C159.76 68.7917 159.573 68.6979 159.349 68.6823ZM154.151 98.3698C154.151 99.2396 154.068 100.104 153.911 100.958C153.75 101.812 153.51 102.646 153.198 103.458C152.88 104.271 152.495 105.047 152.036 105.786C151.578 106.526 151.052 107.214 150.463 107.854C149.88 108.5 149.239 109.083 148.542 109.604C147.844 110.125 147.109 110.583 146.328 110.969C145.547 111.354 144.739 111.667 143.901 111.901C143.062 112.135 142.213 112.292 141.344 112.37C140.479 112.448 139.609 112.443 138.745 112.359C137.88 112.276 137.026 112.115 136.193 111.87C135.354 111.63 134.547 111.312 133.771 110.922C132.995 110.531 132.26 110.068 131.568 109.542C130.875 109.01 130.239 108.427 129.656 107.776C129.073 107.13 128.557 106.437 128.104 105.693C127.651 104.953 127.265 104.172 126.958 103.359C126.651 102.547 126.416 101.714 126.265 100.854C126.109 100 126.036 99.1354 126.047 98.2656C126.052 97.3958 126.135 96.5312 126.307 95.6771C126.474 94.8229 126.713 93.9896 127.036 93.1823C127.359 92.375 127.75 91.6042 128.219 90.8646C128.682 90.1302 129.208 89.4427 129.802 88.8073C130.396 88.1667 131.041 87.5885 131.739 87.0729C132.437 86.5573 133.182 86.1094 133.963 85.7292C134.75 85.3489 135.557 85.0417 136.396 84.8125L136.937 84.6927C137.12 84.651 137.297 84.599 137.479 84.5677C138.344 84.401 139.213 84.3177 140.099 84.3177C140.885 84.3229 141.672 84.3854 142.453 84.5156C142.896 84.5885 143.333 84.6875 143.765 84.8021C144.505 85.0052 145.224 85.2604 145.922 85.5833C146.614 85.901 147.281 86.2708 147.922 86.7031C148.557 87.1302 149.151 87.6042 149.713 88.1302C150.271 88.6562 150.781 89.224 151.25 89.8333C151.713 90.4375 152.13 91.0833 152.489 91.7604C152.849 92.4323 153.156 93.1354 153.401 93.8594C153.646 94.5885 153.833 95.3281 153.958 96.0833C154.083 96.8437 154.146 97.6042 154.151 98.3698Z" fill="url(#paint73_linear_359_7429)"></path> <defs> <linearGradient id="paint0_linear_359_7429" x1="139.995" y1="0" x2="139.995" y2="400.01" gradientUnits="userSpaceOnUse"> <stop offset="0.520833" stop-color="#B3210E"></stop> <stop offset="1" stop-color="white"></stop> </linearGradient> <linearGradient id="paint1_linear_359_7429" x1="139.995" y1="0" x2="139.995" y2="400.01" gradientUnits="userSpaceOnUse"> <stop offset="0.520833" stop-color="#B3210E"></stop> <stop offset="1" stop-color="white"></stop> </linearGradient> <linearGradient id="paint2_linear_359_7429" x1="139.995" y1="0" x2="139.995" y2="400.01" gradientUnits="userSpaceOnUse"> <stop offset="0.520833" stop-color="#B3210E"></stop> <stop offset="1" stop-color="white"></stop> </linearGradient> <linearGradient id="paint3_linear_359_7429" x1="139.995" y1="0" x2="139.995" y2="400.01" gradientUnits="userSpaceOnUse"> <stop offset="0.520833" stop-color="#B3210E"></stop> <stop offset="1" stop-color="white"></stop> </linearGradient> <linearGradient id="paint4_linear_359_7429" x1="139.995" y1="0" x2="139.995" y2="400.01" gradientUnits="userSpaceOnUse"> <stop offset="0.520833" stop-color="#B3210E"></stop> <stop offset="1" stop-color="white"></stop> </linearGradient> <linearGradient id="paint5_linear_359_7429" x1="139.995" y1="0" x2="139.995" y2="400.01" gradientUnits="userSpaceOnUse"> <stop offset="0.520833" stop-color="#B3210E"></stop> <stop offset="1" stop-color="white"></stop> </linearGradient> <linearGradient id="paint6_linear_359_7429" x1="139.995" y1="0" x2="139.995" y2="400.01" gradientUnits="userSpaceOnUse"> <stop offset="0.520833" stop-color="#B3210E"></stop> <stop offset="1" stop-color="white"></stop> </linearGradient> <linearGradient id="paint7_linear_359_7429" x1="139.995" y1="0" x2="139.995" y2="400.01" gradientUnits="userSpaceOnUse"> <stop offset="0.520833" stop-color="#B3210E"></stop> <stop offset="1" stop-color="white"></stop> </linearGradient> <linearGradient id="paint8_linear_359_7429" x1="139.995" y1="0" x2="139.995" y2="400.01" gradientUnits="userSpaceOnUse"> <stop offset="0.520833" stop-color="#B3210E"></stop> <stop offset="1" stop-color="white"></stop> </linearGradient> <linearGradient id="paint9_linear_359_7429" x1="139.995" y1="0" x2="139.995" y2="400.01" gradientUnits="userSpaceOnUse"> <stop offset="0.520833" stop-color="#B3210E"></stop> <stop offset="1" stop-color="white"></stop> </linearGradient> <linearGradient id="paint10_linear_359_7429" x1="139.995" y1="0" x2="139.995" y2="400.01" gradientUnits="userSpaceOnUse"> <stop offset="0.520833" stop-color="#B3210E"></stop> <stop offset="1" stop-color="white"></stop> </linearGradient> <linearGradient id="paint11_linear_359_7429" x1="139.995" y1="0" x2="139.995" y2="400.01" gradientUnits="userSpaceOnUse"> <stop offset="0.520833" stop-color="#B3210E"></stop> <stop offset="1" stop-color="white"></stop> </linearGradient> <linearGradient id="paint12_linear_359_7429" x1="139.995" y1="0" x2="139.995" y2="400.01" gradientUnits="userSpaceOnUse"> <stop offset="0.520833" stop-color="#B3210E"></stop> <stop offset="1" stop-color="white"></stop> </linearGradient> <linearGradient id="paint13_linear_359_7429" x1="139.995" y1="0" x2="139.995" y2="400.01" gradientUnits="userSpaceOnUse"> <stop offset="0.520833" stop-color="#B3210E"></stop> <stop offset="1" stop-color="white"></stop> </linearGradient> <linearGradient id="paint14_linear_359_7429" x1="139.995" y1="0" x2="139.995" y2="400.01" gradientUnits="userSpaceOnUse"> <stop offset="0.520833" stop-color="#B3210E"></stop> <stop offset="1" stop-color="white"></stop> </linearGradient> <linearGradient id="paint15_linear_359_7429" x1="139.995" y1="0" x2="139.995" y2="400.01" gradientUnits="userSpaceOnUse"> <stop offset="0.520833" stop-color="#B3210E"></stop> <stop offset="1" stop-color="white"></stop> </linearGradient> <linearGradient id="paint16_linear_359_7429" x1="139.995" y1="0" x2="139.995" y2="400.01" gradientUnits="userSpaceOnUse"> <stop offset="0.520833" stop-color="#B3210E"></stop> <stop offset="1" stop-color="white"></stop> </linearGradient> <linearGradient id="paint17_linear_359_7429" x1="139.995" y1="0" x2="139.995" y2="400.01" gradientUnits="userSpaceOnUse"> <stop offset="0.520833" stop-color="#B3210E"></stop> <stop offset="1" stop-color="white"></stop> </linearGradient> <linearGradient id="paint18_linear_359_7429" x1="139.995" y1="0" x2="139.995" y2="400.01" gradientUnits="userSpaceOnUse"> <stop offset="0.520833" stop-color="#B3210E"></stop> <stop offset="1" stop-color="white"></stop> </linearGradient> <linearGradient id="paint19_linear_359_7429" x1="139.995" y1="0" x2="139.995" y2="400.01" gradientUnits="userSpaceOnUse"> <stop offset="0.520833" stop-color="#B3210E"></stop> <stop offset="1" stop-color="white"></stop> </linearGradient> <linearGradient id="paint20_linear_359_7429" x1="139.995" y1="0" x2="139.995" y2="400.01" gradientUnits="userSpaceOnUse"> <stop offset="0.520833" stop-color="#B3210E"></stop> <stop offset="1" stop-color="white"></stop> </linearGradient> <linearGradient id="paint21_linear_359_7429" x1="139.995" y1="0" x2="139.995" y2="400.01" gradientUnits="userSpaceOnUse"> <stop offset="0.520833" stop-color="#B3210E"></stop> <stop offset="1" stop-color="white"></stop> </linearGradient> <linearGradient id="paint22_linear_359_7429" x1="139.995" y1="0" x2="139.995" y2="400.01" gradientUnits="userSpaceOnUse"> <stop offset="0.520833" stop-color="#B3210E"></stop> <stop offset="1" stop-color="white"></stop> </linearGradient> <linearGradient id="paint23_linear_359_7429" x1="139.995" y1="0" x2="139.995" y2="400.01" gradientUnits="userSpaceOnUse"> <stop offset="0.520833" stop-color="#B3210E"></stop> <stop offset="1" stop-color="white"></stop> </linearGradient> <linearGradient id="paint24_linear_359_7429" x1="139.995" y1="0" x2="139.995" y2="400.01" gradientUnits="userSpaceOnUse"> <stop offset="0.520833" stop-color="#B3210E"></stop> <stop offset="1" stop-color="white"></stop> </linearGradient> <linearGradient id="paint25_linear_359_7429" x1="139.995" y1="0" x2="139.995" y2="400.01" gradientUnits="userSpaceOnUse"> <stop offset="0.520833" stop-color="#B3210E"></stop> <stop offset="1" stop-color="white"></stop> </linearGradient> <linearGradient id="paint26_linear_359_7429" x1="139.995" y1="0" x2="139.995" y2="400.01" gradientUnits="userSpaceOnUse"> <stop offset="0.520833" stop-color="#B3210E"></stop> <stop offset="1" stop-color="white"></stop> </linearGradient> <linearGradient id="paint27_linear_359_7429" x1="139.995" y1="0" x2="139.995" y2="400.01" gradientUnits="userSpaceOnUse"> <stop offset="0.520833" stop-color="#B3210E"></stop> <stop offset="1" stop-color="white"></stop> </linearGradient> <linearGradient id="paint28_linear_359_7429" x1="139.995" y1="0" x2="139.995" y2="400.01" gradientUnits="userSpaceOnUse"> <stop offset="0.520833" stop-color="#B3210E"></stop> <stop offset="1" stop-color="white"></stop> </linearGradient> <linearGradient id="paint29_linear_359_7429" x1="139.995" y1="0" x2="139.995" y2="400.01" gradientUnits="userSpaceOnUse"> <stop offset="0.520833" stop-color="#B3210E"></stop> <stop offset="1" stop-color="white"></stop> </linearGradient> <linearGradient id="paint30_linear_359_7429" x1="139.995" y1="0" x2="139.995" y2="400.01" gradientUnits="userSpaceOnUse"> <stop offset="0.520833" stop-color="#B3210E"></stop> <stop offset="1" stop-color="white"></stop> </linearGradient> <linearGradient id="paint31_linear_359_7429" x1="139.995" y1="0" x2="139.995" y2="400.01" gradientUnits="userSpaceOnUse"> <stop offset="0.520833" stop-color="#B3210E"></stop> <stop offset="1" stop-color="white"></stop> </linearGradient> <linearGradient id="paint32_linear_359_7429" x1="139.995" y1="0" x2="139.995" y2="400.01" gradientUnits="userSpaceOnUse"> <stop offset="0.520833" stop-color="#B3210E"></stop> <stop offset="1" stop-color="white"></stop> </linearGradient> <linearGradient id="paint33_linear_359_7429" x1="139.995" y1="0" x2="139.995" y2="400.01" gradientUnits="userSpaceOnUse"> <stop offset="0.520833" stop-color="#B3210E"></stop> <stop offset="1" stop-color="white"></stop> </linearGradient> <linearGradient id="paint34_linear_359_7429" x1="139.995" y1="0" x2="139.995" y2="400.01" gradientUnits="userSpaceOnUse"> <stop offset="0.520833" stop-color="#B3210E"></stop> <stop offset="1" stop-color="white"></stop> </linearGradient> <linearGradient id="paint35_linear_359_7429" x1="139.995" y1="0" x2="139.995" y2="400.01" gradientUnits="userSpaceOnUse"> <stop offset="0.520833" stop-color="#B3210E"></stop> <stop offset="1" stop-color="white"></stop> </linearGradient> <linearGradient id="paint36_linear_359_7429" x1="139.995" y1="0" x2="139.995" y2="400.01" gradientUnits="userSpaceOnUse"> <stop offset="0.520833" stop-color="#B3210E"></stop> <stop offset="1" stop-color="white"></stop> </linearGradient> <linearGradient id="paint37_linear_359_7429" x1="139.995" y1="0" x2="139.995" y2="400.01" gradientUnits="userSpaceOnUse"> <stop offset="0.520833" stop-color="#B3210E"></stop> <stop offset="1" stop-color="white"></stop> </linearGradient> <linearGradient id="paint38_linear_359_7429" x1="139.995" y1="0" x2="139.995" y2="400.01" gradientUnits="userSpaceOnUse"> <stop offset="0.520833" stop-color="#B3210E"></stop> <stop offset="1" stop-color="white"></stop> </linearGradient> <linearGradient id="paint39_linear_359_7429" x1="139.995" y1="0" x2="139.995" y2="400.01" gradientUnits="userSpaceOnUse"> <stop offset="0.520833" stop-color="#B3210E"></stop> <stop offset="1" stop-color="white"></stop> </linearGradient> <linearGradient id="paint40_linear_359_7429" x1="139.995" y1="0" x2="139.995" y2="400.01" gradientUnits="userSpaceOnUse"> <stop offset="0.520833" stop-color="#B3210E"></stop> <stop offset="1" stop-color="white"></stop> </linearGradient> <linearGradient id="paint41_linear_359_7429" x1="139.995" y1="0" x2="139.995" y2="400.01" gradientUnits="userSpaceOnUse"> <stop offset="0.520833" stop-color="#B3210E"></stop> <stop offset="1" stop-color="white"></stop> </linearGradient> <linearGradient id="paint42_linear_359_7429" x1="139.995" y1="0" x2="139.995" y2="400.01" gradientUnits="userSpaceOnUse"> <stop offset="0.520833" stop-color="#B3210E"></stop> <stop offset="1" stop-color="white"></stop> </linearGradient> <linearGradient id="paint43_linear_359_7429" x1="139.995" y1="0" x2="139.995" y2="400.01" gradientUnits="userSpaceOnUse"> <stop offset="0.520833" stop-color="#B3210E"></stop> <stop offset="1" stop-color="white"></stop> </linearGradient> <linearGradient id="paint44_linear_359_7429" x1="139.995" y1="0" x2="139.995" y2="400.01" gradientUnits="userSpaceOnUse"> <stop offset="0.520833" stop-color="#B3210E"></stop> <stop offset="1" stop-color="white"></stop> </linearGradient> <linearGradient id="paint45_linear_359_7429" x1="139.995" y1="0" x2="139.995" y2="400.01" gradientUnits="userSpaceOnUse"> <stop offset="0.520833" stop-color="#B3210E"></stop> <stop offset="1" stop-color="white"></stop> </linearGradient> <linearGradient id="paint46_linear_359_7429" x1="139.995" y1="0" x2="139.995" y2="400.01" gradientUnits="userSpaceOnUse"> <stop offset="0.520833" stop-color="#B3210E"></stop> <stop offset="1" stop-color="white"></stop> </linearGradient> <linearGradient id="paint47_linear_359_7429" x1="139.995" y1="0" x2="139.995" y2="400.01" gradientUnits="userSpaceOnUse"> <stop offset="0.520833" stop-color="#B3210E"></stop> <stop offset="1" stop-color="white"></stop> </linearGradient> <linearGradient id="paint48_linear_359_7429" x1="139.995" y1="0" x2="139.995" y2="400.01" gradientUnits="userSpaceOnUse"> <stop offset="0.520833" stop-color="#B3210E"></stop> <stop offset="1" stop-color="white"></stop> </linearGradient> <linearGradient id="paint49_linear_359_7429" x1="139.995" y1="0" x2="139.995" y2="400.01" gradientUnits="userSpaceOnUse"> <stop offset="0.520833" stop-color="#B3210E"></stop> <stop offset="1" stop-color="white"></stop> </linearGradient> <linearGradient id="paint50_linear_359_7429" x1="139.995" y1="0" x2="139.995" y2="400.01" gradientUnits="userSpaceOnUse"> <stop offset="0.520833" stop-color="#B3210E"></stop> <stop offset="1" stop-color="white"></stop> </linearGradient> <linearGradient id="paint51_linear_359_7429" x1="139.995" y1="0" x2="139.995" y2="400.01" gradientUnits="userSpaceOnUse"> <stop offset="0.520833" stop-color="#B3210E"></stop> <stop offset="1" stop-color="white"></stop> </linearGradient> <linearGradient id="paint52_linear_359_7429" x1="139.995" y1="0" x2="139.995" y2="400.01" gradientUnits="userSpaceOnUse"> <stop offset="0.520833" stop-color="#B3210E"></stop> <stop offset="1" stop-color="white"></stop> </linearGradient> <linearGradient id="paint53_linear_359_7429" x1="139.995" y1="0" x2="139.995" y2="400.01" gradientUnits="userSpaceOnUse"> <stop offset="0.520833" stop-color="#B3210E"></stop> <stop offset="1" stop-color="white"></stop> </linearGradient> <linearGradient id="paint54_linear_359_7429" x1="139.995" y1="0" x2="139.995" y2="400.01" gradientUnits="userSpaceOnUse"> <stop offset="0.520833" stop-color="#B3210E"></stop> <stop offset="1" stop-color="white"></stop> </linearGradient> <linearGradient id="paint55_linear_359_7429" x1="139.995" y1="0" x2="139.995" y2="400.01" gradientUnits="userSpaceOnUse"> <stop offset="0.520833" stop-color="#B3210E"></stop> <stop offset="1" stop-color="white"></stop> </linearGradient> <linearGradient id="paint56_linear_359_7429" x1="139.995" y1="0" x2="139.995" y2="400.01" gradientUnits="userSpaceOnUse"> <stop offset="0.520833" stop-color="#B3210E"></stop> <stop offset="1" stop-color="white"></stop> </linearGradient> <linearGradient id="paint57_linear_359_7429" x1="139.995" y1="0" x2="139.995" y2="400.01" gradientUnits="userSpaceOnUse"> <stop offset="0.520833" stop-color="#B3210E"></stop> <stop offset="1" stop-color="white"></stop> </linearGradient> <linearGradient id="paint58_linear_359_7429" x1="139.995" y1="0" x2="139.995" y2="400.01" gradientUnits="userSpaceOnUse"> <stop offset="0.520833" stop-color="#B3210E"></stop> <stop offset="1" stop-color="white"></stop> </linearGradient> <linearGradient id="paint59_linear_359_7429" x1="139.995" y1="0" x2="139.995" y2="400.01" gradientUnits="userSpaceOnUse"> <stop offset="0.520833" stop-color="#B3210E"></stop> <stop offset="1" stop-color="white"></stop> </linearGradient> <linearGradient id="paint60_linear_359_7429" x1="139.995" y1="0" x2="139.995" y2="400.01" gradientUnits="userSpaceOnUse"> <stop offset="0.520833" stop-color="#B3210E"></stop> <stop offset="1" stop-color="white"></stop> </linearGradient> <linearGradient id="paint61_linear_359_7429" x1="139.995" y1="0" x2="139.995" y2="400.01" gradientUnits="userSpaceOnUse"> <stop offset="0.520833" stop-color="#B3210E"></stop> <stop offset="1" stop-color="white"></stop> </linearGradient> <linearGradient id="paint62_linear_359_7429" x1="139.995" y1="0" x2="139.995" y2="400.01" gradientUnits="userSpaceOnUse"> <stop offset="0.520833" stop-color="#B3210E"></stop> <stop offset="1" stop-color="white"></stop> </linearGradient> <linearGradient id="paint63_linear_359_7429" x1="139.995" y1="0" x2="139.995" y2="400.01" gradientUnits="userSpaceOnUse"> <stop offset="0.520833" stop-color="#B3210E"></stop> <stop offset="1" stop-color="white"></stop> </linearGradient> <linearGradient id="paint64_linear_359_7429" x1="139.995" y1="0" x2="139.995" y2="400.01" gradientUnits="userSpaceOnUse"> <stop offset="0.520833" stop-color="#B3210E"></stop> <stop offset="1" stop-color="white"></stop> </linearGradient> <linearGradient id="paint65_linear_359_7429" x1="139.995" y1="0" x2="139.995" y2="400.01" gradientUnits="userSpaceOnUse"> <stop offset="0.520833" stop-color="#B3210E"></stop> <stop offset="1" stop-color="white"></stop> </linearGradient> <linearGradient id="paint66_linear_359_7429" x1="139.995" y1="0" x2="139.995" y2="400.01" gradientUnits="userSpaceOnUse"> <stop offset="0.520833" stop-color="#B3210E"></stop> <stop offset="1" stop-color="white"></stop> </linearGradient> <linearGradient id="paint67_linear_359_7429" x1="139.995" y1="0" x2="139.995" y2="400.01" gradientUnits="userSpaceOnUse"> <stop offset="0.520833" stop-color="#B3210E"></stop> <stop offset="1" stop-color="white"></stop> </linearGradient> <linearGradient id="paint68_linear_359_7429" x1="139.995" y1="0" x2="139.995" y2="400.01" gradientUnits="userSpaceOnUse"> <stop offset="0.520833" stop-color="#B3210E"></stop> <stop offset="1" stop-color="white"></stop> </linearGradient> <linearGradient id="paint69_linear_359_7429" x1="139.995" y1="0" x2="139.995" y2="400.01" gradientUnits="userSpaceOnUse"> <stop offset="0.520833" stop-color="#B3210E"></stop> <stop offset="1" stop-color="white"></stop> </linearGradient> <linearGradient id="paint70_linear_359_7429" x1="139.995" y1="0" x2="139.995" y2="400.01" gradientUnits="userSpaceOnUse"> <stop offset="0.520833" stop-color="#B3210E"></stop> <stop offset="1" stop-color="white"></stop> </linearGradient> <linearGradient id="paint71_linear_359_7429" x1="139.995" y1="0" x2="139.995" y2="400.01" gradientUnits="userSpaceOnUse"> <stop offset="0.520833" stop-color="#B3210E"></stop> <stop offset="1" stop-color="white"></stop> </linearGradient> <linearGradient id="paint72_linear_359_7429" x1="139.995" y1="0" x2="139.995" y2="400.01" gradientUnits="userSpaceOnUse"> <stop offset="0.520833" stop-color="#B3210E"></stop> <stop offset="1" stop-color="white"></stop> </linearGradient> <linearGradient id="paint73_linear_359_7429" x1="139.995" y1="0" x2="139.995" y2="400.01" gradientUnits="userSpaceOnUse"> <stop offset="0.520833" stop-color="#B3210E"></stop> <stop offset="1" stop-color="white"></stop> </linearGradient> </defs> </svg> 