<?xml version="1.0" encoding="UTF-8"?> <svg xmlns="http://www.w3.org/2000/svg" width="280" height="400" viewBox="0 0 280 400" fill="none"> <path d="M238.885 40.9583C212.5 14.5729 177.286 0 139.948 0C102.604 0 67.4999 14.5729 41.1145 40.9583C14.7343 67.3385 0.161377 102.448 0.161377 139.786V399.042C0.161377 399.573 0.583251 400 1.1145 400H278.885C279.417 400 279.838 399.573 279.838 399.042V139.786C279.838 102.448 265.266 67.3385 238.885 40.9583ZM90.9062 268.297C87.4999 262.448 82.6041 256.807 76.0103 251.063C71.5416 247.234 66.651 243.615 61.9687 240.104C58.4583 237.552 54.8385 234.896 51.328 232.021C40.7968 223.51 31.4374 213.724 23.5624 202.766C21.7551 200.318 19.9478 197.661 19.4166 194.682C18.776 191.594 19.203 188.193 21.1145 183.828C22.8176 185.104 24.6301 186.063 26.651 186.703C29.0937 187.448 31.651 187.87 34.3072 187.87C40.4791 187.87 46.7551 185.745 51.9687 181.807C50.4791 185.531 48.9895 190.318 50.2655 193.615C51.2239 196.063 53.2447 197.87 54.8385 199.359C65.9062 209.359 78.4583 218.193 90.5833 226.807C94.7343 229.682 98.9895 232.766 103.245 235.745C101.651 240.427 99.7343 245.104 97.927 249.682C95.3697 255.849 92.8176 262.13 90.9062 268.297ZM78.1405 150.214C78.1405 151.172 78.1405 152.13 78.2447 153.083C78.3489 154.151 78.4583 155.104 78.6718 156.063C78.9895 157.87 79.203 159.469 79.0937 161.172C78.9895 162.87 78.2447 164.786 77.1822 166.385C77.1822 166.385 77.1822 166.385 77.0728 166.49C75.7968 168.406 74.0937 169.896 72.2864 170.641C71.8593 170.849 71.5416 170.849 71.4374 170.745C71.2239 170.641 71.2239 170.641 71.1145 170.531C71.0103 170.318 71.0103 169.896 71.4374 168.828C71.5416 168.51 71.7551 168.193 71.8593 167.979C73.5624 164.359 75.3697 158.938 74.0937 153.193C74.0937 152.979 73.776 152.766 73.5624 152.766C73.3489 152.766 73.1405 152.979 73.1405 153.297C73.1405 158.083 71.9687 163.406 69.6301 168.724C69.6301 168.724 69.6301 168.724 69.6301 168.828C69.4166 169.469 69.0937 170 68.8853 170.427C68.5624 171.172 68.1405 172.021 67.3958 172.448C66.8593 172.87 65.9062 172.87 65.4791 172.448C65.1614 172.13 65.1614 171.594 65.2655 170.745V170.641C65.2655 170.641 65.2655 170.641 65.2655 170.531V170.427C65.4791 169.255 65.9062 167.979 66.2239 166.807C67.0728 163.828 68.0312 160.745 67.3958 157.552C67.3958 157.339 67.1822 157.13 66.8593 157.13C66.651 157.13 66.4374 157.339 66.4374 157.552C66.0103 160.531 65.2655 163.724 64.4166 166.807C64.203 167.766 63.9895 168.724 63.6718 169.573C63.5624 169.896 63.4583 170.318 63.3489 170.641C62.6041 173.193 61.651 174.682 60.1614 175.427C59.5208 175.745 58.776 175.745 58.3489 175.318C58.2447 175.214 58.2447 175.104 58.2447 175C58.1405 174.573 58.2447 173.938 58.4583 173.297C60.2655 167.87 60.7968 162.13 60.052 156.385C59.8385 154.896 59.8385 153.615 59.8385 152.339C59.8385 151.703 59.8385 150.958 59.7343 150.318C59.7343 149.786 59.7343 149.255 59.6301 148.615C59.6301 148.297 59.5208 147.552 58.9895 147.234C58.6718 147.021 58.3489 147.021 58.0312 147.13C57.6041 147.234 57.2864 147.552 57.0728 147.87C56.7551 148.406 56.8593 149.042 56.8593 149.573V150.531C56.9687 152.339 56.8593 154.151 56.651 155.958C56.651 156.276 56.4374 157.766 55.5833 157.87C54.9478 157.87 54.5208 157.13 54.203 156.49C53.4583 154.573 53.2447 152.448 53.1405 150.427C53.0312 149.786 53.0312 149.042 52.927 148.406C52.927 148.406 52.927 148.406 52.927 148.297C52.927 148.297 52.927 148.297 52.927 148.193C52.8176 146.917 52.6041 145.849 52.2864 144.896C52.1822 144.469 51.9687 144.042 51.651 143.615C50.5833 142.339 48.5624 142.979 47.927 143.193C47.7135 143.297 47.4999 143.297 47.2864 143.406C46.1145 142.766 45.052 142.13 43.8853 141.703C44.6301 140.849 45.2655 140 46.0103 139.042C46.8593 137.979 47.7135 136.807 48.6718 135.745C53.3489 130.427 61.328 129.359 67.2864 133.083C68.9895 134.151 70.5833 135.745 71.9687 137.021C74.9478 139.896 77.2864 142.448 77.7135 146.385C77.8176 147.339 77.8176 148.406 77.927 149.359L78.1405 150.214ZM88.0312 159.255C88.0312 159.786 88.0312 160.318 87.927 160.849V160.958C87.927 161.49 87.8176 161.917 87.7135 162.339C87.7135 162.552 87.6041 162.766 87.6041 163.083C87.6041 163.406 87.4999 163.724 87.4999 164.042C87.3958 164.896 87.1822 165.849 86.7551 166.385C86.5416 166.703 86.0103 167.13 84.7343 166.807C84.4166 166.703 84.0937 166.594 83.8853 166.49C83.6718 166.385 83.4583 166.276 83.2447 166.276C81.9687 165.849 80.1614 165.958 78.6718 166.276C79.5208 164.682 80.052 163.083 80.1614 161.49C80.2655 159.682 80.052 157.87 79.7343 156.063C79.6301 155.104 79.4166 154.042 79.3072 153.083C79.203 152.13 79.203 151.172 79.203 150.318C80.4791 150.214 81.651 149.896 82.6041 149.359C83.5624 148.938 84.3072 148.828 84.8385 149.042C85.9062 149.469 86.328 151.063 86.8593 152.766L86.9687 153.193C86.9687 153.297 86.9687 153.297 87.0728 153.406C87.0728 153.51 87.0728 153.615 87.1822 153.615C87.2864 153.938 87.3958 154.255 87.3958 154.469C87.3958 154.682 87.4999 154.786 87.4999 155C87.4999 155.104 87.4999 155.214 87.6041 155.318C87.7135 155.849 87.8176 156.385 87.8176 157.021C88.0312 157.661 88.0312 158.406 88.0312 159.255ZM128.458 251.276L128.245 252.448C127.182 252.021 126.01 251.49 124.838 250.849C125.266 246.807 125.693 242.661 126.437 238.51C126.859 236.063 127.182 233.615 127.604 231.276C128.776 224.151 130.052 216.807 130.266 209.469C130.266 209.151 130.266 208.938 130.266 208.615C131.224 214.682 131.542 220.427 131.437 225.849C131.328 234.151 129.838 242.87 128.458 251.276ZM127.5 383.615C128.141 382.979 128.672 382.339 129.094 381.594C128.458 383.938 127.713 386.385 126.859 388.724C127.073 387.234 127.396 385.531 127.5 383.615ZM108.031 238.297C111.328 230.318 114.63 222.13 115.266 213.51C116.437 197.87 108.458 183.51 101.542 174.151C98.776 170.318 94.3072 165.214 88.5624 163.615C88.5624 163.406 88.5624 163.297 88.6718 163.083C88.6718 162.87 88.776 162.661 88.776 162.448C88.776 162.234 88.8853 161.917 88.8853 161.703C99.9478 167.234 108.458 179.151 114.838 197.87C116.859 203.938 118.672 210.318 118.458 216.703C118.245 221.594 116.755 226.385 115.37 231.063C115.161 231.807 114.948 232.448 114.734 233.193C113.885 235.958 113.141 238.828 112.5 241.49C110.906 240.427 109.521 239.359 108.031 238.297ZM88.5624 154.682V154.786C88.5624 154.682 88.5624 154.682 88.5624 154.682ZM121.859 242.339C121.651 244.359 121.437 246.385 121.224 248.406C120.797 248.083 120.266 247.661 119.734 247.234C121.01 239.896 122.396 231.385 122.396 222.87C122.396 220.745 122.286 218.724 122.073 216.807C122.182 216.594 122.182 216.385 122.286 216.063C122.713 224.786 122.604 233.615 121.859 242.339ZM115.797 197.552C113.776 191.703 111.651 186.49 109.203 181.917C115.797 192.339 119.838 204.359 121.01 216.807C120.161 220 119.203 223.193 118.141 226.172C117.286 228.724 116.437 231.276 115.479 233.828C115.479 233.724 115.479 233.615 115.583 233.51C115.797 232.766 116.01 232.13 116.224 231.385C117.713 226.703 119.203 221.807 119.417 216.807C119.734 210.214 117.818 203.615 115.797 197.552ZM88.9895 160.641C88.9895 160.531 88.9895 160.427 88.9895 160.214C89.6301 160.641 90.1614 161.063 90.7968 161.49C90.1614 161.276 89.5208 160.958 88.9895 160.641C88.9895 160.745 88.9895 160.849 88.9895 160.849C88.9895 160.745 88.9895 160.745 88.9895 160.641ZM113.458 242.448C113.885 241.063 114.417 239.786 114.838 238.51C116.224 234.573 117.713 230.427 118.99 226.49C119.734 224.359 120.37 222.13 121.115 219.896C121.115 220.849 121.224 221.917 121.224 222.979C121.224 231.172 119.948 239.469 118.672 246.594C118.031 246.063 117.286 245.531 116.651 245C115.583 244.042 114.63 243.297 113.458 242.448ZM122.5 209.151C122.182 206.594 121.859 203.938 121.437 201.172C119.948 192.448 118.031 185.427 115.266 179.469C118.562 183.828 121.01 188.724 122.182 194.151C123.349 199.042 123.245 204.151 122.5 209.151ZM120.37 201.276C121.01 205.214 121.542 209.042 121.859 212.766C121.755 213.083 121.755 213.51 121.651 213.828C118.885 192.021 106.859 171.703 88.9895 159.042C88.9895 158.51 88.9895 157.979 88.8853 157.448C89.203 157.448 89.4166 157.552 89.7343 157.661C97.927 163.083 106.01 168.938 112.182 175.849C116.01 182.448 118.672 190.531 120.37 201.276ZM93.1405 158.615C99.3072 160.849 105.052 165.427 109.417 171.385C104.63 166.807 98.8853 162.552 93.1405 158.615ZM112.396 245.531C112.604 244.786 112.927 244.151 113.141 243.406C114.094 244.151 115.052 244.896 116.01 245.641C116.859 246.276 117.713 246.917 118.562 247.552C118.349 248.828 118.141 250.104 117.927 251.385C117.286 255 116.651 258.724 116.115 262.448C113.458 280.745 113.776 296.703 117.182 311.063C118.776 317.661 121.01 324.255 123.349 330.641C127.073 341.276 130.906 352.339 131.328 363.615C129.521 352.661 125.266 342.234 121.115 332.13C118.349 325.214 115.37 317.979 113.245 310.745C107.396 291.063 107.182 269.042 112.396 245.531ZM128.885 385.745C130.052 382.13 130.906 378.51 131.437 375.104C131.437 375.104 131.437 375.104 131.437 375C131.437 374.896 131.437 374.786 131.542 374.573C132.073 371.172 132.286 367.766 132.182 364.469C131.969 352.661 127.927 341.276 124.094 330.318C121.859 323.938 119.521 317.448 118.031 310.849C114.63 296.594 114.307 280.745 116.969 262.552C117.5 258.938 118.141 255.214 118.776 251.594C118.99 250.531 119.203 249.359 119.307 248.297C119.838 248.724 120.37 249.151 120.906 249.469L120.693 251.172C120.052 256.063 119.417 261.063 119.203 266.063C118.458 281.917 121.651 297.979 128.458 312.339C128.672 312.661 128.776 313.083 128.99 313.406C129.417 314.896 129.948 316.276 130.37 317.766C131.115 320.104 132.073 322.448 132.927 324.682C134.734 329.573 136.651 334.682 137.818 339.896C141.437 355.531 138.031 372.661 128.885 385.745ZM138.672 366.49C138.562 367.448 138.458 368.297 138.031 368.938C138.245 368.083 138.458 367.234 138.672 366.49ZM138.99 339.682C137.818 334.359 135.906 329.255 133.99 324.255C133.458 322.661 132.818 321.063 132.182 319.469C133.99 322.979 135.797 326.703 137.073 330.531C138.245 334.151 138.99 337.87 139.307 341.703C139.203 341.063 139.094 340.427 138.99 339.682ZM120.37 266.172C120.583 261.172 121.224 256.172 121.859 251.385L121.969 250.214C122.604 250.641 123.245 251.063 123.776 251.385C121.859 271.385 123.141 290.104 127.396 307.021C122.073 294.042 119.734 280.104 120.37 266.172ZM124.63 184.896C126.224 189.359 127.604 194.255 128.776 199.786C128.776 200 128.885 200.104 128.885 200.318C128.99 200.641 128.99 201.063 129.094 201.385V201.49C129.307 203.938 129.417 206.594 129.307 209.255C129.094 216.49 127.818 223.828 126.651 230.849C126.224 233.193 125.797 235.745 125.479 238.193C124.838 242.234 124.307 246.172 123.99 250.104C123.458 249.786 122.818 249.359 122.182 248.938C122.5 246.807 122.713 244.573 122.927 242.339C123.885 232.552 123.885 222.552 123.031 212.766C124.307 206.594 124.734 200.214 123.349 193.828C121.755 186.703 118.141 180.641 113.245 175.104C112.818 174.255 112.286 173.51 111.755 172.661C106.437 164.469 98.5624 158.615 90.3697 156.594C90.2655 156.49 90.1614 156.49 90.052 156.385C89.9478 156.276 89.3072 155.958 88.8853 155.849C88.8853 155.641 88.8853 155.531 88.776 155.318C96.2239 157.448 102.604 162.234 108.885 167.448C114.094 171.703 119.094 175.958 122.713 181.385C123.349 182.552 123.99 183.724 124.63 184.896ZM109.521 166.807C102.927 161.49 96.328 156.49 88.4583 154.359C88.3489 154.042 88.2447 153.724 88.1405 153.406C98.1405 153.51 108.349 158.938 115.583 168.193C118.141 171.49 120.37 175.104 122.286 179.255C118.776 174.469 114.307 170.641 109.521 166.807ZM58.0312 150.214V149.682C58.0312 149.255 57.927 148.828 58.1405 148.51C58.2447 148.406 58.3489 148.297 58.4583 148.297C58.4583 148.297 58.5624 148.297 58.6718 148.297C58.776 148.297 58.8853 148.51 58.8853 148.938C58.8853 149.359 58.9895 149.786 58.9895 150.104C58.8853 150.104 58.776 150.104 58.6718 150.104C58.3489 150.214 58.2447 150.214 58.0312 150.214ZM49.8385 145.214C49.4166 144.896 48.9895 144.682 48.6718 144.359C49.9478 144.042 50.7968 144.042 51.2239 144.573C51.4374 144.786 51.5416 145.104 51.651 145.427C51.7551 145.958 51.9687 146.49 52.0728 147.13C51.2239 146.49 50.4791 145.745 49.8385 145.214ZM47.1822 144.682C47.1822 144.786 47.1822 144.786 47.1822 144.682C47.2864 144.786 47.2864 144.786 47.1822 144.682C47.8176 145.104 48.5624 145.531 49.203 145.958C49.9478 146.49 50.5833 147.234 51.328 147.979C51.5416 148.297 51.8593 148.51 52.0728 148.724C52.1822 149.359 52.1822 150 52.2864 150.641C52.4999 152.766 52.7135 154.896 53.4583 156.917C53.9895 158.297 54.8385 159.042 55.7968 158.938C56.8593 158.828 57.6041 157.766 57.8176 156.172C58.0312 154.469 58.0312 152.766 58.0312 151.063C58.2447 151.063 58.3489 151.063 58.5624 151.063C58.6718 151.063 58.776 151.063 58.8853 151.063C58.8853 151.594 58.8853 152.13 58.8853 152.661C58.8853 153.938 58.8853 155.318 59.0937 156.807C59.8385 162.339 59.3072 167.979 57.4999 173.297C57.2864 173.938 57.0728 174.682 57.1822 175.318C56.651 175.849 56.1145 176.385 55.4791 177.021C54.6301 177.87 53.776 178.724 53.0312 179.469C45.6926 186.172 35.3697 188.615 26.7551 185.849C18.6718 183.193 12.4999 174.786 11.651 164.896C10.7968 155.641 14.6301 147.87 21.8593 143.938C28.3489 140.427 36.0103 140 43.0312 142.766C43.0312 142.766 43.0312 142.766 43.1405 142.766C44.5208 143.193 45.7968 143.938 47.1822 144.682ZM103.349 234.896C99.3072 231.917 95.052 228.938 91.0103 226.063C78.8853 217.552 66.328 208.724 55.3697 198.724C53.776 197.234 51.8593 195.531 51.0103 193.297C49.7343 189.896 51.651 184.682 53.2447 180.958C53.2447 180.849 53.2447 180.745 53.2447 180.641C53.4583 180.427 53.6718 180.318 53.776 180.104C54.6301 179.255 55.4791 178.406 56.328 177.552C56.7551 177.13 57.2864 176.594 57.7135 176.172C58.1405 176.703 58.6718 176.807 59.3072 176.807C59.7343 176.807 60.2655 176.703 60.6926 176.49C62.7135 175.531 63.6718 173.51 64.203 171.703C64.203 172.234 64.4166 172.661 64.7343 173.083C65.5833 174.042 67.0728 173.938 67.927 173.297C68.776 172.661 69.3072 171.703 69.7343 170.849C69.8385 170.641 69.9478 170.427 70.052 170.214C70.052 170.531 70.052 170.745 70.1614 170.958C70.3697 171.276 70.5833 171.594 71.0103 171.703C71.4374 171.807 71.9687 171.807 72.6041 171.49C74.5208 170.641 76.4374 169.151 77.7135 167.13C80.052 166.594 81.651 166.49 82.7135 166.917C82.927 167.021 83.0312 167.021 83.2447 167.13C83.5624 167.234 83.8853 167.448 84.3072 167.552C84.7343 167.661 85.052 167.661 85.3697 167.661C86.1145 167.661 86.651 167.448 87.0728 167.021C93.3489 169.151 98.5624 175.318 102.604 185.318C105.479 192.448 107.182 198.828 107.713 204.786C109.094 216.172 106.115 226.807 103.349 234.896C103.458 234.896 103.458 234.896 103.349 234.896ZM104.307 235.427C107.073 227.234 110.161 216.385 109.094 204.896C108.562 198.828 106.859 192.448 103.885 185.104C99.7343 174.896 94.4166 168.615 88.0312 166.276C88.2447 165.745 88.4583 165.214 88.4583 164.573C93.8853 166.063 98.0312 170.958 100.693 174.682C113.031 191.385 114.838 204.896 114.307 213.297C113.672 221.703 110.479 229.786 107.182 237.552C106.224 236.917 105.266 236.172 104.307 235.427ZM107.5 239.682C107.604 239.469 107.604 239.359 107.713 239.255C109.203 240.318 110.693 241.49 112.073 242.552C111.859 243.406 111.651 244.255 111.437 245.214V245.318C104.417 265.745 98.2447 286.594 102.286 307.552C104.417 318.51 109.203 328.828 113.99 338.828C115.266 341.49 116.542 344.359 117.818 347.13C116.328 345 114.734 342.979 113.141 340.958C108.031 334.359 102.818 327.552 99.3072 320.104C93.9895 308.724 92.4999 294.573 94.9478 279.469C97.1822 265.318 102.396 252.13 107.5 239.682ZM120.583 350.958C120.161 350 119.734 349.042 119.307 348.083C117.927 344.896 116.328 341.594 114.838 338.406C110.161 328.51 105.37 318.297 103.245 307.448C99.7343 289.255 104.094 270.958 109.948 253.083C106.328 273.938 107.073 293.51 112.182 311.385C114.307 318.724 117.182 325.849 120.052 332.87C124.307 343.297 128.672 354.042 130.37 365.318C131.115 370.531 131.224 377.552 127.604 382.125C127.818 375.745 126.651 367.339 122.396 355.745C126.328 362.13 128.458 367.661 129.307 373.406C129.307 373.615 129.521 373.828 129.838 373.828C129.838 373.828 129.838 373.828 129.948 373.828C130.266 373.828 130.37 373.51 130.37 373.297C129.203 365.958 126.224 359.151 120.583 350.958ZM128.672 386.49C128.672 386.594 128.776 386.703 128.885 386.703C128.99 386.807 129.094 386.807 129.203 386.807C129.417 386.807 129.521 386.703 129.63 386.594C133.141 381.703 135.797 376.276 137.604 370.531C137.713 370.531 137.713 370.531 137.713 370.531C139.203 369.896 139.521 368.193 139.734 366.703C140.797 355.214 142.073 342.234 138.141 330.318C136.651 325.958 134.521 321.807 132.5 317.766C131.755 316.276 130.906 314.682 130.161 313.193C124.63 294.786 122.818 274.255 124.838 252.021C125.906 252.661 127.073 253.193 128.141 253.51C126.01 266.172 123.672 280.531 127.286 294.359C129.307 302.021 133.141 309.151 136.859 316.063C139.734 321.49 142.818 327.021 144.948 332.87C152.182 352.766 148.672 376.49 136.01 393.406C135.797 393.615 135.906 393.938 136.115 394.151C136.224 394.255 136.328 394.255 136.437 394.255C136.542 394.255 136.755 394.151 136.859 394.042C149.734 376.917 153.349 352.766 146.01 332.552C143.885 326.703 140.797 321.063 137.927 315.641C134.203 308.828 130.37 301.703 128.349 294.151C124.734 280.641 127.073 266.385 129.203 253.828C133.672 255.318 139.094 255 144.734 252.979C146.328 252.448 147.604 251.385 148.562 250C150.266 247.448 152.073 244.255 152.818 240.849C153.885 236.172 152.5 231.594 149.417 229.151C148.141 228.193 146.542 227.552 145.052 226.917C142.818 225.958 140.693 225.104 139.63 223.083C138.885 221.703 138.885 220 138.885 218.51C138.885 215.745 138.885 212.661 139.734 209.786C139.734 209.896 139.734 209.896 139.838 210C139.734 210.214 139.734 210.427 139.734 210.531C139.734 211.063 139.838 211.594 140.161 211.917C140.479 212.339 140.797 212.661 141.328 212.766C142.286 213.083 143.245 213.083 144.203 212.979L144.63 212.87C145.37 212.766 146.115 212.661 146.755 212.766C147.182 212.766 147.5 212.979 147.927 213.083C148.245 213.193 148.458 213.297 148.776 213.297C149.094 213.406 149.838 213.51 150.479 213.51C151.328 213.51 152.182 213.297 152.604 212.448C152.713 212.234 152.818 212.021 152.818 211.807C152.927 211.703 153.141 211.49 153.031 210.958C152.604 209.573 151.651 208.297 150.693 207.234L150.37 206.917C150.266 206.703 150.052 206.49 149.948 206.276C149.203 205.318 148.349 204.151 146.969 203.938C146.437 203.828 146.01 204.042 145.693 204.151C145.479 204.255 145.37 204.255 145.161 204.359C144.948 204.359 144.734 204.255 144.417 204.151C144.094 204.042 143.776 203.938 143.458 203.938C143.031 203.938 142.604 204.042 142.396 204.255C143.031 203.193 143.672 202.021 143.776 200.641C143.885 199.896 143.885 199.151 143.776 198.51C143.776 197.448 143.672 196.49 144.094 195.641C144.417 194.896 144.948 194.359 145.583 193.828L145.797 193.51C148.349 190.958 150.37 187.979 152.286 185.104C152.396 184.896 152.604 184.682 152.713 184.469C152.713 184.469 152.713 184.359 152.818 184.359C153.776 182.87 154.838 181.385 155.906 180C160.052 174.469 164.203 171.276 168.776 170.318C170.906 169.896 172.927 170.104 174.63 171.063C175.161 171.276 175.583 171.594 176.01 172.021L176.115 172.125C177.5 173.193 178.672 174.786 179.838 176.703C180.052 177.021 180.161 177.339 180.37 177.661C180.37 177.766 180.479 177.766 180.479 177.87C181.542 180 182.5 182.448 183.245 185.318C183.349 185.531 183.349 185.849 183.458 186.063C183.458 186.172 183.458 186.276 183.562 186.385C184.63 190.849 185.266 195.849 185.37 200.531C185.479 203.938 185.161 207.021 184.63 208.938C183.99 211.276 183.031 213.615 182.073 215.958C181.969 216.172 181.859 216.385 181.755 216.703C181.755 216.807 181.651 216.917 181.651 217.021C180.797 219.151 179.948 221.063 179.307 223.083C177.073 229.573 177.286 235.214 177.604 241.172C177.713 243.938 177.818 246.807 177.713 250C177.713 250.958 177.713 251.807 177.818 252.552C177.927 253.083 177.927 253.615 178.141 254.151C179.203 257.979 180.906 261.594 183.349 265.214C182.286 267.339 180.693 269.255 178.562 270.745C175.479 272.87 170.266 274.255 166.859 272.979C165.052 272.339 163.776 270.958 163.245 268.938C162.286 265.641 164.203 261.807 167.396 260.641C167.604 260.531 167.713 260.427 167.713 260.214C167.713 260 167.604 259.786 167.396 259.786C167.182 259.682 167.073 259.682 166.859 259.573C166.651 259.469 166.437 259.469 166.224 259.359C162.182 258.193 157.5 259.469 154.63 262.661C149.307 268.615 150.906 277.87 155.266 283.938C159.63 289.896 166.328 293.297 173.245 293.297C175.37 293.297 177.5 292.979 179.63 292.339C186.651 290.104 192.5 285.318 195.797 279.042C197.286 280.427 198.885 281.703 200.37 282.979L201.969 284.359C207.286 288.938 212.818 293.724 217.073 299.042C218.885 301.385 221.115 304.469 222.396 307.979C222.286 309.255 222.182 310.531 222.073 311.917C221.437 316.807 219.417 321.172 216.437 324.151C213.031 327.552 208.349 329.151 204.094 328.297C199.521 327.448 195.906 323.51 195.583 319.255C195.37 316.49 196.542 313.828 198.562 312.448C200.693 310.958 203.776 311.063 205.583 312.766C205.797 312.979 206.115 312.979 206.328 312.766C206.542 312.552 206.542 312.234 206.328 312.021C204.203 310 200.583 309.896 198.031 311.703C195.693 313.297 194.417 316.385 194.63 319.469C194.948 324.151 198.99 328.51 203.99 329.469C204.838 329.573 205.583 329.682 206.437 329.682C210.266 329.682 214.307 327.979 217.286 325C220.37 321.807 222.5 317.339 223.245 312.125C223.245 311.807 223.349 311.385 223.349 311.063C223.776 313.51 223.776 315.849 223.672 317.766C223.562 320.531 223.349 323.083 223.141 325.427C223.031 325.531 223.031 325.531 222.927 325.641C222.713 325.849 222.713 326.172 222.927 326.385L223.031 326.49C221.755 339.255 218.99 352.021 214.63 364.573C213.99 366.385 213.349 368.193 212.713 369.896C211.328 373.615 210.052 376.703 208.885 379.573C208.458 380.641 208.031 381.703 207.5 382.766L206.651 384.682C205.052 388.615 203.141 392.979 201.115 398.406H124.203C125.906 394.151 127.396 390.214 128.672 386.49ZM140.583 210.318C140.693 210.318 140.693 210.318 140.797 210.318C140.906 210.318 141.01 210.318 141.224 210.318C141.651 210.318 142.073 210 142.396 209.786C142.5 209.682 142.604 209.682 142.604 209.682C143.458 209.151 144.521 209.042 146.01 209.359C147.286 209.573 148.562 210.427 149.521 211.172C150.161 211.594 150.583 211.807 151.328 212.021C151.437 212.13 151.542 212.13 151.651 212.13C151.651 212.13 151.651 212.13 151.651 212.234C151.224 212.979 149.948 212.766 148.885 212.552C148.672 212.448 148.349 212.448 148.141 212.339C147.713 212.234 147.286 212.021 146.755 212.021C146.542 212.021 146.224 212.021 146.01 212.021C145.479 212.021 144.948 212.13 144.307 212.13H143.885C143.562 212.13 143.141 212.234 142.818 212.234C142.396 212.234 141.859 212.13 141.542 212.021C140.906 211.807 140.583 211.276 140.583 210.641C140.583 210.427 140.583 210.318 140.583 210.318ZM141.969 208.828L142.073 208.724C142.286 208.297 142.604 207.87 142.927 207.87C143.031 207.87 143.245 207.979 143.458 207.979C143.672 208.083 143.885 208.193 144.094 208.193C143.349 208.193 142.713 208.406 141.969 208.828ZM144.734 208.193C144.948 208.193 145.052 208.083 145.266 207.979C145.37 207.979 145.479 207.87 145.583 207.87C146.651 207.552 147.5 208.297 148.349 209.151C147.713 208.724 146.859 208.406 146.115 208.297C145.693 208.193 145.266 208.193 144.734 208.193ZM151.651 210.958C151.01 210.641 150.37 209.896 149.734 209.151C148.776 207.979 147.604 206.703 146.115 206.703C145.906 206.703 145.583 206.703 145.266 206.807C145.052 206.807 144.948 206.917 144.838 207.021C144.63 207.13 144.521 207.13 144.417 207.13C144.307 207.13 144.094 207.021 143.885 207.021C143.562 206.917 143.349 206.807 142.927 206.807C142.073 206.807 141.542 207.661 141.224 208.193L141.115 208.406C140.797 208.938 140.583 209.151 140.479 209.255C140.479 209.255 140.479 209.151 140.479 209.042C140.693 208.406 141.115 207.766 141.542 207.13C141.651 206.917 141.859 206.703 141.969 206.385C142.5 205.641 142.927 205.214 143.349 205.214C143.562 205.214 143.776 205.318 143.99 205.427C144.307 205.531 144.734 205.745 145.161 205.641C145.479 205.641 145.693 205.531 146.01 205.427C146.328 205.318 146.542 205.214 146.755 205.318C147.713 205.427 148.458 206.385 149.094 207.234C149.307 207.448 149.417 207.661 149.63 207.87L149.838 208.193C150.583 209.042 151.328 210 151.755 211.063C151.755 210.958 151.651 210.958 151.651 210.958ZM218.562 254.786C219.948 260 223.672 264.151 227.073 268.193C229.094 270.531 231.328 272.979 232.927 275.641C239.521 286.276 239.307 301.385 232.604 317.13C231.755 319.151 230.693 321.276 229.63 323.615C223.349 336.703 214.838 354.682 226.115 366.063C230.37 370.427 237.073 372.87 243.141 372.234C248.141 371.703 252.286 369.255 254.838 365.318C257.073 361.917 258.349 356.49 256.328 352.234C253.141 345.531 245.479 346.594 240.583 347.979C245.052 345.427 251.542 346.063 255.797 349.786C260.37 353.828 261.755 361.49 259.094 367.448C256.542 373.083 250.797 377.234 244.094 378.297C238.031 379.255 231.437 377.661 225.583 373.938C221.651 371.385 218.141 368.083 215.583 364.151C219.948 351.49 222.818 338.406 223.99 325.427C232.604 316.807 235.693 302.87 231.437 291.385C229.63 286.49 226.651 282.234 223.885 277.979C221.437 274.359 218.885 270.531 217.073 266.49C212.286 255.531 213.349 243.193 214.307 231.172C215.266 219.896 216.224 208.193 212.396 197.448C207.182 182.661 192.396 171.917 176.755 171.063C175.479 170.104 174.203 169.469 172.713 169.255C172.604 169.255 172.396 169.151 172.286 169.151C172.396 169.151 172.604 169.042 172.713 169.042C183.672 166.807 195.693 169.682 204.203 177.234C207.396 180 210.052 183.297 212.396 186.49C220.797 197.552 223.031 209.786 219.838 227.234L219.63 228.083C217.927 237.13 216.224 246.172 218.562 254.786ZM214.948 365.531C217.5 369.255 220.906 372.448 224.838 374.896C229.838 377.979 235.161 379.682 240.479 379.682C241.755 379.682 242.927 379.573 244.094 379.359C251.115 378.297 257.182 373.938 259.948 367.979C262.927 361.49 261.437 353.615 256.437 349.151C253.562 346.49 249.521 345.318 245.797 345.531C246.859 345.318 247.927 345.214 249.094 345.214C253.458 345.318 257.927 347.448 261.01 350.849C264.948 355.104 267.286 363.828 263.245 372.87C260.266 379.573 253.885 385 246.115 387.339C239.307 389.359 231.328 389.255 223.141 387.021C217.5 385.427 212.713 382.766 209.734 379.359C210.906 376.594 212.073 373.51 213.458 370C213.885 368.51 214.417 367.021 214.948 365.531ZM209.094 380.427C213.349 384.896 219.307 387.13 222.713 388.083C227.073 389.359 231.437 389.896 235.583 389.896C239.307 389.896 242.927 389.359 246.328 388.406C254.417 385.958 261.01 380.427 264.094 373.406C268.245 363.938 265.797 354.786 261.651 350.318C258.349 346.703 253.562 344.469 248.99 344.359C246.01 344.255 243.141 345.104 240.583 346.594C242.073 345.214 243.672 344.151 245.479 343.406C248.885 342.13 252.5 342.234 255.906 343.724C260.479 345.745 264.417 350.104 266.437 355.427C270.052 365.104 268.349 376.385 262.073 384.255C255.37 392.766 243.141 396.49 229.417 394.359C228.672 394.255 227.927 394.151 227.182 393.938C221.859 392.87 216.969 390.958 212.604 388.297C210.797 387.13 208.99 385.849 207.396 384.359L208.031 382.766C208.458 382.021 208.776 381.172 209.094 380.427ZM223.776 309.151C223.672 308.938 223.672 308.615 223.562 308.406C223.458 308.193 223.458 307.979 223.349 307.87C223.776 299.469 222.182 291.276 218.885 284.469C217.713 282.021 216.437 279.682 215.161 277.339C212.182 271.807 208.99 266.063 207.396 259.896C204.948 250.641 206.115 240.641 207.182 230.958C208.458 219.682 209.734 208.083 205.37 197.552C201.224 187.448 191.969 179.682 181.224 177.339C180.161 175.427 179.094 173.828 177.818 172.661C192.5 173.938 206.328 184.255 211.224 198.193C214.948 208.724 213.99 220.318 213.031 231.49C212.073 243.615 211.01 256.172 215.906 267.339C217.713 271.49 220.266 275.318 222.818 278.938C225.583 283.083 228.562 287.339 230.266 292.13C234.203 302.87 231.651 315.745 223.885 324.151C224.094 322.13 224.203 320 224.307 317.766C224.521 315.214 224.521 312.13 223.776 309.151ZM158.349 274.255C159.521 279.255 163.99 283.297 169.203 284.359C170.161 284.573 171.115 284.682 172.182 284.682C176.328 284.682 180.479 283.083 183.672 280.104C187.286 276.807 189.734 271.807 190.161 266.385C190.583 260.958 189.307 256.276 187.927 251.703C186.542 246.807 185.266 242.234 185.906 236.917C186.224 233.938 187.286 231.172 188.349 228.406C188.99 226.594 189.734 224.682 190.266 222.661C191.542 217.87 191.328 211.594 187.073 208.297C186.859 208.083 186.542 208.193 186.328 208.406C186.115 208.615 186.224 208.938 186.437 209.151C190.266 212.13 190.479 217.979 189.307 222.448C188.776 224.359 188.141 226.276 187.396 228.083C186.328 230.958 185.266 233.828 184.948 236.917C184.307 242.552 185.693 247.448 187.073 252.13C188.349 256.594 189.734 261.172 189.203 266.385C188.776 271.49 186.542 276.276 183.031 279.359C179.307 282.766 174.094 284.255 169.521 283.406C164.63 282.448 160.583 278.615 159.417 274.042C158.245 269.359 160.479 264.151 164.417 261.385C162.396 263.406 161.437 266.49 162.286 269.255C162.927 271.49 164.417 273.193 166.542 273.938C170.479 275.318 176.01 273.828 179.203 271.594C184.63 267.87 186.969 261.49 185.266 255.318C184.838 253.724 184.203 252.021 183.672 250.531C182.5 247.339 181.328 244.359 181.437 241.063C181.437 238.193 182.396 235.531 183.245 232.661C183.776 231.172 184.203 229.682 184.63 228.083C185.479 224.573 185.37 220 182.927 217.021C183.885 214.573 184.948 212.13 185.693 209.469C186.115 207.766 186.437 205.214 186.437 202.339C190.479 203.724 193.99 209.042 193.141 216.594C192.818 219.359 192.073 222.13 191.437 224.682C190.583 227.766 189.734 230.958 189.521 234.255C189.203 239.896 190.906 245.641 192.713 250.958L192.927 251.703C195.583 259.573 198.99 269.359 195.37 277.13C195.266 277.339 195.161 277.552 195.052 277.766L194.948 277.979C191.859 284.255 186.115 289.042 179.094 291.276C170.693 293.938 161.328 290.745 155.906 283.297C151.755 277.552 150.161 268.938 155.161 263.297C157.5 260.745 161.115 259.469 164.521 260C159.838 262.766 157.073 268.828 158.349 274.255ZM178.562 241.276C178.349 235.104 178.141 229.786 180.266 223.51C180.906 221.703 181.542 219.896 182.396 218.083C184.307 220.745 184.203 224.786 183.562 227.87C183.245 229.359 182.713 230.849 182.182 232.339C181.224 235.104 180.266 238.083 180.266 241.063C180.266 244.469 181.437 247.766 182.604 250.849C183.141 252.448 183.776 254.042 184.203 255.641C184.948 258.615 184.838 261.49 183.776 264.151C181.651 260.849 180.052 257.448 178.99 253.938C178.885 253.406 178.776 252.979 178.672 252.552C178.562 251.807 178.562 251.063 178.562 250.214C178.776 247.021 178.672 244.042 178.562 241.276ZM196.437 277.552C200.161 269.359 196.755 259.359 193.99 251.385L193.776 250.641C191.969 245.214 190.266 239.896 190.583 234.359C190.797 231.172 191.651 228.083 192.396 225C193.141 222.339 193.885 219.573 194.203 216.703C194.838 210.427 192.396 203.083 186.437 201.276C186.437 201.063 186.437 200.849 186.437 200.745C186.328 196.172 185.693 191.276 184.734 186.917C191.859 188.828 196.755 195.958 198.349 202.339C200.37 210.427 198.99 219.151 197.713 226.807C196.437 234.573 194.948 243.406 197.073 251.703C198.562 257.552 201.755 262.979 204.838 268.193C209.417 275.958 213.776 283.406 212.818 291.807C212.818 292.13 213.031 292.339 213.245 292.339H213.349C213.562 292.339 213.776 292.13 213.885 291.917C214.838 283.083 210.266 275.214 205.797 267.661C202.713 262.448 199.63 257.13 198.141 251.385C196.115 243.297 197.604 234.682 198.885 226.917C200.161 219.151 201.651 210.318 199.521 202.021C197.818 195.104 192.5 187.552 184.63 185.745C183.885 182.979 183.031 180.427 182.073 178.297C192.073 180.849 200.693 188.193 204.63 197.766C208.885 208.083 207.604 219.573 206.437 230.745C205.37 240.427 204.307 250.531 206.755 260C208.349 266.276 211.542 272.13 214.521 277.661C215.797 280 217.073 282.339 218.245 284.682C221.224 290.745 222.818 297.979 222.713 305.318C221.437 302.552 219.63 300.104 218.141 298.193C213.885 292.766 208.349 287.979 202.927 283.297L201.328 281.917C199.734 280.531 198.141 279.151 196.651 277.766C196.224 277.766 196.328 277.661 196.437 277.552ZM277.927 398.083H201.969C203.776 393.193 205.479 389.042 207.073 385.427C208.672 386.917 210.37 388.193 212.182 389.255C216.542 391.917 221.542 393.828 227.073 395C227.818 395.214 228.562 395.318 229.307 395.427C231.859 395.849 234.417 396.063 236.969 396.063C247.927 396.063 257.286 392.13 262.927 385C269.417 376.807 271.115 365.104 267.396 355.214C265.266 349.682 261.115 345 256.328 342.87C252.713 341.276 248.776 341.172 245.052 342.552C241.755 343.828 239.203 346.063 236.969 349.469C236.969 349.469 236.969 349.469 236.969 349.573C236.969 349.573 236.969 349.573 236.969 349.682C236.969 349.786 236.969 349.786 236.969 349.896C236.969 349.896 236.969 349.896 236.969 350C236.969 350 236.969 350 236.969 350.104C236.969 350.104 236.969 350.214 237.073 350.214C237.073 350.214 237.073 350.214 237.182 350.214C237.286 350.214 237.286 350.214 237.396 350.214C237.396 350.214 237.396 350.214 237.5 350.214C243.562 348.083 251.859 346.063 255.161 352.875C257.073 356.807 255.797 361.807 253.776 365C251.328 368.724 247.5 370.958 242.818 371.385C237.073 371.917 230.693 369.682 226.651 365.531C215.906 354.573 224.307 337.021 230.37 324.151C231.437 321.807 232.5 319.573 233.349 317.552C240.266 301.49 240.37 285.958 233.672 275.104C231.969 272.448 229.838 269.896 227.713 267.552C224.307 263.615 220.693 259.573 219.417 254.573C218.458 251.172 218.245 247.766 218.245 244.255C218.99 247.234 220.583 250.104 222.713 252.339C226.115 255.958 231.01 257.979 236.01 257.979C236.328 257.979 236.651 257.979 237.073 257.979C241.01 257.766 244.63 256.172 246.969 253.615C249.63 250.745 250.583 246.49 249.203 243.193C247.713 239.469 243.672 237.234 240.052 238.083C238.141 238.51 236.542 240 235.583 241.917C234.734 243.724 234.734 245.641 235.583 247.13C235.693 247.339 236.01 247.448 236.224 247.339C236.437 247.234 236.542 246.917 236.437 246.703C235.797 245.427 235.797 243.828 236.542 242.339C237.286 240.641 238.672 239.469 240.266 239.042C243.349 238.297 246.969 240.318 248.245 243.51C249.417 246.49 248.562 250.318 246.224 252.979C244.094 255.318 240.693 256.807 236.969 257.021C231.969 257.339 226.859 255.318 223.458 251.703C219.948 248.083 218.245 242.979 218.776 237.979V237.87C219.203 234.786 219.734 231.703 220.266 228.724L220.479 227.87C223.672 210.104 221.437 197.661 212.818 186.385C210.37 183.193 207.713 179.786 204.417 176.917C195.37 168.938 182.5 166.063 170.797 168.828C170.161 168.938 169.63 169.151 168.99 169.255C167.713 169.682 166.542 170.104 165.37 170.641C165.479 170.641 165.479 170.641 165.583 170.531C165.479 170.531 165.37 170.641 165.266 170.641C165.052 170.745 164.948 170.745 164.734 170.849C164.521 170.958 164.307 171.063 164.094 171.172C163.99 171.276 163.885 171.276 163.672 171.385H163.562C163.458 171.385 163.349 171.49 163.245 171.49C163.031 171.594 162.927 171.703 162.5 171.917C159.734 173.615 157.182 176.172 154.521 179.682C154.094 180.318 153.562 180.958 153.141 181.594C152.604 182.448 152.073 183.193 151.542 184.042C151.542 184.151 151.437 184.151 151.437 184.255C149.417 187.339 147.286 190.531 144.63 193.193L144.417 193.51C143.776 194.151 143.141 194.786 142.713 195.641C142.286 196.703 142.286 197.87 142.396 199.042C142.396 199.682 142.5 200.427 142.396 201.063C142.182 202.661 141.328 203.938 140.37 205.318C139.948 205.958 139.521 206.703 139.094 207.448C137.286 210.958 137.286 215 137.286 218.615C137.286 220.214 137.286 222.13 138.141 223.724C139.307 226.063 141.755 227.021 144.094 227.979C145.583 228.615 147.073 229.151 148.245 230.104C150.37 231.807 152.396 235.531 151.328 240.745C150.583 244.042 148.885 247.021 147.182 249.573C146.437 250.745 145.266 251.703 143.885 252.13C138.349 254.042 133.141 254.255 128.885 252.87L129.094 251.594C130.479 243.193 131.969 234.469 132.182 225.958C132.396 218.406 131.542 210.427 129.734 201.594C129.203 195.214 127.713 189.573 125.161 184.682C122.713 178.083 119.734 172.552 116.115 167.766C108.672 158.297 98.1405 152.661 87.7135 152.661H87.6041C87.0728 150.849 86.4374 148.938 85.052 148.297C84.203 147.87 83.1405 147.979 81.9687 148.615C81.0103 149.042 80.052 149.359 78.8853 149.469C78.8853 148.615 78.776 147.87 78.6718 147.021C78.1405 142.766 75.5833 140 72.6041 137.13C71.2239 135.745 69.6301 134.255 67.8176 133.083C61.4374 129.042 52.8176 130.214 47.927 135.849C46.9687 136.917 46.1145 138.083 45.2655 139.151C44.5208 140.104 43.776 141.063 42.927 142.021C35.7968 139.255 27.8176 139.786 21.2239 143.406C13.8853 147.021 9.83846 155.214 10.7968 164.896C11.5416 172.448 15.052 179.151 20.2655 183.297C18.8853 186.49 17.4999 190.745 18.4583 195C19.0937 198.193 21.0103 200.958 22.8176 203.51C30.6926 214.469 40.1614 224.359 50.6926 232.979C54.203 235.745 57.8176 238.406 61.328 241.063C66.0103 244.469 70.9062 248.083 75.3697 251.917C82.1822 257.766 87.1822 263.615 90.5833 269.682C88.2447 277.339 87.1822 284.255 87.0728 290.641C86.9687 314.786 101.969 335.745 118.672 356.807C118.776 356.917 118.885 357.021 119.094 357.021C119.203 357.021 119.307 357.021 119.417 356.917C119.63 356.703 119.63 356.385 119.521 356.172C102.927 335.214 88.0312 314.359 88.1405 290.641C88.1405 284.255 89.3072 277.448 91.651 269.682C93.6718 263.083 96.2239 256.49 98.776 250.104C100.583 245.641 102.396 240.958 103.99 236.385C104.948 237.13 105.906 237.766 106.859 238.51C106.859 238.615 106.859 238.615 106.755 238.724C106.651 238.938 106.651 239.042 106.542 239.255C101.437 251.703 96.2239 265 93.8853 279.151C91.328 294.573 92.927 308.828 98.3489 320.427C101.859 327.979 107.182 334.896 112.286 341.49C114.734 344.682 117.396 348.083 119.63 351.385C123.245 360.104 127.073 371.594 126.437 383.083C126.328 383.193 126.224 383.193 126.224 383.297C126.01 383.51 126.01 383.828 126.224 384.042C126.328 384.151 126.328 384.151 126.437 384.151C126.224 386.276 125.906 388.406 125.479 390.531C125.37 390.849 125.583 391.063 125.906 391.172H126.01C125.161 393.406 124.094 395.641 123.031 397.979H2.07284V139.786C2.07284 102.979 16.4374 68.2969 42.4999 42.2344C68.5624 16.1719 103.141 1.80729 140.052 1.80729C176.859 1.80729 211.542 16.1719 237.604 42.2344C263.672 68.2969 278.031 102.87 278.031 139.786V398.083H277.927ZM57.927 95.6406C54.6301 97.0208 53.3489 99.0417 52.6041 102.661C51.9687 99.151 50.4791 96.276 47.2864 95.2135C50.9062 93.6146 51.8593 90.5313 52.7135 87.1302C52.927 88.9375 53.0312 90.6406 54.0937 92.2344C54.5208 92.9792 56.651 95.2135 57.927 95.6406ZM269.417 259.359C266.115 260.745 264.838 262.766 264.094 266.385C263.458 262.87 261.969 260 258.776 258.938C262.396 257.339 263.349 254.255 264.203 250.849C264.417 252.661 264.521 254.359 265.583 255.958C266.01 256.703 268.141 258.938 269.417 259.359ZM239.734 130.745C236.437 132.13 235.161 134.151 234.417 137.766C233.776 134.255 232.286 131.385 229.094 130.318C232.713 128.724 233.672 125.641 234.521 122.234C234.734 124.042 234.838 125.745 235.906 127.339C236.224 128.083 238.349 130.318 239.734 130.745ZM20.3697 217.13C23.9895 215.531 24.9478 212.448 25.7968 209.042C26.0103 210.849 26.1145 212.552 27.1822 214.151C27.6041 214.786 29.7343 217.13 31.1145 217.552C27.8176 218.938 26.5416 220.958 25.7968 224.573C24.9478 220.958 23.5624 218.083 20.3697 217.13ZM58.0312 331.594C61.651 330 62.6041 326.917 63.4583 323.51C63.6718 325.318 63.776 327.021 64.8385 328.615C65.2655 329.255 67.3958 331.594 68.776 332.021C65.4791 333.406 64.203 335.427 63.4583 339.042C62.7135 335.427 61.2239 332.552 58.0312 331.594ZM68.9895 118.615C66.8593 119.573 65.9062 120.849 65.4791 123.297C65.052 120.958 64.0937 119.042 61.9687 118.297C64.3072 117.234 65.052 115.214 65.5833 112.87C65.7968 114.151 65.7968 115.214 66.5416 116.276C66.651 116.917 68.1405 118.406 68.9895 118.615ZM30.5833 154.682C28.4583 155.641 27.4999 156.917 27.0728 159.359C26.651 157.021 25.6926 155.104 23.5624 154.359C25.9062 153.297 26.651 151.276 27.1822 148.938C27.3958 150.214 27.3958 151.276 28.1405 152.339C28.2447 152.979 29.6301 154.469 30.5833 154.682ZM43.2447 355.214C45.5833 354.151 46.328 352.13 46.8593 349.786C47.0728 351.063 47.0728 352.13 47.8176 353.193C48.1405 353.615 49.5208 355.104 50.3697 355.427C48.2447 356.385 47.2864 357.661 46.8593 360.104C46.328 357.87 45.4791 355.958 43.2447 355.214ZM225.479 189.573C223.349 190.531 222.396 191.807 221.969 194.255C221.542 191.917 220.583 190 218.458 189.255C220.797 188.193 221.542 186.172 222.073 183.828C222.286 185.104 222.286 186.172 223.031 187.234C223.141 187.766 224.63 189.255 225.479 189.573ZM195.797 98.4063C193.672 99.3594 192.713 100.641 192.286 103.083C191.859 100.745 190.906 98.8281 188.776 98.0833C191.115 97.0208 191.859 95 192.396 92.6615C192.604 93.9375 192.604 95 193.349 96.0625C193.458 96.7031 194.838 98.1927 195.797 98.4063ZM186.755 31.276C184.63 32.2344 183.672 33.5104 183.245 35.9583C182.818 33.6146 181.859 31.7031 179.734 30.9583C182.073 29.8958 182.818 27.8698 183.349 25.5313C183.562 26.8073 183.562 27.8698 184.307 28.9375C184.417 29.4688 185.797 30.9583 186.755 31.276ZM84.9478 102.234C84.9478 102.87 84.4166 103.51 83.6718 103.51C82.927 103.51 82.3958 102.979 82.3958 102.234C82.3958 101.49 82.927 100.958 83.6718 100.958C84.4166 100.958 84.9478 101.49 84.9478 102.234ZM16.328 111.594C16.328 112.234 15.7968 112.87 15.052 112.87C14.3072 112.87 13.776 112.339 13.776 111.594C13.776 110.958 14.3072 110.318 15.052 110.318C15.7968 110.318 16.328 110.958 16.328 111.594ZM98.6718 84.5729C98.6718 85.2135 98.1405 85.849 97.3958 85.849C96.651 85.849 96.1145 85.3177 96.1145 84.5729C96.1145 83.8281 96.651 83.2969 97.3958 83.2969C98.1405 83.2969 98.6718 83.8281 98.6718 84.5729ZM103.99 196.917C103.99 196.276 104.521 195.641 105.266 195.641C106.01 195.641 106.542 196.172 106.542 196.917C106.542 197.661 106.01 198.193 105.266 198.193C104.521 198.193 103.99 197.552 103.99 196.917ZM12.3958 254.786C12.3958 254.151 12.927 253.51 13.6718 253.51C14.4166 253.51 14.9478 254.042 14.9478 254.786C14.9478 255.531 14.4166 256.063 13.6718 256.063C12.927 256.063 12.3958 255.531 12.3958 254.786ZM69.4166 184.359C69.4166 185 68.8853 185.641 68.1405 185.641C67.3958 185.641 66.8593 185.104 66.8593 184.359C66.8593 183.615 67.3958 183.083 68.1405 183.083C68.8853 183.083 69.4166 183.615 69.4166 184.359ZM19.0937 301.385C19.0937 300.745 19.6301 300.104 20.3697 300.104C21.1145 300.104 21.651 300.641 21.651 301.385C21.651 302.021 21.1145 302.661 20.3697 302.661C19.6301 302.661 19.0937 302.021 19.0937 301.385ZM14.7343 362.448C14.7343 361.807 15.2655 361.172 16.0103 361.172C16.7551 361.172 17.2864 361.703 17.2864 362.448C17.2864 363.193 16.7551 363.724 16.0103 363.724C15.2655 363.724 14.7343 363.083 14.7343 362.448ZM49.3072 267.87C49.3072 267.234 49.8385 266.594 50.5833 266.594C51.2239 266.594 51.8593 267.13 51.8593 267.87C51.8593 268.51 51.328 269.151 50.5833 269.151C49.8385 269.042 49.3072 268.51 49.3072 267.87ZM52.927 280.427C52.927 279.786 53.4583 279.151 54.203 279.151C54.8385 279.151 55.4791 279.682 55.4791 280.427C55.4791 281.063 54.9478 281.703 54.203 281.703C53.5624 281.703 52.927 281.172 52.927 280.427ZM116.859 369.042C116.859 368.406 117.396 367.766 118.141 367.766C118.885 367.766 119.417 368.297 119.417 369.042C119.417 369.786 118.885 370.318 118.141 370.318C117.396 370.318 116.859 369.682 116.859 369.042ZM88.8853 371.172C88.8853 370.531 89.4166 369.896 90.1614 369.896C90.9062 369.896 91.4374 370.427 91.4374 371.172C91.4374 371.917 90.9062 372.448 90.1614 372.448C89.4166 372.448 88.8853 371.917 88.8853 371.172ZM23.0312 377.661C23.0312 378.297 22.4999 378.938 21.7551 378.938C21.0103 378.938 20.4791 378.406 20.4791 377.661C20.4791 376.917 21.0103 376.385 21.7551 376.385C22.4999 376.385 23.0312 377.021 23.0312 377.661ZM42.6041 382.766C43.2447 382.766 43.8853 383.297 43.8853 384.042C43.8853 384.786 43.3489 385.318 42.6041 385.318C41.9687 385.318 41.328 384.786 41.328 384.042C41.328 383.297 41.9687 382.766 42.6041 382.766ZM33.776 281.385C33.776 280.745 34.3072 280.104 35.052 280.104C35.6926 280.104 36.328 280.641 36.328 281.385C36.328 282.13 35.7968 282.661 35.052 282.661C34.4166 282.661 33.776 282.13 33.776 281.385ZM66.328 287.234C66.328 286.594 66.8593 285.958 67.6041 285.958C68.3489 285.958 68.8853 286.49 68.8853 287.234C68.8853 287.979 68.3489 288.51 67.6041 288.51C66.8593 288.51 66.328 287.979 66.328 287.234ZM74.203 277.979C74.203 277.339 74.7343 276.703 75.4791 276.703C76.2239 276.703 76.7551 277.234 76.7551 277.979C76.7551 278.615 76.2239 279.255 75.4791 279.255C74.7343 279.255 74.203 278.724 74.203 277.979ZM101.224 354.896C101.224 354.255 101.755 353.615 102.5 353.615C103.245 353.615 103.776 354.151 103.776 354.896C103.776 355.641 103.245 356.172 102.5 356.172C101.755 356.172 101.224 355.641 101.224 354.896ZM41.5416 157.661C41.5416 158.297 41.0103 158.938 40.2655 158.938C39.6301 158.938 38.9895 158.406 38.9895 157.661C38.9895 156.917 39.5208 156.385 40.2655 156.385C41.0103 156.49 41.5416 157.021 41.5416 157.661ZM37.0728 118.828C37.0728 119.469 36.5416 120.104 35.7968 120.104C35.1614 120.104 34.5208 119.573 34.5208 118.828C34.5208 118.193 35.052 117.552 35.7968 117.552C36.5416 117.552 37.0728 118.083 37.0728 118.828ZM35.2655 163.828C35.2655 164.469 34.7343 165.104 33.9895 165.104C33.3489 165.104 32.7135 164.573 32.7135 163.828C32.7135 163.083 33.2447 162.552 33.9895 162.552C34.7343 162.661 35.2655 163.193 35.2655 163.828ZM203.245 160.427C203.245 161.063 202.713 161.703 201.969 161.703C201.224 161.703 200.693 161.172 200.693 160.427C200.693 159.682 201.224 159.151 201.969 159.151C202.713 159.151 203.245 159.786 203.245 160.427ZM260.266 189.042C260.266 188.406 260.797 187.766 261.542 187.766C262.286 187.766 262.818 188.297 262.818 189.042C262.818 189.786 262.286 190.318 261.542 190.318C260.797 190.318 260.266 189.682 260.266 189.042ZM238.245 174.359C237.604 174.359 236.969 173.828 236.969 173.083C236.969 172.448 237.5 171.807 238.245 171.807C238.885 171.807 239.521 172.339 239.521 173.083C239.521 173.724 238.99 174.359 238.245 174.359ZM182.5 130.531C181.859 130.531 181.224 130 181.224 129.255C181.224 128.51 181.755 127.979 182.5 127.979C183.245 127.979 183.776 128.51 183.776 129.255C183.776 130 183.245 130.531 182.5 130.531ZM239.838 209.896C240.479 209.896 241.115 210.427 241.115 211.172C241.115 211.917 240.583 212.448 239.838 212.448C239.094 212.448 238.562 211.917 238.562 211.172C238.562 210.427 239.203 209.896 239.838 209.896ZM217.713 76.7031C217.073 76.7031 216.437 76.1719 216.437 75.4271C216.437 74.6823 216.969 74.151 217.713 74.151C218.349 74.151 218.99 74.6823 218.99 75.4271C218.99 76.1719 218.349 76.7031 217.713 76.7031ZM146.859 126.385C146.859 127.021 146.328 127.661 145.583 127.661C144.948 127.661 144.307 127.13 144.307 126.385C144.307 125.641 144.838 125.104 145.583 125.104C146.328 125.104 146.859 125.745 146.859 126.385ZM245.266 80.849C245.266 80.2135 245.797 79.5729 246.542 79.5729C247.182 79.5729 247.818 80.1042 247.818 80.849C247.818 81.5938 247.286 82.1302 246.542 82.1302C245.797 82.1302 245.266 81.4896 245.266 80.849ZM261.755 134.896C261.755 134.255 262.286 133.615 263.031 133.615C263.672 133.615 264.307 134.151 264.307 134.896C264.307 135.531 263.776 136.172 263.031 136.172C262.286 136.172 261.755 135.641 261.755 134.896ZM149.838 152.87C149.838 153.51 149.307 154.151 148.562 154.151C147.927 154.151 147.286 153.615 147.286 152.87C147.286 152.13 147.818 151.594 148.562 151.594C149.307 151.594 149.838 152.13 149.838 152.87ZM184.307 145.849C184.307 146.49 183.776 147.13 183.031 147.13C182.286 147.13 181.755 146.594 181.755 145.849C181.755 145.104 182.286 144.573 183.031 144.573C183.776 144.573 184.307 145.214 184.307 145.849ZM261.328 288.193C261.328 288.828 260.797 289.469 260.052 289.469C259.417 289.469 258.776 288.938 258.776 288.193C258.776 287.448 259.307 286.917 260.052 286.917C260.797 286.917 261.328 287.552 261.328 288.193ZM265.266 211.172C265.266 210.531 265.797 209.896 266.542 209.896C267.286 209.896 267.818 210.427 267.818 211.172C267.818 211.807 267.286 212.448 266.542 212.448C265.797 212.448 265.266 211.917 265.266 211.172ZM256.542 222.234C256.542 221.594 257.073 220.958 257.818 220.958C258.458 220.958 259.094 221.49 259.094 222.234C259.094 222.979 258.562 223.51 257.818 223.51C257.182 223.51 256.542 222.979 256.542 222.234ZM114.63 139.682C114.63 140.318 114.094 140.958 113.349 140.958C112.604 140.958 112.073 140.427 112.073 139.682C112.073 138.938 112.604 138.406 113.349 138.406C114.094 138.406 114.63 139.042 114.63 139.682ZM200.906 135.849C200.266 135.849 199.63 135.318 199.63 134.573C199.63 133.828 200.161 133.297 200.906 133.297C201.651 133.297 202.182 133.828 202.182 134.573C202.182 135.318 201.651 135.849 200.906 135.849ZM180.693 62.6615C180.052 62.6615 179.417 62.1302 179.417 61.3854C179.417 60.6406 179.948 60.1042 180.693 60.1042C181.437 60.1042 181.969 60.6406 181.969 61.3854C181.969 62.1302 181.437 62.6615 180.693 62.6615ZM222.286 55.9583C222.286 55.3177 222.818 54.6823 223.562 54.6823C224.203 54.6823 224.838 55.2135 224.838 55.9583C224.838 56.7031 224.307 57.2344 223.562 57.2344C222.927 57.2344 222.286 56.5938 222.286 55.9583ZM81.8593 73.1927C81.2239 73.1927 80.5833 72.6615 80.5833 71.9167C80.5833 71.1719 81.1145 70.6406 81.8593 70.6406C82.4999 70.6406 83.1405 71.1719 83.1405 71.9167C83.1405 72.6615 82.4999 73.1927 81.8593 73.1927ZM82.0728 32.3385C82.0728 31.7031 82.6041 31.0625 83.3489 31.0625C84.0937 31.0625 84.6301 31.5938 84.6301 32.3385C84.6301 33.0833 84.0937 33.6146 83.3489 33.6146C82.6041 33.6146 82.0728 32.9792 82.0728 32.3385ZM42.4999 57.4479C42.4999 58.0833 41.9687 58.724 41.2239 58.724C40.5833 58.724 39.9478 58.1927 39.9478 57.4479C39.9478 56.7031 40.4791 56.1719 41.2239 56.1719C41.8593 56.1719 42.4999 56.7031 42.4999 57.4479ZM39.9478 227.87C39.9478 227.234 40.4791 226.594 41.2239 226.594C41.9687 226.594 42.4999 227.13 42.4999 227.87C42.4999 228.615 41.9687 229.151 41.2239 229.151C40.4791 229.151 39.9478 228.615 39.9478 227.87ZM98.8853 51.1719C98.8853 51.8073 98.3489 52.4479 97.6041 52.4479C96.9687 52.4479 96.328 51.9167 96.328 51.1719C96.328 50.4271 96.8593 49.8958 97.6041 49.8958C98.2447 49.8958 98.8853 50.4271 98.8853 51.1719ZM140.479 10.849C140.479 10.2135 141.01 9.57292 141.755 9.57292C142.396 9.57292 143.031 10.1042 143.031 10.849C143.031 11.4896 142.5 12.1302 141.755 12.1302C141.115 12.1302 140.479 11.5937 140.479 10.849ZM105.161 68.724C105.161 69.3594 104.63 70 103.885 70C103.245 70 102.604 69.4688 102.604 68.724C102.604 68.0833 103.141 67.4479 103.885 67.4479C104.63 67.4479 105.161 68.0833 105.161 68.724ZM125.693 24.151C125.693 23.5104 126.224 22.8698 126.969 22.8698C127.713 22.8698 128.245 23.4063 128.245 24.151C128.245 24.7865 127.713 25.4271 126.969 25.4271C126.224 25.4271 125.693 24.8958 125.693 24.151ZM150.583 42.9792C150.583 42.3385 151.115 41.7031 151.859 41.7031C152.604 41.7031 153.141 42.2344 153.141 42.9792C153.141 43.724 152.604 44.2552 151.859 44.2552C151.115 44.2552 150.583 43.6146 150.583 42.9792ZM168.776 74.0417C169.094 74.3594 169.094 75 168.672 75.3177L157.182 85.3177C156.859 85.6406 156.328 85.6406 156.01 85.3177L145.479 76.3854L134.63 85.3177C134.307 85.6406 133.776 85.6406 133.458 85.3177L123.031 76.276L112.286 85.5313C112.073 85.6406 111.859 85.7448 111.755 85.7448C111.542 85.7448 111.224 85.6406 111.115 85.4271C110.797 85.1042 110.797 84.4688 111.224 84.151L122.5 74.3594C122.818 74.0417 123.349 74.0417 123.672 74.3594L134.094 83.4063L144.948 74.4688C145.266 74.151 145.797 74.151 146.115 74.4688L156.651 83.4063L167.5 73.8281C167.927 73.724 168.458 73.724 168.776 74.0417ZM168.776 87.3385C169.094 87.6615 169.094 88.2969 168.672 88.6146L157.182 98.6146C156.859 98.9375 156.328 98.9375 156.01 98.6146L145.479 89.6823L134.63 98.6146C134.307 98.9375 133.776 98.9375 133.458 98.6146L123.031 89.5729L112.286 98.8281C112.073 98.9375 111.859 99.0417 111.755 99.0417C111.542 99.0417 111.224 98.9375 111.115 98.724C110.797 98.4063 110.797 97.7656 111.224 97.4479L122.5 87.6615C122.818 87.3385 123.349 87.3385 123.672 87.6615L134.094 96.7031L144.948 87.7656C145.266 87.4479 145.797 87.4479 146.115 87.7656L156.651 96.7031L167.5 87.1302C167.927 86.9167 168.458 87.0208 168.776 87.3385Z" fill="url(#paint0_linear_356_678)"></path> <defs> <linearGradient id="paint0_linear_356_678" x1="140" y1="0" x2="140" y2="400" gradientUnits="userSpaceOnUse"> <stop offset="0.416667" stop-color="#58A5FF"></stop> <stop offset="1" stop-color="white"></stop> </linearGradient> </defs> </svg> 