<?xml version="1.0" encoding="UTF-8"?> <svg xmlns="http://www.w3.org/2000/svg" width="280" height="400" viewBox="0 0 280 400" fill="none"> <path d="M147.234 284.589C146.13 284.589 145.031 284.484 143.948 284.276C142.151 283.917 140.49 283.224 138.969 282.198C137.401 281.172 135.974 279.891 134.599 278.656C133.615 277.771 132.604 276.854 131.537 276.036C120.703 267.708 112.49 257.437 107.787 246.328C105.932 241.818 104.495 237.177 103.484 232.406C103.448 232.234 103.474 232.073 103.568 231.927C103.662 231.781 103.797 231.687 103.964 231.651C104.135 231.615 104.292 231.646 104.438 231.74C104.583 231.833 104.677 231.964 104.719 232.13C105.714 236.828 107.12 241.396 108.943 245.833C113.583 256.75 121.651 266.849 132.313 275.031C133.417 275.875 134.448 276.807 135.453 277.703C136.854 278.969 138.177 280.156 139.677 281.13C141.052 282.073 142.557 282.703 144.193 283.026C152.245 284.599 160.068 279.62 164.698 274.427C166.422 272.5 167.932 270.349 169.385 268.266C169.87 267.573 170.359 266.87 170.859 266.172C171.328 265.526 171.771 264.974 172.203 264.438C173.208 263.188 174.083 262.104 174.755 260.359C177.448 253.469 179.104 246.339 179.734 238.964C179.979 236.042 180.042 233.12 179.927 230.187V230.13C179.719 224.177 178.766 218.344 177.068 212.635C175.37 206.927 172.979 201.521 169.901 196.427C169.063 195.031 168.146 193.693 167.146 192.411C167.115 192.37 167.089 192.333 167.073 192.286C167.021 192.198 167 192.104 167 192C167 191.828 167.063 191.677 167.182 191.557C167.307 191.432 167.453 191.37 167.63 191.37C167.854 191.375 168.026 191.474 168.151 191.661C169.177 192.979 170.115 194.349 170.969 195.776C174.109 200.974 176.547 206.479 178.276 212.297C180.01 218.115 180.979 224.057 181.188 230.125C181.307 233.115 181.24 236.104 180.99 239.083C180.349 246.578 178.662 253.823 175.922 260.828C175.182 262.755 174.208 263.969 173.177 265.245C172.76 265.766 172.323 266.302 171.87 266.922C171.375 267.615 170.885 268.307 170.401 269C168.927 271.094 167.396 273.292 165.625 275.286C161.391 280.01 154.583 284.589 147.234 284.589Z" fill="url(#paint0_linear_356_7422)"></path> <path d="M124.896 181.62C124.724 181.615 124.573 181.552 124.453 181.432C124.328 181.307 124.266 181.156 124.266 180.984C124.271 180.807 124.333 180.661 124.453 180.536C124.578 180.417 124.729 180.354 124.901 180.354C125.078 180.354 125.224 180.417 125.349 180.542C125.469 180.667 125.531 180.812 125.531 180.99C125.531 181.161 125.469 181.312 125.344 181.437C125.224 181.562 125.073 181.62 124.896 181.62Z" fill="url(#paint1_linear_356_7422)"></path> <path d="M142.136 271.833C139.552 271.833 137.052 271.099 135.136 269.656C134.333 269.062 133.646 268.354 133.073 267.536C132.609 266.875 131.729 265.813 131.412 265.62C131.255 265.583 131.13 265.505 131.031 265.38C130.938 265.255 130.896 265.109 130.906 264.953C130.917 264.792 130.979 264.656 131.094 264.547C131.208 264.432 131.344 264.375 131.505 264.37C132.698 264.328 134.125 264.563 135.37 264.776C135.714 264.833 136.042 264.891 136.344 264.932C137.495 265.13 138.651 265.255 139.813 265.302C145.432 265.411 151.042 262.156 155.833 259.125C156.083 258.964 156.328 258.979 156.563 259.167C156.797 259.359 156.865 259.594 156.761 259.875C155.656 262.87 153.016 268.255 147.75 270.635C145.964 271.438 144.094 271.833 142.136 271.833ZM133.281 265.729C133.573 266.078 133.854 266.453 134.099 266.807C134.599 267.516 135.198 268.125 135.891 268.641C138.854 270.865 143.412 271.203 147.234 269.474C150.313 268.083 153.021 265.125 154.828 261.229C150.359 263.969 145.307 266.557 140.089 266.557H139.787C138.568 266.51 137.359 266.38 136.156 266.177C135.839 266.13 135.505 266.073 135.162 266.01C134.568 265.917 133.922 265.807 133.292 265.729H133.281Z" fill="url(#paint2_linear_356_7422)"></path> <path d="M140.526 266.328C140.203 266.328 139.87 266.328 139.521 266.292C138.906 266.245 138.292 266.193 137.688 266.135C136.74 266.047 135.761 265.958 134.807 265.922C133.297 265.854 130.729 265.661 130.484 265.083C130.386 264.839 130.422 264.615 130.599 264.417C131.557 263.354 132.688 262.526 133.995 261.937C135.297 261.349 136.667 261.047 138.099 261.031C139.63 261.031 140.651 260.984 141.922 260.484L142.427 260.281C143.547 259.828 144.708 259.359 146.042 259.344C146.854 259.37 147.656 259.458 148.453 259.604C149.037 259.714 149.625 259.792 150.219 259.833C152.875 259.969 153.787 259.516 156.229 258.297L156.333 258.245C156.469 258.172 156.609 258.156 156.761 258.193C156.912 258.229 157.031 258.307 157.12 258.432C157.214 258.557 157.255 258.693 157.245 258.849C157.234 259 157.172 259.13 157.068 259.24C156.828 259.505 156.604 259.729 156.401 259.953C154.886 261.568 154.042 262.458 151.505 263.234C151 263.391 150.49 263.521 149.979 263.651C149.115 263.849 148.276 264.115 147.448 264.437L146.677 264.76C144.547 265.646 142.938 266.328 140.526 266.328ZM132.406 264.406C133.386 264.521 134.656 264.651 134.859 264.667C135.833 264.708 136.828 264.802 137.792 264.891C138.396 264.943 139.005 265 139.625 265.042C142.323 265.234 143.865 264.578 146.198 263.589L146.974 263.26C147.854 262.917 148.755 262.641 149.677 262.427C150.172 262.302 150.662 262.167 151.146 262.031C152.109 261.776 152.99 261.349 153.787 260.75C152.781 261.057 151.724 261.172 150.162 261.089C149.526 261.042 148.891 260.964 148.261 260.849C147.537 260.698 146.802 260.62 146.068 260.609C144.969 260.625 143.969 261.026 142.906 261.458L142.386 261.667C140.917 262.245 139.734 262.292 138.104 262.297C135.953 262.318 134.052 263.021 132.406 264.406Z" fill="url(#paint3_linear_356_7422)"></path> <path d="M229.906 363.339H229.859C229.688 363.328 229.542 363.255 229.427 363.125C229.313 362.995 229.266 362.844 229.276 362.667C230.849 339.151 231.276 318.292 220.583 301.188C216.208 294.193 210.104 288.313 204.208 282.625C198.396 277.021 192.385 271.224 187.969 264.323C186.349 261.786 184.953 259.135 183.781 256.359C182.615 253.589 181.688 250.734 181.005 247.802C180.323 244.87 179.896 241.901 179.719 238.901C179.542 235.896 179.62 232.896 179.958 229.906C179.99 229.74 180.068 229.609 180.203 229.51C180.333 229.411 180.484 229.37 180.651 229.385C180.818 229.406 180.953 229.479 181.063 229.604C181.167 229.734 181.219 229.88 181.208 230.047C180.88 232.964 180.802 235.891 180.974 238.823C181.141 241.755 181.563 244.656 182.224 247.516C182.891 250.375 183.792 253.161 184.938 255.87C186.078 258.573 187.438 261.167 189.021 263.641C193.37 270.417 199.328 276.161 205.089 281.714C211.042 287.453 217.198 293.385 221.651 300.51C232.542 317.937 232.115 339.016 230.531 362.75C230.521 362.917 230.458 363.052 230.333 363.167C230.214 363.281 230.073 363.339 229.906 363.339Z" fill="url(#paint4_linear_356_7422)"></path> <path d="M116.901 361.339C116.74 361.339 116.604 361.286 116.484 361.182C116.365 361.078 116.297 360.948 116.276 360.786C114.802 349.266 119.531 338.375 123.761 331.286C127.849 324.422 133.047 318.187 138.068 312.141C139.484 310.437 140.953 308.677 142.365 306.932C143.776 305.187 144.906 303.656 145.167 301.818C145.427 299.979 144.729 298.073 144.109 296.396L138.729 281.891C138.667 281.724 138.677 281.562 138.745 281.406C138.818 281.25 138.938 281.141 139.099 281.078C139.266 281.016 139.427 281.026 139.583 281.099C139.74 281.172 139.849 281.286 139.912 281.453L145.276 295.958C145.953 297.776 146.714 299.844 146.406 301.979C146.094 304.12 144.776 305.911 143.333 307.714C141.912 309.464 140.448 311.224 139.026 312.932C134.047 318.932 128.875 325.141 124.833 331.922C120.708 338.839 116.089 349.437 117.516 360.615C117.537 360.786 117.495 360.943 117.391 361.078C117.281 361.219 117.141 361.297 116.969 361.318L116.901 361.339Z" fill="url(#paint5_linear_356_7422)"></path> <path d="M159.682 364.615C159.531 364.615 159.396 364.562 159.276 364.464C159.162 364.365 159.089 364.24 159.063 364.089L154.75 336.01C154.724 335.839 154.761 335.682 154.865 335.542C154.969 335.401 155.104 335.318 155.276 335.292C155.448 335.266 155.604 335.302 155.745 335.406C155.886 335.51 155.969 335.646 155.995 335.818L160.307 363.896C160.333 364.068 160.297 364.224 160.193 364.365C160.094 364.505 159.953 364.589 159.787 364.615H159.682Z" fill="url(#paint6_linear_356_7422)"></path> <path d="M211.026 358.099H210.995C210.823 358.094 210.677 358.026 210.557 357.896C210.443 357.766 210.385 357.615 210.396 357.443C210.677 351.031 211.271 344.557 212.156 338.203C212.188 338.036 212.271 337.901 212.406 337.802C212.547 337.703 212.698 337.667 212.865 337.693C213.031 337.714 213.167 337.792 213.276 337.922C213.38 338.057 213.422 338.208 213.406 338.375C212.526 344.693 211.932 351.13 211.651 357.495C211.646 357.667 211.583 357.807 211.458 357.927C211.339 358.042 211.193 358.104 211.026 358.099Z" fill="url(#paint7_linear_356_7422)"></path> <path d="M47.0105 366.474C46.8334 366.479 46.6824 366.427 46.5574 366.307C46.4272 366.193 46.3595 366.047 46.3543 365.87C46.3438 365.698 46.4011 365.547 46.5157 365.417C46.6355 365.292 46.7813 365.224 46.9532 365.214C53.948 364.589 61.1876 363.938 67.6876 361.026C80.0782 355.438 88.6668 344.948 93.8959 332.656C94.7605 330.661 95.5209 328.63 96.1772 326.563C96.573 325.307 96.6147 323.182 97.2501 322.083C93.2397 328.984 87.4532 334.344 80.7293 337.323C71.4324 341.438 57.0574 341.88 49.0938 335.49C44.0001 331.406 41.1616 322.917 42.6199 316.161C43.7136 311.104 47.0938 307.615 52.1355 306.328C55.1407 305.563 58.3543 306.344 60.3178 308.313C60.4428 308.438 60.5053 308.589 60.5053 308.76C60.5053 308.932 60.4428 309.083 60.3178 309.208C60.198 309.328 60.047 309.391 59.8751 309.391C59.698 309.391 59.5522 309.328 59.4272 309.203C59.0209 308.995 56.922 309.745 56.2136 310.224C55.0938 311.016 54.3959 312.089 54.1199 313.432C53.2397 317.781 57.0001 319.922 58.6459 320.641C62.5053 322.313 66.8803 321.495 69.8699 320.516C72.8595 319.536 78.3282 317.094 80.8959 311.927C82.698 308.297 84.3595 302.688 84.2813 297.807C82.9532 298.766 81.5366 299.578 80.0366 300.234C78.5366 300.891 76.9793 301.38 75.3699 301.703C73.7657 302.026 72.1407 302.172 70.5001 302.141C68.8647 302.115 67.2449 301.911 65.6511 301.536C58.3334 299.734 53.9741 296.266 52.698 291.219C52.2501 289.417 52.2136 287.604 52.5782 285.781C52.9428 283.953 53.6824 282.297 54.797 280.807C54.9793 280.563 55.2188 280.49 55.5053 280.594C55.797 280.693 55.9376 280.896 55.9272 281.203C55.9168 281.891 56.0001 282.568 56.1668 283.234C56.3386 283.896 56.5886 284.531 56.9272 285.13C57.2657 285.724 57.672 286.271 58.1563 286.76C58.6355 287.25 59.172 287.667 59.7657 288.016C64.5886 290.745 68.4636 287.214 71.6147 283.385C74.3022 280.135 75.5105 275.75 75.1199 270.714C74.5938 263.87 71.7918 257.417 69.0938 251.182C67.9376 248.51 66.7345 245.75 65.7397 243C65.073 241.156 64.4897 239.292 64.0001 237.391C63.5053 235.495 63.1043 233.583 62.797 231.646C62.4845 229.714 62.2657 227.771 62.1407 225.813C62.0157 223.859 61.9845 221.901 62.0418 219.943C62.1043 217.984 62.2553 216.036 62.5001 214.094C62.7449 212.146 63.0834 210.219 63.5105 208.307C63.9376 206.396 64.4584 204.51 65.0626 202.646C65.672 200.786 66.3647 198.953 67.1459 197.156C67.9272 195.365 68.7918 193.604 69.7397 191.891C70.6876 190.177 71.7136 188.51 72.8178 186.896C73.922 185.276 75.1043 183.714 76.3543 182.208C77.6095 180.703 78.9324 179.26 80.323 177.88C81.7136 176.505 83.1668 175.193 84.6824 173.948C86.198 172.708 87.7657 171.542 89.3907 170.448C91.0209 169.354 92.6928 168.344 94.4168 167.406C96.1355 166.474 97.9011 165.625 99.7032 164.854C105.672 162.318 111.75 161.677 116.484 163.083C121 158.63 129.031 154.729 133.136 153.099C141.328 149.854 152.089 150.349 159.453 151.021C174.724 152.396 193.917 163.167 199.594 178.823C200.24 180.599 200.781 182.37 201.313 184.083C203.078 189.823 204.745 195.24 209.771 199.536C220.219 208.464 230.094 216.901 228.787 233.781C228.234 240.849 226.271 247.792 224.37 254.495L223.938 256.021C223.537 257.443 223.083 258.76 222.63 260.036C221.193 264.188 219.948 267.771 221.521 272.589C222.386 275.245 223.729 277.776 225.031 280.224C226.266 282.552 227.547 284.964 228.438 287.51C230.37 293.01 228.552 299.109 226.948 304.495C226.578 305.724 226.229 306.88 225.932 308.026C225.886 308.193 225.787 308.323 225.636 308.406C225.49 308.495 225.328 308.516 225.162 308.474C224.99 308.427 224.865 308.328 224.776 308.182C224.688 308.031 224.667 307.87 224.714 307.703C225.021 306.542 225.37 305.37 225.74 304.13C227.365 298.682 229.047 293.047 227.25 287.932C226.386 285.469 225.125 283.104 223.912 280.818C222.589 278.323 221.219 275.74 220.318 272.979C218.615 267.76 219.984 263.807 221.438 259.62C221.87 258.359 222.323 257.063 222.714 255.672L223.141 254.151C225.042 247.5 227 240.63 227.526 233.677C228.787 217.438 219.146 209.203 208.948 200.49C203.646 195.964 201.927 190.37 200.104 184.453C199.578 182.755 199.042 181 198.406 179.25C192.906 164.063 174.219 153.609 159.339 152.271C152.089 151.625 141.542 151.135 133.599 154.281C129.505 155.901 121.427 159.828 117.115 164.234C116.932 164.422 116.714 164.474 116.469 164.391C111.984 162.932 106.052 163.521 100.198 166.01C98.4272 166.76 96.7032 167.594 95.0157 168.505C93.3282 169.422 91.6876 170.417 90.0938 171.484C88.5001 172.557 86.9584 173.703 85.4741 174.917C83.9897 176.135 82.5678 177.417 81.2032 178.771C79.8386 180.125 78.547 181.536 77.3178 183.01C76.0886 184.484 74.9324 186.016 73.8491 187.599C72.7657 189.188 71.7553 190.818 70.8282 192.5C69.9011 194.177 69.0522 195.901 68.2866 197.661C67.5209 199.422 66.8438 201.214 66.2501 203.036C65.6511 204.865 65.1459 206.714 64.7241 208.589C64.3074 210.458 63.9793 212.349 63.7345 214.255C63.4949 216.156 63.349 218.073 63.2865 219.99C63.2293 221.906 63.2605 223.828 63.3855 225.74C63.5105 227.656 63.7241 229.563 64.0261 231.458C64.3334 233.354 64.7241 235.229 65.2084 237.089C65.6876 238.948 66.2605 240.776 66.9168 242.583C67.9011 245.297 69.0938 248.042 70.2397 250.703C72.9845 257.036 75.823 263.583 76.3699 270.641C76.7918 276.01 75.4793 280.703 72.5834 284.214C69.3022 288.193 64.8074 292.349 59.1407 289.135C58.0261 288.479 57.0938 287.63 56.3438 286.578C55.5938 285.531 55.0886 284.375 54.8334 283.109C54.2188 284.313 53.8334 285.589 53.6772 286.927C53.5157 288.271 53.5938 289.599 53.9115 290.911C55.0626 295.469 59.1095 298.635 65.9376 300.313C67.5418 300.693 69.1668 300.885 70.8126 300.891C72.4584 300.896 74.0834 300.719 75.6876 300.349C77.297 299.979 78.8386 299.438 80.3178 298.714C81.797 297.995 83.1772 297.115 84.4532 296.073C84.6511 295.911 84.8647 295.88 85.0991 295.979C85.3334 296.078 85.4636 296.255 85.4845 296.51C85.9063 301.88 84.0522 308.401 82.0261 312.49C79.974 316.625 75.797 319.901 70.2605 321.714C67.0626 322.76 62.3699 323.63 58.1459 321.797C54.1147 320.047 52.1511 316.818 52.8855 313.188C53.2241 311.505 54.0938 310.172 55.5053 309.188C56.2813 308.75 57.099 308.396 57.9584 308.141C56.198 307.25 54.3647 307.063 52.4584 307.563C46.6199 309.047 44.5574 313.214 43.8595 316.443C42.5157 322.667 45.2188 330.771 49.8855 334.516C57.4793 340.599 71.2709 340.135 80.2188 336.167C87.4116 332.984 93.5053 326.964 97.3751 319.203C97.5209 318.922 97.7449 318.807 98.0574 318.87C98.3699 318.932 98.5418 319.12 98.5678 319.438C99.2136 327.672 94.6407 336.031 90.4116 342.786C87.7345 347.026 84.5053 350.797 80.7241 354.099C76.9428 357.396 72.7709 360.089 68.2084 362.167C61.5157 365.188 54.172 365.839 47.0678 366.479L47.0105 366.474Z" fill="url(#paint8_linear_356_7422)"></path> <path d="M104.109 232.906C103.943 232.906 103.797 232.849 103.677 232.729C103.552 232.615 103.49 232.474 103.479 232.302C103.458 231.87 103.438 231.427 103.438 230.995C103.307 219.406 105.453 209.74 109.813 202.276C110.865 200.484 112.198 198.646 113.604 196.703C117.682 191.094 122.302 184.734 120.344 178.276C120.255 177.969 120.349 177.729 120.63 177.562C120.906 177.401 121.162 177.432 121.391 177.661C122.474 178.786 123.714 179.698 125.109 180.396L125.177 180.427C129.25 182.469 134.344 182.781 139.287 183.109C140.49 183.182 141.729 183.26 142.927 183.37C148.719 183.88 154.328 185.182 159.755 187.281C163.011 188.526 165.708 189.901 167.979 191.474C168.167 191.604 168.261 191.781 168.266 192.01C168.266 192.297 168.136 192.49 167.875 192.599C167.609 192.703 167.38 192.656 167.182 192.453C164.714 190.802 162.083 189.464 159.302 188.432C153.99 186.38 148.495 185.104 142.823 184.609C141.641 184.51 140.406 184.432 139.214 184.349C134.177 184.031 128.964 183.698 124.672 181.562C124.651 181.557 124.625 181.547 124.604 181.531C123.677 181.068 122.802 180.51 121.984 179.865C122.807 186.182 118.49 192.125 114.651 197.427C113.261 199.344 111.943 201.156 110.927 202.891C106.682 210.156 104.594 219.604 104.724 230.969C104.724 231.391 104.745 231.813 104.766 232.224C104.776 232.401 104.719 232.552 104.604 232.682C104.484 232.807 104.339 232.875 104.167 232.885L104.109 232.906Z" fill="url(#paint9_linear_356_7422)"></path> <path d="M238.865 40.9583C212.458 14.5417 177.339 0 139.995 0C102.651 0 67.5313 14.5417 41.1251 40.9583C14.7188 67.375 0.166748 102.479 0.166748 139.823V399.042C0.166748 399.307 0.260497 399.531 0.447998 399.719C0.635497 399.906 0.859456 400 1.11987 400H278.865C279.13 400 279.354 399.906 279.542 399.719C279.729 399.531 279.823 399.307 279.823 399.042V139.823C279.818 102.479 265.271 67.3646 238.865 40.9583ZM277.891 398.089H2.07821V139.823C2.07821 102.99 16.4272 68.3646 42.4792 42.3125C68.5261 16.2552 103.156 1.91146 139.995 1.91146C176.833 1.91146 211.458 16.2604 237.51 42.3125C263.563 68.3646 277.901 102.99 277.901 139.823L277.891 398.089Z" fill="url(#paint10_linear_356_7422)"></path> <path d="M47.3126 95.2188C50.5678 96.2344 51.9844 99.1198 52.6563 102.661C53.3646 99.0573 54.7136 96.9948 57.9688 95.625C56.6303 95.1979 54.5001 92.9323 54.0782 92.2448C53.0626 90.5885 52.9636 88.9583 52.7188 87.1094C51.9011 90.526 50.9011 93.651 47.3126 95.2188Z" fill="url(#paint11_linear_356_7422)"></path> <path d="M11.5834 348.635C14.8282 349.646 16.25 352.531 16.9219 356.073C17.625 352.474 18.9792 350.406 22.2344 349.036C20.8959 348.609 18.7657 346.349 18.3438 345.661C17.3282 344 17.2292 342.37 16.9844 340.521C16.1615 343.922 15.1667 347.062 11.5834 348.635Z" fill="url(#paint12_linear_356_7422)"></path> <path d="M260.391 243.219C263.641 244.234 265.063 247.115 265.734 250.656C266.438 247.057 267.792 244.995 271.047 243.625C269.708 243.198 267.578 240.932 267.156 240.245C266.135 238.583 266.037 236.958 265.797 235.109C264.984 238.521 263.974 241.646 260.391 243.219Z" fill="url(#paint13_linear_356_7422)"></path> <path d="M260.219 306.547C263.469 307.563 264.885 310.443 265.563 313.984C266.266 310.385 267.615 308.323 270.875 306.948C269.537 306.526 267.406 304.26 266.984 303.568C265.969 301.911 265.87 300.281 265.625 298.432C264.802 301.849 263.807 304.974 260.219 306.547Z" fill="url(#paint14_linear_356_7422)"></path> <path d="M229.083 130.359C232.328 131.37 233.75 134.255 234.422 137.797C235.125 134.193 236.474 132.13 239.734 130.76C238.396 130.339 236.266 128.068 235.844 127.38C234.823 125.719 234.724 124.094 234.484 122.245C233.662 125.661 232.667 128.786 229.083 130.359Z" fill="url(#paint15_linear_356_7422)"></path> <path d="M36.1876 193.74C39.4376 194.75 40.8542 197.63 41.5261 201.177C42.2344 197.573 43.5834 195.51 46.8438 194.141C45.5001 193.719 43.3699 191.448 42.9532 190.76C41.9324 189.099 41.8334 187.474 41.5938 185.625C40.7657 189.042 39.7709 192.167 36.1876 193.74Z" fill="url(#paint16_linear_356_7422)"></path> <path d="M61.9063 118.396C64.0678 119.068 65.0105 120.99 65.4636 123.344C65.9324 120.948 66.8282 119.573 69.0001 118.661C68.1042 118.38 66.6876 116.875 66.4063 116.411C65.7292 115.307 65.6615 114.224 65.5053 113.005C64.9584 115.25 64.2917 117.349 61.9063 118.396Z" fill="url(#paint17_linear_356_7422)"></path> <path d="M191.005 378.74C193.167 379.417 194.109 381.333 194.557 383.693C195.026 381.297 195.927 379.922 198.094 379.01C197.203 378.729 195.786 377.219 195.505 376.76C194.828 375.656 194.76 374.573 194.599 373.339C194.052 375.615 193.391 377.693 191.005 378.74Z" fill="url(#paint18_linear_356_7422)"></path> <path d="M102.234 53.4063C104.401 54.0833 105.344 56 105.792 58.3594C106.26 55.9583 107.162 54.5886 109.328 53.6719C108.438 53.3906 107.021 51.8854 106.74 51.4271C106.063 50.3177 105.995 49.2344 105.833 48.0052C105.287 50.2917 104.625 52.3594 102.234 53.4063Z" fill="url(#paint19_linear_356_7422)"></path> <path d="M59.8542 275.922C62.0157 276.599 62.9584 278.516 63.4063 280.875C63.8803 278.474 64.7761 277.104 66.948 276.187C66.0522 275.906 64.6355 274.401 64.3542 273.943C63.6772 272.839 63.6147 271.75 63.448 270.536C62.9011 272.797 62.2449 274.875 59.8542 275.922Z" fill="url(#paint20_linear_356_7422)"></path> <path d="M188.693 98.1771C190.859 98.8489 191.802 100.771 192.25 103.13C192.719 100.729 193.62 99.3594 195.786 98.4479C194.896 98.1614 193.474 96.6562 193.198 96.1979C192.516 95.0885 192.453 94.0052 192.292 92.776C191.745 95.0521 191.078 97.1302 188.693 98.1771Z" fill="url(#paint21_linear_356_7422)"></path> <path d="M179.646 30.9583C181.807 31.6354 182.755 33.5521 183.203 35.9114C183.672 33.5156 184.568 32.1406 186.74 31.2292C185.849 30.9427 184.427 29.4375 184.151 28.9792C183.469 27.875 183.406 26.7917 183.245 25.5573C182.693 27.8333 182.031 29.9114 179.646 30.9583Z" fill="url(#paint22_linear_356_7422)"></path> <path d="M98.9792 116.281C98.9792 116.625 98.8594 116.917 98.6146 117.161C98.3698 117.401 98.0782 117.526 97.7344 117.526C97.3907 117.526 97.099 117.401 96.8542 117.161C96.6094 116.917 96.4896 116.625 96.4896 116.281C96.4896 115.938 96.6094 115.646 96.8542 115.401C97.099 115.156 97.3907 115.036 97.7344 115.036C98.0782 115.036 98.3698 115.156 98.6146 115.401C98.8594 115.646 98.9792 115.938 98.9792 116.281Z" fill="url(#paint23_linear_356_7422)"></path> <path d="M16.3646 111.63C16.3646 111.974 16.2449 112.266 16.0001 112.51C15.7553 112.755 15.4636 112.875 15.1199 112.875C14.7761 112.875 14.4844 112.755 14.2396 112.51C14.0001 112.266 13.8751 111.974 13.8751 111.63C13.8751 111.286 14.0001 110.995 14.2396 110.75C14.4844 110.51 14.7761 110.385 15.1199 110.385C15.4636 110.385 15.7553 110.51 16.0001 110.75C16.2449 110.995 16.3646 111.286 16.3646 111.63Z" fill="url(#paint24_linear_356_7422)"></path> <path d="M110.583 109.755C110.583 110.099 110.458 110.391 110.219 110.635C109.974 110.875 109.682 110.995 109.339 110.995C108.995 110.995 108.703 110.875 108.458 110.635C108.214 110.391 108.094 110.099 108.094 109.755C108.094 109.411 108.214 109.115 108.458 108.875C108.703 108.63 108.995 108.51 109.339 108.51C109.682 108.51 109.974 108.63 110.219 108.875C110.458 109.115 110.583 109.411 110.583 109.755Z" fill="url(#paint25_linear_356_7422)"></path> <path d="M15.8751 148.214C15.8751 148.557 15.7553 148.849 15.5105 149.094C15.2709 149.333 14.974 149.458 14.6355 149.458C14.2917 149.458 13.9949 149.333 13.7553 149.094C13.5105 148.849 13.3907 148.557 13.3907 148.214C13.3907 147.87 13.5105 147.578 13.7553 147.333C13.9949 147.089 14.2917 146.969 14.6355 146.969C14.974 146.969 15.2709 147.089 15.5105 147.333C15.7553 147.578 15.8751 147.87 15.8751 148.214Z" fill="url(#paint26_linear_356_7422)"></path> <path d="M14.8855 254.807C14.8855 255.151 14.7657 255.448 14.5209 255.687C14.2813 255.932 13.9845 256.052 13.6407 256.052C13.297 256.052 13.0053 255.932 12.7657 255.687C12.5209 255.448 12.4011 255.151 12.4011 254.807C12.4011 254.469 12.5209 254.172 12.7657 253.932C13.0053 253.687 13.297 253.568 13.6407 253.568C13.9845 253.568 14.2813 253.687 14.5209 253.932C14.7657 254.172 14.8855 254.469 14.8855 254.807Z" fill="url(#paint27_linear_356_7422)"></path> <path d="M24.7501 187.797C24.7501 188.141 24.6251 188.437 24.3855 188.677C24.1407 188.922 23.849 189.042 23.5053 189.042C23.1615 189.042 22.8699 188.922 22.6251 188.677C22.3803 188.437 22.2605 188.141 22.2605 187.797C22.2605 187.453 22.3803 187.161 22.6251 186.922C22.8699 186.677 23.1615 186.557 23.5053 186.557C23.849 186.557 24.1407 186.677 24.3855 186.922C24.6251 187.161 24.7501 187.453 24.7501 187.797Z" fill="url(#paint28_linear_356_7422)"></path> <path d="M21.5417 301.38C21.5417 301.724 21.4167 302.021 21.1771 302.26C20.9323 302.505 20.6407 302.625 20.2969 302.625C19.9532 302.625 19.6615 302.505 19.4167 302.26C19.1719 302.021 19.0521 301.724 19.0521 301.38C19.0521 301.036 19.1719 300.745 19.4167 300.5C19.6615 300.26 19.9532 300.135 20.2969 300.135C20.6407 300.135 20.9323 300.26 21.1771 300.5C21.4167 300.745 21.5417 301.036 21.5417 301.38Z" fill="url(#paint29_linear_356_7422)"></path> <path d="M13.5209 313.214C13.5209 313.557 13.3959 313.854 13.1563 314.094C12.9115 314.339 12.6199 314.458 12.2761 314.458C11.9324 314.458 11.6407 314.339 11.3959 314.094C11.1511 313.854 11.0313 313.557 11.0313 313.214C11.0313 312.87 11.1511 312.578 11.3959 312.339C11.6407 312.094 11.9324 311.974 12.2761 311.974C12.6199 311.974 12.9115 312.094 13.1563 312.339C13.3959 312.578 13.5209 312.87 13.5209 313.214Z" fill="url(#paint30_linear_356_7422)"></path> <path d="M34.7084 361.365C34.7084 361.703 34.5886 362 34.3438 362.24C34.099 362.484 33.8074 362.604 33.4636 362.604C33.1199 362.604 32.8282 362.484 32.5834 362.24C32.3386 362 32.2188 361.703 32.2188 361.365C32.2188 361.021 32.3386 360.724 32.5834 360.484C32.8282 360.24 33.1199 360.12 33.4636 360.12C33.8074 360.12 34.099 360.24 34.3438 360.484C34.5886 360.724 34.7084 361.021 34.7084 361.365Z" fill="url(#paint31_linear_356_7422)"></path> <path d="M43.6251 274.677C43.6251 275.021 43.5053 275.313 43.2605 275.557C43.0209 275.802 42.724 275.922 42.3803 275.922C42.0365 275.922 41.7449 275.802 41.5001 275.557C41.2605 275.313 41.1407 275.021 41.1407 274.677C41.1407 274.333 41.2605 274.042 41.5001 273.797C41.7449 273.557 42.0365 273.432 42.3803 273.432C42.724 273.432 43.0209 273.557 43.2605 273.797C43.5053 274.042 43.6251 274.333 43.6251 274.677Z" fill="url(#paint32_linear_356_7422)"></path> <path d="M28.7709 374.667C28.7709 375.01 28.6459 375.307 28.4063 375.547C28.1615 375.792 27.8699 375.911 27.5261 375.911C27.1824 375.911 26.8907 375.792 26.6459 375.547C26.4011 375.307 26.2813 375.01 26.2813 374.667C26.2813 374.323 26.4011 374.031 26.6459 373.786C26.8907 373.547 27.1824 373.422 27.5261 373.422C27.8699 373.422 28.1615 373.547 28.4063 373.786C28.6459 374.031 28.7709 374.323 28.7709 374.667Z" fill="url(#paint33_linear_356_7422)"></path> <path d="M63.5001 377.484C63.5001 377.828 63.3803 378.12 63.1355 378.365C62.8907 378.609 62.599 378.729 62.2553 378.729C61.9115 378.729 61.6199 378.609 61.3751 378.365C61.1303 378.12 61.0105 377.828 61.0105 377.484C61.0105 377.141 61.1303 376.849 61.3751 376.604C61.6199 376.359 61.9115 376.24 62.2553 376.24C62.599 376.24 62.8907 376.359 63.1355 376.604C63.3803 376.849 63.5001 377.141 63.5001 377.484Z" fill="url(#paint34_linear_356_7422)"></path> <path d="M40.3751 332.557C40.3751 332.901 40.2501 333.193 40.0105 333.438C39.7657 333.682 39.474 333.802 39.1303 333.802C38.7865 333.802 38.4949 333.682 38.2501 333.438C38.0053 333.193 37.8855 332.901 37.8855 332.557C37.8855 332.214 38.0053 331.922 38.2501 331.677C38.4949 331.432 38.7865 331.312 39.1303 331.312C39.474 331.312 39.7657 331.432 40.0105 331.677C40.2501 331.922 40.3751 332.214 40.3751 332.557Z" fill="url(#paint35_linear_356_7422)"></path> <path d="M258.057 109.135C258.057 109.479 257.938 109.776 257.693 110.016C257.453 110.26 257.156 110.38 256.813 110.38C256.469 110.38 256.177 110.26 255.938 110.016C255.693 109.776 255.573 109.479 255.573 109.135C255.573 108.792 255.693 108.5 255.938 108.26C256.177 108.016 256.469 107.896 256.813 107.896C257.156 107.896 257.453 108.016 257.693 108.26C257.938 108.5 258.057 108.792 258.057 109.135Z" fill="url(#paint36_linear_356_7422)"></path> <path d="M271.677 215.208C271.677 215.552 271.557 215.844 271.313 216.089C271.068 216.328 270.776 216.453 270.432 216.453C270.089 216.453 269.797 216.328 269.552 216.089C269.313 215.844 269.188 215.552 269.188 215.208C269.188 214.865 269.313 214.573 269.552 214.328C269.797 214.083 270.089 213.964 270.432 213.964C270.776 213.964 271.068 214.083 271.313 214.328C271.557 214.573 271.677 214.865 271.677 215.208Z" fill="url(#paint37_linear_356_7422)"></path> <path d="M244.292 146.547C244.292 146.885 244.172 147.182 243.927 147.422C243.682 147.667 243.391 147.786 243.047 147.786C242.703 147.786 242.411 147.667 242.167 147.422C241.927 147.182 241.802 146.885 241.802 146.547C241.802 146.203 241.927 145.906 242.167 145.667C242.411 145.422 242.703 145.302 243.047 145.302C243.391 145.302 243.682 145.422 243.927 145.667C244.172 145.906 244.292 146.203 244.292 146.547Z" fill="url(#paint38_linear_356_7422)"></path> <path d="M273.297 378.089C273.297 378.432 273.177 378.724 272.932 378.969C272.693 379.214 272.396 379.333 272.052 379.333C271.708 379.333 271.417 379.214 271.172 378.969C270.932 378.724 270.813 378.432 270.813 378.089C270.813 377.745 270.932 377.453 271.172 377.208C271.417 376.969 271.708 376.844 272.052 376.844C272.396 376.844 272.693 376.969 272.932 377.208C273.177 377.453 273.297 377.745 273.297 378.089Z" fill="url(#paint39_linear_356_7422)"></path> <path d="M245.349 310C245.349 310.344 245.224 310.641 244.984 310.88C244.74 311.125 244.448 311.245 244.104 311.245C243.76 311.245 243.469 311.125 243.224 310.88C242.979 310.641 242.859 310.344 242.859 310C242.859 309.656 242.979 309.365 243.224 309.12C243.469 308.88 243.76 308.755 244.104 308.755C244.448 308.755 244.74 308.88 244.984 309.12C245.224 309.365 245.349 309.656 245.349 310Z" fill="url(#paint40_linear_356_7422)"></path> <path d="M273.297 265.375C273.297 265.719 273.177 266.016 272.932 266.255C272.693 266.5 272.396 266.62 272.052 266.62C271.708 266.62 271.417 266.5 271.172 266.255C270.932 266.016 270.813 265.719 270.813 265.375C270.813 265.031 270.932 264.74 271.172 264.495C271.417 264.255 271.708 264.13 272.052 264.13C272.396 264.13 272.693 264.255 272.932 264.495C273.177 264.74 273.297 265.031 273.297 265.375Z" fill="url(#paint41_linear_356_7422)"></path> <path d="M256.396 364.016C256.396 364.359 256.276 364.651 256.036 364.896C255.792 365.141 255.5 365.26 255.156 365.26C254.813 365.26 254.516 365.141 254.276 364.896C254.031 364.651 253.911 364.359 253.911 364.016C253.911 363.672 254.031 363.38 254.276 363.135C254.516 362.891 254.813 362.771 255.156 362.771C255.5 362.771 255.792 362.891 256.036 363.135C256.276 363.38 256.396 363.672 256.396 364.016Z" fill="url(#paint42_linear_356_7422)"></path> <path d="M260.318 348.219C260.318 348.563 260.198 348.859 259.953 349.099C259.708 349.344 259.417 349.464 259.073 349.464C258.729 349.464 258.438 349.344 258.193 349.099C257.948 348.859 257.828 348.563 257.828 348.219C257.828 347.875 257.948 347.583 258.193 347.339C258.438 347.099 258.729 346.979 259.073 346.979C259.417 346.979 259.708 347.099 259.953 347.339C260.198 347.583 260.318 347.875 260.318 348.219Z" fill="url(#paint43_linear_356_7422)"></path> <path d="M273.49 321.995C273.49 322.339 273.37 322.63 273.125 322.875C272.88 323.12 272.589 323.24 272.245 323.24C271.901 323.24 271.609 323.12 271.365 322.875C271.125 322.63 271 322.339 271 321.995C271 321.651 271.125 321.359 271.365 321.115C271.609 320.875 271.901 320.75 272.245 320.75C272.589 320.75 272.88 320.875 273.125 321.115C273.37 321.359 273.49 321.651 273.49 321.995Z" fill="url(#paint44_linear_356_7422)"></path> <path d="M251.87 389.521C251.87 389.865 251.75 390.161 251.505 390.401C251.26 390.646 250.969 390.766 250.625 390.766C250.281 390.766 249.99 390.646 249.745 390.401C249.505 390.161 249.38 389.865 249.38 389.521C249.38 389.177 249.505 388.885 249.745 388.641C249.99 388.401 250.281 388.276 250.625 388.276C250.969 388.276 251.26 388.401 251.505 388.641C251.75 388.885 251.87 389.177 251.87 389.521Z" fill="url(#paint45_linear_356_7422)"></path> <path d="M44.0053 380.573C44.0053 380.917 43.8855 381.208 43.6407 381.453C43.4011 381.693 43.1042 381.818 42.7605 381.818C42.4167 381.818 42.1251 381.693 41.8803 381.453C41.6407 381.208 41.5157 380.917 41.5157 380.573C41.5157 380.229 41.6407 379.938 41.8803 379.693C42.1251 379.448 42.4167 379.328 42.7605 379.328C43.1042 379.328 43.4011 379.448 43.6407 379.693C43.8855 379.938 44.0053 380.229 44.0053 380.573Z" fill="url(#paint46_linear_356_7422)"></path> <path d="M44.448 247.818C44.448 248.161 44.3282 248.453 44.0834 248.698C43.8438 248.938 43.5469 249.063 43.2032 249.063C42.8594 249.063 42.5677 248.938 42.323 248.698C42.0834 248.453 41.9584 248.161 41.9584 247.818C41.9584 247.474 42.0834 247.177 42.323 246.938C42.5677 246.693 42.8594 246.573 43.2032 246.573C43.5469 246.573 43.8438 246.693 44.0834 246.938C44.3282 247.177 44.448 247.474 44.448 247.818Z" fill="url(#paint47_linear_356_7422)"></path> <path d="M240.333 345.458C240.333 345.802 240.208 346.094 239.969 346.339C239.724 346.578 239.432 346.703 239.089 346.703C238.745 346.703 238.448 346.578 238.208 346.339C237.964 346.094 237.844 345.802 237.844 345.458C237.844 345.115 237.964 344.823 238.208 344.578C238.448 344.333 238.745 344.214 239.089 344.214C239.432 344.214 239.724 344.333 239.969 344.578C240.208 344.823 240.333 345.115 240.333 345.458Z" fill="url(#paint48_linear_356_7422)"></path> <path d="M32.3646 262.781C32.3646 263.125 32.2396 263.417 32.0001 263.661C31.7553 263.901 31.4636 264.026 31.1199 264.026C30.7761 264.026 30.4844 263.901 30.2396 263.661C29.9949 263.417 29.8751 263.125 29.8751 262.781C29.8751 262.437 29.9949 262.146 30.2396 261.901C30.4844 261.656 30.7761 261.536 31.1199 261.536C31.4636 261.536 31.7553 261.656 32.0001 261.901C32.2396 262.146 32.3646 262.437 32.3646 262.781Z" fill="url(#paint49_linear_356_7422)"></path> <path d="M41.4323 163.219C41.4323 163.563 41.3125 163.854 41.0677 164.094C40.823 164.339 40.5313 164.458 40.1875 164.458C39.8438 164.458 39.5521 164.339 39.3073 164.094C39.0625 163.854 38.9427 163.563 38.9427 163.219C38.9427 162.875 39.0625 162.578 39.3073 162.339C39.5521 162.094 39.8438 161.974 40.1875 161.974C40.5313 161.974 40.823 162.094 41.0677 162.339C41.3125 162.578 41.4323 162.875 41.4323 163.219Z" fill="url(#paint50_linear_356_7422)"></path> <path d="M37.0626 118.792C37.0626 119.135 36.9428 119.427 36.698 119.672C36.4532 119.911 36.1615 120.036 35.8178 120.036C35.474 120.036 35.1824 119.911 34.9376 119.672C34.698 119.427 34.573 119.135 34.573 118.792C34.573 118.448 34.698 118.151 34.9376 117.911C35.1824 117.667 35.474 117.547 35.8178 117.547C36.1615 117.547 36.4532 117.667 36.698 117.911C36.9428 118.151 37.0626 118.448 37.0626 118.792Z" fill="url(#paint51_linear_356_7422)"></path> <path d="M230.052 100.026C230.052 100.37 229.932 100.661 229.688 100.906C229.448 101.146 229.151 101.271 228.807 101.271C228.464 101.271 228.172 101.146 227.927 100.906C227.688 100.661 227.563 100.37 227.563 100.026C227.563 99.6823 227.688 99.3906 227.927 99.1458C228.172 98.901 228.464 98.7812 228.807 98.7812C229.151 98.7812 229.448 98.901 229.688 99.1458C229.932 99.3906 230.052 99.6823 230.052 100.026Z" fill="url(#paint52_linear_356_7422)"></path> <path d="M262.766 189.016C262.766 189.359 262.646 189.656 262.401 189.896C262.156 190.141 261.865 190.26 261.521 190.26C261.177 190.26 260.886 190.141 260.641 189.896C260.401 189.656 260.276 189.359 260.276 189.016C260.276 188.672 260.401 188.38 260.641 188.135C260.886 187.896 261.177 187.771 261.521 187.771C261.865 187.771 262.156 187.896 262.401 188.135C262.646 188.38 262.766 188.672 262.766 189.016Z" fill="url(#paint53_linear_356_7422)"></path> <path d="M239.51 173.073C239.51 173.417 239.385 173.708 239.146 173.948C238.901 174.193 238.609 174.312 238.266 174.312C237.922 174.312 237.63 174.193 237.385 173.948C237.141 173.708 237.021 173.417 237.021 173.073C237.021 172.729 237.141 172.432 237.385 172.193C237.63 171.948 237.922 171.828 238.266 171.828C238.609 171.828 238.901 171.948 239.146 172.193C239.385 172.432 239.51 172.729 239.51 173.073Z" fill="url(#paint54_linear_356_7422)"></path> <path d="M173.302 129.984C173.302 130.328 173.182 130.62 172.938 130.865C172.693 131.104 172.401 131.224 172.057 131.224C171.714 131.224 171.422 131.104 171.177 130.865C170.938 130.62 170.813 130.328 170.813 129.984C170.813 129.641 170.938 129.344 171.177 129.104C171.422 128.859 171.714 128.74 172.057 128.74C172.401 128.74 172.693 128.859 172.938 129.104C173.182 129.344 173.302 129.641 173.302 129.984Z" fill="url(#paint55_linear_356_7422)"></path> <path d="M47.5626 290.115C47.5626 290.458 47.4376 290.75 47.198 290.995C46.9532 291.234 46.6615 291.359 46.3178 291.359C45.974 291.359 45.6824 291.234 45.4376 290.995C45.1928 290.75 45.073 290.458 45.073 290.115C45.073 289.771 45.1928 289.474 45.4376 289.234C45.6824 288.99 45.974 288.87 46.3178 288.87C46.6615 288.87 46.9532 288.99 47.198 289.234C47.4376 289.474 47.5626 289.771 47.5626 290.115Z" fill="url(#paint56_linear_356_7422)"></path> <path d="M218.917 75.4062C218.917 75.75 218.792 76.0469 218.552 76.2864C218.307 76.5312 218.016 76.651 217.672 76.651C217.328 76.651 217.036 76.5312 216.792 76.2864C216.547 76.0469 216.427 75.75 216.427 75.4062C216.427 75.0625 216.547 74.7708 216.792 74.526C217.036 74.2864 217.328 74.1667 217.672 74.1667C218.016 74.1667 218.307 74.2864 218.552 74.526C218.792 74.7708 218.917 75.0625 218.917 75.4062Z" fill="url(#paint57_linear_356_7422)"></path> <path d="M149.094 131.516C149.094 131.859 148.974 132.151 148.729 132.396C148.484 132.635 148.193 132.76 147.849 132.76C147.505 132.76 147.214 132.635 146.969 132.396C146.729 132.151 146.604 131.859 146.604 131.516C146.604 131.172 146.729 130.88 146.969 130.635C147.214 130.391 147.505 130.271 147.849 130.271C148.193 130.271 148.484 130.391 148.729 130.635C148.974 130.88 149.094 131.172 149.094 131.516Z" fill="url(#paint58_linear_356_7422)"></path> <path d="M227.245 387.151C227.245 387.495 227.12 387.786 226.88 388.031C226.635 388.276 226.344 388.396 226 388.396C225.656 388.396 225.359 388.276 225.12 388.031C224.875 387.786 224.755 387.495 224.755 387.151C224.755 386.807 224.875 386.516 225.12 386.271C225.359 386.031 225.656 385.906 226 385.906C226.344 385.906 226.635 386.031 226.88 386.271C227.12 386.516 227.245 386.807 227.245 387.151Z" fill="url(#paint59_linear_356_7422)"></path> <path d="M247.745 80.8542C247.745 81.1979 247.625 81.4896 247.38 81.7344C247.141 81.9792 246.844 82.099 246.5 82.099C246.162 82.099 245.865 81.9792 245.625 81.7344C245.38 81.4896 245.26 81.1979 245.26 80.8542C245.26 80.5104 245.38 80.2188 245.625 79.974C245.865 79.7292 246.162 79.6094 246.5 79.6094C246.844 79.6094 247.141 79.7292 247.38 79.974C247.625 80.2188 247.745 80.5104 247.745 80.8542Z" fill="url(#paint60_linear_356_7422)"></path> <path d="M264.26 134.901C264.26 135.245 264.135 135.536 263.896 135.781C263.651 136.026 263.359 136.146 263.016 136.146C262.672 136.146 262.38 136.026 262.135 135.781C261.891 135.536 261.771 135.245 261.771 134.901C261.771 134.557 261.891 134.266 262.135 134.021C262.38 133.781 262.672 133.656 263.016 133.656C263.359 133.656 263.651 133.781 263.896 134.021C264.135 134.266 264.26 134.557 264.26 134.901Z" fill="url(#paint61_linear_356_7422)"></path> <path d="M170.135 114.302C170.135 114.646 170.016 114.937 169.771 115.182C169.526 115.422 169.234 115.547 168.891 115.547C168.547 115.547 168.255 115.422 168.01 115.182C167.771 114.937 167.646 114.646 167.646 114.302C167.646 113.958 167.771 113.661 168.01 113.422C168.255 113.177 168.547 113.057 168.891 113.057C169.234 113.057 169.526 113.177 169.771 113.422C170.016 113.661 170.135 113.958 170.135 114.302Z" fill="url(#paint62_linear_356_7422)"></path> <path d="M261.385 288.193C261.385 288.536 261.266 288.828 261.021 289.073C260.776 289.318 260.484 289.438 260.141 289.438C259.797 289.438 259.505 289.318 259.26 289.073C259.021 288.828 258.896 288.536 258.896 288.193C258.896 287.849 259.021 287.557 259.26 287.313C259.505 287.073 259.797 286.948 260.141 286.948C260.484 286.948 260.776 287.073 261.021 287.313C261.266 287.557 261.385 287.849 261.385 288.193Z" fill="url(#paint63_linear_356_7422)"></path> <path d="M131.953 367.896C131.953 368.24 131.833 368.531 131.589 368.776C131.344 369.016 131.052 369.141 130.708 369.141C130.365 369.141 130.073 369.016 129.828 368.776C129.589 368.531 129.464 368.24 129.464 367.896C129.464 367.552 129.589 367.26 129.828 367.016C130.073 366.771 130.365 366.651 130.708 366.651C131.052 366.651 131.344 366.771 131.589 367.016C131.833 367.26 131.953 367.552 131.953 367.896Z" fill="url(#paint64_linear_356_7422)"></path> <path d="M174.641 380.089C174.641 380.432 174.521 380.729 174.276 380.969C174.031 381.214 173.74 381.333 173.396 381.333C173.052 381.333 172.76 381.214 172.516 380.969C172.276 380.729 172.151 380.432 172.151 380.089C172.151 379.745 172.276 379.453 172.516 379.208C172.76 378.969 173.052 378.844 173.396 378.844C173.74 378.844 174.031 378.969 174.276 379.208C174.521 379.453 174.641 379.745 174.641 380.089Z" fill="url(#paint65_linear_356_7422)"></path> <path d="M234.599 219.318C234.599 219.661 234.474 219.958 234.234 220.198C233.99 220.443 233.698 220.562 233.354 220.562C233.01 220.562 232.719 220.443 232.474 220.198C232.229 219.958 232.109 219.661 232.109 219.318C232.109 218.979 232.229 218.682 232.474 218.443C232.719 218.198 233.01 218.078 233.354 218.078C233.698 218.078 233.99 218.198 234.234 218.443C234.474 218.682 234.599 218.979 234.599 219.318Z" fill="url(#paint66_linear_356_7422)"></path> <path d="M247.5 242.255C247.5 242.594 247.375 242.891 247.135 243.13C246.891 243.375 246.599 243.495 246.255 243.495C245.912 243.495 245.615 243.375 245.375 243.13C245.13 242.891 245.01 242.594 245.01 242.255C245.01 241.911 245.13 241.615 245.375 241.375C245.615 241.13 245.912 241.01 246.255 241.01C246.599 241.01 246.891 241.13 247.135 241.375C247.375 241.615 247.5 241.911 247.5 242.255Z" fill="url(#paint67_linear_356_7422)"></path> <path d="M114.682 139.719C114.682 140.062 114.563 140.359 114.318 140.599C114.078 140.844 113.781 140.964 113.438 140.964C113.094 140.964 112.802 140.844 112.563 140.599C112.318 140.359 112.198 140.062 112.198 139.719C112.198 139.375 112.318 139.083 112.563 138.844C112.802 138.599 113.094 138.479 113.438 138.479C113.781 138.479 114.078 138.599 114.318 138.844C114.563 139.083 114.682 139.375 114.682 139.719Z" fill="url(#paint68_linear_356_7422)"></path> <path d="M87.1459 168.969C87.1459 169.313 87.0261 169.604 86.7813 169.849C86.5417 170.094 86.2449 170.214 85.9011 170.214C85.5574 170.214 85.2657 170.094 85.0209 169.849C84.7813 169.604 84.6563 169.313 84.6563 168.969C84.6563 168.625 84.7813 168.333 85.0209 168.089C85.2657 167.844 85.5574 167.724 85.9011 167.724C86.2449 167.724 86.5417 167.844 86.7813 168.089C87.0261 168.333 87.1459 168.625 87.1459 168.969Z" fill="url(#paint69_linear_356_7422)"></path> <path d="M203.385 183.615C203.385 183.958 203.26 184.25 203.021 184.495C202.776 184.734 202.484 184.859 202.141 184.859C201.797 184.859 201.5 184.734 201.26 184.495C201.016 184.25 200.896 183.958 200.896 183.615C200.896 183.271 201.016 182.974 201.26 182.734C201.5 182.49 201.797 182.37 202.141 182.37C202.484 182.37 202.776 182.49 203.021 182.734C203.26 182.974 203.385 183.271 203.385 183.615Z" fill="url(#paint70_linear_356_7422)"></path> <path d="M211.016 180.984C211.016 181.328 210.896 181.62 210.651 181.865C210.406 182.104 210.115 182.229 209.771 182.229C209.427 182.229 209.135 182.104 208.891 181.865C208.651 181.62 208.526 181.328 208.526 180.984C208.526 180.641 208.651 180.349 208.891 180.104C209.135 179.859 209.427 179.74 209.771 179.74C210.115 179.74 210.406 179.859 210.651 180.104C210.896 180.349 211.016 180.641 211.016 180.984Z" fill="url(#paint71_linear_356_7422)"></path> <path d="M188.594 141.984C188.594 142.328 188.474 142.625 188.229 142.865C187.984 143.109 187.693 143.229 187.349 143.229C187.005 143.229 186.714 143.109 186.469 142.865C186.229 142.625 186.104 142.328 186.104 141.984C186.104 141.641 186.229 141.349 186.469 141.109C186.714 140.865 187.005 140.745 187.349 140.745C187.693 140.745 187.984 140.865 188.229 141.109C188.474 141.349 188.594 141.641 188.594 141.984Z" fill="url(#paint72_linear_356_7422)"></path> <path d="M210.63 169.12C210.63 169.464 210.505 169.755 210.266 170C210.021 170.245 209.729 170.365 209.385 170.365C209.042 170.365 208.745 170.245 208.505 170C208.26 169.755 208.141 169.464 208.141 169.12C208.141 168.776 208.26 168.484 208.505 168.24C208.745 168 209.042 167.875 209.385 167.875C209.729 167.875 210.021 168 210.266 168.24C210.505 168.484 210.63 168.776 210.63 169.12Z" fill="url(#paint73_linear_356_7422)"></path> <path d="M91.8282 381.333C91.8282 381.677 91.7084 381.974 91.4636 382.214C91.224 382.458 90.9271 382.578 90.5886 382.578C90.2449 382.578 89.948 382.458 89.7084 382.214C89.4636 381.974 89.3438 381.677 89.3438 381.333C89.3438 380.99 89.4636 380.698 89.7084 380.453C89.948 380.214 90.2449 380.089 90.5886 380.089C90.9271 380.089 91.224 380.214 91.4636 380.453C91.7084 380.698 91.8282 380.99 91.8282 381.333Z" fill="url(#paint74_linear_356_7422)"></path> <path d="M181.953 61.3646C181.953 61.7083 181.833 62 181.589 62.2448C181.349 62.4844 181.052 62.6094 180.708 62.6094C180.365 62.6094 180.073 62.4844 179.828 62.2448C179.589 62 179.464 61.7083 179.464 61.3646C179.464 61.0208 179.589 60.7239 179.828 60.4844C180.073 60.2396 180.365 60.1198 180.708 60.1198C181.052 60.1198 181.349 60.2396 181.589 60.4844C181.833 60.7239 181.953 61.0208 181.953 61.3646Z" fill="url(#paint75_linear_356_7422)"></path> <path d="M224.828 55.9531C224.828 56.2969 224.708 56.5938 224.464 56.8333C224.224 57.0781 223.927 57.1979 223.583 57.1979C223.245 57.1979 222.948 57.0781 222.708 56.8333C222.464 56.5938 222.344 56.2969 222.344 55.9531C222.344 55.6094 222.464 55.3177 222.708 55.0729C222.948 54.8333 223.245 54.7083 223.583 54.7083C223.927 54.7083 224.224 54.8333 224.464 55.0729C224.708 55.3177 224.828 55.6094 224.828 55.9531Z" fill="url(#paint76_linear_356_7422)"></path> <path d="M97.8907 91.6198C97.8907 91.9635 97.7657 92.2552 97.5261 92.5C97.2813 92.7396 96.9897 92.8646 96.6459 92.8646C96.3022 92.8646 96.0053 92.7396 95.7657 92.5C95.5209 92.2552 95.4011 91.9635 95.4011 91.6198C95.4011 91.276 95.5209 90.9844 95.7657 90.7396C96.0053 90.4948 96.3022 90.375 96.6459 90.375C96.9897 90.375 97.2813 90.4948 97.5261 90.7396C97.7657 90.9844 97.8907 91.276 97.8907 91.6198Z" fill="url(#paint77_linear_356_7422)"></path> <path d="M84.6095 32.2969C84.6095 32.6406 84.4897 32.9323 84.2449 33.1771C84.0001 33.4167 83.7084 33.5417 83.3647 33.5417C83.0209 33.5417 82.7293 33.4167 82.4845 33.1771C82.2397 32.9323 82.1199 32.6406 82.1199 32.2969C82.1199 31.9531 82.2397 31.6615 82.4845 31.4167C82.7293 31.1719 83.0209 31.0521 83.3647 31.0521C83.7084 31.0521 84.0001 31.1719 84.2449 31.4167C84.4897 31.6615 84.6095 31.9531 84.6095 32.2969Z" fill="url(#paint78_linear_356_7422)"></path> <path d="M42.4688 57.4323C42.4688 57.776 42.349 58.0677 42.1094 58.3125C41.8646 58.5521 41.573 58.6771 41.2292 58.6771C40.8855 58.6771 40.5886 58.5521 40.349 58.3125C40.1042 58.0677 39.9844 57.776 39.9844 57.4323C39.9844 57.0885 40.1042 56.7969 40.349 56.5521C40.5886 56.3073 40.8855 56.1875 41.2292 56.1875C41.573 56.1875 41.8646 56.3073 42.1094 56.5521C42.349 56.7969 42.4688 57.0885 42.4688 57.4323Z" fill="url(#paint79_linear_356_7422)"></path> <path d="M68.0469 159.906C68.0469 160.25 67.9271 160.547 67.6824 160.786C67.4428 161.031 67.1511 161.151 66.8074 161.151C66.4636 161.151 66.1667 161.031 65.9271 160.786C65.6824 160.547 65.5626 160.25 65.5626 159.906C65.5626 159.562 65.6824 159.271 65.9271 159.026C66.1667 158.786 66.4636 158.667 66.8074 158.667C67.1511 158.667 67.4428 158.786 67.6824 159.026C67.9271 159.271 68.0469 159.562 68.0469 159.906Z" fill="url(#paint80_linear_356_7422)"></path> <path d="M86.4896 154.323C86.4896 154.667 86.3698 154.958 86.1302 155.203C85.8855 155.448 85.5938 155.568 85.25 155.568C84.9063 155.568 84.6094 155.448 84.3698 155.203C84.125 154.958 84.0052 154.667 84.0052 154.323C84.0052 153.979 84.125 153.687 84.3698 153.443C84.6094 153.203 84.9063 153.078 85.25 153.078C85.5938 153.078 85.8855 153.203 86.1302 153.443C86.3698 153.687 86.4896 153.979 86.4896 154.323Z" fill="url(#paint81_linear_356_7422)"></path> <path d="M39.9948 224.302C39.9948 224.641 39.8698 224.938 39.6302 225.177C39.3855 225.422 39.0938 225.542 38.75 225.542C38.4063 225.542 38.1146 225.422 37.8698 225.177C37.625 224.938 37.5052 224.641 37.5052 224.302C37.5052 223.958 37.625 223.661 37.8698 223.422C38.1146 223.177 38.4063 223.057 38.75 223.057C39.0938 223.057 39.3855 223.177 39.6302 223.422C39.8698 223.661 39.9948 223.958 39.9948 224.302Z" fill="url(#paint82_linear_356_7422)"></path> <path d="M15.8021 213.625C15.8021 213.969 15.6824 214.26 15.4376 214.505C15.1928 214.75 14.9011 214.87 14.5574 214.87C14.2136 214.87 13.9219 214.75 13.6771 214.505C13.4324 214.26 13.3126 213.969 13.3126 213.625C13.3126 213.281 13.4324 212.99 13.6771 212.745C13.9219 212.505 14.2136 212.38 14.5574 212.38C14.9011 212.38 15.1928 212.505 15.4376 212.745C15.6824 212.99 15.8021 213.281 15.8021 213.625Z" fill="url(#paint83_linear_356_7422)"></path> <path d="M79.2761 63.3073C79.2761 63.651 79.1563 63.9427 78.9115 64.1875C78.6667 64.4271 78.375 64.5521 78.0313 64.5521C77.6875 64.5521 77.3959 64.4271 77.1511 64.1875C76.9063 63.9427 76.7865 63.651 76.7865 63.3073C76.7865 62.9635 76.9063 62.6719 77.1511 62.4271C77.3959 62.1823 77.6875 62.0625 78.0313 62.0625C78.375 62.0625 78.6667 62.1823 78.9115 62.4271C79.1563 62.6719 79.2761 62.9635 79.2761 63.3073Z" fill="url(#paint84_linear_356_7422)"></path> <path d="M143.01 10.8594C143.01 11.2031 142.891 11.4948 142.646 11.7396C142.401 11.9844 142.109 12.1042 141.766 12.1042C141.422 12.1042 141.13 11.9844 140.885 11.7396C140.641 11.4948 140.521 11.2031 140.521 10.8594C140.521 10.5156 140.641 10.224 140.885 9.97918C141.13 9.73959 141.422 9.61459 141.766 9.61459C142.109 9.61459 142.401 9.73959 142.646 9.97918C142.891 10.224 143.01 10.5156 143.01 10.8594Z" fill="url(#paint85_linear_356_7422)"></path> <path d="M125.083 41.2708C125.083 41.6146 124.964 41.9115 124.719 42.151C124.479 42.3958 124.182 42.5156 123.844 42.5156C123.5 42.5156 123.203 42.3958 122.964 42.151C122.719 41.9115 122.599 41.6146 122.599 41.2708C122.599 40.9271 122.719 40.6354 122.964 40.3958C123.203 40.151 123.5 40.0312 123.844 40.0312C124.182 40.0312 124.479 40.151 124.719 40.3958C124.964 40.6354 125.083 40.9271 125.083 41.2708Z" fill="url(#paint86_linear_356_7422)"></path> <path d="M135.667 26.7083C135.667 27.0521 135.542 27.3437 135.302 27.5885C135.057 27.8333 134.766 27.9531 134.422 27.9531C134.078 27.9531 133.786 27.8333 133.542 27.5885C133.297 27.3437 133.177 27.0521 133.177 26.7083C133.177 26.3646 133.297 26.0729 133.542 25.8281C133.786 25.5885 134.078 25.4635 134.422 25.4635C134.766 25.4635 135.057 25.5885 135.302 25.8281C135.542 26.0729 135.667 26.3646 135.667 26.7083Z" fill="url(#paint87_linear_356_7422)"></path> <path d="M153.037 42.9479C153.037 43.2917 152.917 43.5833 152.672 43.8281C152.427 44.0677 152.135 44.1927 151.792 44.1927C151.448 44.1927 151.156 44.0677 150.912 43.8281C150.672 43.5833 150.547 43.2917 150.547 42.9479C150.547 42.6042 150.672 42.3125 150.912 42.0677C151.156 41.8229 151.448 41.7031 151.792 41.7031C152.135 41.7031 152.427 41.8229 152.672 42.0677C152.917 42.3125 153.037 42.6042 153.037 42.9479Z" fill="url(#paint88_linear_356_7422)"></path> <path d="M157.417 106.177C157.224 106.031 157.01 105.974 156.771 106.01C156.531 106.042 156.339 106.151 156.193 106.344C154.521 108.552 152.75 109.849 150.932 110.203C149.563 110.474 148.313 110.203 147.177 109.391C146.412 108.828 145.781 108.135 145.287 107.323C144.797 106.51 144.479 105.63 144.333 104.687C143.781 101.333 144.927 97.9375 146.042 94.6614C146.255 94.0208 146.469 93.3854 146.672 92.7604C147.667 89.651 148.688 86.5469 149.708 83.4479L150.771 80.2239C151.891 76.8177 153.182 72.3698 153.245 68.1041C153.281 66.2239 152.912 64.4219 152.13 62.7083C151.349 60.9948 150.24 59.5312 148.792 58.3177C147.443 57.1823 145.912 56.3958 144.203 55.9531C142.495 55.5052 140.776 55.4531 139.042 55.7917C133.656 56.8385 129.771 61.3542 129.802 66.5469C129.828 70.526 131.682 74.0989 133.469 77.5469C133.974 78.5208 134.453 79.4427 134.891 80.3698C135.839 82.375 136.495 84.4739 136.859 86.6562C136.432 86.1719 135.958 85.7396 135.432 85.3594C134.906 84.9844 134.344 84.6719 133.745 84.4271C133.146 84.1771 132.531 84.0052 131.891 83.901C131.25 83.8021 130.609 83.7708 129.964 83.8177C129.318 83.8646 128.688 83.9896 128.068 84.1823C127.453 84.375 126.865 84.6406 126.307 84.9687C125.755 85.3021 125.245 85.6927 124.776 86.1406C124.313 86.5937 123.906 87.0885 123.557 87.6354C123.208 88.1771 122.922 88.7552 122.708 89.3646C122.495 89.9739 122.354 90.6041 122.281 91.2448C122.214 91.8906 122.219 92.5312 122.302 93.1771C122.38 93.8177 122.537 94.4427 122.76 95.0469C122.99 95.6562 123.281 96.2239 123.641 96.7656C124 97.3021 124.417 97.7917 124.891 98.2344C125.359 98.6771 125.88 99.0573 126.443 99.375C127.005 99.6979 127.594 99.9479 128.214 100.13C128.839 100.318 129.469 100.422 130.115 100.458C130.76 100.495 131.406 100.458 132.042 100.344C132.677 100.229 133.292 100.042 133.885 99.7864C134.479 99.526 135.037 99.2083 135.557 98.8177C136.073 98.4323 136.542 97.9896 136.958 97.4948C137.375 97 137.729 96.4635 138.021 95.8854C138.313 95.3073 138.531 94.7031 138.682 94.0729C138.833 93.4427 138.906 92.8073 138.912 92.1614V92.1302C138.912 92.1302 138.912 92.1146 138.912 92.1094C139.162 87.7396 138.349 83.5833 136.474 79.6302C136.026 78.6719 135.516 77.6875 135.021 76.7448C133.323 73.4739 131.568 70.0937 131.547 66.5312C131.521 62.25 134.885 58.3698 139.37 57.5C140.849 57.2031 142.318 57.2448 143.776 57.6198C145.234 58 146.537 58.6771 147.682 59.6562C148.922 60.6979 149.88 61.9583 150.547 63.4323C151.219 64.9062 151.537 66.4531 151.5 68.0729C151.438 72.1041 150.193 76.3906 149.115 79.6771L148.063 82.901C147.042 86.0052 146.016 89.1094 145.021 92.2239C144.823 92.8437 144.615 93.4687 144.401 94.0989C143.224 97.5833 142 101.182 142.625 104.969C143.016 107.349 144.349 109.542 146.193 110.823C147.328 111.63 148.589 112.036 149.984 112.042C150.422 112.042 150.859 112 151.292 111.917C153.547 111.474 155.672 109.953 157.609 107.396C157.75 107.203 157.802 106.984 157.766 106.745C157.729 106.51 157.609 106.318 157.417 106.177ZM130.573 98.75C130.135 98.75 129.708 98.7083 129.281 98.625C128.854 98.5364 128.443 98.4114 128.042 98.2448C127.641 98.0833 127.26 97.8802 126.901 97.6354C126.537 97.3958 126.203 97.125 125.896 96.8177C125.594 96.5104 125.318 96.1771 125.078 95.8125C124.833 95.4531 124.63 95.0729 124.464 94.6719C124.297 94.2708 124.172 93.8594 124.089 93.4323C124.005 93.0104 123.964 92.5781 123.964 92.1458C123.964 91.7135 124.005 91.2812 124.089 90.8541C124.172 90.4323 124.297 90.0156 124.464 89.6146C124.63 89.2135 124.833 88.8333 125.073 88.4739C125.318 88.1146 125.589 87.7812 125.896 87.4739C126.203 87.1667 126.537 86.8906 126.896 86.651C127.255 86.4114 127.635 86.2083 128.037 86.0416C128.438 85.875 128.854 85.75 129.276 85.6666C129.703 85.5781 130.135 85.5364 130.568 85.5364C131 85.5364 131.432 85.5781 131.854 85.6666C132.281 85.75 132.693 85.875 133.094 86.0416C133.495 86.2083 133.875 86.4114 134.24 86.651C134.599 86.8906 134.932 87.1667 135.24 87.4739C135.547 87.776 135.818 88.1146 136.063 88.4739C136.302 88.8333 136.505 89.2135 136.672 89.6146C136.839 90.0156 136.964 90.4271 137.047 90.8541C137.13 91.2812 137.172 91.7083 137.172 92.1458C137.172 92.5781 137.13 93.0052 137.047 93.4323C136.964 93.8541 136.833 94.2708 136.672 94.6719C136.505 95.0729 136.302 95.4531 136.057 95.8125C135.818 96.1719 135.547 96.5052 135.24 96.8125C134.932 97.1198 134.599 97.3906 134.24 97.6354C133.875 97.875 133.495 98.0781 133.099 98.2448C132.698 98.4114 132.281 98.5364 131.859 98.6198C131.432 98.7083 131.005 98.75 130.573 98.75Z" fill="url(#paint89_linear_356_7422)"></path> <defs> <linearGradient id="paint0_linear_356_7422" x1="139.995" y1="0" x2="139.995" y2="400" gradientUnits="userSpaceOnUse"> <stop offset="0.505208" stop-color="#E2B643"></stop> <stop offset="1" stop-color="white"></stop> </linearGradient> <linearGradient id="paint1_linear_356_7422" x1="139.995" y1="0" x2="139.995" y2="400" gradientUnits="userSpaceOnUse"> <stop offset="0.505208" stop-color="#E2B643"></stop> <stop offset="1" stop-color="white"></stop> </linearGradient> <linearGradient id="paint2_linear_356_7422" x1="139.995" y1="0" x2="139.995" y2="400" gradientUnits="userSpaceOnUse"> <stop offset="0.505208" stop-color="#E2B643"></stop> <stop offset="1" stop-color="white"></stop> </linearGradient> <linearGradient id="paint3_linear_356_7422" x1="139.995" y1="0" x2="139.995" y2="400" gradientUnits="userSpaceOnUse"> <stop offset="0.505208" stop-color="#E2B643"></stop> <stop offset="1" stop-color="white"></stop> </linearGradient> <linearGradient id="paint4_linear_356_7422" x1="139.995" y1="0" x2="139.995" y2="400" gradientUnits="userSpaceOnUse"> <stop offset="0.505208" stop-color="#E2B643"></stop> <stop offset="1" stop-color="white"></stop> </linearGradient> <linearGradient id="paint5_linear_356_7422" x1="139.995" y1="0" x2="139.995" y2="400" gradientUnits="userSpaceOnUse"> <stop offset="0.505208" stop-color="#E2B643"></stop> <stop offset="1" stop-color="white"></stop> </linearGradient> <linearGradient id="paint6_linear_356_7422" x1="139.995" y1="0" x2="139.995" y2="400" gradientUnits="userSpaceOnUse"> <stop offset="0.505208" stop-color="#E2B643"></stop> <stop offset="1" stop-color="white"></stop> </linearGradient> <linearGradient id="paint7_linear_356_7422" x1="139.995" y1="0" x2="139.995" y2="400" gradientUnits="userSpaceOnUse"> <stop offset="0.505208" stop-color="#E2B643"></stop> <stop offset="1" stop-color="white"></stop> </linearGradient> <linearGradient id="paint8_linear_356_7422" x1="139.995" y1="0" x2="139.995" y2="400" gradientUnits="userSpaceOnUse"> <stop offset="0.505208" stop-color="#E2B643"></stop> <stop offset="1" stop-color="white"></stop> </linearGradient> <linearGradient id="paint9_linear_356_7422" x1="139.995" y1="0" x2="139.995" y2="400" gradientUnits="userSpaceOnUse"> <stop offset="0.505208" stop-color="#E2B643"></stop> <stop offset="1" stop-color="white"></stop> </linearGradient> <linearGradient id="paint10_linear_356_7422" x1="139.995" y1="0" x2="139.995" y2="400" gradientUnits="userSpaceOnUse"> <stop offset="0.505208" stop-color="#E2B643"></stop> <stop offset="1" stop-color="white"></stop> </linearGradient> <linearGradient id="paint11_linear_356_7422" x1="139.995" y1="0" x2="139.995" y2="400" gradientUnits="userSpaceOnUse"> <stop offset="0.505208" stop-color="#E2B643"></stop> <stop offset="1" stop-color="white"></stop> </linearGradient> <linearGradient id="paint12_linear_356_7422" x1="139.995" y1="0" x2="139.995" y2="400" gradientUnits="userSpaceOnUse"> <stop offset="0.505208" stop-color="#E2B643"></stop> <stop offset="1" stop-color="white"></stop> </linearGradient> <linearGradient id="paint13_linear_356_7422" x1="139.995" y1="0" x2="139.995" y2="400" gradientUnits="userSpaceOnUse"> <stop offset="0.505208" stop-color="#E2B643"></stop> <stop offset="1" stop-color="white"></stop> </linearGradient> <linearGradient id="paint14_linear_356_7422" x1="139.995" y1="0" x2="139.995" y2="400" gradientUnits="userSpaceOnUse"> <stop offset="0.505208" stop-color="#E2B643"></stop> <stop offset="1" stop-color="white"></stop> </linearGradient> <linearGradient id="paint15_linear_356_7422" x1="139.995" y1="0" x2="139.995" y2="400" gradientUnits="userSpaceOnUse"> <stop offset="0.505208" stop-color="#E2B643"></stop> <stop offset="1" stop-color="white"></stop> </linearGradient> <linearGradient id="paint16_linear_356_7422" x1="139.995" y1="0" x2="139.995" y2="400" gradientUnits="userSpaceOnUse"> <stop offset="0.505208" stop-color="#E2B643"></stop> <stop offset="1" stop-color="white"></stop> </linearGradient> <linearGradient id="paint17_linear_356_7422" x1="139.995" y1="0" x2="139.995" y2="400" gradientUnits="userSpaceOnUse"> <stop offset="0.505208" stop-color="#E2B643"></stop> <stop offset="1" stop-color="white"></stop> </linearGradient> <linearGradient id="paint18_linear_356_7422" x1="139.995" y1="0" x2="139.995" y2="400" gradientUnits="userSpaceOnUse"> <stop offset="0.505208" stop-color="#E2B643"></stop> <stop offset="1" stop-color="white"></stop> </linearGradient> <linearGradient id="paint19_linear_356_7422" x1="139.995" y1="0" x2="139.995" y2="400" gradientUnits="userSpaceOnUse"> <stop offset="0.505208" stop-color="#E2B643"></stop> <stop offset="1" stop-color="white"></stop> </linearGradient> <linearGradient id="paint20_linear_356_7422" x1="139.995" y1="0" x2="139.995" y2="400" gradientUnits="userSpaceOnUse"> <stop offset="0.505208" stop-color="#E2B643"></stop> <stop offset="1" stop-color="white"></stop> </linearGradient> <linearGradient id="paint21_linear_356_7422" x1="139.995" y1="0" x2="139.995" y2="400" gradientUnits="userSpaceOnUse"> <stop offset="0.505208" stop-color="#E2B643"></stop> <stop offset="1" stop-color="white"></stop> </linearGradient> <linearGradient id="paint22_linear_356_7422" x1="139.995" y1="0" x2="139.995" y2="400" gradientUnits="userSpaceOnUse"> <stop offset="0.505208" stop-color="#E2B643"></stop> <stop offset="1" stop-color="white"></stop> </linearGradient> <linearGradient id="paint23_linear_356_7422" x1="139.995" y1="0" x2="139.995" y2="400" gradientUnits="userSpaceOnUse"> <stop offset="0.505208" stop-color="#E2B643"></stop> <stop offset="1" stop-color="white"></stop> </linearGradient> <linearGradient id="paint24_linear_356_7422" x1="139.995" y1="0" x2="139.995" y2="400" gradientUnits="userSpaceOnUse"> <stop offset="0.505208" stop-color="#E2B643"></stop> <stop offset="1" stop-color="white"></stop> </linearGradient> <linearGradient id="paint25_linear_356_7422" x1="139.995" y1="0" x2="139.995" y2="400" gradientUnits="userSpaceOnUse"> <stop offset="0.505208" stop-color="#E2B643"></stop> <stop offset="1" stop-color="white"></stop> </linearGradient> <linearGradient id="paint26_linear_356_7422" x1="139.995" y1="0" x2="139.995" y2="400" gradientUnits="userSpaceOnUse"> <stop offset="0.505208" stop-color="#E2B643"></stop> <stop offset="1" stop-color="white"></stop> </linearGradient> <linearGradient id="paint27_linear_356_7422" x1="139.995" y1="0" x2="139.995" y2="400" gradientUnits="userSpaceOnUse"> <stop offset="0.505208" stop-color="#E2B643"></stop> <stop offset="1" stop-color="white"></stop> </linearGradient> <linearGradient id="paint28_linear_356_7422" x1="139.995" y1="0" x2="139.995" y2="400" gradientUnits="userSpaceOnUse"> <stop offset="0.505208" stop-color="#E2B643"></stop> <stop offset="1" stop-color="white"></stop> </linearGradient> <linearGradient id="paint29_linear_356_7422" x1="139.995" y1="0" x2="139.995" y2="400" gradientUnits="userSpaceOnUse"> <stop offset="0.505208" stop-color="#E2B643"></stop> <stop offset="1" stop-color="white"></stop> </linearGradient> <linearGradient id="paint30_linear_356_7422" x1="139.995" y1="0" x2="139.995" y2="400" gradientUnits="userSpaceOnUse"> <stop offset="0.505208" stop-color="#E2B643"></stop> <stop offset="1" stop-color="white"></stop> </linearGradient> <linearGradient id="paint31_linear_356_7422" x1="139.995" y1="0" x2="139.995" y2="400" gradientUnits="userSpaceOnUse"> <stop offset="0.505208" stop-color="#E2B643"></stop> <stop offset="1" stop-color="white"></stop> </linearGradient> <linearGradient id="paint32_linear_356_7422" x1="139.995" y1="0" x2="139.995" y2="400" gradientUnits="userSpaceOnUse"> <stop offset="0.505208" stop-color="#E2B643"></stop> <stop offset="1" stop-color="white"></stop> </linearGradient> <linearGradient id="paint33_linear_356_7422" x1="139.995" y1="0" x2="139.995" y2="400" gradientUnits="userSpaceOnUse"> <stop offset="0.505208" stop-color="#E2B643"></stop> <stop offset="1" stop-color="white"></stop> </linearGradient> <linearGradient id="paint34_linear_356_7422" x1="139.995" y1="0" x2="139.995" y2="400" gradientUnits="userSpaceOnUse"> <stop offset="0.505208" stop-color="#E2B643"></stop> <stop offset="1" stop-color="white"></stop> </linearGradient> <linearGradient id="paint35_linear_356_7422" x1="139.995" y1="0" x2="139.995" y2="400" gradientUnits="userSpaceOnUse"> <stop offset="0.505208" stop-color="#E2B643"></stop> <stop offset="1" stop-color="white"></stop> </linearGradient> <linearGradient id="paint36_linear_356_7422" x1="139.995" y1="0" x2="139.995" y2="400" gradientUnits="userSpaceOnUse"> <stop offset="0.505208" stop-color="#E2B643"></stop> <stop offset="1" stop-color="white"></stop> </linearGradient> <linearGradient id="paint37_linear_356_7422" x1="139.995" y1="0" x2="139.995" y2="400" gradientUnits="userSpaceOnUse"> <stop offset="0.505208" stop-color="#E2B643"></stop> <stop offset="1" stop-color="white"></stop> </linearGradient> <linearGradient id="paint38_linear_356_7422" x1="139.995" y1="0" x2="139.995" y2="400" gradientUnits="userSpaceOnUse"> <stop offset="0.505208" stop-color="#E2B643"></stop> <stop offset="1" stop-color="white"></stop> </linearGradient> <linearGradient id="paint39_linear_356_7422" x1="139.995" y1="0" x2="139.995" y2="400" gradientUnits="userSpaceOnUse"> <stop offset="0.505208" stop-color="#E2B643"></stop> <stop offset="1" stop-color="white"></stop> </linearGradient> <linearGradient id="paint40_linear_356_7422" x1="139.995" y1="0" x2="139.995" y2="400" gradientUnits="userSpaceOnUse"> <stop offset="0.505208" stop-color="#E2B643"></stop> <stop offset="1" stop-color="white"></stop> </linearGradient> <linearGradient id="paint41_linear_356_7422" x1="139.995" y1="0" x2="139.995" y2="400" gradientUnits="userSpaceOnUse"> <stop offset="0.505208" stop-color="#E2B643"></stop> <stop offset="1" stop-color="white"></stop> </linearGradient> <linearGradient id="paint42_linear_356_7422" x1="139.995" y1="0" x2="139.995" y2="400" gradientUnits="userSpaceOnUse"> <stop offset="0.505208" stop-color="#E2B643"></stop> <stop offset="1" stop-color="white"></stop> </linearGradient> <linearGradient id="paint43_linear_356_7422" x1="139.995" y1="0" x2="139.995" y2="400" gradientUnits="userSpaceOnUse"> <stop offset="0.505208" stop-color="#E2B643"></stop> <stop offset="1" stop-color="white"></stop> </linearGradient> <linearGradient id="paint44_linear_356_7422" x1="139.995" y1="0" x2="139.995" y2="400" gradientUnits="userSpaceOnUse"> <stop offset="0.505208" stop-color="#E2B643"></stop> <stop offset="1" stop-color="white"></stop> </linearGradient> <linearGradient id="paint45_linear_356_7422" x1="139.995" y1="0" x2="139.995" y2="400" gradientUnits="userSpaceOnUse"> <stop offset="0.505208" stop-color="#E2B643"></stop> <stop offset="1" stop-color="white"></stop> </linearGradient> <linearGradient id="paint46_linear_356_7422" x1="139.995" y1="0" x2="139.995" y2="400" gradientUnits="userSpaceOnUse"> <stop offset="0.505208" stop-color="#E2B643"></stop> <stop offset="1" stop-color="white"></stop> </linearGradient> <linearGradient id="paint47_linear_356_7422" x1="139.995" y1="0" x2="139.995" y2="400" gradientUnits="userSpaceOnUse"> <stop offset="0.505208" stop-color="#E2B643"></stop> <stop offset="1" stop-color="white"></stop> </linearGradient> <linearGradient id="paint48_linear_356_7422" x1="139.995" y1="0" x2="139.995" y2="400" gradientUnits="userSpaceOnUse"> <stop offset="0.505208" stop-color="#E2B643"></stop> <stop offset="1" stop-color="white"></stop> </linearGradient> <linearGradient id="paint49_linear_356_7422" x1="139.995" y1="0" x2="139.995" y2="400" gradientUnits="userSpaceOnUse"> <stop offset="0.505208" stop-color="#E2B643"></stop> <stop offset="1" stop-color="white"></stop> </linearGradient> <linearGradient id="paint50_linear_356_7422" x1="139.995" y1="0" x2="139.995" y2="400" gradientUnits="userSpaceOnUse"> <stop offset="0.505208" stop-color="#E2B643"></stop> <stop offset="1" stop-color="white"></stop> </linearGradient> <linearGradient id="paint51_linear_356_7422" x1="139.995" y1="0" x2="139.995" y2="400" gradientUnits="userSpaceOnUse"> <stop offset="0.505208" stop-color="#E2B643"></stop> <stop offset="1" stop-color="white"></stop> </linearGradient> <linearGradient id="paint52_linear_356_7422" x1="139.995" y1="0" x2="139.995" y2="400" gradientUnits="userSpaceOnUse"> <stop offset="0.505208" stop-color="#E2B643"></stop> <stop offset="1" stop-color="white"></stop> </linearGradient> <linearGradient id="paint53_linear_356_7422" x1="139.995" y1="0" x2="139.995" y2="400" gradientUnits="userSpaceOnUse"> <stop offset="0.505208" stop-color="#E2B643"></stop> <stop offset="1" stop-color="white"></stop> </linearGradient> <linearGradient id="paint54_linear_356_7422" x1="139.995" y1="0" x2="139.995" y2="400" gradientUnits="userSpaceOnUse"> <stop offset="0.505208" stop-color="#E2B643"></stop> <stop offset="1" stop-color="white"></stop> </linearGradient> <linearGradient id="paint55_linear_356_7422" x1="139.995" y1="0" x2="139.995" y2="400" gradientUnits="userSpaceOnUse"> <stop offset="0.505208" stop-color="#E2B643"></stop> <stop offset="1" stop-color="white"></stop> </linearGradient> <linearGradient id="paint56_linear_356_7422" x1="139.995" y1="0" x2="139.995" y2="400" gradientUnits="userSpaceOnUse"> <stop offset="0.505208" stop-color="#E2B643"></stop> <stop offset="1" stop-color="white"></stop> </linearGradient> <linearGradient id="paint57_linear_356_7422" x1="139.995" y1="0" x2="139.995" y2="400" gradientUnits="userSpaceOnUse"> <stop offset="0.505208" stop-color="#E2B643"></stop> <stop offset="1" stop-color="white"></stop> </linearGradient> <linearGradient id="paint58_linear_356_7422" x1="139.995" y1="0" x2="139.995" y2="400" gradientUnits="userSpaceOnUse"> <stop offset="0.505208" stop-color="#E2B643"></stop> <stop offset="1" stop-color="white"></stop> </linearGradient> <linearGradient id="paint59_linear_356_7422" x1="139.995" y1="0" x2="139.995" y2="400" gradientUnits="userSpaceOnUse"> <stop offset="0.505208" stop-color="#E2B643"></stop> <stop offset="1" stop-color="white"></stop> </linearGradient> <linearGradient id="paint60_linear_356_7422" x1="139.995" y1="0" x2="139.995" y2="400" gradientUnits="userSpaceOnUse"> <stop offset="0.505208" stop-color="#E2B643"></stop> <stop offset="1" stop-color="white"></stop> </linearGradient> <linearGradient id="paint61_linear_356_7422" x1="139.995" y1="0" x2="139.995" y2="400" gradientUnits="userSpaceOnUse"> <stop offset="0.505208" stop-color="#E2B643"></stop> <stop offset="1" stop-color="white"></stop> </linearGradient> <linearGradient id="paint62_linear_356_7422" x1="139.995" y1="0" x2="139.995" y2="400" gradientUnits="userSpaceOnUse"> <stop offset="0.505208" stop-color="#E2B643"></stop> <stop offset="1" stop-color="white"></stop> </linearGradient> <linearGradient id="paint63_linear_356_7422" x1="139.995" y1="0" x2="139.995" y2="400" gradientUnits="userSpaceOnUse"> <stop offset="0.505208" stop-color="#E2B643"></stop> <stop offset="1" stop-color="white"></stop> </linearGradient> <linearGradient id="paint64_linear_356_7422" x1="139.995" y1="0" x2="139.995" y2="400" gradientUnits="userSpaceOnUse"> <stop offset="0.505208" stop-color="#E2B643"></stop> <stop offset="1" stop-color="white"></stop> </linearGradient> <linearGradient id="paint65_linear_356_7422" x1="139.995" y1="0" x2="139.995" y2="400" gradientUnits="userSpaceOnUse"> <stop offset="0.505208" stop-color="#E2B643"></stop> <stop offset="1" stop-color="white"></stop> </linearGradient> <linearGradient id="paint66_linear_356_7422" x1="139.995" y1="0" x2="139.995" y2="400" gradientUnits="userSpaceOnUse"> <stop offset="0.505208" stop-color="#E2B643"></stop> <stop offset="1" stop-color="white"></stop> </linearGradient> <linearGradient id="paint67_linear_356_7422" x1="139.995" y1="0" x2="139.995" y2="400" gradientUnits="userSpaceOnUse"> <stop offset="0.505208" stop-color="#E2B643"></stop> <stop offset="1" stop-color="white"></stop> </linearGradient> <linearGradient id="paint68_linear_356_7422" x1="139.995" y1="0" x2="139.995" y2="400" gradientUnits="userSpaceOnUse"> <stop offset="0.505208" stop-color="#E2B643"></stop> <stop offset="1" stop-color="white"></stop> </linearGradient> <linearGradient id="paint69_linear_356_7422" x1="139.995" y1="0" x2="139.995" y2="400" gradientUnits="userSpaceOnUse"> <stop offset="0.505208" stop-color="#E2B643"></stop> <stop offset="1" stop-color="white"></stop> </linearGradient> <linearGradient id="paint70_linear_356_7422" x1="139.995" y1="0" x2="139.995" y2="400" gradientUnits="userSpaceOnUse"> <stop offset="0.505208" stop-color="#E2B643"></stop> <stop offset="1" stop-color="white"></stop> </linearGradient> <linearGradient id="paint71_linear_356_7422" x1="139.995" y1="0" x2="139.995" y2="400" gradientUnits="userSpaceOnUse"> <stop offset="0.505208" stop-color="#E2B643"></stop> <stop offset="1" stop-color="white"></stop> </linearGradient> <linearGradient id="paint72_linear_356_7422" x1="139.995" y1="0" x2="139.995" y2="400" gradientUnits="userSpaceOnUse"> <stop offset="0.505208" stop-color="#E2B643"></stop> <stop offset="1" stop-color="white"></stop> </linearGradient> <linearGradient id="paint73_linear_356_7422" x1="139.995" y1="0" x2="139.995" y2="400" gradientUnits="userSpaceOnUse"> <stop offset="0.505208" stop-color="#E2B643"></stop> <stop offset="1" stop-color="white"></stop> </linearGradient> <linearGradient id="paint74_linear_356_7422" x1="139.995" y1="0" x2="139.995" y2="400" gradientUnits="userSpaceOnUse"> <stop offset="0.505208" stop-color="#E2B643"></stop> <stop offset="1" stop-color="white"></stop> </linearGradient> <linearGradient id="paint75_linear_356_7422" x1="139.995" y1="0" x2="139.995" y2="400" gradientUnits="userSpaceOnUse"> <stop offset="0.505208" stop-color="#E2B643"></stop> <stop offset="1" stop-color="white"></stop> </linearGradient> <linearGradient id="paint76_linear_356_7422" x1="139.995" y1="0" x2="139.995" y2="400" gradientUnits="userSpaceOnUse"> <stop offset="0.505208" stop-color="#E2B643"></stop> <stop offset="1" stop-color="white"></stop> </linearGradient> <linearGradient id="paint77_linear_356_7422" x1="139.995" y1="0" x2="139.995" y2="400" gradientUnits="userSpaceOnUse"> <stop offset="0.505208" stop-color="#E2B643"></stop> <stop offset="1" stop-color="white"></stop> </linearGradient> <linearGradient id="paint78_linear_356_7422" x1="139.995" y1="0" x2="139.995" y2="400" gradientUnits="userSpaceOnUse"> <stop offset="0.505208" stop-color="#E2B643"></stop> <stop offset="1" stop-color="white"></stop> </linearGradient> <linearGradient id="paint79_linear_356_7422" x1="139.995" y1="0" x2="139.995" y2="400" gradientUnits="userSpaceOnUse"> <stop offset="0.505208" stop-color="#E2B643"></stop> <stop offset="1" stop-color="white"></stop> </linearGradient> <linearGradient id="paint80_linear_356_7422" x1="139.995" y1="0" x2="139.995" y2="400" gradientUnits="userSpaceOnUse"> <stop offset="0.505208" stop-color="#E2B643"></stop> <stop offset="1" stop-color="white"></stop> </linearGradient> <linearGradient id="paint81_linear_356_7422" x1="139.995" y1="0" x2="139.995" y2="400" gradientUnits="userSpaceOnUse"> <stop offset="0.505208" stop-color="#E2B643"></stop> <stop offset="1" stop-color="white"></stop> </linearGradient> <linearGradient id="paint82_linear_356_7422" x1="139.995" y1="0" x2="139.995" y2="400" gradientUnits="userSpaceOnUse"> <stop offset="0.505208" stop-color="#E2B643"></stop> <stop offset="1" stop-color="white"></stop> </linearGradient> <linearGradient id="paint83_linear_356_7422" x1="139.995" y1="0" x2="139.995" y2="400" gradientUnits="userSpaceOnUse"> <stop offset="0.505208" stop-color="#E2B643"></stop> <stop offset="1" stop-color="white"></stop> </linearGradient> <linearGradient id="paint84_linear_356_7422" x1="139.995" y1="0" x2="139.995" y2="400" gradientUnits="userSpaceOnUse"> <stop offset="0.505208" stop-color="#E2B643"></stop> <stop offset="1" stop-color="white"></stop> </linearGradient> <linearGradient id="paint85_linear_356_7422" x1="139.995" y1="0" x2="139.995" y2="400" gradientUnits="userSpaceOnUse"> <stop offset="0.505208" stop-color="#E2B643"></stop> <stop offset="1" stop-color="white"></stop> </linearGradient> <linearGradient id="paint86_linear_356_7422" x1="139.995" y1="0" x2="139.995" y2="400" gradientUnits="userSpaceOnUse"> <stop offset="0.505208" stop-color="#E2B643"></stop> <stop offset="1" stop-color="white"></stop> </linearGradient> <linearGradient id="paint87_linear_356_7422" x1="139.995" y1="0" x2="139.995" y2="400" gradientUnits="userSpaceOnUse"> <stop offset="0.505208" stop-color="#E2B643"></stop> <stop offset="1" stop-color="white"></stop> </linearGradient> <linearGradient id="paint88_linear_356_7422" x1="139.995" y1="0" x2="139.995" y2="400" gradientUnits="userSpaceOnUse"> <stop offset="0.505208" stop-color="#E2B643"></stop> <stop offset="1" stop-color="white"></stop> </linearGradient> <linearGradient id="paint89_linear_356_7422" x1="139.995" y1="0" x2="139.995" y2="400" gradientUnits="userSpaceOnUse"> <stop offset="0.505208" stop-color="#E2B643"></stop> <stop offset="1" stop-color="white"></stop> </linearGradient> </defs> </svg> 