<?xml version="1.0" encoding="UTF-8"?> <svg xmlns="http://www.w3.org/2000/svg" width="280" height="400" viewBox="0 0 280 400" fill="none"> <path d="M160.927 247.021C160.661 248.193 160 249.068 158.948 249.641C158.094 250.125 157.182 250.37 156.203 250.37C155.667 250.37 155.141 250.292 154.63 250.13C152.615 249.49 150.875 247.792 149.469 245.115C148.516 243.292 147.839 241.37 147.438 239.349C147.786 239.089 148.135 238.828 148.484 238.562C148.839 240.672 149.51 242.672 150.5 244.568C151.766 246.974 153.266 248.469 154.984 249.021C156.156 249.38 157.276 249.255 158.344 248.641C159.094 248.24 159.568 247.62 159.766 246.792C159.797 246.63 159.88 246.505 160.021 246.417C160.156 246.328 160.302 246.302 160.464 246.339C160.62 246.37 160.745 246.453 160.833 246.583C160.927 246.719 160.953 246.865 160.927 247.021Z" fill="url(#paint0_linear_351_235)"></path> <path d="M218.51 240.411C217.854 241.781 217.083 243.083 216.193 244.312C215.255 245.698 214.276 247.141 213.661 248.766C212.469 251.937 212.083 255.203 212.51 258.562C212.583 259.135 212.687 259.714 212.786 260.281C213.068 261.932 213.365 263.641 213.094 265.359C213.078 265.49 213.047 265.615 213.005 265.74C212.99 265.802 212.969 265.865 212.943 265.927C212.776 266.411 212.505 266.828 212.135 267.177C211.255 268.021 209.922 268.432 208.708 268.807C208.26 268.953 207.828 269.068 207.453 269.234C207.031 269.375 206.641 269.578 206.281 269.833C205.495 270.464 205.151 271.589 204.833 272.677L204.766 272.896C204.562 273.646 204.177 274.292 203.615 274.828C203.646 274.766 203.672 274.703 203.693 274.641C203.849 273.995 203.812 273.359 203.578 272.734C203.604 272.677 203.615 272.625 203.635 272.573L203.698 272.349C204.052 271.146 204.443 269.781 205.531 268.927C205.974 268.589 206.453 268.323 206.984 268.141C207.438 267.969 207.875 267.828 208.349 267.682C209.849 267.214 211.401 266.734 211.828 265.521C211.828 265.51 211.828 265.495 211.828 265.479C211.865 265.38 211.891 265.276 211.906 265.172C212.146 263.641 211.88 262.109 211.604 260.479C211.5 259.901 211.396 259.297 211.323 258.708C210.87 255.156 211.276 251.703 212.542 248.349C213.198 246.594 214.219 245.094 215.198 243.635C216.036 242.401 216.823 241.24 217.411 239.927C218.807 236.797 219.578 233.521 219.74 230.094C219.896 226.672 219.427 223.339 218.328 220.089C217.609 217.958 216.661 215.927 215.484 214.01C215.484 214.01 215.484 213.99 215.484 213.984C213.76 211.156 211.682 208.625 209.245 206.385C205.12 206.604 201.474 209.031 199.125 211.057C197.307 212.63 195.635 214.464 194.031 216.24C192.641 217.755 191.208 219.323 189.667 220.75C183.339 226.63 175.594 228.609 168.099 230.51C162.031 232.057 155.755 233.656 150.224 237.323C149.63 237.708 149.052 238.109 148.474 238.542C148.125 238.802 147.776 239.062 147.427 239.328C137.083 247.297 130.448 259.026 129.474 271.302C129.115 275.828 129.432 280.495 129.755 285.01C130.219 291.719 130.703 298.651 128.948 305.276C127.271 311.615 123.656 317.203 120.161 322.615C117.224 327.167 114.182 331.875 112.333 336.979C109.906 343.682 109.557 350.938 110 358.146C110.13 360.281 110.323 362.406 110.568 364.51C110.651 365.234 110.734 365.958 110.833 366.677C111.005 368.104 111.187 369.531 111.38 370.964C112.495 379.505 113.656 388.328 112.469 396.99C112.417 397.344 112.37 397.708 112.312 398.057C112.208 398.703 112.089 399.339 111.953 399.969H110.75C110.891 399.339 111.01 398.703 111.109 398.057C111.182 397.651 111.245 397.24 111.302 396.828C112.469 388.328 111.328 379.573 110.214 371.115C110.031 369.677 109.844 368.25 109.667 366.823C109.641 366.625 109.615 366.427 109.594 366.229C109.073 362.219 108.766 358.193 108.677 354.156C108.583 348.161 109.198 342.198 111.234 336.583C113.135 331.344 116.214 326.583 119.182 321.974C122.635 316.641 126.193 311.13 127.828 304.979C129.536 298.547 129.057 291.703 128.599 285.073C128.281 280.521 127.953 275.807 128.339 271.188C129.427 257.479 137.375 244.448 149.604 236.318C155.307 232.531 161.682 230.906 167.839 229.339C175.531 227.38 182.792 225.531 188.906 219.859C190.411 218.458 191.818 216.911 193.198 215.406C194.828 213.615 196.516 211.76 198.391 210.13C200.922 207.937 204.906 205.297 209.474 205.156C209.516 205.146 209.557 205.146 209.594 205.156L209.693 205.182C209.729 205.193 209.766 205.208 209.797 205.229C209.833 205.25 209.859 205.271 209.885 205.302C209.901 205.307 209.917 205.318 209.927 205.333C209.927 205.333 209.927 205.333 209.927 205.354C212.302 207.51 214.359 209.937 216.094 212.641C216.229 212.859 216.37 213.083 216.51 213.307C216.589 213.438 216.667 213.573 216.729 213.693C217.854 215.583 218.771 217.568 219.474 219.651C220.63 223.052 221.12 226.542 220.953 230.125C220.786 233.708 219.974 237.141 218.51 240.411Z" fill="url(#paint1_linear_351_235)"></path> <path d="M138.099 180.115C137.281 180.677 136.526 181.208 135.833 181.734C134.443 182.781 133.036 183.953 131.641 185.224C131.63 185.234 131.62 185.245 131.609 185.25L131.573 185.281C127.922 188.641 124.76 192.406 122.089 196.583C119.411 200.76 117.313 205.208 115.786 209.927C111.333 223.708 105.495 239.292 92.3646 249.74C88.7448 252.62 84.7135 255.115 80.8073 257.516C73.6615 261.943 66.2604 266.505 61.5469 273.453C55.1198 282.906 54.8438 294.292 54.5521 306.344C54.3594 314.125 54.1615 322.172 52.1458 329.656C48.974 341.443 41.474 351.307 33.599 360.688C33.0781 361.297 32.5781 361.906 32.0625 362.521C31.3698 363.344 30.6667 364.167 29.9688 364.984C28.6979 366.474 27.4375 367.953 26.1875 369.432C16.0625 381.526 11.1667 390.786 8.90104 398.089C8.69792 398.745 8.51563 399.38 8.35938 400H7.21875C7.38021 399.354 7.55208 398.719 7.74479 398.089C11.0677 386.854 18.5208 376.771 25.2917 368.677C26.5417 367.188 27.8125 365.698 29.0833 364.224C29.8333 363.349 30.5885 362.464 31.3385 361.568C31.7396 361.094 32.1458 360.615 32.5469 360.135C40.3906 350.797 47.8854 340.984 51.0156 329.359C52.9896 322.026 53.1875 314.042 53.375 306.339C53.6615 294.635 53.9583 282.547 60.5781 272.807C65.4375 265.656 72.9427 261.021 80.1875 256.542C84.0625 254.146 88.0729 251.672 91.6354 248.844C104.516 238.589 110.276 223.198 114.672 209.573C116.161 204.964 118.193 200.609 120.766 196.5C123.339 192.396 126.37 188.661 129.865 185.307C130.182 185 130.505 184.698 130.823 184.401L131.031 184.214C132.396 182.979 133.771 181.839 135.13 180.812C135.672 180.406 136.25 179.99 136.859 179.562C137.281 179.729 137.682 179.922 138.099 180.115Z" fill="url(#paint2_linear_351_235)"></path> <path d="M216.724 213.766C216.656 213.641 216.583 213.505 216.505 213.385C216.365 213.156 216.24 212.938 216.089 212.714C219.62 208.568 219.969 203.24 219.615 199.427C219.078 194.245 217.375 189.479 214.5 185.125C213.344 183.427 212.031 181.854 210.557 180.417C209.083 178.979 207.484 177.703 205.755 176.589C204.026 175.469 202.203 174.536 200.286 173.786C198.37 173.036 196.396 172.49 194.365 172.135C192.953 171.901 191.547 171.646 190.146 171.401C182.734 170.068 175.74 168.813 168.51 170.172C168.484 170.172 168.453 170.172 168.422 170.172C166.469 170.24 164.526 170.412 162.594 170.677C161.958 170.375 161.302 170.083 160.609 169.797C163.172 169.365 165.745 169.099 168.339 169.016C175.76 167.63 183.177 168.953 190.354 170.24C191.75 170.505 193.156 170.745 194.547 170.979C196.651 171.344 198.703 171.917 200.698 172.693C202.688 173.474 204.583 174.443 206.38 175.599C208.177 176.76 209.844 178.089 211.375 179.583C212.906 181.073 214.271 182.708 215.474 184.474C218.453 188.99 220.219 193.938 220.776 199.318C221.167 203.453 220.766 209.286 216.724 213.766Z" fill="url(#paint3_linear_351_235)"></path> <path d="M267.359 400H266.141C265.969 399.354 265.781 398.719 265.589 398.089C264.802 395.359 263.911 392.656 263.052 390.01C261.589 385.521 260.078 380.87 258.964 376.208C257.01 368.063 256.12 359.422 255.26 351.078C253.599 335.057 251.891 318.49 242.536 305.464C239.052 300.62 234.589 296.443 230.276 292.406C227.516 289.812 224.661 287.141 222.063 284.286C218.458 280.359 213.917 274.281 212.135 267.172C212.505 266.823 212.776 266.406 212.943 265.922C212.969 265.859 212.99 265.797 213.005 265.734C214.505 273.094 219.224 279.448 222.932 283.505C225.5 286.318 228.339 288.969 231.089 291.542C235.438 295.62 239.938 299.839 243.484 304.776C253.036 318.052 254.745 334.776 256.427 350.953C257.286 359.26 258.172 367.865 260.094 375.927C261.203 380.557 262.714 385.172 264.151 389.641C265.052 392.411 265.969 395.229 266.807 398.083C267.005 398.724 267.188 399.359 267.359 400Z" fill="url(#paint4_linear_351_235)"></path> <path d="M166.667 172.875C165.354 172.062 163.995 171.328 162.594 170.677C161.953 170.38 161.297 170.083 160.609 169.797C157.984 168.708 155.307 167.781 152.573 167.01C139.323 163.187 124.474 163.406 112.854 167.635C101.698 171.713 92.8229 178.609 84.9219 189.354C80.0833 195.943 76.0156 205.495 75.0156 212.588C74.9219 213.26 74.8906 214.036 75.3594 214.646C75.6198 214.984 75.9635 215.156 76.3906 215.151H76.4687C78.7969 215.026 83.3854 208.312 86.8229 202.703L86.8646 202.635C94.0156 191 103.182 182.401 113.354 177.771C115.078 177.042 116.87 176.609 118.729 176.458C119.516 176.385 120.323 176.338 121.172 176.333C126.62 176.323 131.849 177.391 136.854 179.547C137.281 179.724 137.693 179.917 138.099 180.115C140.552 181.26 142.76 182.766 144.719 184.635C145.63 185.531 146.479 186.479 147.276 187.484C147.833 188.198 148.375 188.958 148.911 189.703C149.031 189.87 149.151 190.026 149.266 190.193C151.339 193.099 153.479 196.12 156.714 197.792C158.104 198.531 159.583 198.953 161.156 199.062C162.729 199.167 164.255 198.948 165.734 198.396C169.214 197.151 172.208 194.25 173.755 190.646C174.552 188.865 174.964 186.995 174.995 185.047C174.995 180.427 172.208 176.354 166.667 172.875ZM172.667 190.187C171.25 193.5 168.51 196.161 165.333 197.292C164.01 197.786 162.641 197.984 161.234 197.891C159.823 197.797 158.5 197.411 157.255 196.745C154.26 195.198 152.203 192.292 150.208 189.505C150.115 189.37 150.016 189.245 149.917 189.094C149.917 189.088 149.917 189.083 149.917 189.078C149.901 189.047 149.885 189.021 149.859 189C149.339 188.245 148.771 187.484 148.203 186.755C147.375 185.713 146.49 184.729 145.542 183.797C143.583 181.865 141.089 180.25 138.349 178.958C138.297 178.927 138.245 178.906 138.188 178.885C132.797 176.432 127.135 175.203 121.214 175.198H120.818C117.729 175.266 114.969 175.766 112.875 176.708C102.49 181.422 93.151 190.187 85.875 202.026L85.8385 202.088C80.8594 210.208 77.5156 213.911 76.4219 213.979C76.3698 213.99 76.3281 213.974 76.3073 213.927C76.0937 213.667 76.1302 213.182 76.1927 212.75C77.1615 205.844 81.151 196.51 85.8802 190.047C93.6354 179.5 102.339 172.729 113.266 168.75C119.255 166.562 126.13 165.463 133.193 165.463C139.672 165.469 146.021 166.365 152.245 168.161C154.885 168.906 157.474 169.802 160.01 170.844L160.339 170.974C162.318 171.797 164.219 172.771 166.042 173.896C173.156 178.333 175.401 183.823 172.667 190.198V190.187Z" fill="url(#paint5_linear_351_235)"></path> <path d="M121.193 175.193H120.802C120.932 175.151 121.062 175.151 121.193 175.193Z" fill="url(#paint6_linear_351_235)"></path> <path d="M131.026 184.203C130.953 184.266 130.891 184.323 130.823 184.385C130.5 184.687 130.177 184.99 129.859 185.297C123.323 185.01 116.24 188.453 110.667 194.687C108.37 197.25 106.651 200.052 104.844 203.01C104.021 204.354 103.177 205.734 102.276 207.083C101.75 207.87 101.245 208.734 100.771 209.552C99.6406 211.495 98.4688 213.51 96.6563 215.068C96.2604 215.406 95.7917 215.724 95.2292 215.724C95.1563 215.724 95.0833 215.719 95.0156 215.708C94.5886 215.651 94.2604 215.443 94.0261 215.078C93.5938 214.463 93.599 213.573 93.7396 213C94.2813 210.802 95.0469 208.859 95.8646 206.797C96.0365 206.375 96.2083 205.948 96.3698 205.521C98.7708 199.365 101.875 193.865 105.583 189.172C106.896 187.521 108.135 186.052 109.385 184.687C112.573 181.182 115.583 178.526 118.724 176.464C119.51 176.385 120.323 176.344 121.167 176.339C117.448 178.474 113.984 181.38 110.255 185.479C109.021 186.828 107.797 188.271 106.505 189.901C102.865 194.505 99.8229 199.901 97.4688 205.943C97.2969 206.375 97.1302 206.807 96.9584 207.229C96.1719 209.25 95.4011 211.156 94.8854 213.276C94.7761 213.672 94.8125 214.052 94.9948 214.422C95.0313 214.495 95.0938 214.536 95.1823 214.547C95.3906 214.568 95.6719 214.365 95.8959 214.177C97.5521 212.75 98.6198 210.906 99.7552 208.958C100.24 208.125 100.745 207.26 101.297 206.432C102.182 205.104 103.026 203.729 103.844 202.401C105.599 199.516 107.422 196.547 109.792 193.901C115.917 187.057 123.833 183.443 131.026 184.203Z" fill="url(#paint7_linear_351_235)"></path> <path d="M203.583 272.724C203.443 272.328 203.229 271.979 202.943 271.677C202.234 271 201.391 270.651 200.406 270.63C199.266 270.568 198.115 270.812 197 271.057C196.703 271.12 196.396 271.193 196.104 271.24L191.781 272.062C191.552 272.109 191.401 272.24 191.333 272.469C191.266 272.687 191.312 272.88 191.469 273.047C192.24 273.833 192.724 274.906 193.24 276.036C193.708 277.052 194.193 278.094 194.896 278.969C195.375 279.594 195.963 280.078 196.667 280.432C196.062 281.13 195.542 281.875 195.094 282.672C194.771 283.198 194.453 283.724 194.078 284.229C192.198 286.776 187.792 288.349 182.99 286.422C179.062 284.849 175.937 281.495 173.187 278.542C172 277.266 170.088 278.484 168.838 279.286L168.516 279.5C164.281 282.146 161.042 285.698 158.792 290.161C158.474 290.781 158.094 291.385 157.724 291.958C156.953 293.156 156.151 294.401 155.87 296.01C154.391 304.328 165.661 306.62 173.125 308.141C174.615 308.448 175.901 308.703 176.901 308.979C178.151 309.318 179.396 309.562 180.599 309.792C183.505 310.365 186.255 310.901 188.755 312.724C191.859 315.005 194.344 318.453 195.755 322.453C197.391 327.099 197.302 331.578 197.213 336.312C197.182 337.885 197.151 339.5 197.182 341.141L197.229 343.068C197.328 347.865 197.437 352.406 197.297 357.208C196.922 370.828 198.036 384.323 200.63 397.698C200.667 397.859 200.755 397.99 200.896 398.078C200.99 398.141 201.088 398.167 201.198 398.167C201.234 398.172 201.276 398.172 201.312 398.167C201.474 398.135 201.594 398.052 201.687 397.917C201.776 397.786 201.807 397.641 201.781 397.479C199.198 384.193 198.088 370.781 198.463 357.25C198.599 352.422 198.495 347.865 198.385 343.052L198.344 341.12C198.312 339.51 198.344 337.906 198.375 336.349C198.474 331.505 198.562 326.922 196.844 322.073C195.365 317.859 192.724 314.203 189.432 311.792C186.724 309.802 183.849 309.245 180.807 308.646C179.63 308.417 178.406 308.177 177.193 307.859C176.146 307.573 174.854 307.307 173.344 307C166.328 305.578 155.734 303.417 157.005 296.234C157.255 294.849 157.958 293.76 158.698 292.604C159.109 291.995 159.484 291.359 159.828 290.708C161.974 286.443 165.078 283.042 169.13 280.51L169.458 280.297C170.391 279.698 171.802 278.802 172.323 279.359C175.151 282.396 178.349 285.849 182.536 287.526C186.578 289.156 192.167 288.792 195.005 284.937C195.406 284.391 195.745 283.839 196.073 283.297C196.682 282.312 197.24 281.385 198.109 280.677C198.135 280.651 198.167 280.63 198.193 280.604C198.333 280.495 198.479 280.391 198.635 280.302C200.495 279.146 201.536 278.036 201.531 275.75C202.203 275.708 202.807 275.479 203.333 275.057C203.385 275.021 203.432 274.984 203.484 274.937L203.583 274.844C203.615 274.786 203.641 274.724 203.661 274.661C203.838 274.005 203.812 273.365 203.583 272.724ZM202.594 274.146C202.167 274.484 201.682 274.615 201.141 274.542C201.036 274.49 200.927 274.469 200.812 274.479C200.031 274.599 199.245 274.646 198.453 274.62C197.724 274.594 197.057 274.375 196.453 273.969C196.323 273.87 196.177 273.833 196.021 273.854C195.859 273.88 195.729 273.958 195.635 274.089C195.536 274.219 195.5 274.365 195.526 274.526C195.547 274.687 195.625 274.818 195.76 274.911C196.547 275.464 197.417 275.755 198.375 275.792C198.562 275.792 198.74 275.812 198.927 275.812C199.411 275.807 199.896 275.776 200.38 275.714C200.38 277.505 199.625 278.297 198.047 279.281C197.906 279.354 197.771 279.443 197.646 279.542C197.547 279.516 197.448 279.49 197.349 279.453C196.828 279.266 196.338 278.859 195.807 278.224C195.193 277.469 194.76 276.531 194.312 275.547C193.943 274.667 193.495 273.828 192.969 273.031L196.328 272.396C196.63 272.333 196.937 272.271 197.25 272.203C198.297 271.979 199.359 271.75 200.349 271.807C201.021 271.807 201.604 272.036 202.099 272.49C202.516 272.969 202.682 273.521 202.594 274.146Z" fill="url(#paint8_linear_351_235)"></path> <path d="M203.615 274.823C203.552 274.922 203.464 274.995 203.354 275.036C203.406 275 203.453 274.964 203.5 274.922C203.542 274.891 203.578 274.859 203.615 274.823Z" fill="url(#paint9_linear_351_235)"></path> <path d="M238.865 40.9583C212.458 14.5417 177.339 0 139.995 0C102.651 0 67.5313 14.5417 41.125 40.9583C14.7188 67.375 0.166687 102.479 0.166687 139.823V399.042C0.166687 399.307 0.260436 399.531 0.447937 399.719C0.635436 399.906 0.859395 400 1.11981 400H278.865C279.13 400 279.354 399.906 279.542 399.719C279.729 399.531 279.823 399.307 279.823 399.042V139.823C279.818 102.479 265.271 67.3646 238.865 40.9583ZM277.891 398.089H2.07815V139.823C2.07815 102.99 16.4271 68.3646 42.4792 42.3125C68.5261 16.2552 103.156 1.91146 139.995 1.91146C176.833 1.91146 211.458 16.2604 237.51 42.3125C263.563 68.3646 277.901 102.99 277.901 139.823L277.891 398.089Z" fill="url(#paint10_linear_351_235)"></path> <path d="M47.3125 95.224C50.5625 96.2396 51.9844 99.1198 52.6562 102.667C53.3594 99.0625 54.7083 97 57.9688 95.625C56.6302 95.2031 54.5 92.9375 54.0729 92.25C53.0573 90.5885 52.9583 88.9583 52.7188 87.1094C51.8958 90.5313 50.901 93.651 47.3125 95.224Z" fill="url(#paint11_linear_351_235)"></path> <path d="M73.5104 242.156C76.7552 243.167 78.1771 246.052 78.849 249.594C79.5573 245.99 80.9063 243.927 84.1615 242.557C82.8229 242.13 80.6979 239.87 80.2709 239.177C79.2552 237.521 79.1563 235.891 78.9115 234.042C78.0834 237.458 77.0886 240.583 73.5104 242.156Z" fill="url(#paint12_linear_351_235)"></path> <path d="M260.391 243.224C263.641 244.234 265.057 247.12 265.729 250.661C266.437 247.057 267.786 244.995 271.047 243.625C269.703 243.203 267.573 240.938 267.151 240.245C266.135 238.583 266.036 236.958 265.792 235.109C264.984 238.526 263.974 241.651 260.391 243.224Z" fill="url(#paint13_linear_351_235)"></path> <path d="M260.219 306.552C263.469 307.563 264.885 310.443 265.562 313.99C266.266 310.385 267.615 308.323 270.875 306.948C269.536 306.526 267.406 304.26 266.979 303.573C265.964 301.911 265.865 300.286 265.625 298.438C264.802 301.854 263.802 304.974 260.219 306.552Z" fill="url(#paint14_linear_351_235)"></path> <path d="M229.078 130.359C232.328 131.375 233.745 134.255 234.422 137.802C235.125 134.198 236.474 132.135 239.734 130.76C238.391 130.339 236.266 128.073 235.844 127.385C234.823 125.724 234.724 124.099 234.484 122.245C233.661 125.667 232.667 128.786 229.078 130.359Z" fill="url(#paint15_linear_351_235)"></path> <path d="M36.1875 193.74C39.4375 194.755 40.8542 197.635 41.526 201.177C42.2344 197.578 43.5833 195.516 46.8385 194.141C45.5 193.719 43.3698 191.453 42.9479 190.766C41.9323 189.104 41.8333 187.479 41.5885 185.63C40.7656 189.042 39.7708 192.167 36.1875 193.74Z" fill="url(#paint16_linear_351_235)"></path> <path d="M61.9062 118.396C64.0677 119.068 65.0104 120.99 65.4583 123.344C65.9271 120.948 66.8281 119.578 68.9948 118.661C68.1042 118.38 66.6875 116.875 66.4062 116.417C65.7292 115.307 65.6615 114.224 65.5 112.995C64.9531 115.266 64.2917 117.349 61.9062 118.396Z" fill="url(#paint17_linear_351_235)"></path> <path d="M15.6667 328.573C17.8281 329.25 18.7709 331.167 19.2188 333.526C19.6927 331.125 20.5886 329.755 22.7604 328.839C21.8646 328.562 20.4479 327.052 20.1667 326.594C19.4896 325.49 19.4219 324.401 19.2604 323.172C18.7136 325.448 18.0521 327.526 15.6667 328.573Z" fill="url(#paint18_linear_351_235)"></path> <path d="M102.234 53.4062C104.396 54.0833 105.339 56 105.792 58.3593C106.26 55.9635 107.156 54.5885 109.328 53.677C108.432 53.3958 107.016 51.8854 106.734 51.427C106.057 50.3229 105.995 49.2395 105.833 48.0104C105.286 50.2916 104.62 52.3645 102.234 53.4062Z" fill="url(#paint19_linear_351_235)"></path> <path d="M227.089 272.812C229.25 273.484 230.198 275.401 230.646 277.766C231.115 275.365 232.01 273.99 234.182 273.078C233.286 272.797 231.875 271.286 231.589 270.828C230.911 269.724 230.849 268.641 230.688 267.411C230.146 269.687 229.474 271.766 227.089 272.812Z" fill="url(#paint20_linear_351_235)"></path> <path d="M188.693 98.1823C190.854 98.8542 191.802 100.771 192.25 103.13C192.719 100.734 193.615 99.3594 195.786 98.4479C194.896 98.1667 193.474 96.6562 193.193 96.1979C192.516 95.0937 192.448 94.0104 192.292 92.7812C191.745 95.0521 191.078 97.1354 188.693 98.1823Z" fill="url(#paint21_linear_351_235)"></path> <path d="M179.646 30.9635C181.807 31.6406 182.75 33.5573 183.203 35.9167C183.672 33.5156 184.568 32.1458 186.734 31.2292C185.844 30.9479 184.427 29.4427 184.146 28.9844C183.469 27.8802 183.401 26.7917 183.24 25.5625C182.693 27.8385 182.031 29.9167 179.646 30.9635Z" fill="url(#paint22_linear_351_235)"></path> <path d="M98.9739 116.281C98.9739 116.625 98.8541 116.922 98.6094 117.161C98.3698 117.406 98.0729 117.526 97.7291 117.526C97.3906 117.526 97.0937 117.406 96.8541 117.161C96.6094 116.922 96.4896 116.625 96.4896 116.281C96.4896 115.938 96.6094 115.646 96.8541 115.401C97.0937 115.162 97.3906 115.036 97.7291 115.036C98.0729 115.036 98.3698 115.162 98.6094 115.401C98.8541 115.646 98.9739 115.938 98.9739 116.281Z" fill="url(#paint23_linear_351_235)"></path> <path d="M16.3594 111.635C16.3594 111.979 16.2396 112.271 15.9948 112.516C15.7552 112.755 15.4635 112.88 15.1198 112.88C14.776 112.88 14.4792 112.755 14.2396 112.516C13.9948 112.271 13.875 111.979 13.875 111.635C13.875 111.292 13.9948 110.995 14.2396 110.755C14.4792 110.51 14.776 110.391 15.1198 110.391C15.4635 110.391 15.7552 110.51 15.9948 110.755C16.2396 110.995 16.3594 111.292 16.3594 111.635Z" fill="url(#paint24_linear_351_235)"></path> <path d="M110.578 109.755C110.578 110.099 110.458 110.391 110.214 110.635C109.974 110.88 109.677 111 109.333 111C108.99 111 108.698 110.88 108.453 110.635C108.214 110.391 108.089 110.099 108.089 109.755C108.089 109.411 108.214 109.12 108.453 108.875C108.698 108.635 108.99 108.51 109.333 108.51C109.677 108.51 109.974 108.635 110.214 108.875C110.458 109.12 110.578 109.411 110.578 109.755Z" fill="url(#paint25_linear_351_235)"></path> <path d="M15.875 148.214C15.875 148.557 15.7552 148.854 15.5104 149.094C15.2656 149.339 14.974 149.458 14.6302 149.458C14.2865 149.458 13.9948 149.339 13.75 149.094C13.5052 148.854 13.3854 148.557 13.3854 148.214C13.3854 147.87 13.5052 147.578 13.75 147.333C13.9948 147.094 14.2865 146.974 14.6302 146.974C14.974 146.974 15.2656 147.094 15.5104 147.333C15.7552 147.578 15.875 147.87 15.875 148.214Z" fill="url(#paint26_linear_351_235)"></path> <path d="M14.8854 254.812C14.8854 255.156 14.7604 255.448 14.5208 255.693C14.276 255.937 13.9844 256.057 13.6406 256.057C13.2969 256.057 13.0052 255.937 12.7604 255.693C12.5156 255.448 12.3958 255.156 12.3958 254.812C12.3958 254.469 12.5156 254.177 12.7604 253.932C13.0052 253.687 13.2969 253.568 13.6406 253.568C13.9844 253.568 14.276 253.687 14.5208 253.932C14.7604 254.177 14.8854 254.469 14.8854 254.812Z" fill="url(#paint27_linear_351_235)"></path> <path d="M24.7448 187.802C24.7448 188.146 24.625 188.437 24.3802 188.682C24.1406 188.922 23.8438 189.047 23.5 189.047C23.1563 189.047 22.8646 188.922 22.6198 188.682C22.3802 188.437 22.2604 188.146 22.2604 187.802C22.2604 187.458 22.3802 187.167 22.6198 186.922C22.8646 186.677 23.1563 186.557 23.5 186.557C23.8438 186.557 24.1406 186.677 24.3802 186.922C24.625 187.167 24.7448 187.458 24.7448 187.802Z" fill="url(#paint28_linear_351_235)"></path> <path d="M21.5365 301.385C21.5365 301.729 21.4167 302.021 21.1719 302.266C20.9323 302.505 20.6354 302.63 20.2917 302.63C19.9479 302.63 19.6563 302.505 19.4115 302.266C19.1719 302.021 19.0469 301.729 19.0469 301.385C19.0469 301.042 19.1719 300.75 19.4115 300.505C19.6563 300.26 19.9479 300.141 20.2917 300.141C20.6354 300.141 20.9323 300.26 21.1719 300.505C21.4167 300.75 21.5365 301.042 21.5365 301.385Z" fill="url(#paint29_linear_351_235)"></path> <path d="M13.5156 313.219C13.5156 313.562 13.3958 313.854 13.151 314.099C12.9115 314.344 12.6146 314.464 12.2708 314.464C11.9271 314.464 11.6354 314.344 11.3906 314.099C11.151 313.854 11.0312 313.562 11.0312 313.219C11.0312 312.875 11.151 312.583 11.3906 312.339C11.6354 312.094 11.9271 311.974 12.2708 311.974C12.6146 311.974 12.9115 312.094 13.151 312.339C13.3958 312.583 13.5156 312.875 13.5156 313.219Z" fill="url(#paint30_linear_351_235)"></path> <path d="M32.8333 340.75C32.8333 341.094 32.7135 341.385 32.4687 341.63C32.2291 341.875 31.9323 341.995 31.5885 341.995C31.2448 341.995 30.9531 341.875 30.7083 341.63C30.4687 341.385 30.3489 341.094 30.3489 340.75C30.3489 340.406 30.4687 340.115 30.7083 339.87C30.9531 339.63 31.2448 339.505 31.5885 339.505C31.9323 339.505 32.2291 339.63 32.4687 339.87C32.7135 340.115 32.8333 340.406 32.8333 340.75Z" fill="url(#paint31_linear_351_235)"></path> <path d="M68.6458 196.214C68.6458 196.557 68.526 196.849 68.2812 197.094C68.0417 197.333 67.7448 197.458 67.401 197.458C67.0573 197.458 66.7656 197.333 66.5208 197.094C66.2813 196.849 66.1562 196.557 66.1562 196.214C66.1562 195.87 66.2813 195.578 66.5208 195.333C66.7656 195.089 67.0573 194.969 67.401 194.969C67.7448 194.969 68.0417 195.089 68.2812 195.333C68.526 195.578 68.6458 195.87 68.6458 196.214Z" fill="url(#paint32_linear_351_235)"></path> <path d="M38.7917 303.005C38.7917 303.349 38.6719 303.641 38.4271 303.885C38.1875 304.125 37.8906 304.245 37.5521 304.245C37.2084 304.245 36.9115 304.125 36.6719 303.885C36.4271 303.641 36.3073 303.349 36.3073 303.005C36.3073 302.661 36.4271 302.365 36.6719 302.125C36.9115 301.88 37.2084 301.76 37.5521 301.76C37.8906 301.76 38.1875 301.88 38.4271 302.125C38.6719 302.365 38.7917 302.661 38.7917 303.005Z" fill="url(#paint33_linear_351_235)"></path> <path d="M25.3802 362.604C25.3802 362.948 25.2604 363.24 25.0208 363.484C24.776 363.724 24.4844 363.849 24.1406 363.849C23.7969 363.849 23.5 363.724 23.2604 363.484C23.0156 363.24 22.8958 362.948 22.8958 362.604C22.8958 362.26 23.0156 361.969 23.2604 361.724C23.5 361.479 23.7969 361.359 24.1406 361.359C24.4844 361.359 24.776 361.479 25.0208 361.724C25.2604 361.969 25.3802 362.26 25.3802 362.604Z" fill="url(#paint34_linear_351_235)"></path> <path d="M31.6771 213.016C31.6771 213.359 31.5573 213.656 31.3177 213.896C31.0729 214.141 30.7812 214.26 30.4375 214.26C30.0937 214.26 29.7969 214.141 29.5573 213.896C29.3125 213.656 29.1927 213.359 29.1927 213.016C29.1927 212.677 29.3125 212.38 29.5573 212.141C29.7969 211.896 30.0937 211.776 30.4375 211.776C30.7812 211.776 31.0729 211.896 31.3177 212.141C31.5573 212.38 31.6771 212.677 31.6771 213.016Z" fill="url(#paint35_linear_351_235)"></path> <path d="M244.297 142.875C244.297 143.219 244.177 143.51 243.932 143.755C243.688 144 243.396 144.12 243.052 144.12C242.708 144.12 242.417 144 242.172 143.755C241.932 143.51 241.807 143.219 241.807 142.875C241.807 142.531 241.932 142.24 242.172 141.995C242.417 141.75 242.708 141.63 243.052 141.63C243.396 141.63 243.688 141.75 243.932 141.995C244.177 142.24 244.297 142.531 244.297 142.875Z" fill="url(#paint36_linear_351_235)"></path> <path d="M242.568 257.958C242.568 258.302 242.448 258.599 242.203 258.839C241.958 259.083 241.667 259.203 241.323 259.203C240.979 259.203 240.687 259.083 240.443 258.839C240.203 258.599 240.078 258.302 240.078 257.958C240.078 257.62 240.203 257.323 240.443 257.083C240.687 256.839 240.979 256.719 241.323 256.719C241.667 256.719 241.958 256.839 242.203 257.083C242.448 257.323 242.568 257.62 242.568 257.958Z" fill="url(#paint37_linear_351_235)"></path> <path d="M31.8385 263.766C31.8385 264.109 31.7187 264.401 31.4739 264.646C31.2344 264.885 30.9375 265.01 30.5937 265.01C30.25 265.01 29.9583 264.885 29.7135 264.646C29.4739 264.401 29.3489 264.109 29.3489 263.766C29.3489 263.422 29.4739 263.13 29.7135 262.885C29.9583 262.641 30.25 262.521 30.5937 262.521C30.9375 262.521 31.2344 262.641 31.4739 262.885C31.7187 263.13 31.8385 263.422 31.8385 263.766Z" fill="url(#paint38_linear_351_235)"></path> <path d="M272.792 199.865C272.792 200.208 272.672 200.505 272.427 200.745C272.187 200.99 271.891 201.109 271.547 201.109C271.203 201.109 270.911 200.99 270.667 200.745C270.427 200.505 270.302 200.208 270.302 199.865C270.302 199.521 270.427 199.229 270.667 198.984C270.911 198.745 271.203 198.62 271.547 198.62C271.891 198.62 272.187 198.745 272.427 198.984C272.672 199.229 272.792 199.521 272.792 199.865Z" fill="url(#paint39_linear_351_235)"></path> <path d="M249.151 242.844C249.151 243.187 249.031 243.479 248.786 243.724C248.547 243.969 248.255 244.089 247.911 244.089C247.568 244.089 247.271 243.969 247.031 243.724C246.786 243.479 246.667 243.187 246.667 242.844C246.667 242.5 246.786 242.208 247.031 241.964C247.271 241.724 247.568 241.599 247.911 241.599C248.255 241.599 248.547 241.724 248.786 241.964C249.031 242.208 249.151 242.5 249.151 242.844Z" fill="url(#paint40_linear_351_235)"></path> <path d="M228.63 247.734C228.63 248.078 228.505 248.37 228.266 248.615C228.021 248.854 227.729 248.974 227.385 248.974C227.042 248.974 226.745 248.854 226.505 248.615C226.26 248.37 226.141 248.078 226.141 247.734C226.141 247.391 226.26 247.094 226.505 246.854C226.745 246.609 227.042 246.49 227.385 246.49C227.729 246.49 228.021 246.609 228.266 246.854C228.505 247.094 228.63 247.391 228.63 247.734Z" fill="url(#paint41_linear_351_235)"></path> <path d="M273.167 343.328C273.167 343.672 273.047 343.964 272.802 344.208C272.562 344.453 272.266 344.573 271.922 344.573C271.578 344.573 271.286 344.453 271.042 344.208C270.802 343.964 270.677 343.672 270.677 343.328C270.677 342.984 270.802 342.693 271.042 342.448C271.286 342.203 271.578 342.083 271.922 342.083C272.266 342.083 272.562 342.203 272.802 342.448C273.047 342.693 273.167 342.984 273.167 343.328Z" fill="url(#paint42_linear_351_235)"></path> <path d="M262.688 349.573C262.688 349.917 262.568 350.214 262.323 350.453C262.078 350.698 261.786 350.818 261.443 350.818C261.099 350.818 260.807 350.698 260.563 350.453C260.323 350.214 260.198 349.917 260.198 349.573C260.198 349.229 260.323 348.937 260.563 348.693C260.807 348.453 261.099 348.333 261.443 348.333C261.786 348.333 262.078 348.453 262.323 348.693C262.568 348.937 262.688 349.229 262.688 349.573Z" fill="url(#paint43_linear_351_235)"></path> <path d="M271.734 382.969C271.734 383.312 271.609 383.604 271.37 383.844C271.125 384.089 270.833 384.208 270.49 384.208C270.146 384.208 269.849 384.089 269.609 383.844C269.365 383.604 269.245 383.312 269.245 382.969C269.245 382.625 269.365 382.328 269.609 382.089C269.849 381.844 270.146 381.724 270.49 381.724C270.833 381.724 271.125 381.844 271.37 382.089C271.609 382.328 271.734 382.625 271.734 382.969Z" fill="url(#paint44_linear_351_235)"></path> <path d="M276.453 390.661C276.453 391.005 276.333 391.297 276.089 391.542C275.849 391.786 275.552 391.906 275.208 391.906C274.865 391.906 274.573 391.786 274.333 391.542C274.089 391.297 273.969 391.005 273.969 390.661C273.969 390.318 274.089 390.026 274.333 389.781C274.573 389.542 274.865 389.417 275.208 389.417C275.552 389.417 275.849 389.542 276.089 389.781C276.333 390.026 276.453 390.318 276.453 390.661Z" fill="url(#paint45_linear_351_235)"></path> <path d="M53.4427 243.651C53.4427 243.995 53.3229 244.286 53.0781 244.526C52.8385 244.771 52.5417 244.891 52.1979 244.891C51.8542 244.891 51.5625 244.771 51.3177 244.526C51.0781 244.286 50.9531 243.995 50.9531 243.651C50.9531 243.307 51.0781 243.01 51.3177 242.771C51.5625 242.526 51.8542 242.406 52.1979 242.406C52.5417 242.406 52.8385 242.526 53.0781 242.771C53.3229 243.01 53.4427 243.307 53.4427 243.651Z" fill="url(#paint46_linear_351_235)"></path> <path d="M216.24 129.724C216.24 130.068 216.115 130.359 215.875 130.604C215.63 130.844 215.339 130.969 214.995 130.969C214.651 130.969 214.359 130.844 214.115 130.604C213.87 130.359 213.75 130.068 213.75 129.724C213.75 129.38 213.87 129.088 214.115 128.844C214.359 128.599 214.651 128.479 214.995 128.479C215.339 128.479 215.63 128.599 215.875 128.844C216.115 129.088 216.24 129.38 216.24 129.724Z" fill="url(#paint47_linear_351_235)"></path> <path d="M66.6094 246.88C66.6094 247.224 66.4896 247.516 66.2448 247.76C66 248 65.7084 248.125 65.3646 248.125C65.0209 248.125 64.7292 248 64.4844 247.76C64.2396 247.516 64.1198 247.224 64.1198 246.88C64.1198 246.536 64.2396 246.24 64.4844 246C64.7292 245.755 65.0209 245.635 65.3646 245.635C65.7084 245.635 66 245.755 66.2448 246C66.4896 246.24 66.6094 246.536 66.6094 246.88Z" fill="url(#paint48_linear_351_235)"></path> <path d="M54.6875 225.026C54.6875 225.37 54.5677 225.661 54.3229 225.906C54.0781 226.146 53.7865 226.271 53.4427 226.271C53.099 226.271 52.8073 226.146 52.5625 225.906C52.3229 225.661 52.1979 225.37 52.1979 225.026C52.1979 224.682 52.3229 224.391 52.5625 224.146C52.8073 223.901 53.099 223.781 53.4427 223.781C53.7865 223.781 54.0781 223.901 54.3229 224.146C54.5677 224.391 54.6875 224.682 54.6875 225.026Z" fill="url(#paint49_linear_351_235)"></path> <path d="M41.4271 163.219C41.4271 163.563 41.3073 163.854 41.0625 164.099C40.8229 164.344 40.526 164.464 40.1823 164.464C39.8385 164.464 39.5469 164.344 39.3073 164.099C39.0625 163.854 38.9427 163.563 38.9427 163.219C38.9427 162.875 39.0625 162.583 39.3073 162.339C39.5469 162.099 39.8385 161.974 40.1823 161.974C40.526 161.974 40.8229 162.099 41.0625 162.339C41.3073 162.583 41.4271 162.875 41.4271 163.219Z" fill="url(#paint50_linear_351_235)"></path> <path d="M37.0573 118.792C37.0573 119.135 36.9375 119.427 36.6979 119.672C36.4531 119.917 36.1615 120.036 35.8177 120.036C35.474 120.036 35.1771 119.917 34.9375 119.672C34.6927 119.427 34.5729 119.135 34.5729 118.792C34.5729 118.448 34.6927 118.156 34.9375 117.911C35.1771 117.672 35.474 117.547 35.8177 117.547C36.1615 117.547 36.4531 117.672 36.6979 117.911C36.9375 118.156 37.0573 118.448 37.0573 118.792Z" fill="url(#paint51_linear_351_235)"></path> <path d="M230.052 100.031C230.052 100.375 229.927 100.667 229.688 100.911C229.443 101.151 229.151 101.276 228.807 101.276C228.464 101.276 228.172 101.151 227.927 100.911C227.682 100.667 227.562 100.375 227.562 100.031C227.562 99.6875 227.682 99.3959 227.927 99.1511C228.172 98.9063 228.464 98.7865 228.807 98.7865C229.151 98.7865 229.443 98.9063 229.688 99.1511C229.927 99.3959 230.052 99.6875 230.052 100.031Z" fill="url(#paint52_linear_351_235)"></path> <path d="M262.766 189.021C262.766 189.365 262.641 189.656 262.401 189.901C262.156 190.141 261.865 190.266 261.521 190.266C261.177 190.266 260.88 190.141 260.641 189.901C260.396 189.656 260.276 189.365 260.276 189.021C260.276 188.677 260.396 188.385 260.641 188.141C260.88 187.896 261.177 187.776 261.521 187.776C261.865 187.776 262.156 187.896 262.401 188.141C262.641 188.385 262.766 188.677 262.766 189.021Z" fill="url(#paint53_linear_351_235)"></path> <path d="M239.505 173.073C239.505 173.417 239.385 173.708 239.141 173.953C238.901 174.198 238.604 174.318 238.26 174.318C237.917 174.318 237.625 174.198 237.38 173.953C237.141 173.708 237.016 173.417 237.016 173.073C237.016 172.729 237.141 172.437 237.38 172.193C237.625 171.948 237.917 171.828 238.26 171.828C238.604 171.828 238.901 171.948 239.141 172.193C239.385 172.437 239.505 172.729 239.505 173.073Z" fill="url(#paint54_linear_351_235)"></path> <path d="M173.302 129.99C173.302 130.333 173.177 130.625 172.938 130.87C172.693 131.109 172.401 131.229 172.057 131.229C171.714 131.229 171.417 131.109 171.177 130.87C170.932 130.625 170.812 130.333 170.812 129.99C170.812 129.646 170.932 129.349 171.177 129.109C171.417 128.865 171.714 128.745 172.057 128.745C172.401 128.745 172.693 128.865 172.938 129.109C173.177 129.349 173.302 129.646 173.302 129.99Z" fill="url(#paint55_linear_351_235)"></path> <path d="M247.438 274.937C247.438 275.281 247.313 275.578 247.073 275.818C246.828 276.062 246.536 276.182 246.193 276.182C245.849 276.182 245.552 276.062 245.313 275.818C245.068 275.578 244.948 275.281 244.948 274.937C244.948 274.594 245.068 274.302 245.313 274.057C245.552 273.818 245.849 273.693 246.193 273.693C246.536 273.693 246.828 273.818 247.073 274.057C247.313 274.302 247.438 274.594 247.438 274.937Z" fill="url(#paint56_linear_351_235)"></path> <path d="M218.911 75.4114C218.911 75.7552 218.792 76.0468 218.547 76.2916C218.307 76.5312 218.01 76.6562 217.667 76.6562C217.323 76.6562 217.031 76.5312 216.786 76.2916C216.547 76.0468 216.427 75.7552 216.427 75.4114C216.427 75.0677 216.547 74.776 216.786 74.5312C217.031 74.2864 217.323 74.1666 217.667 74.1666C218.01 74.1666 218.307 74.2864 218.547 74.5312C218.792 74.776 218.911 75.0677 218.911 75.4114Z" fill="url(#paint57_linear_351_235)"></path> <path d="M149.094 131.516C149.094 131.859 148.969 132.156 148.729 132.396C148.484 132.641 148.193 132.76 147.849 132.76C147.505 132.76 147.208 132.641 146.969 132.396C146.724 132.156 146.604 131.859 146.604 131.516C146.604 131.172 146.724 130.88 146.969 130.635C147.208 130.396 147.505 130.271 147.849 130.271C148.193 130.271 148.484 130.396 148.729 130.635C148.969 130.88 149.094 131.172 149.094 131.516Z" fill="url(#paint58_linear_351_235)"></path> <path d="M145.724 152.089C145.724 152.432 145.604 152.724 145.359 152.969C145.12 153.214 144.823 153.333 144.479 153.333C144.141 153.333 143.844 153.214 143.604 152.969C143.359 152.724 143.24 152.432 143.24 152.089C143.24 151.745 143.359 151.453 143.604 151.208C143.844 150.969 144.141 150.844 144.479 150.844C144.823 150.844 145.12 150.969 145.359 151.208C145.604 151.453 145.724 151.745 145.724 152.089Z" fill="url(#paint59_linear_351_235)"></path> <path d="M247.745 80.8542C247.745 81.198 247.625 81.4948 247.38 81.7344C247.135 81.9792 246.844 82.099 246.5 82.099C246.156 82.099 245.865 81.9792 245.62 81.7344C245.375 81.4948 245.255 81.198 245.255 80.8542C245.255 80.5105 245.375 80.2188 245.62 79.9792C245.865 79.7344 246.156 79.6146 246.5 79.6146C246.844 79.6146 247.135 79.7344 247.38 79.9792C247.625 80.2188 247.745 80.5105 247.745 80.8542Z" fill="url(#paint60_linear_351_235)"></path> <path d="M264.255 134.906C264.255 135.25 264.135 135.542 263.891 135.781C263.651 136.026 263.354 136.146 263.01 136.146C262.667 136.146 262.375 136.026 262.13 135.781C261.891 135.542 261.766 135.25 261.766 134.906C261.766 134.563 261.891 134.266 262.13 134.026C262.375 133.781 262.667 133.661 263.01 133.661C263.354 133.661 263.651 133.781 263.891 134.026C264.135 134.266 264.255 134.563 264.255 134.906Z" fill="url(#paint61_linear_351_235)"></path> <path d="M170.135 114.302C170.135 114.646 170.016 114.937 169.771 115.182C169.526 115.427 169.234 115.547 168.891 115.547C168.547 115.547 168.255 115.427 168.01 115.182C167.771 114.937 167.646 114.646 167.646 114.302C167.646 113.958 167.771 113.667 168.01 113.422C168.255 113.182 168.547 113.057 168.891 113.057C169.234 113.057 169.526 113.182 169.771 113.422C170.016 113.667 170.135 113.958 170.135 114.302Z" fill="url(#paint62_linear_351_235)"></path> <path d="M261.385 288.198C261.385 288.542 261.26 288.833 261.021 289.078C260.776 289.323 260.484 289.443 260.141 289.443C259.797 289.443 259.5 289.323 259.26 289.078C259.016 288.833 258.896 288.542 258.896 288.198C258.896 287.854 259.016 287.563 259.26 287.318C259.5 287.078 259.797 286.953 260.141 286.953C260.484 286.953 260.776 287.078 261.021 287.318C261.26 287.563 261.385 287.854 261.385 288.198Z" fill="url(#paint63_linear_351_235)"></path> <path d="M272.354 332.625C272.354 332.969 272.229 333.26 271.99 333.5C271.745 333.745 271.453 333.865 271.109 333.865C270.766 333.865 270.474 333.745 270.229 333.5C269.984 333.26 269.865 332.969 269.865 332.625C269.865 332.281 269.984 331.984 270.229 331.745C270.474 331.5 270.766 331.38 271.109 331.38C271.453 331.38 271.745 331.5 271.99 331.745C272.229 331.984 272.354 332.281 272.354 332.625Z" fill="url(#paint64_linear_351_235)"></path> <path d="M250.469 258.865C250.469 259.208 250.349 259.505 250.104 259.745C249.859 259.99 249.568 260.109 249.224 260.109C248.88 260.109 248.589 259.99 248.344 259.745C248.099 259.505 247.979 259.208 247.979 258.865C247.979 258.526 248.099 258.229 248.344 257.99C248.589 257.745 248.88 257.625 249.224 257.625C249.568 257.625 249.859 257.745 250.104 257.99C250.349 258.229 250.469 258.526 250.469 258.865Z" fill="url(#paint65_linear_351_235)"></path> <path d="M262.031 274.505C262.031 274.849 261.911 275.146 261.667 275.385C261.427 275.63 261.13 275.75 260.786 275.75C260.443 275.75 260.151 275.63 259.906 275.385C259.667 275.146 259.542 274.849 259.542 274.505C259.542 274.161 259.667 273.87 259.906 273.625C260.151 273.385 260.443 273.266 260.786 273.266C261.13 273.266 261.427 273.385 261.667 273.625C261.911 273.87 262.031 274.161 262.031 274.505Z" fill="url(#paint66_linear_351_235)"></path> <path d="M225.911 237.682C225.911 238.026 225.792 238.323 225.547 238.562C225.302 238.807 225.01 238.927 224.667 238.927C224.323 238.927 224.031 238.807 223.786 238.562C223.547 238.323 223.422 238.026 223.422 237.682C223.422 237.339 223.547 237.047 223.786 236.807C224.031 236.562 224.323 236.443 224.667 236.443C225.01 236.443 225.302 236.562 225.547 236.807C225.792 237.047 225.911 237.339 225.911 237.682Z" fill="url(#paint67_linear_351_235)"></path> <path d="M114.682 139.724C114.682 140.068 114.562 140.359 114.318 140.604C114.073 140.849 113.781 140.969 113.437 140.969C113.094 140.969 112.802 140.849 112.557 140.604C112.312 140.359 112.193 140.068 112.193 139.724C112.193 139.38 112.312 139.088 112.557 138.844C112.802 138.599 113.094 138.479 113.437 138.479C113.781 138.479 114.073 138.599 114.318 138.844C114.562 139.088 114.682 139.38 114.682 139.724Z" fill="url(#paint68_linear_351_235)"></path> <path d="M87.1458 168.974C87.1458 169.318 87.0208 169.609 86.7812 169.854C86.5365 170.099 86.2448 170.219 85.901 170.219C85.5573 170.219 85.2656 170.099 85.0208 169.854C84.776 169.609 84.6562 169.318 84.6562 168.974C84.6562 168.63 84.776 168.338 85.0208 168.094C85.2656 167.849 85.5573 167.729 85.901 167.729C86.2448 167.729 86.5365 167.849 86.7812 168.094C87.0208 168.338 87.1458 168.63 87.1458 168.974Z" fill="url(#paint69_linear_351_235)"></path> <path d="M235.969 211.458C235.969 211.802 235.849 212.099 235.604 212.339C235.365 212.583 235.068 212.703 234.724 212.703C234.38 212.703 234.089 212.583 233.844 212.339C233.604 212.099 233.479 211.802 233.479 211.458C233.479 211.115 233.604 210.823 233.844 210.578C234.089 210.339 234.38 210.214 234.724 210.214C235.068 210.214 235.365 210.339 235.604 210.578C235.849 210.823 235.969 211.115 235.969 211.458Z" fill="url(#paint70_linear_351_235)"></path> <path d="M249.594 222.167C249.594 222.51 249.474 222.802 249.229 223.047C248.99 223.286 248.698 223.411 248.354 223.411C248.01 223.411 247.714 223.286 247.474 223.047C247.229 222.802 247.109 222.51 247.109 222.167C247.109 221.823 247.229 221.526 247.474 221.286C247.714 221.042 248.01 220.922 248.354 220.922C248.698 220.922 248.99 221.042 249.229 221.286C249.474 221.526 249.594 221.823 249.594 222.167Z" fill="url(#paint71_linear_351_235)"></path> <path d="M188.594 141.99C188.594 142.333 188.474 142.625 188.229 142.87C187.984 143.115 187.693 143.234 187.349 143.234C187.005 143.234 186.714 143.115 186.469 142.87C186.229 142.625 186.104 142.333 186.104 141.99C186.104 141.646 186.229 141.354 186.469 141.109C186.714 140.865 187.005 140.745 187.349 140.745C187.693 140.745 187.984 140.865 188.229 141.109C188.474 141.354 188.594 141.646 188.594 141.99Z" fill="url(#paint72_linear_351_235)"></path> <path d="M210.625 169.125C210.625 169.469 210.505 169.76 210.26 170.005C210.016 170.245 209.724 170.37 209.38 170.37C209.036 170.37 208.745 170.245 208.5 170.005C208.26 169.76 208.135 169.469 208.135 169.125C208.135 168.781 208.26 168.484 208.5 168.245C208.745 168 209.036 167.88 209.38 167.88C209.724 167.88 210.016 168 210.26 168.245C210.505 168.484 210.625 168.781 210.625 169.125Z" fill="url(#paint73_linear_351_235)"></path> <path d="M157.927 156.609C157.927 156.953 157.807 157.245 157.562 157.49C157.323 157.729 157.031 157.854 156.687 157.854C156.344 157.854 156.047 157.729 155.807 157.49C155.562 157.245 155.443 156.953 155.443 156.609C155.443 156.266 155.562 155.969 155.807 155.729C156.047 155.484 156.344 155.365 156.687 155.365C157.031 155.365 157.323 155.484 157.562 155.729C157.807 155.969 157.927 156.266 157.927 156.609Z" fill="url(#paint74_linear_351_235)"></path> <path d="M181.953 61.3645C181.953 61.7083 181.828 62.0052 181.589 62.2448C181.344 62.4895 181.052 62.6093 180.708 62.6093C180.365 62.6093 180.073 62.4895 179.828 62.2448C179.583 62.0052 179.464 61.7083 179.464 61.3645C179.464 61.0208 179.583 60.7291 179.828 60.4843C180.073 60.2448 180.365 60.1198 180.708 60.1198C181.052 60.1198 181.344 60.2448 181.589 60.4843C181.828 60.7291 181.953 61.0208 181.953 61.3645Z" fill="url(#paint75_linear_351_235)"></path> <path d="M224.828 55.9583C224.828 56.302 224.708 56.5937 224.464 56.8385C224.219 57.0781 223.927 57.2031 223.583 57.2031C223.24 57.2031 222.948 57.0781 222.703 56.8385C222.458 56.5937 222.339 56.302 222.339 55.9583C222.339 55.6145 222.458 55.3177 222.703 55.0781C222.948 54.8333 223.24 54.7135 223.583 54.7135C223.927 54.7135 224.219 54.8333 224.464 55.0781C224.708 55.3177 224.828 55.6145 224.828 55.9583Z" fill="url(#paint76_linear_351_235)"></path> <path d="M97.8854 91.6198C97.8854 91.9636 97.7656 92.2605 97.5208 92.5C97.2812 92.7448 96.9844 92.8646 96.6406 92.8646C96.2969 92.8646 96.0052 92.7448 95.7604 92.5C95.5208 92.2605 95.3958 91.9636 95.3958 91.6198C95.3958 91.2761 95.5208 90.9844 95.7604 90.7448C96.0052 90.5 96.2969 90.3802 96.6406 90.3802C96.9844 90.3802 97.2812 90.5 97.5208 90.7448C97.7656 90.9844 97.8854 91.2761 97.8854 91.6198Z" fill="url(#paint77_linear_351_235)"></path> <path d="M84.6042 32.302C84.6042 32.6458 84.4844 32.9375 84.2396 33.1823C84 33.4218 83.7031 33.5468 83.3594 33.5468C83.0209 33.5468 82.724 33.4218 82.4844 33.1823C82.2396 32.9375 82.1198 32.6458 82.1198 32.302C82.1198 31.9583 82.2396 31.6666 82.4844 31.4218C82.724 31.177 83.0209 31.0573 83.3594 31.0573C83.7031 31.0573 84 31.177 84.2396 31.4218C84.4844 31.6666 84.6042 31.9583 84.6042 32.302Z" fill="url(#paint78_linear_351_235)"></path> <path d="M42.4688 57.4323C42.4688 57.7761 42.349 58.073 42.1042 58.3125C41.8594 58.5573 41.5677 58.6771 41.224 58.6771C40.8802 58.6771 40.5886 58.5573 40.3438 58.3125C40.1042 58.073 39.9792 57.7761 39.9792 57.4323C39.9792 57.0886 40.1042 56.7969 40.3438 56.5521C40.5886 56.3125 40.8802 56.1927 41.224 56.1927C41.5677 56.1927 41.8594 56.3125 42.1042 56.5521C42.349 56.7969 42.4688 57.0886 42.4688 57.4323Z" fill="url(#paint79_linear_351_235)"></path> <path d="M68.0469 159.911C68.0469 160.255 67.9271 160.547 67.6823 160.792C67.4375 161.031 67.1459 161.156 66.8021 161.156C66.4584 161.156 66.1667 161.031 65.9219 160.792C65.6823 160.547 65.5573 160.255 65.5573 159.911C65.5573 159.568 65.6823 159.276 65.9219 159.031C66.1667 158.786 66.4584 158.667 66.8021 158.667C67.1459 158.667 67.4375 158.786 67.6823 159.031C67.9271 159.276 68.0469 159.568 68.0469 159.911Z" fill="url(#paint80_linear_351_235)"></path> <path d="M86.4896 154.328C86.4896 154.672 86.3698 154.964 86.125 155.208C85.8802 155.453 85.5885 155.573 85.2448 155.573C84.901 155.573 84.6094 155.453 84.3646 155.208C84.125 154.964 84 154.672 84 154.328C84 153.984 84.125 153.693 84.3646 153.448C84.6094 153.208 84.901 153.083 85.2448 153.083C85.5885 153.083 85.8802 153.208 86.125 153.448C86.3698 153.693 86.4896 153.984 86.4896 154.328Z" fill="url(#paint81_linear_351_235)"></path> <path d="M84.2031 180.745C84.2031 181.089 84.0834 181.38 83.8386 181.62C83.5938 181.865 83.3021 181.984 82.9584 181.984C82.6146 181.984 82.3229 181.865 82.0781 181.62C81.8334 181.38 81.7136 181.089 81.7136 180.745C81.7136 180.401 81.8334 180.104 82.0781 179.865C82.3229 179.62 82.6146 179.5 82.9584 179.5C83.3021 179.5 83.5938 179.62 83.8386 179.865C84.0834 180.104 84.2031 180.401 84.2031 180.745Z" fill="url(#paint82_linear_351_235)"></path> <path d="M101.266 165.51C101.266 165.854 101.146 166.146 100.901 166.391C100.661 166.63 100.365 166.755 100.026 166.755C99.6823 166.755 99.3854 166.63 99.1458 166.391C98.901 166.146 98.7812 165.854 98.7812 165.51C98.7812 165.167 98.901 164.87 99.1458 164.63C99.3854 164.385 99.6823 164.266 100.026 164.266C100.365 164.266 100.661 164.385 100.901 164.63C101.146 164.87 101.266 165.167 101.266 165.51Z" fill="url(#paint83_linear_351_235)"></path> <path d="M79.2708 63.3073C79.2708 63.6511 79.151 63.948 78.9062 64.1875C78.6666 64.4323 78.375 64.5521 78.0312 64.5521C77.6875 64.5521 77.3906 64.4323 77.151 64.1875C76.9062 63.948 76.7864 63.6511 76.7864 63.3073C76.7864 62.9636 76.9062 62.6719 77.151 62.4323C77.3906 62.1875 77.6875 62.0677 78.0312 62.0677C78.375 62.0677 78.6666 62.1875 78.9062 62.4323C79.151 62.6719 79.2708 62.9636 79.2708 63.3073Z" fill="url(#paint84_linear_351_235)"></path> <path d="M143.005 10.8645C143.005 11.2083 142.885 11.5 142.641 11.7448C142.401 11.9843 142.104 12.1041 141.76 12.1041C141.417 12.1041 141.125 11.9843 140.885 11.7448C140.641 11.5 140.521 11.2083 140.521 10.8645C140.521 10.5208 140.641 10.2239 140.885 9.98433C141.125 9.73954 141.417 9.61975 141.76 9.61975C142.104 9.61975 142.401 9.73954 142.641 9.98433C142.885 10.2239 143.005 10.5208 143.005 10.8645Z" fill="url(#paint85_linear_351_235)"></path> <path d="M125.083 41.276C125.083 41.6198 124.964 41.9115 124.719 42.1562C124.474 42.3958 124.182 42.5208 123.839 42.5208C123.495 42.5208 123.203 42.3958 122.958 42.1562C122.714 41.9115 122.594 41.6198 122.594 41.276C122.594 40.9323 122.714 40.6406 122.958 40.3958C123.203 40.151 123.495 40.0312 123.839 40.0312C124.182 40.0312 124.474 40.151 124.719 40.3958C124.964 40.6406 125.083 40.9323 125.083 41.276Z" fill="url(#paint86_linear_351_235)"></path> <path d="M135.661 26.7135C135.661 27.0573 135.542 27.349 135.297 27.5938C135.057 27.8333 134.76 27.9583 134.417 27.9583C134.073 27.9583 133.781 27.8333 133.536 27.5938C133.297 27.349 133.172 27.0573 133.172 26.7135C133.172 26.3698 133.297 26.0729 133.536 25.8333C133.781 25.5885 134.073 25.4688 134.417 25.4688C134.76 25.4688 135.057 25.5885 135.297 25.8333C135.542 26.0729 135.661 26.3698 135.661 26.7135Z" fill="url(#paint87_linear_351_235)"></path> <path d="M153.031 42.9479C153.031 43.2917 152.911 43.5885 152.672 43.8281C152.427 44.0729 152.135 44.1927 151.792 44.1927C151.448 44.1927 151.151 44.0729 150.911 43.8281C150.667 43.5885 150.547 43.2917 150.547 42.9479C150.547 42.6042 150.667 42.3125 150.911 42.0677C151.151 41.8281 151.448 41.7031 151.792 41.7031C152.135 41.7031 152.427 41.8281 152.672 42.0677C152.911 42.3125 153.031 42.6042 153.031 42.9479Z" fill="url(#paint88_linear_351_235)"></path> <path d="M131.589 110.437C131.349 110.448 131.146 110.375 130.969 110.208C130.797 110.047 130.708 109.844 130.708 109.604C130.708 109.365 130.797 109.167 130.969 109C131.146 108.833 131.349 108.76 131.589 108.776C133.922 108.776 136.401 107.672 138.568 105.677C140.573 103.833 142.115 101.484 143.604 99.1979C144.359 98.0468 145.042 96.776 145.698 95.5521C146.198 94.6198 146.703 93.6771 147.255 92.7656C146.734 90.8646 146.437 88.9323 146.365 86.9635C146.318 85.5416 146.307 84.0833 146.292 82.6823C146.271 79.3698 146.245 75.9479 145.714 72.6875C145.354 70.5052 144.021 68.8073 142.224 68.2552C140.547 67.7291 138.776 68.2916 137.359 69.7864C134.677 72.6146 133.432 76.8073 132.333 80.5104C130.708 86.0104 129.953 91.4739 130.156 96.3229C130.161 96.5521 130.089 96.75 129.932 96.9166C129.781 97.0885 129.589 97.1771 129.359 97.1875C129.13 97.1927 128.927 97.1198 128.76 96.9687C128.594 96.8125 128.505 96.6198 128.495 96.3906C128.187 89.0312 127.339 81.7344 125.943 74.5C125.526 72.3489 124.932 69.9531 123.167 68.8281C121.161 67.5364 118.375 68.3646 115.677 69.4114C115.464 69.4948 115.255 69.4948 115.042 69.401C114.833 69.3125 114.687 69.1562 114.599 68.9427C114.516 68.7291 114.521 68.5208 114.615 68.3073C114.703 68.0989 114.854 67.9531 115.068 67.8698C118.187 66.6354 121.432 65.7291 124.068 67.4114C126.281 68.8229 127.062 71.4948 127.583 74.1719C128.323 78.0104 128.917 81.8906 129.354 85.7916C129.771 83.6041 130.276 81.6406 130.75 80.0312C131.901 76.151 133.203 71.7552 136.161 68.6354C137.995 66.7031 140.448 65.9635 142.724 66.6614C145.125 67.401 146.901 69.6041 147.365 72.4271C147.917 75.8125 147.943 79.3021 147.964 82.6771C147.964 84.0729 147.984 85.5156 148.031 86.9114C148.078 88.2448 148.234 89.5677 148.5 90.875C149.354 89.6771 150.375 88.6406 151.557 87.7656C153.245 86.5469 156.604 84.651 160.141 85.6719C163.682 86.6875 166.068 90.6875 165.318 94.4114C164.807 96.9219 162.859 99.1458 160.104 100.359C157.349 101.573 154.422 101.51 152.234 100.193C150.177 98.9635 148.844 96.9635 147.974 94.8646C147.714 95.3541 147.448 95.8489 147.167 96.3489C146.49 97.6094 145.792 98.9114 145 100.125C143.453 102.484 141.854 104.927 139.698 106.911C137.224 109.187 134.349 110.443 131.599 110.448L131.589 110.437ZM149.057 92.9844C149.844 95.4271 151.151 97.5885 153.083 98.75C154.807 99.7864 157.182 99.7969 159.427 98.8177C161.677 97.8385 163.276 96.0416 163.677 94.0625C164.255 91.2031 162.385 88.0156 159.677 87.25C157.583 86.6562 154.964 87.3281 152.521 89.1041C151.094 90.1406 150.016 91.4844 149.057 92.9844Z" fill="url(#paint89_linear_351_235)"></path> <defs> <linearGradient id="paint0_linear_351_235" x1="140" y1="-7.86323e-08" x2="144" y2="400" gradientUnits="userSpaceOnUse"> <stop offset="0.494792" stop-color="#329191"></stop> <stop offset="1" stop-color="white"></stop> </linearGradient> <linearGradient id="paint1_linear_351_235" x1="140" y1="-7.86323e-08" x2="144" y2="400" gradientUnits="userSpaceOnUse"> <stop offset="0.494792" stop-color="#329191"></stop> <stop offset="1" stop-color="white"></stop> </linearGradient> <linearGradient id="paint2_linear_351_235" x1="140" y1="-7.86323e-08" x2="144" y2="400" gradientUnits="userSpaceOnUse"> <stop offset="0.494792" stop-color="#329191"></stop> <stop offset="1" stop-color="white"></stop> </linearGradient> <linearGradient id="paint3_linear_351_235" x1="140" y1="-7.86323e-08" x2="144" y2="400" gradientUnits="userSpaceOnUse"> <stop offset="0.494792" stop-color="#329191"></stop> <stop offset="1" stop-color="white"></stop> </linearGradient> <linearGradient id="paint4_linear_351_235" x1="140" y1="-7.86323e-08" x2="144" y2="400" gradientUnits="userSpaceOnUse"> <stop offset="0.494792" stop-color="#329191"></stop> <stop offset="1" stop-color="white"></stop> </linearGradient> <linearGradient id="paint5_linear_351_235" x1="140" y1="-7.86323e-08" x2="144" y2="400" gradientUnits="userSpaceOnUse"> <stop offset="0.494792" stop-color="#329191"></stop> <stop offset="1" stop-color="white"></stop> </linearGradient> <linearGradient id="paint6_linear_351_235" x1="140" y1="-7.86323e-08" x2="144" y2="400" gradientUnits="userSpaceOnUse"> <stop offset="0.494792" stop-color="#329191"></stop> <stop offset="1" stop-color="white"></stop> </linearGradient> <linearGradient id="paint7_linear_351_235" x1="140" y1="-7.86323e-08" x2="144" y2="400" gradientUnits="userSpaceOnUse"> <stop offset="0.494792" stop-color="#329191"></stop> <stop offset="1" stop-color="white"></stop> </linearGradient> <linearGradient id="paint8_linear_351_235" x1="140" y1="-7.86323e-08" x2="144" y2="400" gradientUnits="userSpaceOnUse"> <stop offset="0.494792" stop-color="#329191"></stop> <stop offset="1" stop-color="white"></stop> </linearGradient> <linearGradient id="paint9_linear_351_235" x1="140" y1="-7.86323e-08" x2="144" y2="400" gradientUnits="userSpaceOnUse"> <stop offset="0.494792" stop-color="#329191"></stop> <stop offset="1" stop-color="white"></stop> </linearGradient> <linearGradient id="paint10_linear_351_235" x1="140" y1="-7.86323e-08" x2="144" y2="400" gradientUnits="userSpaceOnUse"> <stop offset="0.494792" stop-color="#329191"></stop> <stop offset="1" stop-color="white"></stop> </linearGradient> <linearGradient id="paint11_linear_351_235" x1="140" y1="-7.86323e-08" x2="144" y2="400" gradientUnits="userSpaceOnUse"> <stop offset="0.494792" stop-color="#329191"></stop> <stop offset="1" stop-color="white"></stop> </linearGradient> <linearGradient id="paint12_linear_351_235" x1="140" y1="-7.86323e-08" x2="144" y2="400" gradientUnits="userSpaceOnUse"> <stop offset="0.494792" stop-color="#329191"></stop> <stop offset="1" stop-color="white"></stop> </linearGradient> <linearGradient id="paint13_linear_351_235" x1="140" y1="-7.86323e-08" x2="144" y2="400" gradientUnits="userSpaceOnUse"> <stop offset="0.494792" stop-color="#329191"></stop> <stop offset="1" stop-color="white"></stop> </linearGradient> <linearGradient id="paint14_linear_351_235" x1="140" y1="-7.86323e-08" x2="144" y2="400" gradientUnits="userSpaceOnUse"> <stop offset="0.494792" stop-color="#329191"></stop> <stop offset="1" stop-color="white"></stop> </linearGradient> <linearGradient id="paint15_linear_351_235" x1="140" y1="-7.86323e-08" x2="144" y2="400" gradientUnits="userSpaceOnUse"> <stop offset="0.494792" stop-color="#329191"></stop> <stop offset="1" stop-color="white"></stop> </linearGradient> <linearGradient id="paint16_linear_351_235" x1="140" y1="-7.86323e-08" x2="144" y2="400" gradientUnits="userSpaceOnUse"> <stop offset="0.494792" stop-color="#329191"></stop> <stop offset="1" stop-color="white"></stop> </linearGradient> <linearGradient id="paint17_linear_351_235" x1="140" y1="-7.86323e-08" x2="144" y2="400" gradientUnits="userSpaceOnUse"> <stop offset="0.494792" stop-color="#329191"></stop> <stop offset="1" stop-color="white"></stop> </linearGradient> <linearGradient id="paint18_linear_351_235" x1="140" y1="-7.86323e-08" x2="144" y2="400" gradientUnits="userSpaceOnUse"> <stop offset="0.494792" stop-color="#329191"></stop> <stop offset="1" stop-color="white"></stop> </linearGradient> <linearGradient id="paint19_linear_351_235" x1="140" y1="-7.86323e-08" x2="144" y2="400" gradientUnits="userSpaceOnUse"> <stop offset="0.494792" stop-color="#329191"></stop> <stop offset="1" stop-color="white"></stop> </linearGradient> <linearGradient id="paint20_linear_351_235" x1="140" y1="-7.86323e-08" x2="144" y2="400" gradientUnits="userSpaceOnUse"> <stop offset="0.494792" stop-color="#329191"></stop> <stop offset="1" stop-color="white"></stop> </linearGradient> <linearGradient id="paint21_linear_351_235" x1="140" y1="-7.86323e-08" x2="144" y2="400" gradientUnits="userSpaceOnUse"> <stop offset="0.494792" stop-color="#329191"></stop> <stop offset="1" stop-color="white"></stop> </linearGradient> <linearGradient id="paint22_linear_351_235" x1="140" y1="-7.86323e-08" x2="144" y2="400" gradientUnits="userSpaceOnUse"> <stop offset="0.494792" stop-color="#329191"></stop> <stop offset="1" stop-color="white"></stop> </linearGradient> <linearGradient id="paint23_linear_351_235" x1="140" y1="-7.86323e-08" x2="144" y2="400" gradientUnits="userSpaceOnUse"> <stop offset="0.494792" stop-color="#329191"></stop> <stop offset="1" stop-color="white"></stop> </linearGradient> <linearGradient id="paint24_linear_351_235" x1="140" y1="-7.86323e-08" x2="144" y2="400" gradientUnits="userSpaceOnUse"> <stop offset="0.494792" stop-color="#329191"></stop> <stop offset="1" stop-color="white"></stop> </linearGradient> <linearGradient id="paint25_linear_351_235" x1="140" y1="-7.86323e-08" x2="144" y2="400" gradientUnits="userSpaceOnUse"> <stop offset="0.494792" stop-color="#329191"></stop> <stop offset="1" stop-color="white"></stop> </linearGradient> <linearGradient id="paint26_linear_351_235" x1="140" y1="-7.86323e-08" x2="144" y2="400" gradientUnits="userSpaceOnUse"> <stop offset="0.494792" stop-color="#329191"></stop> <stop offset="1" stop-color="white"></stop> </linearGradient> <linearGradient id="paint27_linear_351_235" x1="140" y1="-7.86323e-08" x2="144" y2="400" gradientUnits="userSpaceOnUse"> <stop offset="0.494792" stop-color="#329191"></stop> <stop offset="1" stop-color="white"></stop> </linearGradient> <linearGradient id="paint28_linear_351_235" x1="140" y1="-7.86323e-08" x2="144" y2="400" gradientUnits="userSpaceOnUse"> <stop offset="0.494792" stop-color="#329191"></stop> <stop offset="1" stop-color="white"></stop> </linearGradient> <linearGradient id="paint29_linear_351_235" x1="140" y1="-7.86323e-08" x2="144" y2="400" gradientUnits="userSpaceOnUse"> <stop offset="0.494792" stop-color="#329191"></stop> <stop offset="1" stop-color="white"></stop> </linearGradient> <linearGradient id="paint30_linear_351_235" x1="140" y1="-7.86323e-08" x2="144" y2="400" gradientUnits="userSpaceOnUse"> <stop offset="0.494792" stop-color="#329191"></stop> <stop offset="1" stop-color="white"></stop> </linearGradient> <linearGradient id="paint31_linear_351_235" x1="140" y1="-7.86323e-08" x2="144" y2="400" gradientUnits="userSpaceOnUse"> <stop offset="0.494792" stop-color="#329191"></stop> <stop offset="1" stop-color="white"></stop> </linearGradient> <linearGradient id="paint32_linear_351_235" x1="140" y1="-7.86323e-08" x2="144" y2="400" gradientUnits="userSpaceOnUse"> <stop offset="0.494792" stop-color="#329191"></stop> <stop offset="1" stop-color="white"></stop> </linearGradient> <linearGradient id="paint33_linear_351_235" x1="140" y1="-7.86323e-08" x2="144" y2="400" gradientUnits="userSpaceOnUse"> <stop offset="0.494792" stop-color="#329191"></stop> <stop offset="1" stop-color="white"></stop> </linearGradient> <linearGradient id="paint34_linear_351_235" x1="140" y1="-7.86323e-08" x2="144" y2="400" gradientUnits="userSpaceOnUse"> <stop offset="0.494792" stop-color="#329191"></stop> <stop offset="1" stop-color="white"></stop> </linearGradient> <linearGradient id="paint35_linear_351_235" x1="140" y1="-7.86323e-08" x2="144" y2="400" gradientUnits="userSpaceOnUse"> <stop offset="0.494792" stop-color="#329191"></stop> <stop offset="1" stop-color="white"></stop> </linearGradient> <linearGradient id="paint36_linear_351_235" x1="140" y1="-7.86323e-08" x2="144" y2="400" gradientUnits="userSpaceOnUse"> <stop offset="0.494792" stop-color="#329191"></stop> <stop offset="1" stop-color="white"></stop> </linearGradient> <linearGradient id="paint37_linear_351_235" x1="140" y1="-7.86323e-08" x2="144" y2="400" gradientUnits="userSpaceOnUse"> <stop offset="0.494792" stop-color="#329191"></stop> <stop offset="1" stop-color="white"></stop> </linearGradient> <linearGradient id="paint38_linear_351_235" x1="140" y1="-7.86323e-08" x2="144" y2="400" gradientUnits="userSpaceOnUse"> <stop offset="0.494792" stop-color="#329191"></stop> <stop offset="1" stop-color="white"></stop> </linearGradient> <linearGradient id="paint39_linear_351_235" x1="140" y1="-7.86323e-08" x2="144" y2="400" gradientUnits="userSpaceOnUse"> <stop offset="0.494792" stop-color="#329191"></stop> <stop offset="1" stop-color="white"></stop> </linearGradient> <linearGradient id="paint40_linear_351_235" x1="140" y1="-7.86323e-08" x2="144" y2="400" gradientUnits="userSpaceOnUse"> <stop offset="0.494792" stop-color="#329191"></stop> <stop offset="1" stop-color="white"></stop> </linearGradient> <linearGradient id="paint41_linear_351_235" x1="140" y1="-7.86323e-08" x2="144" y2="400" gradientUnits="userSpaceOnUse"> <stop offset="0.494792" stop-color="#329191"></stop> <stop offset="1" stop-color="white"></stop> </linearGradient> <linearGradient id="paint42_linear_351_235" x1="140" y1="-7.86323e-08" x2="144" y2="400" gradientUnits="userSpaceOnUse"> <stop offset="0.494792" stop-color="#329191"></stop> <stop offset="1" stop-color="white"></stop> </linearGradient> <linearGradient id="paint43_linear_351_235" x1="140" y1="-7.86323e-08" x2="144" y2="400" gradientUnits="userSpaceOnUse"> <stop offset="0.494792" stop-color="#329191"></stop> <stop offset="1" stop-color="white"></stop> </linearGradient> <linearGradient id="paint44_linear_351_235" x1="140" y1="-7.86323e-08" x2="144" y2="400" gradientUnits="userSpaceOnUse"> <stop offset="0.494792" stop-color="#329191"></stop> <stop offset="1" stop-color="white"></stop> </linearGradient> <linearGradient id="paint45_linear_351_235" x1="140" y1="-7.86323e-08" x2="144" y2="400" gradientUnits="userSpaceOnUse"> <stop offset="0.494792" stop-color="#329191"></stop> <stop offset="1" stop-color="white"></stop> </linearGradient> <linearGradient id="paint46_linear_351_235" x1="140" y1="-7.86323e-08" x2="144" y2="400" gradientUnits="userSpaceOnUse"> <stop offset="0.494792" stop-color="#329191"></stop> <stop offset="1" stop-color="white"></stop> </linearGradient> <linearGradient id="paint47_linear_351_235" x1="140" y1="-7.86323e-08" x2="144" y2="400" gradientUnits="userSpaceOnUse"> <stop offset="0.494792" stop-color="#329191"></stop> <stop offset="1" stop-color="white"></stop> </linearGradient> <linearGradient id="paint48_linear_351_235" x1="140" y1="-7.86323e-08" x2="144" y2="400" gradientUnits="userSpaceOnUse"> <stop offset="0.494792" stop-color="#329191"></stop> <stop offset="1" stop-color="white"></stop> </linearGradient> <linearGradient id="paint49_linear_351_235" x1="140" y1="-7.86323e-08" x2="144" y2="400" gradientUnits="userSpaceOnUse"> <stop offset="0.494792" stop-color="#329191"></stop> <stop offset="1" stop-color="white"></stop> </linearGradient> <linearGradient id="paint50_linear_351_235" x1="140" y1="-7.86323e-08" x2="144" y2="400" gradientUnits="userSpaceOnUse"> <stop offset="0.494792" stop-color="#329191"></stop> <stop offset="1" stop-color="white"></stop> </linearGradient> <linearGradient id="paint51_linear_351_235" x1="140" y1="-7.86323e-08" x2="144" y2="400" gradientUnits="userSpaceOnUse"> <stop offset="0.494792" stop-color="#329191"></stop> <stop offset="1" stop-color="white"></stop> </linearGradient> <linearGradient id="paint52_linear_351_235" x1="140" y1="-7.86323e-08" x2="144" y2="400" gradientUnits="userSpaceOnUse"> <stop offset="0.494792" stop-color="#329191"></stop> <stop offset="1" stop-color="white"></stop> </linearGradient> <linearGradient id="paint53_linear_351_235" x1="140" y1="-7.86323e-08" x2="144" y2="400" gradientUnits="userSpaceOnUse"> <stop offset="0.494792" stop-color="#329191"></stop> <stop offset="1" stop-color="white"></stop> </linearGradient> <linearGradient id="paint54_linear_351_235" x1="140" y1="-7.86323e-08" x2="144" y2="400" gradientUnits="userSpaceOnUse"> <stop offset="0.494792" stop-color="#329191"></stop> <stop offset="1" stop-color="white"></stop> </linearGradient> <linearGradient id="paint55_linear_351_235" x1="140" y1="-7.86323e-08" x2="144" y2="400" gradientUnits="userSpaceOnUse"> <stop offset="0.494792" stop-color="#329191"></stop> <stop offset="1" stop-color="white"></stop> </linearGradient> <linearGradient id="paint56_linear_351_235" x1="140" y1="-7.86323e-08" x2="144" y2="400" gradientUnits="userSpaceOnUse"> <stop offset="0.494792" stop-color="#329191"></stop> <stop offset="1" stop-color="white"></stop> </linearGradient> <linearGradient id="paint57_linear_351_235" x1="140" y1="-7.86323e-08" x2="144" y2="400" gradientUnits="userSpaceOnUse"> <stop offset="0.494792" stop-color="#329191"></stop> <stop offset="1" stop-color="white"></stop> </linearGradient> <linearGradient id="paint58_linear_351_235" x1="140" y1="-7.86323e-08" x2="144" y2="400" gradientUnits="userSpaceOnUse"> <stop offset="0.494792" stop-color="#329191"></stop> <stop offset="1" stop-color="white"></stop> </linearGradient> <linearGradient id="paint59_linear_351_235" x1="140" y1="-7.86323e-08" x2="144" y2="400" gradientUnits="userSpaceOnUse"> <stop offset="0.494792" stop-color="#329191"></stop> <stop offset="1" stop-color="white"></stop> </linearGradient> <linearGradient id="paint60_linear_351_235" x1="140" y1="-7.86323e-08" x2="144" y2="400" gradientUnits="userSpaceOnUse"> <stop offset="0.494792" stop-color="#329191"></stop> <stop offset="1" stop-color="white"></stop> </linearGradient> <linearGradient id="paint61_linear_351_235" x1="140" y1="-7.86323e-08" x2="144" y2="400" gradientUnits="userSpaceOnUse"> <stop offset="0.494792" stop-color="#329191"></stop> <stop offset="1" stop-color="white"></stop> </linearGradient> <linearGradient id="paint62_linear_351_235" x1="140" y1="-7.86323e-08" x2="144" y2="400" gradientUnits="userSpaceOnUse"> <stop offset="0.494792" stop-color="#329191"></stop> <stop offset="1" stop-color="white"></stop> </linearGradient> <linearGradient id="paint63_linear_351_235" x1="140" y1="-7.86323e-08" x2="144" y2="400" gradientUnits="userSpaceOnUse"> <stop offset="0.494792" stop-color="#329191"></stop> <stop offset="1" stop-color="white"></stop> </linearGradient> <linearGradient id="paint64_linear_351_235" x1="140" y1="-7.86323e-08" x2="144" y2="400" gradientUnits="userSpaceOnUse"> <stop offset="0.494792" stop-color="#329191"></stop> <stop offset="1" stop-color="white"></stop> </linearGradient> <linearGradient id="paint65_linear_351_235" x1="140" y1="-7.86323e-08" x2="144" y2="400" gradientUnits="userSpaceOnUse"> <stop offset="0.494792" stop-color="#329191"></stop> <stop offset="1" stop-color="white"></stop> </linearGradient> <linearGradient id="paint66_linear_351_235" x1="140" y1="-7.86323e-08" x2="144" y2="400" gradientUnits="userSpaceOnUse"> <stop offset="0.494792" stop-color="#329191"></stop> <stop offset="1" stop-color="white"></stop> </linearGradient> <linearGradient id="paint67_linear_351_235" x1="140" y1="-7.86323e-08" x2="144" y2="400" gradientUnits="userSpaceOnUse"> <stop offset="0.494792" stop-color="#329191"></stop> <stop offset="1" stop-color="white"></stop> </linearGradient> <linearGradient id="paint68_linear_351_235" x1="140" y1="-7.86323e-08" x2="144" y2="400" gradientUnits="userSpaceOnUse"> <stop offset="0.494792" stop-color="#329191"></stop> <stop offset="1" stop-color="white"></stop> </linearGradient> <linearGradient id="paint69_linear_351_235" x1="140" y1="-7.86323e-08" x2="144" y2="400" gradientUnits="userSpaceOnUse"> <stop offset="0.494792" stop-color="#329191"></stop> <stop offset="1" stop-color="white"></stop> </linearGradient> <linearGradient id="paint70_linear_351_235" x1="140" y1="-7.86323e-08" x2="144" y2="400" gradientUnits="userSpaceOnUse"> <stop offset="0.494792" stop-color="#329191"></stop> <stop offset="1" stop-color="white"></stop> </linearGradient> <linearGradient id="paint71_linear_351_235" x1="140" y1="-7.86323e-08" x2="144" y2="400" gradientUnits="userSpaceOnUse"> <stop offset="0.494792" stop-color="#329191"></stop> <stop offset="1" stop-color="white"></stop> </linearGradient> <linearGradient id="paint72_linear_351_235" x1="140" y1="-7.86323e-08" x2="144" y2="400" gradientUnits="userSpaceOnUse"> <stop offset="0.494792" stop-color="#329191"></stop> <stop offset="1" stop-color="white"></stop> </linearGradient> <linearGradient id="paint73_linear_351_235" x1="140" y1="-7.86323e-08" x2="144" y2="400" gradientUnits="userSpaceOnUse"> <stop offset="0.494792" stop-color="#329191"></stop> <stop offset="1" stop-color="white"></stop> </linearGradient> <linearGradient id="paint74_linear_351_235" x1="140" y1="-7.86323e-08" x2="144" y2="400" gradientUnits="userSpaceOnUse"> <stop offset="0.494792" stop-color="#329191"></stop> <stop offset="1" stop-color="white"></stop> </linearGradient> <linearGradient id="paint75_linear_351_235" x1="140" y1="-7.86323e-08" x2="144" y2="400" gradientUnits="userSpaceOnUse"> <stop offset="0.494792" stop-color="#329191"></stop> <stop offset="1" stop-color="white"></stop> </linearGradient> <linearGradient id="paint76_linear_351_235" x1="140" y1="-7.86323e-08" x2="144" y2="400" gradientUnits="userSpaceOnUse"> <stop offset="0.494792" stop-color="#329191"></stop> <stop offset="1" stop-color="white"></stop> </linearGradient> <linearGradient id="paint77_linear_351_235" x1="140" y1="-7.86323e-08" x2="144" y2="400" gradientUnits="userSpaceOnUse"> <stop offset="0.494792" stop-color="#329191"></stop> <stop offset="1" stop-color="white"></stop> </linearGradient> <linearGradient id="paint78_linear_351_235" x1="140" y1="-7.86323e-08" x2="144" y2="400" gradientUnits="userSpaceOnUse"> <stop offset="0.494792" stop-color="#329191"></stop> <stop offset="1" stop-color="white"></stop> </linearGradient> <linearGradient id="paint79_linear_351_235" x1="140" y1="-7.86323e-08" x2="144" y2="400" gradientUnits="userSpaceOnUse"> <stop offset="0.494792" stop-color="#329191"></stop> <stop offset="1" stop-color="white"></stop> </linearGradient> <linearGradient id="paint80_linear_351_235" x1="140" y1="-7.86323e-08" x2="144" y2="400" gradientUnits="userSpaceOnUse"> <stop offset="0.494792" stop-color="#329191"></stop> <stop offset="1" stop-color="white"></stop> </linearGradient> <linearGradient id="paint81_linear_351_235" x1="140" y1="-7.86323e-08" x2="144" y2="400" gradientUnits="userSpaceOnUse"> <stop offset="0.494792" stop-color="#329191"></stop> <stop offset="1" stop-color="white"></stop> </linearGradient> <linearGradient id="paint82_linear_351_235" x1="140" y1="-7.86323e-08" x2="144" y2="400" gradientUnits="userSpaceOnUse"> <stop offset="0.494792" stop-color="#329191"></stop> <stop offset="1" stop-color="white"></stop> </linearGradient> <linearGradient id="paint83_linear_351_235" x1="140" y1="-7.86323e-08" x2="144" y2="400" gradientUnits="userSpaceOnUse"> <stop offset="0.494792" stop-color="#329191"></stop> <stop offset="1" stop-color="white"></stop> </linearGradient> <linearGradient id="paint84_linear_351_235" x1="140" y1="-7.86323e-08" x2="144" y2="400" gradientUnits="userSpaceOnUse"> <stop offset="0.494792" stop-color="#329191"></stop> <stop offset="1" stop-color="white"></stop> </linearGradient> <linearGradient id="paint85_linear_351_235" x1="140" y1="-7.86323e-08" x2="144" y2="400" gradientUnits="userSpaceOnUse"> <stop offset="0.494792" stop-color="#329191"></stop> <stop offset="1" stop-color="white"></stop> </linearGradient> <linearGradient id="paint86_linear_351_235" x1="140" y1="-7.86323e-08" x2="144" y2="400" gradientUnits="userSpaceOnUse"> <stop offset="0.494792" stop-color="#329191"></stop> <stop offset="1" stop-color="white"></stop> </linearGradient> <linearGradient id="paint87_linear_351_235" x1="140" y1="-7.86323e-08" x2="144" y2="400" gradientUnits="userSpaceOnUse"> <stop offset="0.494792" stop-color="#329191"></stop> <stop offset="1" stop-color="white"></stop> </linearGradient> <linearGradient id="paint88_linear_351_235" x1="140" y1="-7.86323e-08" x2="144" y2="400" gradientUnits="userSpaceOnUse"> <stop offset="0.494792" stop-color="#329191"></stop> <stop offset="1" stop-color="white"></stop> </linearGradient> <linearGradient id="paint89_linear_351_235" x1="140" y1="-7.86323e-08" x2="144" y2="400" gradientUnits="userSpaceOnUse"> <stop offset="0.494792" stop-color="#329191"></stop> <stop offset="1" stop-color="white"></stop> </linearGradient> </defs> </svg> 