<?xml version="1.0" encoding="UTF-8"?> <svg xmlns="http://www.w3.org/2000/svg" width="280" height="401" viewBox="0 0 280 401" fill="none"> <path d="M87.8177 189.13C88.1302 188.589 88.4583 188.036 88.8177 187.49C88.4531 188.016 88.1198 188.568 87.8177 189.13ZM104.823 272.182C103.609 270.406 102.349 268.563 101.172 266.719C97.7031 261.328 94.7031 255.682 92.1719 249.792C93.1562 252.786 94.3958 255.672 95.8906 258.453C96.6771 259.854 97.4635 261.333 98.2135 262.755C101.182 268.365 104.036 273.74 107.542 276.224C106.641 274.854 105.724 273.516 104.823 272.182Z" fill="url(#paint0_linear_351_318)"></path> <path d="M177.896 214.802C176.885 213.714 175.635 213.172 174.146 213.182H174.063C173.193 213.208 172.349 213.38 171.536 213.703C171.089 213.88 170.651 214.073 170.224 214.297C168.146 215.396 166.188 217.094 164.693 218.589C164.281 211.396 161.552 200.536 151.708 187.167C148.385 182.667 143.146 179.115 136.88 176.839C134.646 176.031 132.365 175.401 130.031 174.948H130.005C125.042 173.99 120.042 173.75 115.01 174.234C108.984 174.813 103.531 176.37 99.0104 178.719C94.9115 180.849 91.5677 183.635 89.2083 186.948C89.1875 186.969 89.1719 186.995 89.1563 187.021C89.0469 187.167 88.9479 187.313 88.849 187.469C88.849 187.469 88.849 187.469 88.849 187.484C88.4896 188.031 88.1667 188.589 87.8542 189.13C87.8386 189.151 87.8229 189.177 87.8073 189.203C87.8125 189.214 87.8125 189.219 87.8073 189.224L87.6771 189.469C87.5573 189.693 87.4479 189.911 87.3386 190.135C86.2031 192.526 85.7448 195.24 85.6354 198.036C85.5156 201.234 85.8542 204.557 86.1615 207.656C86.3646 209.667 86.5573 211.568 86.625 213.333C86.7344 215.724 86.7188 218.115 86.5833 220.505C86.4011 222.818 86.5261 225.115 86.9479 227.396C87.6042 231.286 89.224 241.016 92.2083 249.776C94.7396 255.667 97.7396 261.312 101.208 266.703C102.385 268.536 103.646 270.391 104.859 272.167C105.766 273.5 106.677 274.839 107.578 276.208C108.536 276.922 109.604 277.375 110.781 277.568C111.333 277.656 111.875 277.719 112.411 277.766C112.88 277.818 113.354 277.849 113.818 277.87C114.286 277.885 114.729 277.901 115.182 277.901C124.339 277.901 132.391 273.552 142.234 268.229C154.391 261.661 159.839 246.224 160.443 241.339C160.443 241.313 160.443 241.286 160.443 241.266C161.036 241.953 161.734 242.505 162.542 242.922C162.99 243.151 163.458 243.318 163.948 243.427C164.432 243.536 164.917 243.589 165.411 243.589H165.464C167.99 243.573 170.755 240.26 172.896 236.917C173.37 236.161 173.823 235.406 174.224 234.688C175.083 233.208 175.844 231.688 176.5 230.109C176.859 229.203 177.266 228.313 177.724 227.448C179.505 223.901 181.964 219.016 177.896 214.802ZM176.448 226.833C175.958 227.75 175.526 228.693 175.156 229.667C174.234 232.255 168.75 242.177 165.438 242.198H165.396C164.75 242.203 164.13 242.083 163.531 241.839C162.411 241.385 161.432 240.484 160.609 239.167C160.438 238.896 160.198 238.786 159.885 238.839C159.568 238.896 159.375 239.083 159.313 239.401C159.219 239.901 159.099 240.562 159.016 241.193C158.427 245.88 153.203 260.703 141.531 267.01C130.823 272.802 122.859 277.109 113.333 276.458H113.323C113.255 276.458 113.198 276.443 113.146 276.443H113.13C112.422 276.391 111.708 276.302 110.979 276.198C106.609 275.531 103.146 269.005 99.4844 262.099C98.7292 260.661 97.9427 259.193 97.1458 257.771C91.8438 248.255 89.1979 232.401 88.3333 227.182C87.9271 225.005 87.8073 222.813 87.9844 220.604C88.1198 218.172 88.1354 215.74 88.0261 213.302C87.9583 211.49 87.7656 209.568 87.5521 207.542C86.9792 201.906 86.3281 195.526 88.599 190.76C88.6927 190.557 88.7969 190.354 88.9063 190.156C88.9219 190.12 88.9427 190.083 88.9636 190.047C88.9688 190.026 88.9792 190.005 88.9948 189.99C89.0052 189.964 89.0261 189.937 89.0365 189.906L89.0625 189.849C89.3594 189.302 89.6823 188.771 90.0313 188.26C90.1302 188.109 90.2448 187.937 90.3698 187.766C90.375 187.755 90.3802 187.74 90.3906 187.729C90.3958 187.719 90.401 187.708 90.4063 187.698C95.125 181.13 104.094 176.698 115.151 175.651C116.813 175.49 118.464 175.406 120.099 175.406C132.969 175.406 144.833 180.203 150.589 188.021C161.026 202.177 163.297 213.396 163.359 220.307C163.365 220.625 163.516 220.844 163.813 220.964C164.115 221.078 164.375 221.016 164.589 220.781C165.849 219.406 168.552 216.672 171.313 215.354C171.365 215.333 171.417 215.312 171.464 215.281C172.297 214.87 173.182 214.641 174.109 214.599H174.161C175.255 214.583 176.167 214.979 176.906 215.786C180.25 219.276 178.224 223.292 176.448 226.833Z" fill="url(#paint1_linear_351_318)"></path> <path d="M113.302 276.453C113.24 276.448 113.182 276.448 113.12 276.453C113.167 276.448 113.219 276.448 113.266 276.453C113.276 276.453 113.292 276.453 113.302 276.453Z" fill="url(#paint2_linear_351_318)"></path> <path d="M266.927 400H265.505C265.453 399.354 265.401 398.719 265.344 398.089C263.708 378.74 260.568 364.297 257.974 355C254.307 341.828 249.578 331.328 245.328 326.911C241.245 322.667 229.755 318.099 220.198 314.599C219.083 314.193 217.969 313.786 216.818 313.38C216.781 313.365 216.745 313.365 216.703 313.354C216.365 313.229 216.036 313.109 215.703 312.974C215.615 312.948 215.526 312.911 215.443 312.875C212.823 311.943 210.146 311 207.458 310.057C202.156 308.187 196.667 306.26 191.724 304.396C191.682 304.38 191.641 304.359 191.599 304.339C187.51 302.807 184.12 301.427 181.26 300.12C181.214 300.109 181.172 300.089 181.13 300.062C177.589 298.453 174.922 297.005 172.974 295.656C165.401 290.328 161.896 272.609 162.531 242.938C162.979 243.167 163.448 243.333 163.937 243.443C163.37 271.922 166.766 289.562 173.786 294.495C175.771 295.812 177.849 296.979 180.01 297.979C180.568 298.24 181.146 298.516 181.75 298.797C181.828 298.839 181.906 298.875 181.99 298.906C184.391 299.99 187.167 301.135 190.432 302.385C191.01 302.604 191.604 302.833 192.214 303.057C192.26 303.073 192.302 303.094 192.344 303.12C192.385 303.13 192.432 303.151 192.469 303.177C197.271 304.974 202.578 306.844 207.724 308.646L207.922 308.714C210.604 309.661 213.297 310.604 215.932 311.557C216.344 311.714 216.75 311.865 217.167 312.005C217.583 312.146 217.974 312.286 218.37 312.438L220.687 313.271C220.75 313.297 220.812 313.312 220.875 313.339C231.115 317.109 242.115 321.526 246.344 325.911C253.094 332.932 263.391 357.474 266.776 398.073C266.818 398.719 266.88 399.354 266.927 400Z" fill="url(#paint3_linear_351_318)"></path> <path d="M125.37 253.922C125.297 253.531 125.156 253.167 124.943 252.828C123.448 250.172 120.583 247.906 116.203 245.896C114.948 245.323 112.552 244.474 110.729 245.292C110.552 245.375 110.375 245.474 110.208 245.578C110.016 245.708 109.802 245.807 109.578 245.865C109.281 245.865 108.995 245.802 108.729 245.677C108.552 245.62 108.37 245.557 108.188 245.51C107.911 245.438 107.625 245.401 107.339 245.391H107.297C105.594 245.391 104.214 246.641 103.318 247.578C101.708 249.276 99.6979 253.297 101.438 255.313C101.484 255.37 101.542 255.422 101.599 255.474C101.974 255.807 102.406 256.005 102.906 256.062C103.109 256.104 103.318 256.12 103.526 256.115C104.307 256.12 105.042 255.927 105.724 255.542L105.781 255.516C106.224 255.208 106.51 254.792 106.635 254.266C106.635 254.266 106.635 254.255 106.635 254.25C106.682 254.109 106.734 253.974 106.797 253.844C107.026 253.401 107.365 253.073 107.818 252.859C108.292 252.703 108.781 252.635 109.281 252.656H109.807C111.448 252.573 113.083 252.578 114.724 252.672C116.052 252.771 117.292 253.156 118.63 253.583C119.031 253.708 119.422 253.865 119.797 254.052C120.349 254.323 120.885 254.63 121.406 254.969C121.646 255.109 121.891 255.229 122.151 255.339C122.542 255.5 122.948 255.615 123.365 255.682C123.875 255.792 124.359 255.719 124.818 255.464C124.917 255.401 125.005 255.318 125.078 255.224C125.385 254.839 125.484 254.406 125.37 253.922ZM122.344 253.88L122.13 253.766C121.156 253.109 120.115 252.594 119 252.214C117.62 251.781 116.313 251.375 114.807 251.255C113.12 251.13 111.406 251.188 109.75 251.224H109.245C108.568 251.203 107.911 251.307 107.271 251.536C106.271 251.995 105.609 252.75 105.292 253.802C105.25 253.911 105.224 253.995 105.193 254.063C105.161 254.156 105.104 254.234 105.021 254.292C104.391 254.688 103.214 254.818 102.661 254.5C102.604 254.469 102.547 254.422 102.505 254.37C101.49 253.198 102.917 250.021 104.339 248.536C105.052 247.786 106.135 246.792 107.297 246.792H107.323C107.495 246.792 107.661 246.818 107.823 246.865C107.974 246.901 108.115 246.948 108.26 247C108.74 247.214 109.25 247.302 109.776 247.26C110.188 247.182 110.568 247.026 110.917 246.792C111.042 246.714 111.177 246.646 111.313 246.583C112.255 246.151 113.87 246.375 115.609 247.177C119.656 249.036 122.38 251.161 123.708 253.516C123.781 253.641 123.849 253.771 123.901 253.906C123.932 253.979 123.958 254.057 123.969 254.135C123.974 254.188 123.974 254.24 123.969 254.286C123.703 254.375 122.891 254.161 122.333 253.88H122.344Z" fill="url(#paint4_linear_351_318)"></path> <path d="M121.375 254.964C120.859 254.625 120.323 254.318 119.766 254.047C119.437 254.047 119.104 254.047 118.776 254.047C117.573 253.99 116.375 254.021 115.177 254.13L114.573 254.198C112.266 254.458 109.875 254.745 107.573 254.422C107.323 254.391 107.073 254.344 106.833 254.297L106.62 254.26C106.62 254.26 106.62 254.276 106.62 254.281C106.495 254.802 106.208 255.219 105.766 255.531L105.708 255.557C106.005 255.594 106.297 255.646 106.599 255.693C106.865 255.74 107.125 255.786 107.375 255.823C109.859 256.172 112.349 255.885 114.745 255.604L115.344 255.536C116.479 255.432 117.615 255.406 118.75 255.458C119.458 255.458 120.198 255.49 120.932 255.458C121.078 255.458 121.328 255.422 121.625 255.385C121.74 255.385 121.917 255.344 122.13 255.333C121.87 255.224 121.62 255.104 121.375 254.964ZM124.781 255.458C124.328 255.714 123.844 255.786 123.333 255.677C122.641 256.536 121.24 257.25 120.526 257.604C119.396 258.141 118.234 258.615 117.047 259.026L116.786 259.115C114.427 259.969 112.573 260.349 110.76 260.349H110.745C106.354 260.349 103.854 259.344 102.891 257.177C102.698 256.75 102.672 256.417 102.807 256.182C102.833 256.141 102.859 256.104 102.891 256.063C102.391 256.005 101.953 255.807 101.578 255.474C101.318 255.927 101.109 256.682 101.594 257.755C103.37 261.719 108.792 261.766 110.703 261.766H110.776C112.755 261.766 114.766 261.359 117.271 260.458L117.547 260.359C118.786 259.932 119.995 259.438 121.177 258.875C122.677 258.125 124.151 257.271 124.828 256.026C124.969 255.781 125.047 255.521 125.068 255.24C124.99 255.328 124.896 255.401 124.786 255.458H124.781Z" fill="url(#paint5_linear_351_318)"></path> <path d="M220.88 313.344L220.688 313.276L218.375 312.438C216.177 309.698 213.807 307.042 211.5 304.464C205.979 298.281 200.266 291.891 196.792 284.214C189.911 268.979 192.875 250.797 195.26 236.187C197.49 222.427 199.234 209.078 196.094 196.974C196.49 196.625 196.88 196.292 197.292 195.995C200.724 208.521 198.943 222.266 196.641 236.417C194.167 251.604 191.354 268.792 198.063 283.635C201.448 291.12 207.083 297.422 212.536 303.521C215.37 306.672 218.276 309.927 220.88 313.344Z" fill="url(#paint6_linear_351_318)"></path> <path d="M80.9792 178.375L80.8646 178.552C80.9011 178.495 80.9375 178.438 80.9844 178.375C81.0938 178.229 81.1979 178.078 81.3021 177.932L80.9792 178.375ZM83.5313 255.958C81.8698 252.552 80.1615 249.047 78.7084 245.573C73.7292 233.688 71.1511 221.474 71.2813 210.271C71.2969 208.859 71.349 207.479 71.4479 206.104C71.3438 207.479 71.2865 208.87 71.2761 210.276C71.2709 210.484 71.1927 210.661 71.0313 210.802C70.6823 211.104 70.3281 211.417 69.9844 211.729L69.8698 211.833C69.9844 222.802 72.5834 234.62 77.4063 246.115C78.8802 249.635 80.5938 253.161 82.2604 256.578C86.974 266.271 91.8542 276.286 91.5469 286.964C91.4375 289.781 91.0469 292.557 90.375 295.297L90.8542 295.229C91.2031 295.182 91.5417 295.13 91.875 295.083C92.4896 292.427 92.8542 289.734 92.9636 287.005C93.2761 275.99 88.3177 265.813 83.5313 255.969V255.958ZM100.75 161.203L100.651 161.24C100.682 161.24 100.724 161.219 100.755 161.214L100.75 161.203Z" fill="url(#paint7_linear_351_318)"></path> <path d="M269.474 201.062C269.406 199.411 268.932 198.323 268.01 197.734C267.151 197.193 266.141 197.271 265.453 197.375C262.125 197.901 259.474 199.953 256.911 201.937C253.813 204.323 250.875 206.583 246.927 206.26C245.901 206.172 245.13 205.901 244.63 205.453C243.984 204.844 243.703 203.88 243.427 202.76C241.125 193.391 239.141 185.302 233.474 176.62C231.052 172.88 228.198 169.505 224.917 166.495C221.63 163.479 218.026 160.927 214.089 158.833C207.802 155.542 201.208 153.859 194.969 153.859C191.599 153.839 188.318 154.359 185.12 155.427C180.885 156.87 176.698 159.719 173.625 163.24C173.464 163.417 173.307 163.609 173.141 163.807C172.854 164.161 172.557 164.536 172.271 164.927C171 166.651 170.036 168.526 169.375 170.557C169.401 170.635 169.417 170.714 169.417 170.797C169.417 171.01 169.333 171.187 169.172 171.333C169.172 171.333 169.172 171.333 169.151 171.333C168.745 172.885 168.589 174.469 168.693 176.073C168.755 177.068 168.943 179.37 169.396 182.219C169.568 183.302 169.786 184.469 170.036 185.677C171.214 191.109 173.349 197.286 177.193 200.328C177.193 200.328 177.214 200.328 177.219 200.354C177.844 200.833 178.505 201.25 179.208 201.604C180.911 202.427 182.703 202.854 184.594 202.875C186.484 202.896 188.292 202.51 190.01 201.724C190.438 201.531 190.844 201.307 191.24 201.057L191.344 200.99C192.599 200.12 193.771 199.151 194.87 198.083C195.281 197.698 195.693 197.328 196.109 196.953C196.526 196.583 196.896 196.271 197.307 195.974C198.656 194.953 200.052 194.234 201.677 194.229C204.896 194.229 207.391 197.12 209.594 200.25L217.526 211.469C223.797 220.333 230.922 228.495 240.578 228.495C240.755 228.495 240.932 228.495 241.099 228.495C245.635 228.354 249.823 226.234 252.974 224.411C258.083 221.443 269.922 213.214 269.474 201.062ZM252.266 223.193C249.266 224.937 245.281 226.958 241.062 227.099C231.781 227.385 224.833 219.37 218.677 210.667L210.76 199.437C208.328 196 205.547 192.818 201.682 192.818C199.5 192.823 197.714 193.833 196.094 195.141C196.063 195.161 196.031 195.187 196.005 195.219C195.281 195.792 194.589 196.432 193.906 197.052C192.812 198.057 191.677 199.104 190.479 199.865C186.833 202.182 181.766 201.964 178.307 199.401C178.307 199.401 178.297 199.401 178.286 199.401L178.135 199.286L178.104 199.271C178.104 199.271 178.078 199.245 178.068 199.245C174.807 196.656 172.651 191.234 171.396 185.391C171.396 185.37 171.396 185.354 171.396 185.339C171.375 185.26 171.354 185.187 171.344 185.109C170.719 182.104 170.302 179.073 170.104 176.01C169.552 167.568 177.703 159.453 185.594 156.766C193.88 153.943 204.031 155.161 213.443 160.099C220.953 164.026 227.474 170.026 232.302 177.411C237.844 185.885 239.802 193.865 242.073 203.109C242.318 204.141 242.672 205.557 243.688 206.516C244.438 207.198 245.464 207.583 246.833 207.698C251.354 208.073 254.625 205.531 257.802 203.089C260.339 201.12 262.734 199.276 265.698 198.807C266.422 198.693 266.943 198.74 267.286 198.958C267.776 199.276 268.036 199.984 268.073 201.141C268.479 212.505 257.156 220.349 252.266 223.193Z" fill="url(#paint8_linear_351_318)"></path> <path d="M169.375 170.557C169.302 170.823 169.224 171.083 169.151 171.344C169.151 171.344 169.151 171.344 169.172 171.344C169.333 171.203 169.417 171.021 169.417 170.807C169.417 170.724 169.401 170.641 169.375 170.557Z" fill="url(#paint9_linear_351_318)"></path> <path d="M102.057 160.651C100.391 157.276 93.9375 157.745 90.8281 157.974H90.7396C85.6458 158.344 81.2292 159.656 77.2396 162C74.9063 163.375 72.7083 164.937 70.6458 166.687C68.5833 168.437 66.6875 170.349 64.9531 172.427C63.2188 174.505 61.6719 176.714 60.3177 179.057C58.9636 181.396 57.8177 183.839 56.8802 186.375C56.4427 187.557 56.0313 188.802 55.6302 190.005C53.724 195.724 51.7604 201.635 46.6823 204.151C41.6458 206.646 35.7969 204.672 30.1302 202.755C28.7604 202.281 27.349 201.797 25.974 201.396C23.5781 200.667 21.8073 200.87 20.7135 201.99C18.7031 204.083 20.4531 207.203 22.5625 209.229C29.6042 216.042 38.0625 222.911 47.8958 222.911C48.4636 222.911 49.0365 222.891 49.6094 222.844C57.3854 222.203 64.0156 217.104 69.4531 212.208L69.8698 211.839C69.8698 211.312 69.8698 210.792 69.8698 210.266C69.8698 210.073 69.8698 209.875 69.8698 209.677C69.8698 209.766 69.8698 209.854 69.8698 209.943C69.6094 210.182 69.3229 210.432 69.0521 210.672L68.526 211.151C63.2448 215.896 56.8594 220.823 49.5052 221.432C39.5104 222.245 30.7813 215.208 23.5625 208.208C22.6771 207.401 21.9948 206.448 21.5052 205.354C20.8906 203.828 21.5156 203.182 21.7188 202.974C22.1094 202.578 22.6823 202.375 23.4375 202.375C24.1667 202.396 24.8802 202.526 25.5729 202.76C26.9271 203.156 28.3281 203.625 29.6875 204.089C35.6198 206.104 41.7552 208.182 47.3125 205.422C52.9219 202.646 54.9844 196.453 56.974 190.458C57.375 189.266 57.7865 188.031 58.2136 186.87C60.0677 181.922 62.6875 177.422 66.0729 173.37C69.4635 169.312 73.4219 165.932 77.9583 163.229C81.7604 160.995 85.974 159.74 90.8438 159.391H90.9323C93.2708 159.219 99.4219 158.766 100.755 161.203C101.005 161.141 101.266 161.078 101.516 161.021C101.76 160.964 101.948 160.932 102.161 160.891C102.125 160.812 102.089 160.729 102.057 160.651Z" fill="url(#paint10_linear_351_318)"></path> <path d="M173.151 163.797C172.865 164.151 172.568 164.526 172.281 164.917C166.734 160.786 160.875 157.849 154.87 156.135C141.828 152.448 127.729 155.297 118.948 163.385C118.448 163.849 117.448 163.812 111.406 162.625C110.099 162.365 108.875 162.135 108.526 162.099C106.016 161.943 103.911 161.937 101.812 162.396C100.495 162.693 99.2344 163.135 98.026 163.734C93.3437 166 89.2083 169.01 85.6146 172.771C85.2865 173.109 84.9531 173.464 84.6302 173.818C84.3073 174.172 83.9844 174.536 83.6719 174.906C82.9635 175.74 82.2813 176.599 81.625 177.484C81.5104 177.63 81.4115 177.776 81.3021 177.927L80.974 178.375C80.901 178.49 80.8177 178.599 80.7448 178.714C79.6302 180.323 78.6146 181.995 77.6979 183.724C77.5573 183.984 77.4167 184.245 77.2865 184.51C77.125 184.818 76.974 185.12 76.8281 185.427C76.526 186.042 76.2396 186.661 75.9635 187.292C75.6875 187.922 75.4219 188.552 75.1771 189.187C74.8021 190.146 74.4531 191.125 74.1302 192.109C73.4948 194.047 72.974 196.01 72.5573 198C72.3854 198.823 72.2344 199.661 72.099 200.5C71.9948 201.104 71.9062 201.719 71.8385 202.333C71.7344 203.135 71.6354 203.948 71.5729 204.76C71.5365 205.214 71.5 205.667 71.4688 206.12C71.3646 207.495 71.3073 208.88 71.2969 210.292C71.2969 210.505 71.2135 210.677 71.0521 210.818C70.7031 211.12 70.3542 211.432 70.0052 211.75L69.8906 211.849C69.8906 211.323 69.8906 210.802 69.8906 210.276C69.8906 210.083 69.8906 209.891 69.8906 209.687C69.8906 209.49 69.8906 209.302 69.9062 209.109C69.9062 208.797 69.9219 208.484 69.9375 208.177C69.9375 208.068 69.9375 207.969 69.9479 207.865C69.9479 207.693 69.9583 207.516 69.974 207.344C69.974 207.161 69.9948 206.984 70.0052 206.818C70.026 206.437 70.0521 206.052 70.0833 205.677C70.1146 205.302 70.1406 204.917 70.1771 204.542C70.2135 204.167 70.2448 203.792 70.2917 203.422C70.3333 203.052 70.375 202.672 70.4271 202.307C70.474 201.937 70.526 201.568 70.5781 201.203C70.6302 200.839 70.6875 200.469 70.75 200.104C70.875 199.38 71.0104 198.661 71.151 197.937C71.2969 197.219 71.4583 196.516 71.625 195.812C71.7135 195.464 71.8021 195.12 71.8854 194.766C71.9687 194.411 72.0729 194.068 72.1771 193.719C72.276 193.37 72.3698 193.036 72.474 192.693C72.5729 192.344 72.6823 192.01 72.7917 191.672C72.901 191.333 73.0156 190.995 73.1354 190.667C73.2552 190.333 73.3698 189.995 73.4948 189.661C73.7344 189 73.9896 188.354 74.276 187.693C74.4115 187.37 74.5417 187.042 74.6927 186.724C74.7604 186.568 74.8333 186.406 74.9115 186.245C75.0729 185.88 75.2396 185.521 75.4115 185.161C75.5781 184.802 75.7604 184.443 75.9375 184.089C76.1146 183.74 76.3021 183.391 76.4844 183.042C76.5781 182.87 76.6771 182.693 76.7708 182.521C77.0677 181.969 77.375 181.432 77.7031 180.901C77.9219 180.521 78.1563 180.151 78.3906 179.786C78.5885 179.474 78.7865 179.156 78.9948 178.854C79.2708 178.432 79.5573 178.01 79.849 177.599C84.5365 170.974 90.6198 165.75 97.4427 162.495C97.9635 162.229 98.4896 162.016 99.0104 161.818C99.1146 161.771 99.2187 161.734 99.3229 161.703C99.5417 161.62 99.75 161.547 99.9583 161.479C100.104 161.437 100.234 161.391 100.37 161.349C100.505 161.312 100.651 161.266 100.781 161.234C101.031 161.167 101.292 161.109 101.542 161.052C101.792 160.995 101.974 160.964 102.193 160.922C104.234 160.562 106.266 160.578 108.651 160.724C109.068 160.75 110.036 160.937 111.708 161.266C113.682 161.651 117.307 162.354 118.125 162.276C127.26 153.937 141.833 151.01 155.292 154.797C161.438 156.526 167.458 159.557 173.151 163.797Z" fill="url(#paint11_linear_351_318)"></path> <path d="M169.161 171.333C169.161 171.333 169.161 171.333 169.146 171.333C169.016 171.437 168.87 171.49 168.703 171.484C168.484 171.484 168.302 171.396 168.161 171.224C167.458 170.396 166.719 169.604 165.938 168.849C165.156 168.094 164.344 167.375 163.495 166.698C162.646 166.016 161.771 165.38 160.859 164.781C159.953 164.187 159.021 163.635 158.057 163.13C157.099 162.62 156.115 162.161 155.109 161.745C154.109 161.333 153.083 160.969 152.047 160.651C151.01 160.333 149.958 160.062 148.891 159.849C147.828 159.63 146.755 159.464 145.677 159.349C144.594 159.229 143.51 159.167 142.427 159.151C141.339 159.141 140.255 159.177 139.172 159.266C138.089 159.359 137.016 159.5 135.948 159.687C134.875 159.88 133.818 160.125 132.771 160.417C131.724 160.708 130.698 161.047 129.682 161.437C128.667 161.828 127.677 162.266 126.703 162.745C125.729 163.229 124.781 163.76 123.859 164.333C122.938 164.906 122.042 165.521 121.182 166.182C121.026 166.302 120.849 166.349 120.656 166.323C120.464 166.297 120.307 166.203 120.193 166.047C120.073 165.896 120.026 165.719 120.052 165.526C120.078 165.333 120.172 165.177 120.328 165.062C121.224 164.375 122.156 163.734 123.12 163.135C124.078 162.542 125.068 161.99 126.078 161.484C127.094 160.984 128.125 160.526 129.182 160.12C130.24 159.719 131.313 159.365 132.401 159.057C133.49 158.755 134.594 158.505 135.708 158.302C136.823 158.104 137.943 157.958 139.068 157.865C140.198 157.771 141.328 157.734 142.458 157.75C143.589 157.76 144.719 157.828 145.839 157.953C146.964 158.073 148.083 158.245 149.193 158.474C150.297 158.703 151.396 158.979 152.474 159.312C153.557 159.641 154.62 160.021 155.667 160.453C156.714 160.885 157.734 161.37 158.734 161.896C159.734 162.427 160.708 163 161.656 163.62C162.599 164.245 163.516 164.906 164.396 165.615C165.281 166.323 166.125 167.073 166.938 167.859C167.75 168.646 168.521 169.474 169.255 170.333C169.312 170.401 169.354 170.474 169.38 170.557C169.49 170.865 169.417 171.125 169.161 171.333Z" fill="url(#paint12_linear_351_318)"></path> <path d="M215.932 311.557C213.292 310.609 210.604 309.667 207.917 308.719C207.854 308.693 207.781 308.677 207.719 308.651C199.844 302.99 193.698 293.917 190.547 282.938C186.641 269.292 187.552 254.615 188.714 241.932C188.865 240.245 189.036 238.552 189.193 236.865C190.302 225.312 191.443 213.37 190.01 201.74C190.432 201.547 190.844 201.323 191.24 201.073C191.276 201.052 191.307 201.026 191.344 201C192.911 212.953 191.74 225.187 190.604 237.005C190.443 238.687 190.276 240.375 190.125 242.062C188.974 254.615 188.078 269.13 191.917 282.547C195.901 296.474 204.828 307.214 215.932 311.557Z" fill="url(#paint13_linear_351_318)"></path> <path d="M170.031 185.688C168.708 183.578 167.219 181.599 165.562 179.745C164.026 178.026 162.339 176.479 160.495 175.094C150.328 167.531 134.958 166.245 120.37 171.745C120.187 171.813 120.005 171.807 119.828 171.724C119.651 171.646 119.526 171.51 119.458 171.328C119.391 171.146 119.396 170.964 119.479 170.786C119.557 170.609 119.687 170.484 119.875 170.417C134.901 164.755 150.781 166.109 161.344 173.964C164.443 176.313 167.125 179.073 169.391 182.234C169.557 183.318 169.776 184.49 170.031 185.688Z" fill="url(#paint14_linear_351_318)"></path> <path d="M178.281 199.396C178.229 199.359 178.177 199.323 178.13 199.286C178.135 199.281 178.141 199.281 178.146 199.286C178.198 199.318 178.24 199.354 178.281 199.396Z" fill="url(#paint15_linear_351_318)"></path> <path d="M192.464 303.172C192.422 303.151 192.38 303.135 192.333 303.12C192.292 303.099 192.25 303.078 192.208 303.057L190.422 302.391C186.406 294.667 184.161 285.01 183.755 273.651C183.516 267.25 183.812 260.76 184.094 254.474C184.396 247.807 184.708 240.901 184.385 234.135C183.818 222.49 181.427 211.234 177.208 200.365C177.828 200.849 178.495 201.266 179.203 201.615C183.057 212.094 185.255 222.911 185.792 234.063C186.125 240.901 185.812 247.839 185.505 254.536C185.224 260.792 184.932 267.26 185.161 273.599C185.589 285.469 188.042 295.422 192.464 303.172Z" fill="url(#paint16_linear_351_318)"></path> <path d="M171.536 213.708C171.089 213.88 170.651 214.078 170.229 214.302C168.036 204.828 164.38 196.87 159.38 190.641C153.49 183.354 145.276 178.391 136.88 176.849C134.646 176.042 132.365 175.411 130.031 174.964C141.089 174.464 152.729 180.13 160.469 189.76C165.563 196.094 169.292 204.151 171.536 213.708Z" fill="url(#paint17_linear_351_318)"></path> <path d="M181.974 298.911C181.891 298.87 181.818 298.839 181.734 298.797C181.13 298.521 180.552 298.25 179.995 297.984C176.594 290.245 174.521 281.146 173.667 270.25C173.141 263.396 173.099 256.406 173.063 249.646C173.036 245.479 173.01 241.188 172.87 236.938C173.349 236.182 173.802 235.422 174.203 234.703C174.417 239.656 174.443 244.734 174.474 249.635C174.516 256.365 174.552 263.323 175.083 270.135C175.974 281.578 178.224 291.01 181.974 298.911Z" fill="url(#paint18_linear_351_318)"></path> <path d="M117.901 165.911C117.891 166.104 117.812 166.266 117.661 166.396C117.516 166.526 117.349 166.583 117.151 166.573C103.573 165.661 89.625 174.932 83.2552 189.135C76.5677 204.016 78.6614 220.667 81.5937 232.01C84.3489 242.635 88.7552 252.927 93.0312 262.885C94.4687 266.245 95.9635 269.729 97.375 273.161C99.5 278.38 101.625 283.958 102.229 289.828C102.339 290.875 102.391 291.922 102.385 292.974C102.089 293.057 101.792 293.146 101.479 293.234L100.969 293.37C100.99 292.24 100.937 291.109 100.823 289.984C100.234 284.297 98.151 278.828 96.0677 273.708C94.6614 270.276 93.1719 266.807 91.7291 263.458C87.4427 253.443 83 243.104 80.2291 232.375C77.2344 220.807 75.1094 203.823 81.9687 188.563C88.5729 173.828 103.078 164.193 117.245 165.167C117.437 165.177 117.599 165.255 117.729 165.401C117.854 165.547 117.911 165.719 117.901 165.911Z" fill="url(#paint19_linear_351_318)"></path> <path d="M113.781 277.885C113.437 280.411 113.021 282.734 112.531 284.958C112.526 284.995 112.521 285.036 112.505 285.078C112.354 285.818 112.172 286.594 111.984 287.339C111.172 290.604 107.979 292.906 101.937 294.578C101.891 294.589 101.844 294.599 101.802 294.609C99.0729 295.349 95.6562 296 91.0625 296.651C88.0989 297.062 84.9687 297.432 81.651 297.839C66.1927 299.687 46.9739 301.99 33.6302 310.333C22.0364 317.573 15.3437 348.542 14.5208 398.094C14.5208 398.729 14.5052 399.365 14.5 400.01H13.0677C13.0677 399.365 13.0833 398.729 13.0937 398.094C14.0833 334.594 24.2135 314.536 32.8646 309.125C46.4739 300.635 65.8698 298.302 81.4687 296.432C84.6094 296.057 87.5677 295.698 90.375 295.318L90.8541 295.25C91.2031 295.203 91.5417 295.151 91.875 295.104C94.9375 294.687 97.9687 294.109 100.974 293.365L101.484 293.229C101.792 293.151 102.094 293.063 102.385 292.984C107.349 291.49 109.969 289.578 110.604 286.995C110.781 286.307 110.943 285.625 111.089 284.958C111.109 284.87 111.13 284.797 111.146 284.714C111.286 284.083 111.422 283.443 111.547 282.797C111.859 281.208 112.135 279.557 112.38 277.797C112.844 277.833 113.323 277.865 113.781 277.885Z" fill="url(#paint20_linear_351_318)"></path> <path d="M89.0156 189.901L88.8802 190.146C88.9323 190.042 88.9844 189.938 89.0416 189.844L89.0156 189.901Z" fill="url(#paint21_linear_351_318)"></path> <path d="M90.0104 188.26C89.6615 188.786 89.349 189.328 89.0417 189.849C89.3334 189.302 89.6563 188.776 90.0104 188.26Z" fill="url(#paint22_linear_351_318)"></path> <path d="M107.542 276.224C108.953 278.354 110.313 280.531 111.547 282.771C111.422 283.422 111.286 284.063 111.146 284.693C111.125 284.771 111.104 284.849 111.089 284.932C108.964 280.74 106.266 276.792 103.661 272.964C102.438 271.172 101.172 269.323 99.9896 267.464C93.1094 256.755 88.0938 245.229 84.9531 232.891C80.9323 217.203 81.2865 203.708 86 192.771C86.4844 191.635 87.0313 190.531 87.6458 189.458C87.5261 189.682 87.4115 189.901 87.3073 190.13C86.1719 192.516 85.7136 195.224 85.6042 198.026C82.7031 207.771 82.9479 219.349 86.3229 232.536C89.4375 244.724 94.3906 256.109 101.188 266.693C102.365 268.526 103.625 270.38 104.839 272.156C105.724 273.51 106.641 274.859 107.542 276.224Z" fill="url(#paint23_linear_351_318)"></path> <path d="M118.943 172.594C118.922 172.786 118.833 172.943 118.677 173.062C118.526 173.182 118.349 173.234 118.156 173.208C111.63 172.443 104.818 174.505 99 178.708C94.901 180.839 91.5521 183.625 89.1927 186.932C96.1719 176.484 107.615 170.531 118.333 171.792C118.526 171.818 118.682 171.911 118.802 172.062C118.922 172.219 118.969 172.396 118.943 172.594Z" fill="url(#paint24_linear_351_318)"></path> <path d="M218.401 400H216.901C216.677 399.359 216.458 398.724 216.25 398.089C212.573 386.958 210.672 375.531 210.552 363.812C210.552 363.615 210.625 363.448 210.76 363.312C210.896 363.172 211.062 363.099 211.255 363.094C211.453 363.094 211.62 363.161 211.755 363.302C211.896 363.438 211.964 363.604 211.964 363.797C212.078 375.531 214 386.964 217.724 398.089C217.948 398.724 218.172 399.359 218.401 400Z" fill="url(#paint25_linear_351_318)"></path> <path d="M61.4323 398.089C61.3021 398.724 61.1667 399.359 61.0365 400H59.5886C59.7292 399.354 59.849 398.724 59.9792 398.089C62.5625 385.255 63.4896 373.401 62.9479 361.234C62.9375 361.036 63 360.87 63.1354 360.724C63.2656 360.583 63.4271 360.505 63.625 360.495C63.8177 360.479 63.9896 360.542 64.1354 360.677C64.2813 360.807 64.3594 360.974 64.3646 361.172C64.9063 373.37 63.9844 385.24 61.4323 398.089Z" fill="url(#paint26_linear_351_318)"></path> <path d="M238.865 40.9583C212.458 14.5417 177.339 0 139.995 0C102.651 0 67.5313 14.5417 41.125 40.9583C14.7188 67.375 0.166687 102.479 0.166687 139.823V399.042C0.166687 399.307 0.260436 399.531 0.447937 399.719C0.635436 399.906 0.859395 400 1.11981 400H278.865C279.13 400 279.354 399.906 279.542 399.719C279.729 399.531 279.823 399.307 279.823 399.042V139.823C279.818 102.479 265.271 67.3646 238.865 40.9583ZM277.891 398.089H2.07815V139.823C2.07815 102.99 16.4271 68.3646 42.4792 42.3125C68.5261 16.2552 103.156 1.91146 139.995 1.91146C176.833 1.91146 211.458 16.2604 237.51 42.3125C263.563 68.3646 277.901 102.99 277.901 139.823L277.891 398.089Z" fill="url(#paint27_linear_351_318)"></path> <path d="M47.3125 95.2188C50.5677 96.2344 51.9844 99.1198 52.6562 102.661C53.3646 99.0573 54.7135 96.9948 57.9688 95.625C56.6302 95.1979 54.5 92.9323 54.0781 92.2448C53.0625 90.5885 52.9635 88.9583 52.7188 87.1094C51.901 90.526 50.901 93.651 47.3125 95.2188Z" fill="url(#paint28_linear_351_318)"></path> <path d="M258.812 258.974C262.057 259.984 263.479 262.87 264.151 266.411C264.854 262.807 266.208 260.745 269.469 259.375C268.125 258.953 265.995 256.688 265.573 255.995C264.557 254.339 264.453 252.708 264.214 250.859C263.391 254.276 262.396 257.401 258.812 258.974Z" fill="url(#paint29_linear_351_318)"></path> <path d="M229.083 130.359C232.328 131.37 233.75 134.255 234.422 137.797C235.125 134.193 236.474 132.13 239.734 130.76C238.396 130.339 236.266 128.068 235.844 127.38C234.823 125.719 234.724 124.094 234.484 122.245C233.661 125.661 232.667 128.786 229.083 130.359Z" fill="url(#paint30_linear_351_318)"></path> <path d="M50.5052 247.026C53.7552 248.052 55.1719 250.932 55.8489 254.464C56.5521 250.865 57.901 248.797 61.1614 247.427C59.8229 247.005 57.6927 244.74 57.2656 244.052C56.25 242.391 56.151 240.76 55.9114 238.911C55.0885 242.328 54.0885 245.453 50.5052 247.026Z" fill="url(#paint31_linear_351_318)"></path> <path d="M61.9062 118.396C64.0677 119.068 65.0104 120.99 65.4635 123.344C65.9323 120.948 66.8281 119.573 69 118.661C68.1042 118.38 66.6875 116.875 66.4062 116.411C65.7292 115.307 65.6615 114.224 65.5052 113.005C64.9583 115.25 64.2917 117.349 61.9062 118.396Z" fill="url(#paint32_linear_351_318)"></path> <path d="M102.234 53.4063C104.401 54.0833 105.344 56 105.792 58.3594C106.26 55.9583 107.161 54.5886 109.328 53.6719C108.437 53.3906 107.021 51.8854 106.74 51.4271C106.063 50.3177 105.995 49.2344 105.833 48.0052C105.286 50.2917 104.625 52.3594 102.234 53.4063Z" fill="url(#paint33_linear_351_318)"></path> <path d="M216.318 268.932C218.479 269.604 219.422 271.526 219.87 273.88C220.344 271.484 221.24 270.109 223.411 269.198C222.516 268.917 221.099 267.406 220.818 266.948C220.141 265.844 220.078 264.76 219.911 263.542C219.365 265.802 218.703 267.885 216.318 268.932Z" fill="url(#paint34_linear_351_318)"></path> <path d="M188.693 98.1771C190.859 98.8489 191.802 100.771 192.25 103.13C192.719 100.729 193.62 99.3594 195.786 98.4479C194.896 98.1614 193.474 96.6562 193.198 96.1979C192.516 95.0885 192.453 94.0052 192.292 92.776C191.745 95.0521 191.078 97.1302 188.693 98.1771Z" fill="url(#paint35_linear_351_318)"></path> <path d="M179.646 30.9583C181.807 31.6354 182.755 33.5521 183.203 35.9114C183.672 33.5156 184.568 32.1406 186.74 31.2292C185.849 30.9427 184.427 29.4375 184.151 28.9792C183.469 27.875 183.406 26.7917 183.245 25.5573C182.693 27.8333 182.031 29.9114 179.646 30.9583Z" fill="url(#paint36_linear_351_318)"></path> <path d="M98.9791 116.281C98.9791 116.625 98.8594 116.917 98.6146 117.161C98.3698 117.401 98.0781 117.526 97.7344 117.526C97.3906 117.526 97.0989 117.401 96.8541 117.161C96.6094 116.917 96.4896 116.625 96.4896 116.281C96.4896 115.938 96.6094 115.646 96.8541 115.401C97.0989 115.156 97.3906 115.036 97.7344 115.036C98.0781 115.036 98.3698 115.156 98.6146 115.401C98.8594 115.646 98.9791 115.938 98.9791 116.281Z" fill="url(#paint37_linear_351_318)"></path> <path d="M16.3646 111.63C16.3646 111.974 16.2448 112.266 16 112.51C15.7552 112.755 15.4635 112.875 15.1198 112.875C14.776 112.875 14.4844 112.755 14.2396 112.51C14 112.266 13.875 111.974 13.875 111.63C13.875 111.286 14 110.995 14.2396 110.75C14.4844 110.51 14.776 110.385 15.1198 110.385C15.4635 110.385 15.7552 110.51 16 110.75C16.2448 110.995 16.3646 111.286 16.3646 111.63Z" fill="url(#paint38_linear_351_318)"></path> <path d="M110.583 109.755C110.583 110.099 110.458 110.391 110.219 110.635C109.974 110.875 109.682 110.995 109.339 110.995C108.995 110.995 108.703 110.875 108.458 110.635C108.214 110.391 108.094 110.099 108.094 109.755C108.094 109.411 108.214 109.115 108.458 108.875C108.703 108.63 108.995 108.51 109.339 108.51C109.682 108.51 109.974 108.63 110.219 108.875C110.458 109.115 110.583 109.411 110.583 109.755Z" fill="url(#paint39_linear_351_318)"></path> <path d="M15.875 148.214C15.875 148.557 15.7552 148.849 15.5104 149.094C15.2708 149.333 14.974 149.458 14.6354 149.458C14.2917 149.458 13.9948 149.333 13.7552 149.094C13.5104 148.849 13.3906 148.557 13.3906 148.214C13.3906 147.87 13.5104 147.578 13.7552 147.333C13.9948 147.089 14.2917 146.969 14.6354 146.969C14.974 146.969 15.2708 147.089 15.5104 147.333C15.7552 147.578 15.875 147.87 15.875 148.214Z" fill="url(#paint40_linear_351_318)"></path> <path d="M14.8854 254.807C14.8854 255.151 14.7656 255.448 14.5209 255.687C14.2813 255.932 13.9844 256.052 13.6406 256.052C13.2969 256.052 13.0052 255.932 12.7656 255.687C12.5209 255.448 12.4011 255.151 12.4011 254.807C12.4011 254.469 12.5209 254.172 12.7656 253.932C13.0052 253.687 13.2969 253.568 13.6406 253.568C13.9844 253.568 14.2813 253.687 14.5209 253.932C14.7656 254.172 14.8854 254.469 14.8854 254.807Z" fill="url(#paint41_linear_351_318)"></path> <path d="M24.75 187.797C24.75 188.141 24.625 188.437 24.3854 188.677C24.1406 188.922 23.849 189.042 23.5052 189.042C23.1615 189.042 22.8698 188.922 22.625 188.677C22.3802 188.437 22.2604 188.141 22.2604 187.797C22.2604 187.453 22.3802 187.161 22.625 186.922C22.8698 186.677 23.1615 186.557 23.5052 186.557C23.849 186.557 24.1406 186.677 24.3854 186.922C24.625 187.161 24.75 187.453 24.75 187.797Z" fill="url(#paint42_linear_351_318)"></path> <path d="M21.5416 301.38C21.5416 301.724 21.4166 302.021 21.1771 302.26C20.9323 302.505 20.6406 302.625 20.2969 302.625C19.9531 302.625 19.6614 302.505 19.4166 302.26C19.1719 302.021 19.0521 301.724 19.0521 301.38C19.0521 301.036 19.1719 300.745 19.4166 300.5C19.6614 300.26 19.9531 300.135 20.2969 300.135C20.6406 300.135 20.9323 300.26 21.1771 300.5C21.4166 300.745 21.5416 301.036 21.5416 301.38Z" fill="url(#paint43_linear_351_318)"></path> <path d="M36.3229 281.422C36.3229 281.766 36.2031 282.057 35.9583 282.302C35.7187 282.547 35.4219 282.667 35.0781 282.667C34.7344 282.667 34.4427 282.547 34.1979 282.302C33.9583 282.057 33.8333 281.766 33.8333 281.422C33.8333 281.078 33.9583 280.786 34.1979 280.542C34.4427 280.302 34.7344 280.177 35.0781 280.177C35.4219 280.177 35.7187 280.302 35.9583 280.542C36.2031 280.786 36.3229 281.078 36.3229 281.422Z" fill="url(#paint44_linear_351_318)"></path> <path d="M41.4323 163.219C41.4323 163.563 41.3125 163.854 41.0677 164.094C40.8229 164.339 40.5312 164.458 40.1875 164.458C39.8437 164.458 39.5521 164.339 39.3073 164.094C39.0625 163.854 38.9427 163.563 38.9427 163.219C38.9427 162.875 39.0625 162.578 39.3073 162.339C39.5521 162.094 39.8437 161.974 40.1875 161.974C40.5312 161.974 40.8229 162.094 41.0677 162.339C41.3125 162.578 41.4323 162.875 41.4323 163.219Z" fill="url(#paint45_linear_351_318)"></path> <path d="M37.0625 118.792C37.0625 119.135 36.9427 119.427 36.6979 119.672C36.4531 119.911 36.1615 120.036 35.8177 120.036C35.474 120.036 35.1823 119.911 34.9375 119.672C34.6979 119.427 34.5729 119.135 34.5729 118.792C34.5729 118.448 34.6979 118.151 34.9375 117.911C35.1823 117.667 35.474 117.547 35.8177 117.547C36.1615 117.547 36.4531 117.667 36.6979 117.911C36.9427 118.151 37.0625 118.448 37.0625 118.792Z" fill="url(#paint46_linear_351_318)"></path> <path d="M230.052 100.026C230.052 100.37 229.932 100.661 229.688 100.906C229.448 101.146 229.151 101.271 228.807 101.271C228.464 101.271 228.172 101.146 227.927 100.906C227.687 100.661 227.562 100.37 227.562 100.026C227.562 99.6823 227.687 99.3906 227.927 99.1458C228.172 98.901 228.464 98.7812 228.807 98.7812C229.151 98.7812 229.448 98.901 229.688 99.1458C229.932 99.3906 230.052 99.6823 230.052 100.026Z" fill="url(#paint47_linear_351_318)"></path> <path d="M262.766 189.016C262.766 189.359 262.646 189.656 262.401 189.896C262.156 190.141 261.865 190.26 261.521 190.26C261.177 190.26 260.885 190.141 260.641 189.896C260.401 189.656 260.276 189.359 260.276 189.016C260.276 188.672 260.401 188.38 260.641 188.135C260.885 187.896 261.177 187.771 261.521 187.771C261.865 187.771 262.156 187.896 262.401 188.135C262.646 188.38 262.766 188.672 262.766 189.016Z" fill="url(#paint48_linear_351_318)"></path> <path d="M239.51 173.073C239.51 173.417 239.385 173.708 239.146 173.948C238.901 174.193 238.609 174.312 238.266 174.312C237.922 174.312 237.63 174.193 237.385 173.948C237.141 173.708 237.021 173.417 237.021 173.073C237.021 172.729 237.141 172.432 237.385 172.193C237.63 171.948 237.922 171.828 238.266 171.828C238.609 171.828 238.901 171.948 239.146 172.193C239.385 172.432 239.51 172.729 239.51 173.073Z" fill="url(#paint49_linear_351_318)"></path> <path d="M173.302 129.984C173.302 130.328 173.182 130.62 172.938 130.865C172.693 131.104 172.401 131.224 172.057 131.224C171.714 131.224 171.422 131.104 171.177 130.865C170.937 130.62 170.812 130.328 170.812 129.984C170.812 129.641 170.937 129.344 171.177 129.104C171.422 128.859 171.714 128.74 172.057 128.74C172.401 128.74 172.693 128.859 172.938 129.104C173.182 129.344 173.302 129.641 173.302 129.984Z" fill="url(#paint50_linear_351_318)"></path> <path d="M211.135 244.562C211.135 244.906 211.016 245.198 210.771 245.437C210.531 245.682 210.234 245.802 209.891 245.802C209.547 245.802 209.255 245.682 209.01 245.437C208.771 245.198 208.646 244.906 208.646 244.562C208.646 244.219 208.771 243.922 209.01 243.682C209.255 243.437 209.547 243.318 209.891 243.318C210.234 243.318 210.531 243.437 210.771 243.682C211.016 243.922 211.135 244.219 211.135 244.562Z" fill="url(#paint51_linear_351_318)"></path> <path d="M218.917 75.4062C218.917 75.75 218.792 76.0469 218.552 76.2864C218.307 76.5312 218.016 76.651 217.672 76.651C217.328 76.651 217.036 76.5312 216.792 76.2864C216.547 76.0469 216.427 75.75 216.427 75.4062C216.427 75.0625 216.547 74.7708 216.792 74.526C217.036 74.2864 217.328 74.1667 217.672 74.1667C218.016 74.1667 218.307 74.2864 218.552 74.526C218.792 74.7708 218.917 75.0625 218.917 75.4062Z" fill="url(#paint52_linear_351_318)"></path> <path d="M149.094 131.516C149.094 131.859 148.974 132.151 148.729 132.396C148.484 132.635 148.193 132.76 147.849 132.76C147.505 132.76 147.214 132.635 146.969 132.396C146.729 132.151 146.604 131.859 146.604 131.516C146.604 131.172 146.729 130.88 146.969 130.635C147.214 130.391 147.505 130.271 147.849 130.271C148.193 130.271 148.484 130.391 148.729 130.635C148.974 130.88 149.094 131.172 149.094 131.516Z" fill="url(#paint53_linear_351_318)"></path> <path d="M247.745 80.8542C247.745 81.1979 247.625 81.4896 247.38 81.7344C247.141 81.9792 246.844 82.099 246.5 82.099C246.161 82.099 245.865 81.9792 245.625 81.7344C245.38 81.4896 245.26 81.1979 245.26 80.8542C245.26 80.5104 245.38 80.2188 245.625 79.974C245.865 79.7292 246.161 79.6094 246.5 79.6094C246.844 79.6094 247.141 79.7292 247.38 79.974C247.625 80.2188 247.745 80.5104 247.745 80.8542Z" fill="url(#paint54_linear_351_318)"></path> <path d="M264.26 134.901C264.26 135.245 264.135 135.536 263.896 135.781C263.651 136.026 263.359 136.146 263.016 136.146C262.672 136.146 262.38 136.026 262.135 135.781C261.891 135.536 261.771 135.245 261.771 134.901C261.771 134.557 261.891 134.266 262.135 134.021C262.38 133.781 262.672 133.656 263.016 133.656C263.359 133.656 263.651 133.781 263.896 134.021C264.135 134.266 264.26 134.557 264.26 134.901Z" fill="url(#paint55_linear_351_318)"></path> <path d="M170.135 114.302C170.135 114.646 170.016 114.937 169.771 115.182C169.526 115.422 169.234 115.547 168.891 115.547C168.547 115.547 168.255 115.422 168.01 115.182C167.771 114.937 167.646 114.646 167.646 114.302C167.646 113.958 167.771 113.661 168.01 113.422C168.255 113.177 168.547 113.057 168.891 113.057C169.234 113.057 169.526 113.177 169.771 113.422C170.016 113.661 170.135 113.958 170.135 114.302Z" fill="url(#paint56_linear_351_318)"></path> <path d="M261.385 288.193C261.385 288.536 261.266 288.828 261.021 289.073C260.776 289.318 260.484 289.438 260.141 289.438C259.797 289.438 259.505 289.318 259.26 289.073C259.021 288.828 258.896 288.536 258.896 288.193C258.896 287.849 259.021 287.557 259.26 287.313C259.505 287.073 259.797 286.948 260.141 286.948C260.484 286.948 260.776 287.073 261.021 287.313C261.266 287.557 261.385 287.849 261.385 288.193Z" fill="url(#paint57_linear_351_318)"></path> <path d="M246.833 233.568C246.833 233.911 246.714 234.203 246.469 234.448C246.229 234.688 245.932 234.813 245.589 234.813C245.245 234.813 244.953 234.688 244.714 234.448C244.469 234.203 244.349 233.911 244.349 233.568C244.349 233.224 244.469 232.932 244.714 232.688C244.953 232.443 245.245 232.323 245.589 232.323C245.932 232.323 246.229 232.443 246.469 232.688C246.714 232.932 246.833 233.224 246.833 233.568Z" fill="url(#paint58_linear_351_318)"></path> <path d="M237.328 306.156C237.328 306.5 237.203 306.792 236.964 307.036C236.719 307.281 236.427 307.401 236.083 307.401C235.74 307.401 235.448 307.281 235.203 307.036C234.958 306.792 234.839 306.5 234.839 306.156C234.839 305.812 234.958 305.521 235.203 305.276C235.448 305.036 235.74 304.911 236.083 304.911C236.427 304.911 236.719 305.036 236.964 305.276C237.203 305.521 237.328 305.812 237.328 306.156Z" fill="url(#paint59_linear_351_318)"></path> <path d="M114.682 139.719C114.682 140.062 114.563 140.359 114.318 140.599C114.078 140.844 113.781 140.964 113.438 140.964C113.094 140.964 112.802 140.844 112.563 140.599C112.318 140.359 112.198 140.062 112.198 139.719C112.198 139.375 112.318 139.083 112.563 138.844C112.802 138.599 113.094 138.479 113.438 138.479C113.781 138.479 114.078 138.599 114.318 138.844C114.563 139.083 114.682 139.375 114.682 139.719Z" fill="url(#paint60_linear_351_318)"></path> <path d="M188.594 141.984C188.594 142.328 188.474 142.625 188.229 142.865C187.984 143.109 187.693 143.229 187.349 143.229C187.005 143.229 186.714 143.109 186.469 142.865C186.229 142.625 186.104 142.328 186.104 141.984C186.104 141.641 186.229 141.349 186.469 141.109C186.714 140.865 187.005 140.745 187.349 140.745C187.693 140.745 187.984 140.865 188.229 141.109C188.474 141.349 188.594 141.641 188.594 141.984Z" fill="url(#paint61_linear_351_318)"></path> <path d="M181.953 61.3646C181.953 61.7083 181.833 62 181.589 62.2448C181.349 62.4844 181.052 62.6094 180.708 62.6094C180.365 62.6094 180.073 62.4844 179.828 62.2448C179.589 62 179.464 61.7083 179.464 61.3646C179.464 61.0208 179.589 60.7239 179.828 60.4844C180.073 60.2396 180.365 60.1198 180.708 60.1198C181.052 60.1198 181.349 60.2396 181.589 60.4844C181.833 60.7239 181.953 61.0208 181.953 61.3646Z" fill="url(#paint62_linear_351_318)"></path> <path d="M224.828 55.9531C224.828 56.2969 224.708 56.5938 224.464 56.8333C224.224 57.0781 223.927 57.1979 223.583 57.1979C223.245 57.1979 222.948 57.0781 222.708 56.8333C222.464 56.5938 222.344 56.2969 222.344 55.9531C222.344 55.6094 222.464 55.3177 222.708 55.0729C222.948 54.8333 223.245 54.7083 223.583 54.7083C223.927 54.7083 224.224 54.8333 224.464 55.0729C224.708 55.3177 224.828 55.6094 224.828 55.9531Z" fill="url(#paint63_linear_351_318)"></path> <path d="M97.8906 91.6198C97.8906 91.9635 97.7656 92.2552 97.5261 92.5C97.2813 92.7396 96.9896 92.8646 96.6459 92.8646C96.3021 92.8646 96.0052 92.7396 95.7656 92.5C95.5209 92.2552 95.4011 91.9635 95.4011 91.6198C95.4011 91.276 95.5209 90.9844 95.7656 90.7396C96.0052 90.4948 96.3021 90.375 96.6459 90.375C96.9896 90.375 97.2813 90.4948 97.5261 90.7396C97.7656 90.9844 97.8906 91.276 97.8906 91.6198Z" fill="url(#paint64_linear_351_318)"></path> <path d="M84.6094 32.2969C84.6094 32.6406 84.4896 32.9323 84.2448 33.1771C84 33.4167 83.7084 33.5417 83.3646 33.5417C83.0209 33.5417 82.7292 33.4167 82.4844 33.1771C82.2396 32.9323 82.1198 32.6406 82.1198 32.2969C82.1198 31.9531 82.2396 31.6615 82.4844 31.4167C82.7292 31.1719 83.0209 31.0521 83.3646 31.0521C83.7084 31.0521 84 31.1719 84.2448 31.4167C84.4896 31.6615 84.6094 31.9531 84.6094 32.2969Z" fill="url(#paint65_linear_351_318)"></path> <path d="M42.4688 57.4323C42.4688 57.776 42.349 58.0677 42.1094 58.3125C41.8646 58.5521 41.5729 58.6771 41.2292 58.6771C40.8854 58.6771 40.5885 58.5521 40.349 58.3125C40.1042 58.0677 39.9844 57.776 39.9844 57.4323C39.9844 57.0885 40.1042 56.7969 40.349 56.5521C40.5885 56.3073 40.8854 56.1875 41.2292 56.1875C41.5729 56.1875 41.8646 56.3073 42.1094 56.5521C42.349 56.7969 42.4688 57.0885 42.4688 57.4323Z" fill="url(#paint66_linear_351_318)"></path> <path d="M68.0469 159.906C68.0469 160.25 67.9271 160.547 67.6823 160.786C67.4427 161.031 67.151 161.151 66.8073 161.151C66.4635 161.151 66.1667 161.031 65.9271 160.786C65.6823 160.547 65.5625 160.25 65.5625 159.906C65.5625 159.562 65.6823 159.271 65.9271 159.026C66.1667 158.786 66.4635 158.667 66.8073 158.667C67.151 158.667 67.4427 158.786 67.6823 159.026C67.9271 159.271 68.0469 159.562 68.0469 159.906Z" fill="url(#paint67_linear_351_318)"></path> <path d="M79.276 63.3073C79.276 63.651 79.1562 63.9427 78.9114 64.1875C78.6666 64.4271 78.375 64.5521 78.0312 64.5521C77.6875 64.5521 77.3958 64.4271 77.151 64.1875C76.9062 63.9427 76.7864 63.651 76.7864 63.3073C76.7864 62.9635 76.9062 62.6719 77.151 62.4271C77.3958 62.1823 77.6875 62.0625 78.0312 62.0625C78.375 62.0625 78.6666 62.1823 78.9114 62.4271C79.1562 62.6719 79.276 62.9635 79.276 63.3073Z" fill="url(#paint68_linear_351_318)"></path> <path d="M143.01 10.8594C143.01 11.2031 142.891 11.4948 142.646 11.7396C142.401 11.9844 142.109 12.1042 141.766 12.1042C141.422 12.1042 141.13 11.9844 140.885 11.7396C140.641 11.4948 140.521 11.2031 140.521 10.8594C140.521 10.5156 140.641 10.224 140.885 9.97918C141.13 9.73959 141.422 9.61459 141.766 9.61459C142.109 9.61459 142.401 9.73959 142.646 9.97918C142.891 10.224 143.01 10.5156 143.01 10.8594Z" fill="url(#paint69_linear_351_318)"></path> <path d="M125.083 41.2708C125.083 41.6146 124.964 41.9115 124.719 42.151C124.479 42.3958 124.182 42.5156 123.844 42.5156C123.5 42.5156 123.203 42.3958 122.964 42.151C122.719 41.9115 122.599 41.6146 122.599 41.2708C122.599 40.9271 122.719 40.6354 122.964 40.3958C123.203 40.151 123.5 40.0312 123.844 40.0312C124.182 40.0312 124.479 40.151 124.719 40.3958C124.964 40.6354 125.083 40.9271 125.083 41.2708Z" fill="url(#paint70_linear_351_318)"></path> <path d="M135.667 26.7083C135.667 27.0521 135.542 27.3437 135.302 27.5885C135.057 27.8333 134.766 27.9531 134.422 27.9531C134.078 27.9531 133.786 27.8333 133.542 27.5885C133.297 27.3437 133.177 27.0521 133.177 26.7083C133.177 26.3646 133.297 26.0729 133.542 25.8281C133.786 25.5885 134.078 25.4635 134.422 25.4635C134.766 25.4635 135.057 25.5885 135.302 25.8281C135.542 26.0729 135.667 26.3646 135.667 26.7083Z" fill="url(#paint71_linear_351_318)"></path> <path d="M153.036 42.9479C153.036 43.2917 152.917 43.5833 152.672 43.8281C152.427 44.0677 152.135 44.1927 151.792 44.1927C151.448 44.1927 151.156 44.0677 150.911 43.8281C150.672 43.5833 150.547 43.2917 150.547 42.9479C150.547 42.6042 150.672 42.3125 150.911 42.0677C151.156 41.8229 151.448 41.7031 151.792 41.7031C152.135 41.7031 152.427 41.8229 152.672 42.0677C152.917 42.3125 153.036 42.6042 153.036 42.9479Z" fill="url(#paint72_linear_351_318)"></path> <path d="M164.109 74.8542C162.677 71.7135 159.865 69.8281 156.385 69.6667C151.609 69.4427 147.651 73.1979 145.979 76.776C142.464 84.3073 141.526 90.3229 140.438 97.2917C140.245 98.526 140.052 99.776 139.839 101.062C139.625 99.776 139.427 98.526 139.234 97.2917C138.151 90.3229 137.214 84.3073 133.698 76.776C132.026 73.1979 128.052 69.4427 123.286 69.6667C119.813 69.8281 117 71.7187 115.568 74.8542C113.979 78.3437 114.484 82.6719 116.823 85.625C116.948 85.776 117.115 85.8594 117.307 85.875C117.505 85.8906 117.677 85.8385 117.828 85.7187C117.984 85.5989 118.073 85.4375 118.099 85.2448C118.125 85.0521 118.083 84.875 117.969 84.7135C115.964 82.1823 115.536 78.4635 116.901 75.4635C117.177 74.8333 117.536 74.2552 117.979 73.7239C118.422 73.1979 118.927 72.7396 119.5 72.3594C120.073 71.9739 120.682 71.6771 121.339 71.4687C121.995 71.2604 122.667 71.1458 123.354 71.1302C127.286 70.9531 130.849 74.1458 132.37 77.401C135.797 84.7344 136.719 90.6562 137.786 97.5156C138.167 99.9635 138.573 102.495 139.094 105.224C139.063 105.417 139.104 105.594 139.219 105.755C139.328 105.917 139.484 106.016 139.677 106.052C139.724 106.062 139.771 106.068 139.818 106.068H139.865C139.911 106.068 139.958 106.062 140.005 106.052C140.198 106.016 140.349 105.917 140.464 105.755C140.573 105.594 140.615 105.417 140.583 105.224C141.109 102.49 141.51 99.9635 141.896 97.5156C142.964 90.6562 143.885 84.7396 147.313 77.401C148.828 74.1458 152.417 70.9531 156.323 71.1302C157.01 71.1458 157.682 71.2604 158.339 71.4687C158.995 71.6771 159.609 71.9739 160.182 72.3594C160.75 72.7396 161.26 73.1979 161.698 73.7239C162.141 74.2552 162.5 74.8333 162.776 75.4635C164.146 78.4635 163.714 82.1823 161.708 84.7135C161.583 84.875 161.531 85.0521 161.557 85.2552C161.578 85.4531 161.672 85.6198 161.828 85.7448C161.99 85.8698 162.167 85.9219 162.37 85.8958C162.568 85.875 162.734 85.7864 162.859 85.625C165.188 82.6719 165.708 78.3437 164.109 74.8542Z" fill="url(#paint73_linear_351_318)"></path> <defs> <linearGradient id="paint0_linear_351_318" x1="139.995" y1="0" x2="139.995" y2="400.01" gradientUnits="userSpaceOnUse"> <stop offset="0.359375" stop-color="#B99A2E"></stop> <stop offset="1" stop-color="white"></stop> </linearGradient> <linearGradient id="paint1_linear_351_318" x1="139.995" y1="0" x2="139.995" y2="400.01" gradientUnits="userSpaceOnUse"> <stop offset="0.359375" stop-color="#B99A2E"></stop> <stop offset="1" stop-color="white"></stop> </linearGradient> <linearGradient id="paint2_linear_351_318" x1="139.995" y1="0" x2="139.995" y2="400.01" gradientUnits="userSpaceOnUse"> <stop offset="0.359375" stop-color="#B99A2E"></stop> <stop offset="1" stop-color="white"></stop> </linearGradient> <linearGradient id="paint3_linear_351_318" x1="139.995" y1="0" x2="139.995" y2="400.01" gradientUnits="userSpaceOnUse"> <stop offset="0.359375" stop-color="#B99A2E"></stop> <stop offset="1" stop-color="white"></stop> </linearGradient> <linearGradient id="paint4_linear_351_318" x1="139.995" y1="0" x2="139.995" y2="400.01" gradientUnits="userSpaceOnUse"> <stop offset="0.359375" stop-color="#B99A2E"></stop> <stop offset="1" stop-color="white"></stop> </linearGradient> <linearGradient id="paint5_linear_351_318" x1="139.995" y1="0" x2="139.995" y2="400.01" gradientUnits="userSpaceOnUse"> <stop offset="0.359375" stop-color="#B99A2E"></stop> <stop offset="1" stop-color="white"></stop> </linearGradient> <linearGradient id="paint6_linear_351_318" x1="139.995" y1="0" x2="139.995" y2="400.01" gradientUnits="userSpaceOnUse"> <stop offset="0.359375" stop-color="#B99A2E"></stop> <stop offset="1" stop-color="white"></stop> </linearGradient> <linearGradient id="paint7_linear_351_318" x1="139.995" y1="0" x2="139.995" y2="400.01" gradientUnits="userSpaceOnUse"> <stop offset="0.359375" stop-color="#B99A2E"></stop> <stop offset="1" stop-color="white"></stop> </linearGradient> <linearGradient id="paint8_linear_351_318" x1="139.995" y1="0" x2="139.995" y2="400.01" gradientUnits="userSpaceOnUse"> <stop offset="0.359375" stop-color="#B99A2E"></stop> <stop offset="1" stop-color="white"></stop> </linearGradient> <linearGradient id="paint9_linear_351_318" x1="139.995" y1="0" x2="139.995" y2="400.01" gradientUnits="userSpaceOnUse"> <stop offset="0.359375" stop-color="#B99A2E"></stop> <stop offset="1" stop-color="white"></stop> </linearGradient> <linearGradient id="paint10_linear_351_318" x1="139.995" y1="0" x2="139.995" y2="400.01" gradientUnits="userSpaceOnUse"> <stop offset="0.359375" stop-color="#B99A2E"></stop> <stop offset="1" stop-color="white"></stop> </linearGradient> <linearGradient id="paint11_linear_351_318" x1="139.995" y1="0" x2="139.995" y2="400.01" gradientUnits="userSpaceOnUse"> <stop offset="0.359375" stop-color="#B99A2E"></stop> <stop offset="1" stop-color="white"></stop> </linearGradient> <linearGradient id="paint12_linear_351_318" x1="139.995" y1="0" x2="139.995" y2="400.01" gradientUnits="userSpaceOnUse"> <stop offset="0.359375" stop-color="#B99A2E"></stop> <stop offset="1" stop-color="white"></stop> </linearGradient> <linearGradient id="paint13_linear_351_318" x1="139.995" y1="0" x2="139.995" y2="400.01" gradientUnits="userSpaceOnUse"> <stop offset="0.359375" stop-color="#B99A2E"></stop> <stop offset="1" stop-color="white"></stop> </linearGradient> <linearGradient id="paint14_linear_351_318" x1="139.995" y1="0" x2="139.995" y2="400.01" gradientUnits="userSpaceOnUse"> <stop offset="0.359375" stop-color="#B99A2E"></stop> <stop offset="1" stop-color="white"></stop> </linearGradient> <linearGradient id="paint15_linear_351_318" x1="139.995" y1="0" x2="139.995" y2="400.01" gradientUnits="userSpaceOnUse"> <stop offset="0.359375" stop-color="#B99A2E"></stop> <stop offset="1" stop-color="white"></stop> </linearGradient> <linearGradient id="paint16_linear_351_318" x1="139.995" y1="0" x2="139.995" y2="400.01" gradientUnits="userSpaceOnUse"> <stop offset="0.359375" stop-color="#B99A2E"></stop> <stop offset="1" stop-color="white"></stop> </linearGradient> <linearGradient id="paint17_linear_351_318" x1="139.995" y1="0" x2="139.995" y2="400.01" gradientUnits="userSpaceOnUse"> <stop offset="0.359375" stop-color="#B99A2E"></stop> <stop offset="1" stop-color="white"></stop> </linearGradient> <linearGradient id="paint18_linear_351_318" x1="139.995" y1="0" x2="139.995" y2="400.01" gradientUnits="userSpaceOnUse"> <stop offset="0.359375" stop-color="#B99A2E"></stop> <stop offset="1" stop-color="white"></stop> </linearGradient> <linearGradient id="paint19_linear_351_318" x1="139.995" y1="0" x2="139.995" y2="400.01" gradientUnits="userSpaceOnUse"> <stop offset="0.359375" stop-color="#B99A2E"></stop> <stop offset="1" stop-color="white"></stop> </linearGradient> <linearGradient id="paint20_linear_351_318" x1="139.995" y1="0" x2="139.995" y2="400.01" gradientUnits="userSpaceOnUse"> <stop offset="0.359375" stop-color="#B99A2E"></stop> <stop offset="1" stop-color="white"></stop> </linearGradient> <linearGradient id="paint21_linear_351_318" x1="139.995" y1="0" x2="139.995" y2="400.01" gradientUnits="userSpaceOnUse"> <stop offset="0.359375" stop-color="#B99A2E"></stop> <stop offset="1" stop-color="white"></stop> </linearGradient> <linearGradient id="paint22_linear_351_318" x1="139.995" y1="0" x2="139.995" y2="400.01" gradientUnits="userSpaceOnUse"> <stop offset="0.359375" stop-color="#B99A2E"></stop> <stop offset="1" stop-color="white"></stop> </linearGradient> <linearGradient id="paint23_linear_351_318" x1="139.995" y1="0" x2="139.995" y2="400.01" gradientUnits="userSpaceOnUse"> <stop offset="0.359375" stop-color="#B99A2E"></stop> <stop offset="1" stop-color="white"></stop> </linearGradient> <linearGradient id="paint24_linear_351_318" x1="139.995" y1="0" x2="139.995" y2="400.01" gradientUnits="userSpaceOnUse"> <stop offset="0.359375" stop-color="#B99A2E"></stop> <stop offset="1" stop-color="white"></stop> </linearGradient> <linearGradient id="paint25_linear_351_318" x1="139.995" y1="0" x2="139.995" y2="400.01" gradientUnits="userSpaceOnUse"> <stop offset="0.359375" stop-color="#B99A2E"></stop> <stop offset="1" stop-color="white"></stop> </linearGradient> <linearGradient id="paint26_linear_351_318" x1="139.995" y1="0" x2="139.995" y2="400.01" gradientUnits="userSpaceOnUse"> <stop offset="0.359375" stop-color="#B99A2E"></stop> <stop offset="1" stop-color="white"></stop> </linearGradient> <linearGradient id="paint27_linear_351_318" x1="139.995" y1="0" x2="139.995" y2="400.01" gradientUnits="userSpaceOnUse"> <stop offset="0.359375" stop-color="#B99A2E"></stop> <stop offset="1" stop-color="white"></stop> </linearGradient> <linearGradient id="paint28_linear_351_318" x1="139.995" y1="0" x2="139.995" y2="400.01" gradientUnits="userSpaceOnUse"> <stop offset="0.359375" stop-color="#B99A2E"></stop> <stop offset="1" stop-color="white"></stop> </linearGradient> <linearGradient id="paint29_linear_351_318" x1="139.995" y1="0" x2="139.995" y2="400.01" gradientUnits="userSpaceOnUse"> <stop offset="0.359375" stop-color="#B99A2E"></stop> <stop offset="1" stop-color="white"></stop> </linearGradient> <linearGradient id="paint30_linear_351_318" x1="139.995" y1="0" x2="139.995" y2="400.01" gradientUnits="userSpaceOnUse"> <stop offset="0.359375" stop-color="#B99A2E"></stop> <stop offset="1" stop-color="white"></stop> </linearGradient> <linearGradient id="paint31_linear_351_318" x1="139.995" y1="0" x2="139.995" y2="400.01" gradientUnits="userSpaceOnUse"> <stop offset="0.359375" stop-color="#B99A2E"></stop> <stop offset="1" stop-color="white"></stop> </linearGradient> <linearGradient id="paint32_linear_351_318" x1="139.995" y1="0" x2="139.995" y2="400.01" gradientUnits="userSpaceOnUse"> <stop offset="0.359375" stop-color="#B99A2E"></stop> <stop offset="1" stop-color="white"></stop> </linearGradient> <linearGradient id="paint33_linear_351_318" x1="139.995" y1="0" x2="139.995" y2="400.01" gradientUnits="userSpaceOnUse"> <stop offset="0.359375" stop-color="#B99A2E"></stop> <stop offset="1" stop-color="white"></stop> </linearGradient> <linearGradient id="paint34_linear_351_318" x1="139.995" y1="0" x2="139.995" y2="400.01" gradientUnits="userSpaceOnUse"> <stop offset="0.359375" stop-color="#B99A2E"></stop> <stop offset="1" stop-color="white"></stop> </linearGradient> <linearGradient id="paint35_linear_351_318" x1="139.995" y1="0" x2="139.995" y2="400.01" gradientUnits="userSpaceOnUse"> <stop offset="0.359375" stop-color="#B99A2E"></stop> <stop offset="1" stop-color="white"></stop> </linearGradient> <linearGradient id="paint36_linear_351_318" x1="139.995" y1="0" x2="139.995" y2="400.01" gradientUnits="userSpaceOnUse"> <stop offset="0.359375" stop-color="#B99A2E"></stop> <stop offset="1" stop-color="white"></stop> </linearGradient> <linearGradient id="paint37_linear_351_318" x1="139.995" y1="0" x2="139.995" y2="400.01" gradientUnits="userSpaceOnUse"> <stop offset="0.359375" stop-color="#B99A2E"></stop> <stop offset="1" stop-color="white"></stop> </linearGradient> <linearGradient id="paint38_linear_351_318" x1="139.995" y1="0" x2="139.995" y2="400.01" gradientUnits="userSpaceOnUse"> <stop offset="0.359375" stop-color="#B99A2E"></stop> <stop offset="1" stop-color="white"></stop> </linearGradient> <linearGradient id="paint39_linear_351_318" x1="139.995" y1="0" x2="139.995" y2="400.01" gradientUnits="userSpaceOnUse"> <stop offset="0.359375" stop-color="#B99A2E"></stop> <stop offset="1" stop-color="white"></stop> </linearGradient> <linearGradient id="paint40_linear_351_318" x1="139.995" y1="0" x2="139.995" y2="400.01" gradientUnits="userSpaceOnUse"> <stop offset="0.359375" stop-color="#B99A2E"></stop> <stop offset="1" stop-color="white"></stop> </linearGradient> <linearGradient id="paint41_linear_351_318" x1="139.995" y1="0" x2="139.995" y2="400.01" gradientUnits="userSpaceOnUse"> <stop offset="0.359375" stop-color="#B99A2E"></stop> <stop offset="1" stop-color="white"></stop> </linearGradient> <linearGradient id="paint42_linear_351_318" x1="139.995" y1="0" x2="139.995" y2="400.01" gradientUnits="userSpaceOnUse"> <stop offset="0.359375" stop-color="#B99A2E"></stop> <stop offset="1" stop-color="white"></stop> </linearGradient> <linearGradient id="paint43_linear_351_318" x1="139.995" y1="0" x2="139.995" y2="400.01" gradientUnits="userSpaceOnUse"> <stop offset="0.359375" stop-color="#B99A2E"></stop> <stop offset="1" stop-color="white"></stop> </linearGradient> <linearGradient id="paint44_linear_351_318" x1="139.995" y1="0" x2="139.995" y2="400.01" gradientUnits="userSpaceOnUse"> <stop offset="0.359375" stop-color="#B99A2E"></stop> <stop offset="1" stop-color="white"></stop> </linearGradient> <linearGradient id="paint45_linear_351_318" x1="139.995" y1="0" x2="139.995" y2="400.01" gradientUnits="userSpaceOnUse"> <stop offset="0.359375" stop-color="#B99A2E"></stop> <stop offset="1" stop-color="white"></stop> </linearGradient> <linearGradient id="paint46_linear_351_318" x1="139.995" y1="0" x2="139.995" y2="400.01" gradientUnits="userSpaceOnUse"> <stop offset="0.359375" stop-color="#B99A2E"></stop> <stop offset="1" stop-color="white"></stop> </linearGradient> <linearGradient id="paint47_linear_351_318" x1="139.995" y1="0" x2="139.995" y2="400.01" gradientUnits="userSpaceOnUse"> <stop offset="0.359375" stop-color="#B99A2E"></stop> <stop offset="1" stop-color="white"></stop> </linearGradient> <linearGradient id="paint48_linear_351_318" x1="139.995" y1="0" x2="139.995" y2="400.01" gradientUnits="userSpaceOnUse"> <stop offset="0.359375" stop-color="#B99A2E"></stop> <stop offset="1" stop-color="white"></stop> </linearGradient> <linearGradient id="paint49_linear_351_318" x1="139.995" y1="0" x2="139.995" y2="400.01" gradientUnits="userSpaceOnUse"> <stop offset="0.359375" stop-color="#B99A2E"></stop> <stop offset="1" stop-color="white"></stop> </linearGradient> <linearGradient id="paint50_linear_351_318" x1="139.995" y1="0" x2="139.995" y2="400.01" gradientUnits="userSpaceOnUse"> <stop offset="0.359375" stop-color="#B99A2E"></stop> <stop offset="1" stop-color="white"></stop> </linearGradient> <linearGradient id="paint51_linear_351_318" x1="139.995" y1="0" x2="139.995" y2="400.01" gradientUnits="userSpaceOnUse"> <stop offset="0.359375" stop-color="#B99A2E"></stop> <stop offset="1" stop-color="white"></stop> </linearGradient> <linearGradient id="paint52_linear_351_318" x1="139.995" y1="0" x2="139.995" y2="400.01" gradientUnits="userSpaceOnUse"> <stop offset="0.359375" stop-color="#B99A2E"></stop> <stop offset="1" stop-color="white"></stop> </linearGradient> <linearGradient id="paint53_linear_351_318" x1="139.995" y1="0" x2="139.995" y2="400.01" gradientUnits="userSpaceOnUse"> <stop offset="0.359375" stop-color="#B99A2E"></stop> <stop offset="1" stop-color="white"></stop> </linearGradient> <linearGradient id="paint54_linear_351_318" x1="139.995" y1="0" x2="139.995" y2="400.01" gradientUnits="userSpaceOnUse"> <stop offset="0.359375" stop-color="#B99A2E"></stop> <stop offset="1" stop-color="white"></stop> </linearGradient> <linearGradient id="paint55_linear_351_318" x1="139.995" y1="0" x2="139.995" y2="400.01" gradientUnits="userSpaceOnUse"> <stop offset="0.359375" stop-color="#B99A2E"></stop> <stop offset="1" stop-color="white"></stop> </linearGradient> <linearGradient id="paint56_linear_351_318" x1="139.995" y1="0" x2="139.995" y2="400.01" gradientUnits="userSpaceOnUse"> <stop offset="0.359375" stop-color="#B99A2E"></stop> <stop offset="1" stop-color="white"></stop> </linearGradient> <linearGradient id="paint57_linear_351_318" x1="139.995" y1="0" x2="139.995" y2="400.01" gradientUnits="userSpaceOnUse"> <stop offset="0.359375" stop-color="#B99A2E"></stop> <stop offset="1" stop-color="white"></stop> </linearGradient> <linearGradient id="paint58_linear_351_318" x1="139.995" y1="0" x2="139.995" y2="400.01" gradientUnits="userSpaceOnUse"> <stop offset="0.359375" stop-color="#B99A2E"></stop> <stop offset="1" stop-color="white"></stop> </linearGradient> <linearGradient id="paint59_linear_351_318" x1="139.995" y1="0" x2="139.995" y2="400.01" gradientUnits="userSpaceOnUse"> <stop offset="0.359375" stop-color="#B99A2E"></stop> <stop offset="1" stop-color="white"></stop> </linearGradient> <linearGradient id="paint60_linear_351_318" x1="139.995" y1="0" x2="139.995" y2="400.01" gradientUnits="userSpaceOnUse"> <stop offset="0.359375" stop-color="#B99A2E"></stop> <stop offset="1" stop-color="white"></stop> </linearGradient> <linearGradient id="paint61_linear_351_318" x1="139.995" y1="0" x2="139.995" y2="400.01" gradientUnits="userSpaceOnUse"> <stop offset="0.359375" stop-color="#B99A2E"></stop> <stop offset="1" stop-color="white"></stop> </linearGradient> <linearGradient id="paint62_linear_351_318" x1="139.995" y1="0" x2="139.995" y2="400.01" gradientUnits="userSpaceOnUse"> <stop offset="0.359375" stop-color="#B99A2E"></stop> <stop offset="1" stop-color="white"></stop> </linearGradient> <linearGradient id="paint63_linear_351_318" x1="139.995" y1="0" x2="139.995" y2="400.01" gradientUnits="userSpaceOnUse"> <stop offset="0.359375" stop-color="#B99A2E"></stop> <stop offset="1" stop-color="white"></stop> </linearGradient> <linearGradient id="paint64_linear_351_318" x1="139.995" y1="0" x2="139.995" y2="400.01" gradientUnits="userSpaceOnUse"> <stop offset="0.359375" stop-color="#B99A2E"></stop> <stop offset="1" stop-color="white"></stop> </linearGradient> <linearGradient id="paint65_linear_351_318" x1="139.995" y1="0" x2="139.995" y2="400.01" gradientUnits="userSpaceOnUse"> <stop offset="0.359375" stop-color="#B99A2E"></stop> <stop offset="1" stop-color="white"></stop> </linearGradient> <linearGradient id="paint66_linear_351_318" x1="139.995" y1="0" x2="139.995" y2="400.01" gradientUnits="userSpaceOnUse"> <stop offset="0.359375" stop-color="#B99A2E"></stop> <stop offset="1" stop-color="white"></stop> </linearGradient> <linearGradient id="paint67_linear_351_318" x1="139.995" y1="0" x2="139.995" y2="400.01" gradientUnits="userSpaceOnUse"> <stop offset="0.359375" stop-color="#B99A2E"></stop> <stop offset="1" stop-color="white"></stop> </linearGradient> <linearGradient id="paint68_linear_351_318" x1="139.995" y1="0" x2="139.995" y2="400.01" gradientUnits="userSpaceOnUse"> <stop offset="0.359375" stop-color="#B99A2E"></stop> <stop offset="1" stop-color="white"></stop> </linearGradient> <linearGradient id="paint69_linear_351_318" x1="139.995" y1="0" x2="139.995" y2="400.01" gradientUnits="userSpaceOnUse"> <stop offset="0.359375" stop-color="#B99A2E"></stop> <stop offset="1" stop-color="white"></stop> </linearGradient> <linearGradient id="paint70_linear_351_318" x1="139.995" y1="0" x2="139.995" y2="400.01" gradientUnits="userSpaceOnUse"> <stop offset="0.359375" stop-color="#B99A2E"></stop> <stop offset="1" stop-color="white"></stop> </linearGradient> <linearGradient id="paint71_linear_351_318" x1="139.995" y1="0" x2="139.995" y2="400.01" gradientUnits="userSpaceOnUse"> <stop offset="0.359375" stop-color="#B99A2E"></stop> <stop offset="1" stop-color="white"></stop> </linearGradient> <linearGradient id="paint72_linear_351_318" x1="139.995" y1="0" x2="139.995" y2="400.01" gradientUnits="userSpaceOnUse"> <stop offset="0.359375" stop-color="#B99A2E"></stop> <stop offset="1" stop-color="white"></stop> </linearGradient> <linearGradient id="paint73_linear_351_318" x1="139.995" y1="0" x2="139.995" y2="400.01" gradientUnits="userSpaceOnUse"> <stop offset="0.359375" stop-color="#B99A2E"></stop> <stop offset="1" stop-color="white"></stop> </linearGradient> </defs> </svg> 