<?xml version="1.0" encoding="UTF-8"?> <svg xmlns="http://www.w3.org/2000/svg" width="280" height="400" viewBox="0 0 280 400" fill="none"> <path d="M167.073 288.557C166.99 288.594 166.901 288.615 166.812 288.62C166.99 288.62 167.172 288.609 167.354 288.594C167.365 288.531 167.375 288.464 167.391 288.401C167.312 288.443 167.219 288.479 167.073 288.557Z" fill="url(#paint0_linear_356_7421)"></path> <path d="M175.141 272.953C175.057 272.13 174.943 270.901 174.167 270.109C173.891 269.823 173.557 269.682 173.161 269.677C172.734 269.693 172.349 269.833 172.005 270.089C171.635 270.354 171.302 270.651 170.995 270.979L170.922 271.047C170.547 271.422 170.219 271.833 169.896 272.198C169.672 272.458 169.453 272.719 169.208 272.984C169.25 268.24 168.698 263.964 167.552 260.188C165.51 253.448 161.724 249.089 155.974 246.87C151.365 245.083 145.661 244.719 138.036 245.719C132.094 246.505 125.365 247.385 121.536 254.042C118.656 259.031 118.297 265.276 117.974 270.781C117.938 271.323 117.911 271.865 117.875 272.396C117.875 272.516 117.875 272.656 117.875 272.771C117.151 271.995 116.365 271.281 115.516 270.635C115.188 270.396 114.333 269.766 113.422 270.063C112.573 270.323 112.109 271.245 112.141 272.552C112.203 274.875 112.76 277.089 113.427 279.531C114.078 281.87 114.703 283.969 115.875 285.844C116.307 286.547 116.792 287.203 117.339 287.818C118.203 288.839 119.276 289.536 120.557 289.917C120.552 289.922 120.552 289.932 120.557 289.938C120.807 291.432 121.141 292.911 121.557 294.37C122.438 297.25 124.146 300.229 126.339 302.995C126.875 303.682 127.453 304.354 128.042 305C131.958 309.281 136.901 312.724 141.323 313.818C142.615 314.13 143.922 314.292 145.25 314.297C149.531 314.297 153.635 312.542 157.323 309.13C157.911 308.573 158.484 307.995 159.031 307.37C159.448 306.911 159.844 306.438 160.224 305.948C162.911 302.474 164.828 298.615 165.974 294.37C166.495 292.391 166.974 290.474 167.375 288.589C167.198 288.589 167.016 288.609 166.833 288.615C166.927 288.604 167.016 288.583 167.099 288.552C167.245 288.469 167.339 288.432 167.411 288.396C167.427 288.396 167.438 288.396 167.448 288.396L167.823 288.219C168.5 287.88 169.214 287.526 169.917 287.094C170.688 286.641 171.375 286.083 171.979 285.422C173.182 284.047 173.745 282.297 174.182 280.755C174.688 279.094 175.016 277.396 175.167 275.661C175.24 274.76 175.229 273.854 175.141 272.953ZM116.953 285.151C115.875 283.422 115.281 281.422 114.661 279.182C114.016 276.823 113.469 274.688 113.422 272.51C113.401 271.984 113.516 271.385 113.797 271.297C113.984 271.24 114.286 271.365 114.703 271.682C115.766 272.474 116.719 273.385 117.552 274.422C117.625 274.505 117.708 274.573 117.813 274.609C117.87 277.526 118.396 280.672 119.438 284.516C119.786 285.797 120.031 287.13 120.266 288.443C119.083 287.917 118.036 286.87 116.958 285.151H116.953ZM166.234 287.63C166.234 287.63 166.234 287.646 166.234 287.656C166.208 287.771 166.182 287.901 166.156 288.021C165.745 289.964 165.26 291.974 164.708 294.026C163.583 298.161 161.698 301.911 159.063 305.292C159.042 305.323 159.016 305.354 158.99 305.385C158.203 306.38 157.349 307.313 156.422 308.177C153.307 311.063 148.224 314.172 141.635 312.552C136.922 311.396 131.448 307.24 127.516 302.349C127.443 302.271 127.385 302.198 127.323 302.115C125.245 299.495 123.62 296.672 122.802 293.995C122.385 292.547 122.057 291.078 121.818 289.589C121.792 289.396 121.755 289.203 121.724 289.01C121.708 288.958 121.703 288.901 121.693 288.844C121.427 287.318 121.146 285.724 120.729 284.177C119.651 280.203 119.156 277.01 119.156 274.063C119.156 273.542 119.172 273.016 119.203 272.495C119.234 271.969 119.266 271.422 119.297 270.875C119.625 265.25 119.964 259.427 122.682 254.698C125.917 249.042 131.396 247.906 138.208 247.005C140.625 246.667 143.057 246.495 145.5 246.479C156.865 246.479 163.396 250.969 166.297 260.542C168.484 267.75 168.458 276.839 166.234 287.63ZM173.828 275.557C173.682 277.198 173.37 278.813 172.885 280.391C172.49 281.781 171.979 283.37 170.958 284.547C170.099 285.526 168.911 286.182 167.714 286.792C168.536 282.703 169.026 278.573 169.177 274.406C169.417 274.474 169.625 274.417 169.807 274.25C170.208 273.854 170.557 273.432 170.896 273.031C171.234 272.63 171.516 272.297 171.859 271.958L171.927 271.88C172.104 271.698 172.297 271.521 172.495 271.359C172.682 271.167 172.906 271.042 173.167 270.99C173.167 270.99 173.198 270.99 173.24 271.031C173.693 271.49 173.786 272.453 173.849 273.083C173.906 273.906 173.901 274.729 173.828 275.557Z" fill="url(#paint1_linear_356_7421)"></path> <path d="M127.5 302.349C127.427 302.271 127.365 302.193 127.302 302.109C127.391 302.172 127.453 302.255 127.5 302.349Z" fill="url(#paint2_linear_356_7421)"></path> <path d="M125.745 321.443C122.458 326.979 117.724 333.635 110.198 336.094C107.412 337.005 103.964 337.099 100.323 337.193C93.8907 337.365 87.2397 337.542 84.1043 342.344C81.9897 345.557 80.6303 349.068 80.0209 352.87C79.7762 354.375 79.6459 355.891 79.6303 357.417C79.4845 366.729 83.1095 376.536 86.6616 386.146C88.1772 390.25 89.6459 394.219 90.8126 398.083C91.0105 398.729 91.1928 399.37 91.3647 400H90.0105C89.8334 399.37 89.6459 398.729 89.4428 398.083C88.3074 394.37 86.8907 390.542 85.4324 386.599C81.8439 376.885 78.172 366.974 78.3022 357.469C78.3178 355.135 78.5991 352.839 79.1355 350.573C79.9064 347.365 81.1928 344.385 83.0105 341.635C86.5157 336.26 93.5157 336.068 100.281 335.896C103.833 335.802 107.182 335.708 109.787 334.849C116.896 332.526 121.448 326.109 124.615 320.776C127.302 316.245 127.875 310.266 126.318 303C126.854 303.688 127.432 304.359 128.021 305.005C129.073 311.589 128.313 317.109 125.745 321.443Z" fill="url(#paint3_linear_356_7421)"></path> <path d="M212.266 356.385C212.234 356.927 212.193 357.458 212.151 357.995C212.104 358.672 212.047 359.339 211.979 360.01C211.005 370.646 208.594 381.026 206.26 391.115C205.734 393.422 205.182 395.745 204.656 398.083C204.51 398.724 204.37 399.359 204.229 400H202.901C203.047 399.359 203.187 398.724 203.323 398.083C203.875 395.646 204.443 393.219 204.995 390.818C207.323 380.807 209.713 370.5 210.682 359.99C210.755 359.266 210.818 358.531 210.87 357.797C210.906 357.297 210.937 356.807 210.969 356.312C211.135 353.568 211.307 350.74 210.588 348.094C209.25 343.177 204.958 337.88 199.354 337.312C197.599 337.13 195.818 336.974 194.094 336.828C180.281 335.661 167.234 334.557 161.292 318.438C159.885 314.63 159.318 310.661 159.021 307.375C159.437 306.917 159.833 306.448 160.213 305.953C160.474 309.385 160.969 313.797 162.516 317.979C168.167 333.323 180.812 334.396 194.208 335.531C195.943 335.677 197.74 335.828 199.5 336.016C205.687 336.651 210.401 342.401 211.865 347.75C212.609 350.609 212.437 353.547 212.266 356.385Z" fill="url(#paint4_linear_356_7421)"></path> <path d="M121.823 289.516C121.818 289.542 121.813 289.568 121.802 289.594C121.771 289.396 121.734 289.203 121.703 289.01C121.818 289.156 121.859 289.328 121.823 289.516Z" fill="url(#paint5_linear_356_7421)"></path> <path d="M202.792 197.589C202.677 198.005 202.531 198.422 202.396 198.833C201.37 201.833 199.896 204.599 197.99 207.13C201.37 211.5 200 217.766 197.714 221.953C197.693 221.984 197.672 222.026 197.656 222.057C197.641 222.094 197.625 222.109 197.599 222.151L197.568 222.219C197.484 222.38 197.359 222.484 197.188 222.542C197.016 222.599 196.849 222.589 196.693 222.505C196.578 222.443 196.495 222.354 196.427 222.245C196.427 222.229 196.411 222.203 196.401 222.188C196.385 222.167 196.401 222.167 196.401 222.162C196.401 222.156 196.375 222.089 196.365 222.052C196.349 221.969 196.349 221.891 196.365 221.813C196.365 221.787 196.365 221.755 196.38 221.729C196.391 221.698 196.396 221.667 196.411 221.641C196.411 221.641 196.411 221.62 196.411 221.615L196.5 221.438C199.807 215.495 198.964 210.193 196.667 207.557C196.563 207.438 196.51 207.297 196.51 207.141C196.505 206.984 196.552 206.844 196.651 206.719C198.724 204.094 200.286 201.188 201.333 198.005C201.333 198.005 201.333 197.979 201.333 197.974C201.333 197.969 201.333 197.974 201.333 197.964C201.354 197.88 201.38 197.813 201.401 197.734C202.188 195.203 202.573 192.573 202.276 190.115C201.578 184.141 197.62 178.63 189.828 172.766C189.656 172.635 189.568 172.458 189.568 172.24C189.635 163.734 182.948 155.458 173.672 152.578C163.786 149.5 153.688 152.406 146.953 155.385C146.651 155.516 146.396 155.458 146.182 155.203C140.5 148.276 131.073 145.01 122.734 147.083C114.203 149.177 107.411 157.162 106.943 165.63C106.927 165.875 106.813 166.052 106.599 166.167C104.604 167.25 102.75 168.537 101.042 170.031C101.021 170.057 100.995 170.083 100.964 170.099C94.5938 175.766 91.8125 183.49 93.7604 191.057C93.8802 191.495 94.0625 192.224 93.6615 192.844C93.5156 193.047 93.3438 193.214 93.1354 193.354C89 196.537 86.849 201.495 85.8021 205.094C85.0365 207.667 84.9531 211.021 85.5677 214.297C85.7136 215.083 87.5417 220.198 88.3281 221.089C88.5469 221.083 88.7188 221.172 88.849 221.349C88.9584 221.495 88.9948 221.656 88.9688 221.839C88.9375 222.016 88.849 222.156 88.7031 222.26C82.1563 226.979 80.2709 239.229 81.3021 248.599C82.9844 263.948 100.719 282.771 117.318 287.813C118.182 288.833 119.26 289.531 120.542 289.911C120.536 289.917 120.536 289.927 120.542 289.932C102.24 286.563 81.8906 265.953 79.9948 248.734C79.2083 241.453 79.875 227.828 87.2396 221.734C85.875 219.865 84.2969 214.573 84.2813 214.516C83.6354 211.047 83.7344 207.469 84.5417 204.703C85.6667 200.917 87.9219 195.693 92.3386 192.302C92.4219 192.25 92.4948 192.182 92.5573 192.109C92.6458 191.974 92.5573 191.583 92.4896 191.359C90.4948 183.641 93.1094 175.787 99.2552 169.88C99.6198 169.526 100 169.182 100.385 168.833C102.021 167.438 103.776 166.214 105.651 165.167C106.328 156.146 113.323 148.026 122.411 145.787C131.083 143.641 140.839 146.922 146.87 153.969C153.807 150.964 164.005 148.172 174.057 151.307C183.75 154.318 190.766 162.943 190.875 171.896C198.792 177.922 202.828 183.656 203.573 189.938C203.865 192.427 203.526 195.047 202.792 197.589Z" fill="url(#paint6_linear_356_7421)"></path> <path d="M166.214 287.656C166.193 287.776 166.167 287.896 166.141 288.021C166.125 287.891 166.151 287.771 166.214 287.656Z" fill="url(#paint7_linear_356_7421)"></path> <path d="M199.984 259.964C196.839 268.349 192.474 275.208 186.979 280.328C181.177 285.734 175.281 288.229 167.333 288.599C167.161 288.599 166.979 288.615 166.797 288.62C166.885 288.615 166.974 288.594 167.057 288.557C167.203 288.479 167.297 288.443 167.375 288.401H167.401C167.5 288.354 167.599 288.313 167.781 288.219C168.458 287.885 169.172 287.531 169.875 287.104C176.203 286.349 181.182 283.958 186.089 279.38C191.432 274.406 195.688 267.719 198.75 259.516C203.031 248.063 202.198 234.833 196.417 222.266C196.417 222.25 196.401 222.229 196.385 222.208C196.375 222.193 196.385 222.193 196.385 222.188C196.385 222.182 196.365 222.109 196.349 222.073C196.339 221.995 196.339 221.917 196.349 221.839C196.349 221.807 196.349 221.781 196.37 221.75C196.375 221.719 196.385 221.693 196.396 221.661C196.396 221.661 196.396 221.646 196.396 221.641C196.464 221.5 196.568 221.401 196.708 221.339C196.87 221.266 197.036 221.26 197.208 221.323C197.375 221.385 197.495 221.5 197.573 221.661C197.62 221.76 197.667 221.859 197.708 221.964C203.547 234.771 204.349 248.25 199.984 259.964Z" fill="url(#paint8_linear_356_7421)"></path> <path d="M155.016 298.01C153.182 296.177 150.911 293.891 147.682 294.443C147.375 294.495 147.068 294.568 146.771 294.656C146.339 294.802 145.896 294.88 145.437 294.88C145.036 294.833 144.646 294.745 144.266 294.62C143.932 294.531 143.594 294.438 143.245 294.375C141.969 294.177 140.729 294.594 139.594 295.073C137.807 295.818 136.104 296.719 134.49 297.781C134.234 297.953 134.151 298.188 134.229 298.484C134.24 298.542 134.26 298.594 134.292 298.651C134.401 298.844 134.568 298.953 134.792 298.974L135.521 299.052C136.641 299.187 137.76 299.266 138.885 299.286C139.437 299.286 139.984 299.255 140.531 299.193C140.755 299.167 140.984 299.135 141.214 299.104C142.083 298.937 142.964 298.88 143.854 298.932C144.089 298.958 144.323 298.995 144.562 299.026C144.984 299.104 145.411 299.151 145.844 299.161C146.349 299.141 146.849 299.083 147.344 298.99C147.656 298.922 147.979 298.87 148.297 298.839C148.927 298.802 149.557 298.828 150.182 298.922C150.448 298.948 150.708 298.99 150.969 299.026C151.536 299.109 152.104 299.182 152.687 299.224C153.37 299.276 154.052 299.234 154.724 299.094C154.75 299.089 154.776 299.083 154.797 299.068C155.005 298.995 155.146 298.854 155.208 298.641C155.266 298.396 155.198 298.182 155.016 298.01ZM151.125 297.75L150.26 297.625C149.562 297.531 148.865 297.505 148.167 297.552C147.797 297.583 147.432 297.646 147.083 297.708C146.672 297.802 146.255 297.854 145.828 297.87C145.469 297.859 145.115 297.818 144.76 297.75C144.495 297.708 144.234 297.667 143.974 297.641C142.984 297.583 142 297.641 141.021 297.818C140.797 297.849 140.583 297.88 140.359 297.906C139.182 298.031 138.01 298.021 136.839 297.885C137.891 297.286 138.979 296.755 140.099 296.281C141.068 295.88 142.083 295.531 143.042 295.682C143.339 295.734 143.63 295.802 143.917 295.891C144.391 296.036 144.87 296.13 145.359 296.182C145.964 296.193 146.547 296.104 147.115 295.917C147.375 295.839 147.635 295.776 147.901 295.734C149.891 295.401 151.495 296.469 152.901 297.766C152.969 297.823 153.036 297.885 153.109 297.948C152.443 297.922 151.781 297.854 151.125 297.75Z" fill="url(#paint9_linear_356_7421)"></path> <path d="M154.901 298.49C154.859 298.156 154.667 297.964 154.333 297.922C153.854 297.865 153.375 297.807 152.885 297.766C152.016 297.672 151.146 297.625 150.266 297.63C149.208 297.635 148.161 297.75 147.125 297.964L146.807 298.036C146.495 298.125 146.172 298.182 145.849 298.214C145.5 298.234 145.151 298.224 144.802 298.182L144.583 298.167C143.391 298.083 142.193 298.104 141.031 298.125C139.224 298.161 137.516 298.193 135.833 297.839C135.594 297.786 134.964 297.661 134.484 298.104C134.323 298.255 134.255 298.443 134.286 298.661C134.302 298.797 134.349 298.911 134.438 299.016C135.974 300.755 138.495 301.708 140.526 302.349C141.99 302.807 143.49 303.036 145.026 303.036C148.651 303.036 152.151 301.729 154.531 299.339C154.547 299.328 154.568 299.313 154.583 299.297C154.667 299.24 154.734 299.167 154.786 299.083C154.885 298.896 154.922 298.698 154.901 298.49ZM140.891 301.109C139.583 300.698 138.036 300.141 136.781 299.318C138.198 299.453 139.62 299.495 141.042 299.432C142.172 299.417 143.344 299.391 144.464 299.469L144.682 299.49C145.099 299.531 145.521 299.542 145.943 299.521C146.328 299.484 146.708 299.411 147.083 299.312L147.391 299.24C148.302 299.047 149.229 298.948 150.161 298.943C151.068 298.927 151.974 298.974 152.875 299.068C152.802 299.125 152.734 299.182 152.656 299.24C149.583 301.646 145.036 302.406 140.891 301.104V301.109Z" fill="url(#paint10_linear_356_7421)"></path> <path d="M166.214 287.656C166.193 287.776 166.167 287.896 166.141 288.021C166.125 287.891 166.151 287.771 166.214 287.656Z" fill="url(#paint11_linear_356_7421)"></path> <path d="M166.234 287.604C166.234 287.604 166.213 287.625 166.208 287.646C166.219 287.635 166.229 287.62 166.234 287.604Z" fill="url(#paint12_linear_356_7421)"></path> <path d="M121.823 289.516L121.807 289.594C121.776 289.396 121.74 289.203 121.708 289.01C121.818 289.161 121.859 289.328 121.823 289.516Z" fill="url(#paint13_linear_356_7421)"></path> <path d="M223.766 204.792C223.703 204.792 223.646 204.786 223.589 204.771C223.589 204.771 219.036 203.5 201.802 198.667C201.625 198.615 201.495 198.51 201.406 198.354C201.318 198.198 201.297 198.031 201.349 197.859C201.396 197.682 201.5 197.552 201.656 197.464C201.812 197.375 201.979 197.359 202.156 197.406C219.385 202.245 223.937 203.521 223.937 203.521C224.094 203.568 224.219 203.656 224.307 203.792C224.396 203.927 224.432 204.078 224.411 204.24C224.385 204.401 224.318 204.536 224.193 204.641C224.068 204.75 223.927 204.802 223.766 204.802V204.792Z" fill="url(#paint14_linear_356_7421)"></path> <path d="M100.573 170.224C100.51 170.224 100.453 170.219 100.396 170.203L82.5886 165.307C66.0521 160.766 57.7501 158.484 57.0105 158.234C56.8282 158.187 56.698 158.078 56.6094 157.911C56.5209 157.745 56.5053 157.573 56.5626 157.396C56.6251 157.219 56.7397 157.089 56.9115 157.01C57.0834 156.932 57.2553 156.932 57.4272 157C58.1303 157.24 66.9428 159.661 82.9324 164.052L100.75 168.948C100.906 168.99 101.031 169.083 101.12 169.219C101.208 169.354 101.245 169.5 101.224 169.661C101.198 169.823 101.13 169.958 101.005 170.068C100.88 170.177 100.74 170.229 100.578 170.229L100.573 170.224Z" fill="url(#paint15_linear_356_7421)"></path> <path d="M239.266 269.38C238.969 268.745 238.349 268.167 237.469 267.651C233.885 265.536 226.062 264.427 218.588 264.427C211.302 264.427 203.687 265.474 199.99 267.5C199.213 267.87 198.568 268.406 198.057 269.104C197.849 269.422 197.734 269.771 197.708 270.151C197.703 270.187 197.703 270.224 197.708 270.26C197.713 270.297 197.713 270.339 197.724 270.375C197.734 270.651 197.802 270.911 197.917 271.161C198.245 271.839 198.948 272.469 199.943 272.995C203.609 275.026 211.271 276.099 218.594 276.099C225.995 276.099 233.734 275.005 237.359 272.937C238.391 272.349 239.088 271.687 239.365 270.948C239.365 270.922 239.375 270.896 239.385 270.87C239.385 270.833 239.396 270.797 239.406 270.76C239.443 270.656 239.463 270.547 239.463 270.437C239.463 270.38 239.479 270.349 239.479 270.333C239.479 270.307 239.479 270.281 239.479 270.255C239.474 269.943 239.406 269.651 239.266 269.38ZM238.104 270.578C237.37 272.437 230.083 274.812 218.588 274.812C207.302 274.812 200.068 272.521 199.115 270.677C199.042 270.552 199.005 270.417 199.005 270.271C199.016 270.031 199.104 269.818 199.266 269.641C200.661 267.833 207.766 265.714 218.594 265.714C229.786 265.714 236.99 267.964 238.036 269.807C238.125 269.943 238.172 270.094 238.177 270.26C238.177 270.37 238.151 270.479 238.104 270.578Z" fill="url(#paint16_linear_356_7421)"></path> <path d="M239.458 270.104L239.266 269.38L222.422 204.448L222.036 202.979L221.99 202.781C221.906 202.469 221.703 202.307 221.38 202.292C221.109 202.276 220.911 202.391 220.781 202.63C220.76 202.661 220.75 202.698 220.74 202.734L220.349 203.865L198.057 269.104L197.734 270.057C197.734 270.089 197.713 270.125 197.708 270.161C197.703 270.198 197.703 270.234 197.708 270.271C197.713 270.307 197.713 270.349 197.724 270.385C197.724 270.422 197.786 270.703 197.917 271.172C198.792 274.188 202.979 284.906 218.088 284.906C218.417 284.906 218.745 284.906 219.083 284.906C228.661 284.62 233.693 280.703 236.224 277.469C237.75 275.542 238.792 273.375 239.354 270.979C239.354 270.953 239.365 270.927 239.375 270.901C239.375 270.865 239.385 270.828 239.396 270.792C239.422 270.646 239.443 270.531 239.453 270.469C239.469 270.406 239.469 270.38 239.469 270.365C239.469 270.339 239.469 270.313 239.469 270.286C239.474 270.224 239.469 270.161 239.458 270.104ZM235.198 276.651C231.812 280.979 226.224 283.375 219.047 283.594C218.719 283.594 218.391 283.594 218.073 283.594C206.318 283.594 201.661 276.953 199.932 273C199.599 272.24 199.328 271.464 199.115 270.667C199.078 270.51 199.047 270.401 199.026 270.302L199.255 269.625L199.99 267.484L221.271 205.198L238.042 269.818L238.167 270.302C238.156 270.365 238.141 270.464 238.115 270.568C237.937 271.38 237.687 272.172 237.365 272.943C236.812 274.281 236.088 275.516 235.198 276.651Z" fill="url(#paint17_linear_356_7421)"></path> <path d="M82.276 224.172C82.2499 223.781 82.1301 223.422 81.9114 223.094C81.3958 222.417 80.7551 221.891 79.9895 221.521C76.2968 219.51 68.6822 218.453 61.3958 218.453C53.9166 218.453 46.0885 219.568 42.5103 221.682C41.6353 222.208 41.0155 222.771 40.7187 223.406C40.578 223.682 40.5103 223.979 40.5051 224.292C40.5051 224.318 40.5051 224.349 40.5051 224.375C40.5103 224.396 40.5103 224.411 40.5051 224.432C40.5155 224.62 40.552 224.802 40.6145 224.979C40.8749 225.708 41.5676 226.365 42.578 226.943C46.1926 229.036 53.9583 230.13 61.3801 230.13C68.7135 230.13 76.3697 229.057 80.0416 227.026C81.0312 226.479 81.7343 225.865 82.0572 225.193C82.177 224.943 82.2395 224.682 82.2551 224.406C82.2603 224.37 82.2655 224.328 82.2655 224.292C82.2812 224.25 82.276 224.214 82.276 224.172ZM80.8697 224.672C79.9583 226.521 72.7187 228.823 61.3958 228.823C49.8228 228.823 42.5103 226.417 41.8593 224.547C41.828 224.464 41.8072 224.375 41.8072 224.286C41.8072 224.12 41.8541 223.969 41.9478 223.833C42.9947 222 50.203 219.74 61.3958 219.74C72.2655 219.74 79.3749 221.865 80.7343 223.672C80.8801 223.849 80.9635 224.052 80.9739 224.281C80.9739 224.422 80.9374 224.552 80.8697 224.672Z" fill="url(#paint18_linear_356_7421)"></path> <path d="M82.276 224.172C82.2603 224.135 82.2551 224.104 82.2447 224.073L81.9114 223.094L60.0572 159.109L59.5312 157.609L59.2395 156.745C59.1301 156.453 58.927 156.307 58.6145 156.302H58.5937C58.2708 156.313 58.0676 156.474 57.9895 156.786L57.8905 157.146L57.5676 158.401L40.7187 223.391L40.526 224.115C40.5103 224.167 40.5051 224.224 40.5051 224.276C40.5051 224.302 40.5051 224.333 40.5051 224.359C40.5103 224.38 40.5103 224.396 40.5051 224.417C40.526 224.505 40.552 224.698 40.6145 224.964C41.1718 227.365 42.2135 229.526 43.7395 231.458C46.276 234.688 51.3072 238.599 60.8801 238.896C61.2187 238.896 61.5468 238.896 61.8801 238.896C76.9947 238.896 81.1822 228.172 82.0468 225.151C82.1822 224.693 82.2291 224.417 82.2447 224.37C82.2499 224.328 82.2551 224.292 82.2551 224.25C82.2812 224.25 82.276 224.214 82.276 224.172ZM60.9374 237.599C48.5572 237.229 44.1249 230.76 42.5989 226.938C42.2812 226.167 42.0364 225.37 41.8645 224.547C41.8645 224.453 41.8333 224.37 41.828 224.313L41.953 223.828L58.7187 159.224L80.9635 224.328C80.9426 224.417 80.9166 224.531 80.8801 224.672C80.6718 225.479 80.401 226.266 80.0624 227.031C78.2812 231.083 73.4218 237.979 60.9374 237.599Z" fill="url(#paint19_linear_356_7421)"></path> <path d="M115.615 400H114.276C114.141 399.359 113.995 398.724 113.839 398.083C112.005 390.193 109.625 382.474 106.698 374.917C106.636 374.75 106.641 374.583 106.714 374.417C106.787 374.25 106.906 374.135 107.073 374.073C107.24 374.005 107.406 374.01 107.573 374.083C107.74 374.156 107.854 374.276 107.917 374.448C110.901 382.151 113.328 390.031 115.188 398.083C115.333 398.724 115.474 399.359 115.615 400Z" fill="url(#paint20_linear_356_7421)"></path> <path d="M184.156 372.875C183.948 376.516 183.771 379.562 183.615 382.25C183.25 388.484 183 392.766 182.807 398.083C182.792 398.708 182.771 399.344 182.75 400H181.443C181.458 399.344 181.479 398.714 181.505 398.083C181.687 392.734 181.937 388.443 182.307 382.172C182.469 379.49 182.646 376.448 182.849 372.807C182.859 372.625 182.932 372.479 183.062 372.354C183.198 372.234 183.354 372.177 183.531 372.187C183.713 372.198 183.865 372.271 183.984 372.406C184.104 372.536 184.161 372.698 184.156 372.875Z" fill="url(#paint21_linear_356_7421)"></path> <path d="M238.865 40.9583C212.458 14.5417 177.339 0 139.995 0C102.651 0 67.5313 14.5417 41.1251 40.9583C14.7188 67.375 0.166748 102.479 0.166748 139.823V399.042C0.166748 399.307 0.260497 399.531 0.447998 399.719C0.635497 399.906 0.859456 400 1.11987 400H278.865C279.13 400 279.354 399.906 279.542 399.719C279.729 399.531 279.823 399.307 279.823 399.042V139.823C279.818 102.479 265.271 67.3646 238.865 40.9583ZM277.891 398.083H2.07821V139.818C2.07821 102.99 16.4272 68.3646 42.4792 42.3125C68.5261 16.2552 103.156 1.91146 139.995 1.91146C176.833 1.91146 211.458 16.2604 237.51 42.3125C263.563 68.3646 277.901 102.99 277.901 139.823L277.891 398.083Z" fill="url(#paint22_linear_356_7421)"></path> <path d="M47.3125 95.2188C50.5625 96.2344 51.9844 99.1146 52.6562 102.661C53.3594 99.0573 54.7083 96.9948 57.9688 95.625C56.6302 95.1979 54.5 92.9323 54.0781 92.2448C53.0573 90.5833 52.9583 88.9583 52.7188 87.1094C51.8958 90.526 50.901 93.651 47.3125 95.2188Z" fill="url(#paint23_linear_356_7421)"></path> <path d="M84.2812 303.417C87.5312 304.432 88.9479 307.312 89.6198 310.854C90.3281 307.255 91.6771 305.193 94.9323 303.818C93.5937 303.396 91.4687 301.13 91.0417 300.437C90.026 298.781 89.9271 297.151 89.6823 295.302C88.8646 298.719 87.8646 301.844 84.2812 303.417Z" fill="url(#paint24_linear_356_7421)"></path> <path d="M252.177 217.146C255.427 218.156 256.844 221.036 257.521 224.583C258.229 220.979 259.578 218.917 262.833 217.547C261.495 217.12 259.365 214.859 258.943 214.167C257.927 212.505 257.828 210.88 257.583 209.031C256.76 212.427 255.766 215.557 252.177 217.146Z" fill="url(#paint25_linear_356_7421)"></path> <path d="M260.219 306.547C263.469 307.557 264.885 310.443 265.562 313.984C266.266 310.38 267.615 308.323 270.875 306.948C269.536 306.526 267.406 304.255 266.984 303.568C265.964 301.911 265.865 300.281 265.625 298.432C264.802 301.849 263.802 304.974 260.219 306.547Z" fill="url(#paint26_linear_356_7421)"></path> <path d="M229.078 130.359C232.328 131.37 233.745 134.25 234.422 137.797C235.125 134.193 236.474 132.13 239.734 130.755C238.391 130.339 236.266 128.068 235.844 127.38C234.823 125.719 234.724 124.094 234.484 122.245C233.661 125.661 232.667 128.781 229.078 130.359Z" fill="url(#paint27_linear_356_7421)"></path> <path d="M28.7551 204.88C32.0051 205.896 33.4218 208.776 34.0989 212.318C34.802 208.719 36.151 206.651 39.4114 205.281C38.0728 204.859 35.9426 202.594 35.5208 201.906C34.5051 200.245 34.4062 198.615 34.1614 196.766C33.3385 200.182 32.3437 203.307 28.7551 204.88Z" fill="url(#paint28_linear_356_7421)"></path> <path d="M61.9062 118.396C64.0677 119.068 65.0104 120.99 65.4583 123.349C65.9271 120.953 66.8281 119.578 68.9948 118.667C68.1042 118.38 66.6875 116.875 66.4062 116.417C65.7292 115.307 65.6615 114.229 65.5 113.01C64.9531 115.25 64.2917 117.349 61.9062 118.396Z" fill="url(#paint29_linear_356_7421)"></path> <path d="M33.7188 345.49C35.8854 346.167 36.8281 348.083 37.276 350.443C37.7448 348.047 38.6458 346.672 40.8125 345.76C39.9219 345.474 38.5052 343.969 38.224 343.51C37.5469 342.406 37.4792 341.323 37.3177 340.089C36.7708 342.349 36.1042 344.443 33.7188 345.49Z" fill="url(#paint30_linear_356_7421)"></path> <path d="M102.234 53.4063C104.396 54.0782 105.344 56 105.792 58.3542C106.26 55.9584 107.156 54.5886 109.328 53.6719C108.432 53.3907 107.021 51.8855 106.734 51.4271C106.057 50.3177 105.995 49.2344 105.833 48.0052C105.286 50.2917 104.625 52.3594 102.234 53.4063Z" fill="url(#paint31_linear_356_7421)"></path> <path d="M245.599 315.974C247.76 316.651 248.703 318.568 249.151 320.927C249.62 318.526 250.521 317.156 252.687 316.24C251.797 315.964 250.38 314.453 250.099 313.995C249.422 312.891 249.354 311.802 249.193 310.589C248.646 312.849 247.984 314.927 245.599 315.974Z" fill="url(#paint32_linear_356_7421)"></path> <path d="M188.693 98.177C190.854 98.8489 191.802 100.771 192.25 103.13C192.719 100.729 193.615 99.3593 195.786 98.4427C194.896 98.1614 193.474 96.6562 193.193 96.1979C192.516 95.0885 192.453 94.0052 192.292 92.776C191.745 95.052 191.078 97.1302 188.693 98.177Z" fill="url(#paint33_linear_356_7421)"></path> <path d="M179.646 30.9583C181.807 31.6354 182.75 33.552 183.203 35.9114C183.672 33.5156 184.568 32.1406 186.734 31.2291C185.844 30.9427 184.427 29.4375 184.146 28.9791C183.469 27.875 183.401 26.7916 183.245 25.5729C182.693 27.8333 182.031 29.9114 179.646 30.9583Z" fill="url(#paint34_linear_356_7421)"></path> <path d="M98.9739 116.281C98.9739 116.625 98.8541 116.917 98.6093 117.161C98.3697 117.401 98.0728 117.526 97.7291 117.526C97.3905 117.526 97.0937 117.401 96.8541 117.161C96.6093 116.917 96.4895 116.625 96.4895 116.281C96.4895 115.938 96.6093 115.646 96.8541 115.401C97.0937 115.156 97.3905 115.036 97.7291 115.036C98.0728 115.036 98.3697 115.156 98.6093 115.401C98.8541 115.646 98.9739 115.938 98.9739 116.281Z" fill="url(#paint35_linear_356_7421)"></path> <path d="M16.3594 111.63C16.3594 111.974 16.2396 112.266 15.9948 112.51C15.7552 112.75 15.4635 112.875 15.1198 112.875C14.776 112.875 14.4792 112.75 14.2396 112.51C13.9948 112.266 13.875 111.974 13.875 111.63C13.875 111.286 13.9948 110.99 14.2396 110.75C14.4792 110.505 14.776 110.385 15.1198 110.385C15.4635 110.385 15.7552 110.505 15.9948 110.75C16.2396 110.99 16.3594 111.286 16.3594 111.63Z" fill="url(#paint36_linear_356_7421)"></path> <path d="M110.578 109.75C110.578 110.094 110.458 110.385 110.214 110.63C109.974 110.875 109.677 110.995 109.333 110.995C108.99 110.995 108.698 110.875 108.453 110.63C108.214 110.385 108.089 110.094 108.089 109.75C108.089 109.406 108.214 109.115 108.453 108.87C108.698 108.63 108.99 108.505 109.333 108.505C109.677 108.505 109.974 108.63 110.214 108.87C110.458 109.115 110.578 109.406 110.578 109.75Z" fill="url(#paint37_linear_356_7421)"></path> <path d="M15.8751 148.208C15.8751 148.552 15.7553 148.849 15.5105 149.089C15.2657 149.333 14.974 149.453 14.6303 149.453C14.2865 149.453 13.9949 149.333 13.7501 149.089C13.5053 148.849 13.3855 148.552 13.3855 148.208C13.3855 147.865 13.5053 147.573 13.7501 147.328C13.9949 147.089 14.2865 146.969 14.6303 146.969C14.974 146.969 15.2657 147.089 15.5105 147.328C15.7553 147.573 15.8751 147.865 15.8751 148.208Z" fill="url(#paint38_linear_356_7421)"></path> <path d="M14.8853 254.807C14.8853 255.151 14.7603 255.443 14.5208 255.688C14.276 255.932 13.9843 256.052 13.6405 256.052C13.2968 256.052 13.0051 255.932 12.7603 255.688C12.5155 255.443 12.3958 255.151 12.3958 254.807C12.3958 254.464 12.5155 254.172 12.7603 253.927C13.0051 253.682 13.2968 253.562 13.6405 253.562C13.9843 253.562 14.276 253.682 14.5208 253.927C14.7603 254.172 14.8853 254.464 14.8853 254.807Z" fill="url(#paint39_linear_356_7421)"></path> <path d="M24.7501 187.797C24.7501 188.141 24.6251 188.437 24.3855 188.677C24.1407 188.922 23.849 189.042 23.5053 189.042C23.1615 189.042 22.8699 188.922 22.6251 188.677C22.3803 188.437 22.2605 188.141 22.2605 187.797C22.2605 187.453 22.3803 187.161 22.6251 186.922C22.8699 186.677 23.1615 186.557 23.5053 186.557C23.849 186.557 24.1407 186.677 24.3855 186.922C24.6251 187.161 24.7501 187.453 24.7501 187.797Z" fill="url(#paint40_linear_356_7421)"></path> <path d="M21.5365 301.38C21.5365 301.724 21.4167 302.016 21.1719 302.26C20.9323 302.5 20.6354 302.625 20.2917 302.625C19.9479 302.625 19.6563 302.5 19.4115 302.26C19.1719 302.016 19.0469 301.724 19.0469 301.38C19.0469 301.036 19.1719 300.745 19.4115 300.5C19.6563 300.255 19.9479 300.135 20.2917 300.135C20.6354 300.135 20.9323 300.255 21.1719 300.5C21.4167 300.745 21.5365 301.036 21.5365 301.38Z" fill="url(#paint41_linear_356_7421)"></path> <path d="M44.0001 273.615C44.0001 273.958 43.8751 274.25 43.6355 274.495C43.3907 274.734 43.099 274.859 42.7553 274.859C42.4115 274.859 42.1199 274.734 41.8751 274.495C41.6303 274.25 41.5105 273.958 41.5105 273.615C41.5105 273.271 41.6303 272.979 41.8751 272.734C42.1199 272.49 42.4115 272.37 42.7553 272.37C43.099 272.37 43.3907 272.49 43.6355 272.734C43.8751 272.979 44.0001 273.271 44.0001 273.615Z" fill="url(#paint42_linear_356_7421)"></path> <path d="M28.3228 259.786C28.3228 260.125 28.203 260.422 27.9583 260.661C27.7187 260.906 27.4218 261.026 27.078 261.026C26.7343 261.026 26.4426 260.906 26.1978 260.661C25.9583 260.422 25.8333 260.125 25.8333 259.786C25.8333 259.443 25.9583 259.146 26.1978 258.906C26.4426 258.661 26.7343 258.542 27.078 258.542C27.4218 258.542 27.7187 258.661 27.9583 258.906C28.203 259.146 28.3228 259.443 28.3228 259.786Z" fill="url(#paint43_linear_356_7421)"></path> <path d="M13.5156 313.214C13.5156 313.557 13.3958 313.849 13.151 314.094C12.9115 314.339 12.6146 314.458 12.2708 314.458C11.9271 314.458 11.6354 314.339 11.3906 314.094C11.151 313.849 11.0312 313.557 11.0312 313.214C11.0312 312.87 11.151 312.578 11.3906 312.333C11.6354 312.089 11.9271 311.969 12.2708 311.969C12.6146 311.969 12.9115 312.089 13.151 312.333C13.3958 312.578 13.5156 312.87 13.5156 313.214Z" fill="url(#paint44_linear_356_7421)"></path> <path d="M15.0312 380.635C15.0312 380.979 14.9115 381.271 14.6719 381.516C14.4271 381.76 14.1354 381.88 13.7917 381.88C13.4479 381.88 13.151 381.76 12.9115 381.516C12.6667 381.271 12.5469 380.979 12.5469 380.635C12.5469 380.292 12.6667 380 12.9115 379.755C13.151 379.51 13.4479 379.391 13.7917 379.391C14.1354 379.391 14.4271 379.51 14.6719 379.755C14.9115 380 15.0312 380.292 15.0312 380.635Z" fill="url(#paint45_linear_356_7421)"></path> <path d="M64.3541 315.589C64.3541 315.932 64.2343 316.224 63.9895 316.469C63.7447 316.714 63.453 316.833 63.1093 316.833C62.7655 316.833 62.4739 316.714 62.2291 316.469C61.9843 316.224 61.8645 315.932 61.8645 315.589C61.8645 315.245 61.9843 314.953 62.2291 314.708C62.4739 314.469 62.7655 314.344 63.1093 314.344C63.453 314.344 63.7447 314.469 63.9895 314.708C64.2343 314.953 64.3541 315.245 64.3541 315.589Z" fill="url(#paint46_linear_356_7421)"></path> <path d="M28.7657 374.667C28.7657 375.01 28.6459 375.307 28.4011 375.547C28.1615 375.792 27.8647 375.911 27.5209 375.911C27.1772 375.911 26.8855 375.792 26.6407 375.547C26.4011 375.307 26.2761 375.01 26.2761 374.667C26.2761 374.323 26.4011 374.031 26.6407 373.786C26.8855 373.547 27.1772 373.422 27.5209 373.422C27.8647 373.422 28.1615 373.547 28.4011 373.786C28.6459 374.031 28.7657 374.323 28.7657 374.667Z" fill="url(#paint47_linear_356_7421)"></path> <path d="M47.3697 376.24C47.3697 376.583 47.2499 376.875 47.0051 377.12C46.7603 377.365 46.4687 377.484 46.1249 377.484C45.7812 377.484 45.4895 377.365 45.2447 377.12C44.9999 376.875 44.8801 376.583 44.8801 376.24C44.8801 375.896 44.9999 375.604 45.2447 375.359C45.4895 375.12 45.7812 374.995 46.1249 374.995C46.4687 374.995 46.7603 375.12 47.0051 375.359C47.2499 375.604 47.3697 375.896 47.3697 376.24Z" fill="url(#paint48_linear_356_7421)"></path> <path d="M75.5989 328.599C75.5989 328.943 75.4791 329.234 75.2343 329.474C74.9947 329.719 74.6978 329.839 74.3541 329.839C74.0155 329.839 73.7187 329.719 73.4791 329.474C73.2343 329.234 73.1145 328.943 73.1145 328.599C73.1145 328.255 73.2343 327.958 73.4791 327.719C73.7187 327.474 74.0155 327.354 74.3541 327.354C74.6978 327.354 74.9947 327.474 75.2343 327.719C75.4791 327.958 75.5989 328.255 75.5989 328.599Z" fill="url(#paint49_linear_356_7421)"></path> <path d="M212.755 391.724C212.755 392.068 212.635 392.365 212.391 392.604C212.151 392.849 211.859 392.969 211.516 392.969C211.172 392.969 210.875 392.849 210.635 392.604C210.391 392.365 210.271 392.068 210.271 391.724C210.271 391.38 210.391 391.089 210.635 390.844C210.875 390.604 211.172 390.479 211.516 390.479C211.859 390.479 212.151 390.604 212.391 390.844C212.635 391.089 212.755 391.38 212.755 391.724Z" fill="url(#paint50_linear_356_7421)"></path> <path d="M246.859 280.448C246.859 280.792 246.74 281.089 246.495 281.328C246.255 281.573 245.958 281.693 245.615 281.693C245.276 281.693 244.979 281.573 244.74 281.328C244.495 281.089 244.375 280.792 244.375 280.448C244.375 280.109 244.495 279.812 244.74 279.573C244.979 279.328 245.276 279.208 245.615 279.208C245.958 279.208 246.255 279.328 246.495 279.573C246.74 279.812 246.859 280.109 246.859 280.448Z" fill="url(#paint51_linear_356_7421)"></path> <path d="M75.7292 389.432C75.7292 389.776 75.6095 390.068 75.3699 390.312C75.1251 390.552 74.8334 390.677 74.4897 390.677C74.1459 390.677 73.849 390.552 73.6095 390.312C73.3647 390.068 73.2449 389.776 73.2449 389.432C73.2449 389.089 73.3647 388.792 73.6095 388.552C73.849 388.307 74.1459 388.188 74.4897 388.188C74.8334 388.188 75.1251 388.307 75.3699 388.552C75.6095 388.792 75.7292 389.089 75.7292 389.432Z" fill="url(#paint52_linear_356_7421)"></path> <path d="M222.615 298.146C222.615 298.49 222.495 298.781 222.25 299.026C222.005 299.266 221.714 299.391 221.37 299.391C221.026 299.391 220.734 299.266 220.49 299.026C220.245 298.781 220.125 298.49 220.125 298.146C220.125 297.802 220.245 297.505 220.49 297.266C220.734 297.021 221.026 296.901 221.37 296.901C221.714 296.901 222.005 297.021 222.25 297.266C222.495 297.505 222.615 297.802 222.615 298.146Z" fill="url(#paint53_linear_356_7421)"></path> <path d="M217.443 341.484C217.443 341.828 217.318 342.125 217.078 342.365C216.833 342.609 216.542 342.729 216.198 342.729C215.854 342.729 215.557 342.609 215.318 342.365C215.073 342.125 214.953 341.828 214.953 341.484C214.953 341.141 215.073 340.849 215.318 340.604C215.557 340.365 215.854 340.245 216.198 340.245C216.542 340.245 216.833 340.365 217.078 340.604C217.318 340.849 217.443 341.141 217.443 341.484Z" fill="url(#paint54_linear_356_7421)"></path> <path d="M228.234 339.302C228.234 339.646 228.115 339.943 227.87 340.182C227.63 340.427 227.333 340.547 226.99 340.547C226.646 340.547 226.354 340.427 226.109 340.182C225.87 339.943 225.745 339.646 225.745 339.302C225.745 338.964 225.87 338.667 226.109 338.427C226.354 338.182 226.646 338.062 226.99 338.062C227.333 338.062 227.63 338.182 227.87 338.427C228.115 338.667 228.234 338.964 228.234 339.302Z" fill="url(#paint55_linear_356_7421)"></path> <path d="M256.396 364.016C256.396 364.359 256.276 364.651 256.031 364.896C255.786 365.141 255.495 365.26 255.151 365.26C254.807 365.26 254.516 365.141 254.271 364.896C254.031 364.651 253.906 364.359 253.906 364.016C253.906 363.672 254.031 363.38 254.271 363.135C254.516 362.891 254.807 362.771 255.151 362.771C255.495 362.771 255.786 362.891 256.031 363.135C256.276 363.38 256.396 363.672 256.396 364.016Z" fill="url(#paint56_linear_356_7421)"></path> <path d="M260.312 348.219C260.312 348.563 260.193 348.859 259.948 349.099C259.708 349.344 259.411 349.464 259.068 349.464C258.724 349.464 258.432 349.344 258.193 349.099C257.948 348.859 257.828 348.563 257.828 348.219C257.828 347.875 257.948 347.583 258.193 347.339C258.432 347.099 258.724 346.979 259.068 346.979C259.411 346.979 259.708 347.099 259.948 347.339C260.193 347.583 260.312 347.875 260.312 348.219Z" fill="url(#paint57_linear_356_7421)"></path> <path d="M228.234 372.625C228.234 372.969 228.115 373.26 227.87 373.505C227.63 373.75 227.333 373.87 226.99 373.87C226.646 373.87 226.354 373.75 226.109 373.505C225.87 373.26 225.745 372.969 225.745 372.625C225.745 372.281 225.87 371.99 226.109 371.745C226.354 371.5 226.646 371.38 226.99 371.38C227.333 371.38 227.63 371.5 227.87 371.745C228.115 371.99 228.234 372.281 228.234 372.625Z" fill="url(#paint58_linear_356_7421)"></path> <path d="M251.865 389.521C251.865 389.865 251.745 390.161 251.5 390.401C251.26 390.646 250.969 390.766 250.625 390.766C250.281 390.766 249.984 390.646 249.745 390.401C249.5 390.161 249.38 389.865 249.38 389.521C249.38 389.177 249.5 388.885 249.745 388.641C249.984 388.401 250.281 388.276 250.625 388.276C250.969 388.276 251.26 388.401 251.5 388.641C251.745 388.885 251.865 389.177 251.865 389.521Z" fill="url(#paint59_linear_356_7421)"></path> <path d="M33.5572 380.005C33.5572 380.349 33.4322 380.646 33.1926 380.885C32.9478 381.13 32.6562 381.25 32.3124 381.25C31.9687 381.25 31.6718 381.13 31.4322 380.885C31.1874 380.646 31.0676 380.349 31.0676 380.005C31.0676 379.661 31.1874 379.37 31.4322 379.125C31.6718 378.885 31.9687 378.76 32.3124 378.76C32.6562 378.76 32.9478 378.885 33.1926 379.125C33.4322 379.37 33.5572 379.661 33.5572 380.005Z" fill="url(#paint60_linear_356_7421)"></path> <path d="M71.599 295.339C71.599 295.682 71.4792 295.974 71.2344 296.214C70.9896 296.458 70.6979 296.578 70.3542 296.578C70.0104 296.578 69.7188 296.458 69.474 296.214C69.2292 295.974 69.1094 295.682 69.1094 295.339C69.1094 294.995 69.2292 294.698 69.474 294.458C69.7188 294.214 70.0104 294.094 70.3542 294.094C70.6979 294.094 70.9896 294.214 71.2344 294.458C71.4792 294.698 71.599 294.995 71.599 295.339Z" fill="url(#paint61_linear_356_7421)"></path> <path d="M20.0572 365.25C20.0572 365.594 19.9374 365.891 19.6926 366.13C19.4478 366.375 19.1562 366.495 18.8124 366.495C18.4687 366.495 18.177 366.375 17.9322 366.13C17.6926 365.891 17.5676 365.594 17.5676 365.25C17.5676 364.906 17.6926 364.615 17.9322 364.37C18.177 364.13 18.4687 364.005 18.8124 364.005C19.1562 364.005 19.4478 364.13 19.6926 364.37C19.9374 364.615 20.0572 364.906 20.0572 365.25Z" fill="url(#paint62_linear_356_7421)"></path> <path d="M33.8542 240.422C33.8542 240.766 33.7345 241.057 33.4897 241.302C33.2501 241.547 32.9532 241.667 32.6147 241.667C32.2709 241.667 31.974 241.547 31.7345 241.302C31.4897 241.057 31.3699 240.766 31.3699 240.422C31.3699 240.078 31.4897 239.786 31.7345 239.542C31.974 239.297 32.2709 239.177 32.6147 239.177C32.9532 239.177 33.2501 239.297 33.4897 239.542C33.7345 239.786 33.8542 240.078 33.8542 240.422Z" fill="url(#paint63_linear_356_7421)"></path> <path d="M61.3802 303.885C61.3802 304.229 61.2604 304.521 61.0156 304.76C60.7708 305.005 60.4792 305.125 60.1354 305.125C59.7917 305.125 59.5 305.005 59.2552 304.76C59.0156 304.521 58.8906 304.229 58.8906 303.885C58.8906 303.542 59.0156 303.245 59.2552 303.005C59.5 302.76 59.7917 302.641 60.1354 302.641C60.4792 302.641 60.7708 302.76 61.0156 303.005C61.2604 303.245 61.3802 303.542 61.3802 303.885Z" fill="url(#paint64_linear_356_7421)"></path> <path d="M41.427 163.219C41.427 163.563 41.3072 163.854 41.0624 164.094C40.8228 164.339 40.526 164.458 40.1822 164.458C39.8385 164.458 39.5468 164.339 39.3072 164.094C39.0624 163.854 38.9426 163.563 38.9426 163.219C38.9426 162.875 39.0624 162.578 39.3072 162.339C39.5468 162.094 39.8385 161.974 40.1822 161.974C40.526 161.974 40.8228 162.094 41.0624 162.339C41.3072 162.578 41.427 162.875 41.427 163.219Z" fill="url(#paint65_linear_356_7421)"></path> <path d="M37.0626 118.786C37.0626 119.13 36.9428 119.422 36.698 119.667C36.4532 119.911 36.1615 120.031 35.8178 120.031C35.474 120.031 35.1824 119.911 34.9376 119.667C34.698 119.422 34.573 119.13 34.573 118.786C34.573 118.443 34.698 118.151 34.9376 117.906C35.1824 117.667 35.474 117.542 35.8178 117.542C36.1615 117.542 36.4532 117.667 36.698 117.906C36.9428 118.151 37.0626 118.443 37.0626 118.786Z" fill="url(#paint66_linear_356_7421)"></path> <path d="M230.052 100.026C230.052 100.37 229.927 100.661 229.688 100.906C229.443 101.146 229.151 101.271 228.807 101.271C228.464 101.271 228.172 101.146 227.927 100.906C227.682 100.661 227.562 100.37 227.562 100.026C227.562 99.6823 227.682 99.3906 227.927 99.1458C228.172 98.901 228.464 98.7812 228.807 98.7812C229.151 98.7812 229.443 98.901 229.688 99.1458C229.927 99.3906 230.052 99.6823 230.052 100.026Z" fill="url(#paint67_linear_356_7421)"></path> <path d="M222.255 162.974C222.255 163.318 222.135 163.609 221.891 163.854C221.646 164.094 221.354 164.219 221.01 164.219C220.667 164.219 220.375 164.094 220.13 163.854C219.891 163.609 219.766 163.318 219.766 162.974C219.766 162.63 219.891 162.338 220.13 162.094C220.375 161.849 220.667 161.729 221.01 161.729C221.354 161.729 221.646 161.849 221.891 162.094C222.135 162.338 222.255 162.63 222.255 162.974Z" fill="url(#paint68_linear_356_7421)"></path> <path d="M239.505 173.068C239.505 173.411 239.385 173.703 239.141 173.948C238.901 174.193 238.604 174.312 238.26 174.312C237.917 174.312 237.625 174.193 237.38 173.948C237.141 173.703 237.016 173.411 237.016 173.068C237.016 172.724 237.141 172.432 237.38 172.187C237.625 171.943 237.917 171.823 238.26 171.823C238.604 171.823 238.901 171.943 239.141 172.187C239.385 172.432 239.505 172.724 239.505 173.068Z" fill="url(#paint69_linear_356_7421)"></path> <path d="M173.302 129.984C173.302 130.328 173.177 130.62 172.938 130.865C172.693 131.104 172.401 131.224 172.057 131.224C171.714 131.224 171.417 131.104 171.177 130.865C170.932 130.62 170.812 130.328 170.812 129.984C170.812 129.641 170.932 129.344 171.177 129.104C171.417 128.859 171.714 128.74 172.057 128.74C172.401 128.74 172.693 128.859 172.938 129.104C173.177 129.344 173.302 129.641 173.302 129.984Z" fill="url(#paint70_linear_356_7421)"></path> <path d="M240.354 303.484C240.354 303.828 240.234 304.12 239.99 304.365C239.75 304.609 239.453 304.729 239.109 304.729C238.766 304.729 238.474 304.609 238.229 304.365C237.989 304.12 237.865 303.828 237.865 303.484C237.865 303.141 237.989 302.849 238.229 302.604C238.474 302.365 238.766 302.24 239.109 302.24C239.453 302.24 239.75 302.365 239.99 302.604C240.234 302.849 240.354 303.141 240.354 303.484Z" fill="url(#paint71_linear_356_7421)"></path> <path d="M218.911 75.4062C218.911 75.75 218.792 76.0468 218.547 76.2864C218.307 76.5312 218.01 76.651 217.667 76.651C217.323 76.651 217.031 76.5312 216.786 76.2864C216.547 76.0468 216.427 75.75 216.427 75.4062C216.427 75.0625 216.547 74.7708 216.786 74.526C217.031 74.2864 217.323 74.1666 217.667 74.1666C218.01 74.1666 218.307 74.2864 218.547 74.526C218.792 74.7708 218.911 75.0625 218.911 75.4062Z" fill="url(#paint72_linear_356_7421)"></path> <path d="M149.094 131.51C149.094 131.854 148.969 132.151 148.729 132.391C148.484 132.635 148.193 132.755 147.849 132.755C147.505 132.755 147.208 132.635 146.969 132.391C146.724 132.151 146.604 131.854 146.604 131.51C146.604 131.167 146.724 130.875 146.969 130.63C147.208 130.391 147.505 130.266 147.849 130.266C148.193 130.266 148.484 130.391 148.729 130.63C148.969 130.875 149.094 131.167 149.094 131.51Z" fill="url(#paint73_linear_356_7421)"></path> <path d="M160.859 142.161C160.859 142.505 160.74 142.797 160.495 143.042C160.255 143.281 159.958 143.406 159.615 143.406C159.271 143.406 158.979 143.281 158.734 143.042C158.495 142.797 158.37 142.505 158.37 142.161C158.37 141.818 158.495 141.521 158.734 141.281C158.979 141.036 159.271 140.917 159.615 140.917C159.958 140.917 160.255 141.036 160.495 141.281C160.74 141.521 160.859 141.818 160.859 142.161Z" fill="url(#paint74_linear_356_7421)"></path> <path d="M247.745 80.849C247.745 81.1927 247.625 81.4896 247.38 81.7292C247.135 81.974 246.844 82.0938 246.5 82.0938C246.156 82.0938 245.864 81.974 245.62 81.7292C245.375 81.4896 245.255 81.1927 245.255 80.849C245.255 80.5052 245.375 80.2135 245.62 79.974C245.864 79.7292 246.156 79.6094 246.5 79.6094C246.844 79.6094 247.135 79.7292 247.38 79.974C247.625 80.2135 247.745 80.5052 247.745 80.849Z" fill="url(#paint75_linear_356_7421)"></path> <path d="M264.255 134.901C264.255 135.245 264.135 135.536 263.891 135.781C263.651 136.026 263.354 136.146 263.01 136.146C262.667 136.146 262.375 136.026 262.13 135.781C261.891 135.536 261.766 135.245 261.766 134.901C261.766 134.557 261.891 134.266 262.13 134.021C262.375 133.781 262.667 133.656 263.01 133.656C263.354 133.656 263.651 133.781 263.891 134.021C264.135 134.266 264.255 134.557 264.255 134.901Z" fill="url(#paint76_linear_356_7421)"></path> <path d="M170.135 114.302C170.135 114.646 170.016 114.937 169.771 115.182C169.526 115.422 169.234 115.547 168.891 115.547C168.547 115.547 168.255 115.422 168.01 115.182C167.771 114.937 167.646 114.646 167.646 114.302C167.646 113.958 167.771 113.661 168.01 113.422C168.255 113.177 168.547 113.057 168.891 113.057C169.234 113.057 169.526 113.177 169.771 113.422C170.016 113.661 170.135 113.958 170.135 114.302Z" fill="url(#paint77_linear_356_7421)"></path> <path d="M261.385 288.193C261.385 288.536 261.26 288.828 261.021 289.073C260.776 289.318 260.484 289.438 260.141 289.438C259.797 289.438 259.5 289.318 259.26 289.073C259.016 288.828 258.896 288.536 258.896 288.193C258.896 287.849 259.016 287.557 259.26 287.313C259.5 287.073 259.797 286.948 260.141 286.948C260.484 286.948 260.776 287.073 261.021 287.313C261.26 287.557 261.385 287.849 261.385 288.193Z" fill="url(#paint78_linear_356_7421)"></path> <path d="M249.266 353.349C249.266 353.693 249.146 353.984 248.901 354.229C248.656 354.469 248.365 354.589 248.021 354.589C247.677 354.589 247.385 354.469 247.141 354.229C246.901 353.984 246.776 353.693 246.776 353.349C246.776 353.005 246.901 352.708 247.141 352.469C247.385 352.224 247.677 352.104 248.021 352.104C248.365 352.104 248.656 352.224 248.901 352.469C249.146 352.708 249.266 353.005 249.266 353.349Z" fill="url(#paint79_linear_356_7421)"></path> <path d="M234.672 355.458C234.672 355.802 234.547 356.099 234.307 356.339C234.063 356.583 233.771 356.703 233.427 356.703C233.083 356.703 232.792 356.583 232.547 356.339C232.302 356.099 232.182 355.802 232.182 355.458C232.182 355.115 232.302 354.823 232.547 354.583C232.792 354.339 233.083 354.219 233.427 354.219C233.771 354.219 234.063 354.339 234.307 354.583C234.547 354.823 234.672 355.115 234.672 355.458Z" fill="url(#paint80_linear_356_7421)"></path> <path d="M198.713 321.891C198.713 322.234 198.588 322.526 198.349 322.771C198.104 323.016 197.812 323.135 197.469 323.135C197.125 323.135 196.833 323.016 196.588 322.771C196.344 322.526 196.224 322.234 196.224 321.891C196.224 321.547 196.344 321.255 196.588 321.01C196.833 320.771 197.125 320.646 197.469 320.646C197.812 320.646 198.104 320.771 198.349 321.01C198.588 321.255 198.713 321.547 198.713 321.891Z" fill="url(#paint81_linear_356_7421)"></path> <path d="M192.073 313.25C192.073 313.594 191.953 313.885 191.708 314.13C191.463 314.375 191.172 314.495 190.828 314.495C190.484 314.495 190.193 314.375 189.948 314.13C189.703 313.885 189.583 313.594 189.583 313.25C189.583 312.906 189.703 312.615 189.948 312.37C190.193 312.125 190.484 312.005 190.828 312.005C191.172 312.005 191.463 312.125 191.708 312.37C191.953 312.615 192.073 312.906 192.073 313.25Z" fill="url(#paint82_linear_356_7421)"></path> <path d="M114.682 139.719C114.682 140.062 114.562 140.359 114.318 140.599C114.073 140.844 113.781 140.964 113.437 140.964C113.094 140.964 112.802 140.844 112.557 140.599C112.312 140.359 112.193 140.062 112.193 139.719C112.193 139.375 112.312 139.083 112.557 138.844C112.802 138.599 113.094 138.479 113.437 138.479C113.781 138.479 114.073 138.599 114.318 138.844C114.562 139.083 114.682 139.375 114.682 139.719Z" fill="url(#paint83_linear_356_7421)"></path> <path d="M77.2603 127.505C77.2603 127.849 77.1353 128.141 76.8958 128.385C76.651 128.625 76.3593 128.75 76.0155 128.75C75.6718 128.75 75.3801 128.625 75.1353 128.385C74.8905 128.141 74.7708 127.849 74.7708 127.505C74.7708 127.161 74.8905 126.87 75.1353 126.625C75.3801 126.38 75.6718 126.26 76.0155 126.26C76.3593 126.26 76.651 126.38 76.8958 126.625C77.1353 126.87 77.2603 127.161 77.2603 127.505Z" fill="url(#paint84_linear_356_7421)"></path> <path d="M230.865 159.531C230.865 159.875 230.74 160.167 230.5 160.411C230.255 160.656 229.964 160.776 229.62 160.776C229.276 160.776 228.979 160.656 228.74 160.411C228.495 160.167 228.375 159.875 228.375 159.531C228.375 159.188 228.495 158.896 228.74 158.651C228.979 158.406 229.276 158.286 229.62 158.286C229.964 158.286 230.255 158.406 230.5 158.651C230.74 158.896 230.865 159.188 230.865 159.531Z" fill="url(#paint85_linear_356_7421)"></path> <path d="M211.01 180.984C211.01 181.328 210.891 181.62 210.651 181.865C210.406 182.104 210.115 182.229 209.771 182.229C209.427 182.229 209.13 182.104 208.891 181.865C208.646 181.62 208.526 181.328 208.526 180.984C208.526 180.641 208.646 180.349 208.891 180.104C209.13 179.859 209.427 179.74 209.771 179.74C210.115 179.74 210.406 179.859 210.651 180.104C210.891 180.349 211.01 180.641 211.01 180.984Z" fill="url(#paint86_linear_356_7421)"></path> <path d="M188.594 141.984C188.594 142.328 188.474 142.625 188.229 142.865C187.984 143.109 187.693 143.229 187.349 143.229C187.005 143.229 186.714 143.109 186.469 142.865C186.229 142.625 186.104 142.328 186.104 141.984C186.104 141.641 186.229 141.349 186.469 141.109C186.714 140.865 187.005 140.745 187.349 140.745C187.693 140.745 187.984 140.865 188.229 141.109C188.474 141.349 188.594 141.641 188.594 141.984Z" fill="url(#paint87_linear_356_7421)"></path> <path d="M222.734 173.578C222.734 173.922 222.615 174.214 222.37 174.458C222.125 174.698 221.833 174.818 221.49 174.818C221.146 174.818 220.854 174.698 220.609 174.458C220.37 174.214 220.245 173.922 220.245 173.578C220.245 173.234 220.37 172.938 220.609 172.698C220.854 172.453 221.146 172.333 221.49 172.333C221.833 172.333 222.125 172.453 222.37 172.698C222.615 172.938 222.734 173.234 222.734 173.578Z" fill="url(#paint88_linear_356_7421)"></path> <path d="M216.896 118.521C216.896 118.865 216.776 119.161 216.531 119.401C216.286 119.646 215.995 119.766 215.651 119.766C215.307 119.766 215.016 119.646 214.771 119.401C214.531 119.161 214.406 118.865 214.406 118.521C214.406 118.177 214.531 117.885 214.771 117.641C215.016 117.401 215.307 117.276 215.651 117.276C215.995 117.276 216.286 117.401 216.531 117.641C216.776 117.885 216.896 118.177 216.896 118.521Z" fill="url(#paint89_linear_356_7421)"></path> <path d="M181.953 61.3594C181.953 61.7032 181.828 62 181.589 62.2396C181.344 62.4844 181.052 62.6042 180.708 62.6042C180.365 62.6042 180.073 62.4844 179.828 62.2396C179.583 62 179.464 61.7032 179.464 61.3594C179.464 61.0157 179.583 60.724 179.828 60.4792C180.073 60.2396 180.365 60.1146 180.708 60.1146C181.052 60.1146 181.344 60.2396 181.589 60.4792C181.828 60.724 181.953 61.0157 181.953 61.3594Z" fill="url(#paint90_linear_356_7421)"></path> <path d="M224.828 55.9532C224.828 56.2969 224.708 56.5886 224.464 56.8334C224.219 57.073 223.927 57.198 223.583 57.198C223.24 57.198 222.948 57.073 222.703 56.8334C222.458 56.5886 222.339 56.2969 222.339 55.9532C222.339 55.6094 222.458 55.3125 222.703 55.073C222.948 54.8282 223.24 54.7084 223.583 54.7084C223.927 54.7084 224.219 54.8282 224.464 55.073C224.708 55.3125 224.828 55.6094 224.828 55.9532Z" fill="url(#paint91_linear_356_7421)"></path> <path d="M97.8907 91.6198C97.8907 91.9635 97.7657 92.2552 97.5261 92.5C97.2813 92.7396 96.9897 92.8646 96.6459 92.8646C96.3022 92.8646 96.0053 92.7396 95.7657 92.5C95.5209 92.2552 95.4011 91.9635 95.4011 91.6198C95.4011 91.276 95.5209 90.9844 95.7657 90.7396C96.0053 90.4948 96.3022 90.375 96.6459 90.375C96.9897 90.375 97.2813 90.4948 97.5261 90.7396C97.7657 90.9844 97.8907 91.276 97.8907 91.6198Z" fill="url(#paint92_linear_356_7421)"></path> <path d="M84.6042 32.2969C84.6042 32.6407 84.4845 32.9323 84.2397 33.1771C84.0001 33.4167 83.7032 33.5417 83.3595 33.5417C83.0209 33.5417 82.724 33.4167 82.4845 33.1771C82.2397 32.9323 82.1199 32.6407 82.1199 32.2969C82.1199 31.9532 82.2397 31.6615 82.4845 31.4167C82.724 31.1719 83.0209 31.0521 83.3595 31.0521C83.7032 31.0521 84.0001 31.1719 84.2397 31.4167C84.4845 31.6615 84.6042 31.9532 84.6042 32.2969Z" fill="url(#paint93_linear_356_7421)"></path> <path d="M42.4688 57.4323C42.4688 57.776 42.349 58.0677 42.1094 58.3125C41.8646 58.5521 41.5729 58.6771 41.2292 58.6771C40.8854 58.6771 40.5885 58.5521 40.349 58.3125C40.1042 58.0677 39.9844 57.776 39.9844 57.4323C39.9844 57.0885 40.1042 56.7969 40.349 56.5521C40.5885 56.3073 40.8854 56.1875 41.2292 56.1875C41.5729 56.1875 41.8646 56.3073 42.1094 56.5521C42.349 56.7969 42.4688 57.0885 42.4688 57.4323Z" fill="url(#paint94_linear_356_7421)"></path> <path d="M69.599 142.74C69.599 143.083 69.474 143.375 69.2344 143.62C68.9896 143.859 68.6979 143.984 68.3542 143.984C68.0104 143.984 67.7188 143.859 67.474 143.62C67.2292 143.375 67.1094 143.083 67.1094 142.74C67.1094 142.396 67.2292 142.104 67.474 141.859C67.7188 141.615 68.0104 141.495 68.3542 141.495C68.6979 141.495 68.9896 141.615 69.2344 141.859C69.474 142.104 69.599 142.396 69.599 142.74Z" fill="url(#paint95_linear_356_7421)"></path> <path d="M86.4896 154.323C86.4896 154.667 86.3698 154.958 86.125 155.203C85.8802 155.448 85.5885 155.568 85.2448 155.568C84.901 155.568 84.6094 155.448 84.3646 155.203C84.125 154.958 84 154.667 84 154.323C84 153.979 84.125 153.687 84.3646 153.443C84.6094 153.203 84.901 153.078 85.2448 153.078C85.5885 153.078 85.8802 153.203 86.125 153.443C86.3698 153.687 86.4896 153.979 86.4896 154.323Z" fill="url(#paint96_linear_356_7421)"></path> <path d="M12.5157 200.344C12.5157 200.687 12.3959 200.984 12.1511 201.224C11.9115 201.469 11.6147 201.589 11.2709 201.589C10.9272 201.589 10.6355 201.469 10.3907 201.224C10.1511 200.984 10.0261 200.687 10.0261 200.344C10.0261 200 10.1511 199.708 10.3907 199.464C10.6355 199.224 10.9272 199.104 11.2709 199.104C11.6147 199.104 11.9115 199.224 12.1511 199.464C12.3959 199.708 12.5157 200 12.5157 200.344Z" fill="url(#paint97_linear_356_7421)"></path> <path d="M100.906 155.063C100.906 155.406 100.787 155.698 100.542 155.943C100.297 156.188 100.005 156.307 99.6615 156.307C99.3178 156.307 99.0261 156.188 98.7813 155.943C98.5417 155.698 98.4167 155.406 98.4167 155.063C98.4167 154.719 98.5417 154.427 98.7813 154.182C99.0261 153.938 99.3178 153.818 99.6615 153.818C100.005 153.818 100.297 153.938 100.542 154.182C100.787 154.427 100.906 154.719 100.906 155.063Z" fill="url(#paint98_linear_356_7421)"></path> <path d="M79.2708 63.3073C79.2708 63.651 79.151 63.9427 78.9062 64.1875C78.6666 64.4271 78.3749 64.5521 78.0312 64.5521C77.6874 64.5521 77.3905 64.4271 77.151 64.1875C76.9062 63.9427 76.7864 63.651 76.7864 63.3073C76.7864 62.9635 76.9062 62.6719 77.151 62.4271C77.3905 62.1823 77.6874 62.0625 78.0312 62.0625C78.3749 62.0625 78.6666 62.1823 78.9062 62.4271C79.151 62.6719 79.2708 62.9635 79.2708 63.3073Z" fill="url(#paint99_linear_356_7421)"></path> <path d="M143.005 10.8594C143.005 11.2032 142.885 11.4948 142.641 11.7396C142.401 11.9844 142.104 12.1042 141.76 12.1042C141.417 12.1042 141.125 11.9844 140.885 11.7396C140.641 11.4948 140.521 11.2032 140.521 10.8594C140.521 10.5157 140.641 10.224 140.885 9.97921C141.125 9.73962 141.417 9.61462 141.76 9.61462C142.104 9.61462 142.401 9.73962 142.641 9.97921C142.885 10.224 143.005 10.5157 143.005 10.8594Z" fill="url(#paint100_linear_356_7421)"></path> <path d="M125.083 41.2708C125.083 41.6146 124.964 41.9115 124.719 42.151C124.474 42.3958 124.182 42.5156 123.839 42.5156C123.495 42.5156 123.203 42.3958 122.958 42.151C122.714 41.9115 122.594 41.6146 122.594 41.2708C122.594 40.9271 122.714 40.6354 122.958 40.3958C123.203 40.151 123.495 40.0312 123.839 40.0312C124.182 40.0312 124.474 40.151 124.719 40.3958C124.964 40.6354 125.083 40.9271 125.083 41.2708Z" fill="url(#paint101_linear_356_7421)"></path> <path d="M135.661 26.7083C135.661 27.052 135.542 27.3437 135.297 27.5885C135.057 27.8333 134.76 27.9531 134.417 27.9531C134.073 27.9531 133.781 27.8333 133.536 27.5885C133.297 27.3437 133.172 27.052 133.172 26.7083C133.172 26.3645 133.297 26.0729 133.536 25.8281C133.781 25.5885 134.073 25.4635 134.417 25.4635C134.76 25.4635 135.057 25.5885 135.297 25.8281C135.542 26.0729 135.661 26.3645 135.661 26.7083Z" fill="url(#paint102_linear_356_7421)"></path> <path d="M153.031 42.9479C153.031 43.2917 152.911 43.5833 152.672 43.8281C152.427 44.0677 152.135 44.1927 151.792 44.1927C151.448 44.1927 151.151 44.0677 150.911 43.8281C150.667 43.5833 150.547 43.2917 150.547 42.9479C150.547 42.6042 150.667 42.3125 150.911 42.0677C151.151 41.8229 151.448 41.7031 151.792 41.7031C152.135 41.7031 152.427 41.8229 152.672 42.0677C152.911 42.3125 153.031 42.6042 153.031 42.9479Z" fill="url(#paint103_linear_356_7421)"></path> <path d="M131.042 95.7447H109.958C109.672 95.7447 109.427 95.6406 109.229 95.4427C109.026 95.2395 108.927 94.9947 108.927 94.7135C108.927 94.427 109.026 94.1874 109.229 93.9843C109.427 93.7864 109.672 93.6822 109.958 93.6822H128.37C127.463 92.5624 126.713 91.3489 126.12 90.0364C124.88 87.2499 124.479 84.3489 124.922 81.3333C125.057 80.3958 125.276 79.4791 125.578 78.5781C125.885 77.6822 126.271 76.8229 126.734 75.9947C127.198 75.1666 127.734 74.3906 128.344 73.6666C128.953 72.9375 129.625 72.276 130.354 71.6718C131.088 71.0729 131.87 70.5416 132.698 70.0885C133.531 69.6302 134.396 69.2552 135.297 68.9635C136.198 68.6666 137.114 68.4583 138.057 68.3333C138.995 68.2083 139.937 68.1718 140.885 68.2239C142.917 68.3333 144.859 68.8229 146.703 69.6927C148.547 70.5572 150.156 71.7343 151.542 73.2291C154.427 76.3697 155.953 80.875 155.604 85.2916C155.417 88.1354 154.432 90.6718 152.646 92.8906H170.026C170.307 92.8906 170.552 92.9895 170.75 93.1927C170.953 93.3906 171.052 93.6354 171.052 93.9166C171.052 94.2031 170.953 94.4427 170.75 94.6458C170.552 94.8489 170.307 94.9479 170.026 94.9479H150.135C149.917 94.9479 149.719 94.8854 149.542 94.7552C149.364 94.6302 149.239 94.4635 149.167 94.2552C149.099 94.052 149.088 93.8437 149.151 93.6354C149.213 93.4218 149.328 93.2499 149.5 93.1145C151.854 91.2552 153.292 88.4218 153.552 85.1354C153.859 81.2812 152.542 77.3541 150.031 74.6302C148.828 73.3333 147.427 72.3072 145.828 71.5572C144.229 70.8072 142.547 70.3802 140.781 70.2864C139.963 70.2447 139.146 70.276 138.333 70.3854C137.521 70.4947 136.724 70.677 135.943 70.9374C135.167 71.1927 134.417 71.5156 133.698 71.9114C132.979 72.3072 132.302 72.7656 131.672 73.2864C131.036 73.8072 130.458 74.3802 129.927 75.0104C129.401 75.6406 128.937 76.3125 128.536 77.026C128.13 77.7395 127.797 78.4843 127.531 79.2604C127.266 80.0364 127.078 80.8281 126.958 81.6406C126.588 84.2604 126.937 86.7812 128.005 89.2031C128.698 90.776 130.047 92.927 131.573 93.8333C131.771 93.9531 131.911 94.1197 131.995 94.3333C132.083 94.5468 132.094 94.7656 132.036 94.9895C131.974 95.2135 131.849 95.3958 131.667 95.5364C131.484 95.677 131.276 95.7447 131.047 95.7499L131.042 95.7447Z" fill="url(#paint104_linear_356_7421)"></path> <defs> <linearGradient id="paint0_linear_356_7421" x1="139.995" y1="0" x2="139.995" y2="400" gradientUnits="userSpaceOnUse"> <stop offset="0.546875" stop-color="#7F7E70"></stop> <stop offset="1" stop-color="white"></stop> </linearGradient> <linearGradient id="paint1_linear_356_7421" x1="139.995" y1="0" x2="139.995" y2="400" gradientUnits="userSpaceOnUse"> <stop offset="0.546875" stop-color="#7F7E70"></stop> <stop offset="1" stop-color="white"></stop> </linearGradient> <linearGradient id="paint2_linear_356_7421" x1="139.995" y1="0" x2="139.995" y2="400" gradientUnits="userSpaceOnUse"> <stop offset="0.546875" stop-color="#7F7E70"></stop> <stop offset="1" stop-color="white"></stop> </linearGradient> <linearGradient id="paint3_linear_356_7421" x1="139.995" y1="0" x2="139.995" y2="400" gradientUnits="userSpaceOnUse"> <stop offset="0.546875" stop-color="#7F7E70"></stop> <stop offset="1" stop-color="white"></stop> </linearGradient> <linearGradient id="paint4_linear_356_7421" x1="139.995" y1="0" x2="139.995" y2="400" gradientUnits="userSpaceOnUse"> <stop offset="0.546875" stop-color="#7F7E70"></stop> <stop offset="1" stop-color="white"></stop> </linearGradient> <linearGradient id="paint5_linear_356_7421" x1="139.995" y1="0" x2="139.995" y2="400" gradientUnits="userSpaceOnUse"> <stop offset="0.546875" stop-color="#7F7E70"></stop> <stop offset="1" stop-color="white"></stop> </linearGradient> <linearGradient id="paint6_linear_356_7421" x1="139.995" y1="0" x2="139.995" y2="400" gradientUnits="userSpaceOnUse"> <stop offset="0.546875" stop-color="#7F7E70"></stop> <stop offset="1" stop-color="white"></stop> </linearGradient> <linearGradient id="paint7_linear_356_7421" x1="139.995" y1="0" x2="139.995" y2="400" gradientUnits="userSpaceOnUse"> <stop offset="0.546875" stop-color="#7F7E70"></stop> <stop offset="1" stop-color="white"></stop> </linearGradient> <linearGradient id="paint8_linear_356_7421" x1="139.995" y1="0" x2="139.995" y2="400" gradientUnits="userSpaceOnUse"> <stop offset="0.546875" stop-color="#7F7E70"></stop> <stop offset="1" stop-color="white"></stop> </linearGradient> <linearGradient id="paint9_linear_356_7421" x1="139.995" y1="0" x2="139.995" y2="400" gradientUnits="userSpaceOnUse"> <stop offset="0.546875" stop-color="#7F7E70"></stop> <stop offset="1" stop-color="white"></stop> </linearGradient> <linearGradient id="paint10_linear_356_7421" x1="139.995" y1="0" x2="139.995" y2="400" gradientUnits="userSpaceOnUse"> <stop offset="0.546875" stop-color="#7F7E70"></stop> <stop offset="1" stop-color="white"></stop> </linearGradient> <linearGradient id="paint11_linear_356_7421" x1="139.995" y1="0" x2="139.995" y2="400" gradientUnits="userSpaceOnUse"> <stop offset="0.546875" stop-color="#7F7E70"></stop> <stop offset="1" stop-color="white"></stop> </linearGradient> <linearGradient id="paint12_linear_356_7421" x1="139.995" y1="0" x2="139.995" y2="400" gradientUnits="userSpaceOnUse"> <stop offset="0.546875" stop-color="#7F7E70"></stop> <stop offset="1" stop-color="white"></stop> </linearGradient> <linearGradient id="paint13_linear_356_7421" x1="139.995" y1="0" x2="139.995" y2="400" gradientUnits="userSpaceOnUse"> <stop offset="0.546875" stop-color="#7F7E70"></stop> <stop offset="1" stop-color="white"></stop> </linearGradient> <linearGradient id="paint14_linear_356_7421" x1="139.995" y1="0" x2="139.995" y2="400" gradientUnits="userSpaceOnUse"> <stop offset="0.546875" stop-color="#7F7E70"></stop> <stop offset="1" stop-color="white"></stop> </linearGradient> <linearGradient id="paint15_linear_356_7421" x1="139.995" y1="0" x2="139.995" y2="400" gradientUnits="userSpaceOnUse"> <stop offset="0.546875" stop-color="#7F7E70"></stop> <stop offset="1" stop-color="white"></stop> </linearGradient> <linearGradient id="paint16_linear_356_7421" x1="139.995" y1="0" x2="139.995" y2="400" gradientUnits="userSpaceOnUse"> <stop offset="0.546875" stop-color="#7F7E70"></stop> <stop offset="1" stop-color="white"></stop> </linearGradient> <linearGradient id="paint17_linear_356_7421" x1="139.995" y1="0" x2="139.995" y2="400" gradientUnits="userSpaceOnUse"> <stop offset="0.546875" stop-color="#7F7E70"></stop> <stop offset="1" stop-color="white"></stop> </linearGradient> <linearGradient id="paint18_linear_356_7421" x1="139.995" y1="0" x2="139.995" y2="400" gradientUnits="userSpaceOnUse"> <stop offset="0.546875" stop-color="#7F7E70"></stop> <stop offset="1" stop-color="white"></stop> </linearGradient> <linearGradient id="paint19_linear_356_7421" x1="139.995" y1="0" x2="139.995" y2="400" gradientUnits="userSpaceOnUse"> <stop offset="0.546875" stop-color="#7F7E70"></stop> <stop offset="1" stop-color="white"></stop> </linearGradient> <linearGradient id="paint20_linear_356_7421" x1="139.995" y1="0" x2="139.995" y2="400" gradientUnits="userSpaceOnUse"> <stop offset="0.546875" stop-color="#7F7E70"></stop> <stop offset="1" stop-color="white"></stop> </linearGradient> <linearGradient id="paint21_linear_356_7421" x1="139.995" y1="0" x2="139.995" y2="400" gradientUnits="userSpaceOnUse"> <stop offset="0.546875" stop-color="#7F7E70"></stop> <stop offset="1" stop-color="white"></stop> </linearGradient> <linearGradient id="paint22_linear_356_7421" x1="139.995" y1="0" x2="139.995" y2="400" gradientUnits="userSpaceOnUse"> <stop offset="0.546875" stop-color="#7F7E70"></stop> <stop offset="1" stop-color="white"></stop> </linearGradient> <linearGradient id="paint23_linear_356_7421" x1="139.995" y1="0" x2="139.995" y2="400" gradientUnits="userSpaceOnUse"> <stop offset="0.546875" stop-color="#7F7E70"></stop> <stop offset="1" stop-color="white"></stop> </linearGradient> <linearGradient id="paint24_linear_356_7421" x1="139.995" y1="0" x2="139.995" y2="400" gradientUnits="userSpaceOnUse"> <stop offset="0.546875" stop-color="#7F7E70"></stop> <stop offset="1" stop-color="white"></stop> </linearGradient> <linearGradient id="paint25_linear_356_7421" x1="139.995" y1="0" x2="139.995" y2="400" gradientUnits="userSpaceOnUse"> <stop offset="0.546875" stop-color="#7F7E70"></stop> <stop offset="1" stop-color="white"></stop> </linearGradient> <linearGradient id="paint26_linear_356_7421" x1="139.995" y1="0" x2="139.995" y2="400" gradientUnits="userSpaceOnUse"> <stop offset="0.546875" stop-color="#7F7E70"></stop> <stop offset="1" stop-color="white"></stop> </linearGradient> <linearGradient id="paint27_linear_356_7421" x1="139.995" y1="0" x2="139.995" y2="400" gradientUnits="userSpaceOnUse"> <stop offset="0.546875" stop-color="#7F7E70"></stop> <stop offset="1" stop-color="white"></stop> </linearGradient> <linearGradient id="paint28_linear_356_7421" x1="139.995" y1="0" x2="139.995" y2="400" gradientUnits="userSpaceOnUse"> <stop offset="0.546875" stop-color="#7F7E70"></stop> <stop offset="1" stop-color="white"></stop> </linearGradient> <linearGradient id="paint29_linear_356_7421" x1="139.995" y1="0" x2="139.995" y2="400" gradientUnits="userSpaceOnUse"> <stop offset="0.546875" stop-color="#7F7E70"></stop> <stop offset="1" stop-color="white"></stop> </linearGradient> <linearGradient id="paint30_linear_356_7421" x1="139.995" y1="0" x2="139.995" y2="400" gradientUnits="userSpaceOnUse"> <stop offset="0.546875" stop-color="#7F7E70"></stop> <stop offset="1" stop-color="white"></stop> </linearGradient> <linearGradient id="paint31_linear_356_7421" x1="139.995" y1="0" x2="139.995" y2="400" gradientUnits="userSpaceOnUse"> <stop offset="0.546875" stop-color="#7F7E70"></stop> <stop offset="1" stop-color="white"></stop> </linearGradient> <linearGradient id="paint32_linear_356_7421" x1="139.995" y1="0" x2="139.995" y2="400" gradientUnits="userSpaceOnUse"> <stop offset="0.546875" stop-color="#7F7E70"></stop> <stop offset="1" stop-color="white"></stop> </linearGradient> <linearGradient id="paint33_linear_356_7421" x1="139.995" y1="0" x2="139.995" y2="400" gradientUnits="userSpaceOnUse"> <stop offset="0.546875" stop-color="#7F7E70"></stop> <stop offset="1" stop-color="white"></stop> </linearGradient> <linearGradient id="paint34_linear_356_7421" x1="139.995" y1="0" x2="139.995" y2="400" gradientUnits="userSpaceOnUse"> <stop offset="0.546875" stop-color="#7F7E70"></stop> <stop offset="1" stop-color="white"></stop> </linearGradient> <linearGradient id="paint35_linear_356_7421" x1="139.995" y1="0" x2="139.995" y2="400" gradientUnits="userSpaceOnUse"> <stop offset="0.546875" stop-color="#7F7E70"></stop> <stop offset="1" stop-color="white"></stop> </linearGradient> <linearGradient id="paint36_linear_356_7421" x1="139.995" y1="0" x2="139.995" y2="400" gradientUnits="userSpaceOnUse"> <stop offset="0.546875" stop-color="#7F7E70"></stop> <stop offset="1" stop-color="white"></stop> </linearGradient> <linearGradient id="paint37_linear_356_7421" x1="139.995" y1="0" x2="139.995" y2="400" gradientUnits="userSpaceOnUse"> <stop offset="0.546875" stop-color="#7F7E70"></stop> <stop offset="1" stop-color="white"></stop> </linearGradient> <linearGradient id="paint38_linear_356_7421" x1="139.995" y1="0" x2="139.995" y2="400" gradientUnits="userSpaceOnUse"> <stop offset="0.546875" stop-color="#7F7E70"></stop> <stop offset="1" stop-color="white"></stop> </linearGradient> <linearGradient id="paint39_linear_356_7421" x1="139.995" y1="0" x2="139.995" y2="400" gradientUnits="userSpaceOnUse"> <stop offset="0.546875" stop-color="#7F7E70"></stop> <stop offset="1" stop-color="white"></stop> </linearGradient> <linearGradient id="paint40_linear_356_7421" x1="139.995" y1="0" x2="139.995" y2="400" gradientUnits="userSpaceOnUse"> <stop offset="0.546875" stop-color="#7F7E70"></stop> <stop offset="1" stop-color="white"></stop> </linearGradient> <linearGradient id="paint41_linear_356_7421" x1="139.995" y1="0" x2="139.995" y2="400" gradientUnits="userSpaceOnUse"> <stop offset="0.546875" stop-color="#7F7E70"></stop> <stop offset="1" stop-color="white"></stop> </linearGradient> <linearGradient id="paint42_linear_356_7421" x1="139.995" y1="0" x2="139.995" y2="400" gradientUnits="userSpaceOnUse"> <stop offset="0.546875" stop-color="#7F7E70"></stop> <stop offset="1" stop-color="white"></stop> </linearGradient> <linearGradient id="paint43_linear_356_7421" x1="139.995" y1="0" x2="139.995" y2="400" gradientUnits="userSpaceOnUse"> <stop offset="0.546875" stop-color="#7F7E70"></stop> <stop offset="1" stop-color="white"></stop> </linearGradient> <linearGradient id="paint44_linear_356_7421" x1="139.995" y1="0" x2="139.995" y2="400" gradientUnits="userSpaceOnUse"> <stop offset="0.546875" stop-color="#7F7E70"></stop> <stop offset="1" stop-color="white"></stop> </linearGradient> <linearGradient id="paint45_linear_356_7421" x1="139.995" y1="0" x2="139.995" y2="400" gradientUnits="userSpaceOnUse"> <stop offset="0.546875" stop-color="#7F7E70"></stop> <stop offset="1" stop-color="white"></stop> </linearGradient> <linearGradient id="paint46_linear_356_7421" x1="139.995" y1="0" x2="139.995" y2="400" gradientUnits="userSpaceOnUse"> <stop offset="0.546875" stop-color="#7F7E70"></stop> <stop offset="1" stop-color="white"></stop> </linearGradient> <linearGradient id="paint47_linear_356_7421" x1="139.995" y1="0" x2="139.995" y2="400" gradientUnits="userSpaceOnUse"> <stop offset="0.546875" stop-color="#7F7E70"></stop> <stop offset="1" stop-color="white"></stop> </linearGradient> <linearGradient id="paint48_linear_356_7421" x1="139.995" y1="0" x2="139.995" y2="400" gradientUnits="userSpaceOnUse"> <stop offset="0.546875" stop-color="#7F7E70"></stop> <stop offset="1" stop-color="white"></stop> </linearGradient> <linearGradient id="paint49_linear_356_7421" x1="139.995" y1="0" x2="139.995" y2="400" gradientUnits="userSpaceOnUse"> <stop offset="0.546875" stop-color="#7F7E70"></stop> <stop offset="1" stop-color="white"></stop> </linearGradient> <linearGradient id="paint50_linear_356_7421" x1="139.995" y1="0" x2="139.995" y2="400" gradientUnits="userSpaceOnUse"> <stop offset="0.546875" stop-color="#7F7E70"></stop> <stop offset="1" stop-color="white"></stop> </linearGradient> <linearGradient id="paint51_linear_356_7421" x1="139.995" y1="0" x2="139.995" y2="400" gradientUnits="userSpaceOnUse"> <stop offset="0.546875" stop-color="#7F7E70"></stop> <stop offset="1" stop-color="white"></stop> </linearGradient> <linearGradient id="paint52_linear_356_7421" x1="139.995" y1="0" x2="139.995" y2="400" gradientUnits="userSpaceOnUse"> <stop offset="0.546875" stop-color="#7F7E70"></stop> <stop offset="1" stop-color="white"></stop> </linearGradient> <linearGradient id="paint53_linear_356_7421" x1="139.995" y1="0" x2="139.995" y2="400" gradientUnits="userSpaceOnUse"> <stop offset="0.546875" stop-color="#7F7E70"></stop> <stop offset="1" stop-color="white"></stop> </linearGradient> <linearGradient id="paint54_linear_356_7421" x1="139.995" y1="0" x2="139.995" y2="400" gradientUnits="userSpaceOnUse"> <stop offset="0.546875" stop-color="#7F7E70"></stop> <stop offset="1" stop-color="white"></stop> </linearGradient> <linearGradient id="paint55_linear_356_7421" x1="139.995" y1="0" x2="139.995" y2="400" gradientUnits="userSpaceOnUse"> <stop offset="0.546875" stop-color="#7F7E70"></stop> <stop offset="1" stop-color="white"></stop> </linearGradient> <linearGradient id="paint56_linear_356_7421" x1="139.995" y1="0" x2="139.995" y2="400" gradientUnits="userSpaceOnUse"> <stop offset="0.546875" stop-color="#7F7E70"></stop> <stop offset="1" stop-color="white"></stop> </linearGradient> <linearGradient id="paint57_linear_356_7421" x1="139.995" y1="0" x2="139.995" y2="400" gradientUnits="userSpaceOnUse"> <stop offset="0.546875" stop-color="#7F7E70"></stop> <stop offset="1" stop-color="white"></stop> </linearGradient> <linearGradient id="paint58_linear_356_7421" x1="139.995" y1="0" x2="139.995" y2="400" gradientUnits="userSpaceOnUse"> <stop offset="0.546875" stop-color="#7F7E70"></stop> <stop offset="1" stop-color="white"></stop> </linearGradient> <linearGradient id="paint59_linear_356_7421" x1="139.995" y1="0" x2="139.995" y2="400" gradientUnits="userSpaceOnUse"> <stop offset="0.546875" stop-color="#7F7E70"></stop> <stop offset="1" stop-color="white"></stop> </linearGradient> <linearGradient id="paint60_linear_356_7421" x1="139.995" y1="0" x2="139.995" y2="400" gradientUnits="userSpaceOnUse"> <stop offset="0.546875" stop-color="#7F7E70"></stop> <stop offset="1" stop-color="white"></stop> </linearGradient> <linearGradient id="paint61_linear_356_7421" x1="139.995" y1="0" x2="139.995" y2="400" gradientUnits="userSpaceOnUse"> <stop offset="0.546875" stop-color="#7F7E70"></stop> <stop offset="1" stop-color="white"></stop> </linearGradient> <linearGradient id="paint62_linear_356_7421" x1="139.995" y1="0" x2="139.995" y2="400" gradientUnits="userSpaceOnUse"> <stop offset="0.546875" stop-color="#7F7E70"></stop> <stop offset="1" stop-color="white"></stop> </linearGradient> <linearGradient id="paint63_linear_356_7421" x1="139.995" y1="0" x2="139.995" y2="400" gradientUnits="userSpaceOnUse"> <stop offset="0.546875" stop-color="#7F7E70"></stop> <stop offset="1" stop-color="white"></stop> </linearGradient> <linearGradient id="paint64_linear_356_7421" x1="139.995" y1="0" x2="139.995" y2="400" gradientUnits="userSpaceOnUse"> <stop offset="0.546875" stop-color="#7F7E70"></stop> <stop offset="1" stop-color="white"></stop> </linearGradient> <linearGradient id="paint65_linear_356_7421" x1="139.995" y1="0" x2="139.995" y2="400" gradientUnits="userSpaceOnUse"> <stop offset="0.546875" stop-color="#7F7E70"></stop> <stop offset="1" stop-color="white"></stop> </linearGradient> <linearGradient id="paint66_linear_356_7421" x1="139.995" y1="0" x2="139.995" y2="400" gradientUnits="userSpaceOnUse"> <stop offset="0.546875" stop-color="#7F7E70"></stop> <stop offset="1" stop-color="white"></stop> </linearGradient> <linearGradient id="paint67_linear_356_7421" x1="139.995" y1="0" x2="139.995" y2="400" gradientUnits="userSpaceOnUse"> <stop offset="0.546875" stop-color="#7F7E70"></stop> <stop offset="1" stop-color="white"></stop> </linearGradient> <linearGradient id="paint68_linear_356_7421" x1="139.995" y1="0" x2="139.995" y2="400" gradientUnits="userSpaceOnUse"> <stop offset="0.546875" stop-color="#7F7E70"></stop> <stop offset="1" stop-color="white"></stop> </linearGradient> <linearGradient id="paint69_linear_356_7421" x1="139.995" y1="0" x2="139.995" y2="400" gradientUnits="userSpaceOnUse"> <stop offset="0.546875" stop-color="#7F7E70"></stop> <stop offset="1" stop-color="white"></stop> </linearGradient> <linearGradient id="paint70_linear_356_7421" x1="139.995" y1="0" x2="139.995" y2="400" gradientUnits="userSpaceOnUse"> <stop offset="0.546875" stop-color="#7F7E70"></stop> <stop offset="1" stop-color="white"></stop> </linearGradient> <linearGradient id="paint71_linear_356_7421" x1="139.995" y1="0" x2="139.995" y2="400" gradientUnits="userSpaceOnUse"> <stop offset="0.546875" stop-color="#7F7E70"></stop> <stop offset="1" stop-color="white"></stop> </linearGradient> <linearGradient id="paint72_linear_356_7421" x1="139.995" y1="0" x2="139.995" y2="400" gradientUnits="userSpaceOnUse"> <stop offset="0.546875" stop-color="#7F7E70"></stop> <stop offset="1" stop-color="white"></stop> </linearGradient> <linearGradient id="paint73_linear_356_7421" x1="139.995" y1="0" x2="139.995" y2="400" gradientUnits="userSpaceOnUse"> <stop offset="0.546875" stop-color="#7F7E70"></stop> <stop offset="1" stop-color="white"></stop> </linearGradient> <linearGradient id="paint74_linear_356_7421" x1="139.995" y1="0" x2="139.995" y2="400" gradientUnits="userSpaceOnUse"> <stop offset="0.546875" stop-color="#7F7E70"></stop> <stop offset="1" stop-color="white"></stop> </linearGradient> <linearGradient id="paint75_linear_356_7421" x1="139.995" y1="0" x2="139.995" y2="400" gradientUnits="userSpaceOnUse"> <stop offset="0.546875" stop-color="#7F7E70"></stop> <stop offset="1" stop-color="white"></stop> </linearGradient> <linearGradient id="paint76_linear_356_7421" x1="139.995" y1="0" x2="139.995" y2="400" gradientUnits="userSpaceOnUse"> <stop offset="0.546875" stop-color="#7F7E70"></stop> <stop offset="1" stop-color="white"></stop> </linearGradient> <linearGradient id="paint77_linear_356_7421" x1="139.995" y1="0" x2="139.995" y2="400" gradientUnits="userSpaceOnUse"> <stop offset="0.546875" stop-color="#7F7E70"></stop> <stop offset="1" stop-color="white"></stop> </linearGradient> <linearGradient id="paint78_linear_356_7421" x1="139.995" y1="0" x2="139.995" y2="400" gradientUnits="userSpaceOnUse"> <stop offset="0.546875" stop-color="#7F7E70"></stop> <stop offset="1" stop-color="white"></stop> </linearGradient> <linearGradient id="paint79_linear_356_7421" x1="139.995" y1="0" x2="139.995" y2="400" gradientUnits="userSpaceOnUse"> <stop offset="0.546875" stop-color="#7F7E70"></stop> <stop offset="1" stop-color="white"></stop> </linearGradient> <linearGradient id="paint80_linear_356_7421" x1="139.995" y1="0" x2="139.995" y2="400" gradientUnits="userSpaceOnUse"> <stop offset="0.546875" stop-color="#7F7E70"></stop> <stop offset="1" stop-color="white"></stop> </linearGradient> <linearGradient id="paint81_linear_356_7421" x1="139.995" y1="0" x2="139.995" y2="400" gradientUnits="userSpaceOnUse"> <stop offset="0.546875" stop-color="#7F7E70"></stop> <stop offset="1" stop-color="white"></stop> </linearGradient> <linearGradient id="paint82_linear_356_7421" x1="139.995" y1="0" x2="139.995" y2="400" gradientUnits="userSpaceOnUse"> <stop offset="0.546875" stop-color="#7F7E70"></stop> <stop offset="1" stop-color="white"></stop> </linearGradient> <linearGradient id="paint83_linear_356_7421" x1="139.995" y1="0" x2="139.995" y2="400" gradientUnits="userSpaceOnUse"> <stop offset="0.546875" stop-color="#7F7E70"></stop> <stop offset="1" stop-color="white"></stop> </linearGradient> <linearGradient id="paint84_linear_356_7421" x1="139.995" y1="0" x2="139.995" y2="400" gradientUnits="userSpaceOnUse"> <stop offset="0.546875" stop-color="#7F7E70"></stop> <stop offset="1" stop-color="white"></stop> </linearGradient> <linearGradient id="paint85_linear_356_7421" x1="139.995" y1="0" x2="139.995" y2="400" gradientUnits="userSpaceOnUse"> <stop offset="0.546875" stop-color="#7F7E70"></stop> <stop offset="1" stop-color="white"></stop> </linearGradient> <linearGradient id="paint86_linear_356_7421" x1="139.995" y1="0" x2="139.995" y2="400" gradientUnits="userSpaceOnUse"> <stop offset="0.546875" stop-color="#7F7E70"></stop> <stop offset="1" stop-color="white"></stop> </linearGradient> <linearGradient id="paint87_linear_356_7421" x1="139.995" y1="0" x2="139.995" y2="400" gradientUnits="userSpaceOnUse"> <stop offset="0.546875" stop-color="#7F7E70"></stop> <stop offset="1" stop-color="white"></stop> </linearGradient> <linearGradient id="paint88_linear_356_7421" x1="139.995" y1="0" x2="139.995" y2="400" gradientUnits="userSpaceOnUse"> <stop offset="0.546875" stop-color="#7F7E70"></stop> <stop offset="1" stop-color="white"></stop> </linearGradient> <linearGradient id="paint89_linear_356_7421" x1="139.995" y1="0" x2="139.995" y2="400" gradientUnits="userSpaceOnUse"> <stop offset="0.546875" stop-color="#7F7E70"></stop> <stop offset="1" stop-color="white"></stop> </linearGradient> <linearGradient id="paint90_linear_356_7421" x1="139.995" y1="0" x2="139.995" y2="400" gradientUnits="userSpaceOnUse"> <stop offset="0.546875" stop-color="#7F7E70"></stop> <stop offset="1" stop-color="white"></stop> </linearGradient> <linearGradient id="paint91_linear_356_7421" x1="139.995" y1="0" x2="139.995" y2="400" gradientUnits="userSpaceOnUse"> <stop offset="0.546875" stop-color="#7F7E70"></stop> <stop offset="1" stop-color="white"></stop> </linearGradient> <linearGradient id="paint92_linear_356_7421" x1="139.995" y1="0" x2="139.995" y2="400" gradientUnits="userSpaceOnUse"> <stop offset="0.546875" stop-color="#7F7E70"></stop> <stop offset="1" stop-color="white"></stop> </linearGradient> <linearGradient id="paint93_linear_356_7421" x1="139.995" y1="0" x2="139.995" y2="400" gradientUnits="userSpaceOnUse"> <stop offset="0.546875" stop-color="#7F7E70"></stop> <stop offset="1" stop-color="white"></stop> </linearGradient> <linearGradient id="paint94_linear_356_7421" x1="139.995" y1="0" x2="139.995" y2="400" gradientUnits="userSpaceOnUse"> <stop offset="0.546875" stop-color="#7F7E70"></stop> <stop offset="1" stop-color="white"></stop> </linearGradient> <linearGradient id="paint95_linear_356_7421" x1="139.995" y1="0" x2="139.995" y2="400" gradientUnits="userSpaceOnUse"> <stop offset="0.546875" stop-color="#7F7E70"></stop> <stop offset="1" stop-color="white"></stop> </linearGradient> <linearGradient id="paint96_linear_356_7421" x1="139.995" y1="0" x2="139.995" y2="400" gradientUnits="userSpaceOnUse"> <stop offset="0.546875" stop-color="#7F7E70"></stop> <stop offset="1" stop-color="white"></stop> </linearGradient> <linearGradient id="paint97_linear_356_7421" x1="139.995" y1="0" x2="139.995" y2="400" gradientUnits="userSpaceOnUse"> <stop offset="0.546875" stop-color="#7F7E70"></stop> <stop offset="1" stop-color="white"></stop> </linearGradient> <linearGradient id="paint98_linear_356_7421" x1="139.995" y1="0" x2="139.995" y2="400" gradientUnits="userSpaceOnUse"> <stop offset="0.546875" stop-color="#7F7E70"></stop> <stop offset="1" stop-color="white"></stop> </linearGradient> <linearGradient id="paint99_linear_356_7421" x1="139.995" y1="0" x2="139.995" y2="400" gradientUnits="userSpaceOnUse"> <stop offset="0.546875" stop-color="#7F7E70"></stop> <stop offset="1" stop-color="white"></stop> </linearGradient> <linearGradient id="paint100_linear_356_7421" x1="139.995" y1="0" x2="139.995" y2="400" gradientUnits="userSpaceOnUse"> <stop offset="0.546875" stop-color="#7F7E70"></stop> <stop offset="1" stop-color="white"></stop> </linearGradient> <linearGradient id="paint101_linear_356_7421" x1="139.995" y1="0" x2="139.995" y2="400" gradientUnits="userSpaceOnUse"> <stop offset="0.546875" stop-color="#7F7E70"></stop> <stop offset="1" stop-color="white"></stop> </linearGradient> <linearGradient id="paint102_linear_356_7421" x1="139.995" y1="0" x2="139.995" y2="400" gradientUnits="userSpaceOnUse"> <stop offset="0.546875" stop-color="#7F7E70"></stop> <stop offset="1" stop-color="white"></stop> </linearGradient> <linearGradient id="paint103_linear_356_7421" x1="139.995" y1="0" x2="139.995" y2="400" gradientUnits="userSpaceOnUse"> <stop offset="0.546875" stop-color="#7F7E70"></stop> <stop offset="1" stop-color="white"></stop> </linearGradient> <linearGradient id="paint104_linear_356_7421" x1="139.995" y1="0" x2="139.995" y2="400" gradientUnits="userSpaceOnUse"> <stop offset="0.546875" stop-color="#7F7E70"></stop> <stop offset="1" stop-color="white"></stop> </linearGradient> </defs> </svg> 