<?xml version="1.0" encoding="UTF-8"?> <svg xmlns="http://www.w3.org/2000/svg" xmlns:xlink="http://www.w3.org/1999/xlink" xmlns:svgjs="http://svgjs.com/svgjs" width="200" height="200"> <svg xmlns="http://www.w3.org/2000/svg" width="200" height="200" viewBox="0 0 200 200" fill="none"> <path d="M45.624 139.1H7V62.704H45.34V76.336C48.748 72.928 60.108 61 83.254 61H84.106C101.856 61 111.086 68.526 115.63 76.762C121.736 71.082 134.374 61 155.674 61H156.668C183.932 61 192.026 78.04 192.026 89.968V139.1H153.402V102.464C153.402 92.666 149.284 84.998 137.64 84.998C125.57 84.998 118.896 93.092 118.896 103.458V139.1H80.13V102.464C80.13 92.666 76.012 84.998 64.368 84.998C52.298 84.998 45.624 93.092 45.624 103.458V139.1Z" fill="white"></path> </svg> <style>@media (prefers-color-scheme: light) { :root { filter: contrast(1) brightness(0.1); } } @media (prefers-color-scheme: dark) { :root { filter: contrast(0.8333333333333334) brightness(1.7); } } </style> </svg> 